<svg xmlns="http://www.w3.org/2000/svg" xmlns:xlink="http://www.w3.org/1999/xlink" viewBox="0 0 745 605">
  <defs>
    <clipPath id="clip-path">
      <path d="M736,152.5V23.555A21.448,21.448,0,0,0,714.552,2.107H145.861c-18.769,0-28.485,22.4-15.658,36.106L338.832,261.066a21.45,21.45,0,0,0,21.07,6.1l360.063-93.911A21.448,21.448,0,0,0,736,152.5Z" fill="none"/>
    </clipPath>
    <clipPath id="clip-path-2">
      <path d="M8,404.742v134.14A31.618,31.618,0,0,0,39.618,570.5H493.183c27.669,0,41.992-33.028,23.082-53.227l-189.946-202.9a31.617,31.617,0,0,0-31.062-8.986L31.638,374.147A31.619,31.619,0,0,0,8,404.742Z" fill="none"/>
    </clipPath>
    <clipPath id="clip-path-3">
      <rect x="5.808" y="210.349" width="461.805" height="440.383" fill="none"/>
    </clipPath>
    <linearGradient id="linear-gradient" x1="446.583" y1="722.544" x2="775.453" y2="1056.552" gradientTransform="translate(-147.104 -696.423) rotate(20.871)" gradientUnits="userSpaceOnUse">
      <stop offset="0.296" stop-color="#ffe896"/>
      <stop offset="0.359" stop-color="#ffe999" stop-opacity="0.975"/>
      <stop offset="0.448" stop-color="#ffeaa0" stop-opacity="0.903"/>
      <stop offset="0.552" stop-color="#ffedad" stop-opacity="0.786"/>
      <stop offset="0.668" stop-color="#fff1be" stop-opacity="0.622"/>
      <stop offset="0.793" stop-color="#fff6d4" stop-opacity="0.412"/>
      <stop offset="0.924" stop-color="#fffbee" stop-opacity="0.16"/>
      <stop offset="1" stop-color="#fff" stop-opacity="0"/>
    </linearGradient>
    <linearGradient id="linear-gradient-2" x1="3460.524" y1="-294.768" x2="3687.282" y2="-64.467" gradientTransform="matrix(-0.919, 0.393, 0.393, 0.919, 3754.316, -877.572)" gradientUnits="userSpaceOnUse">
      <stop offset="0" stop-color="#2194f4"/>
      <stop offset="0.822" stop-color="#fff" stop-opacity="0"/>
    </linearGradient>
    <clipPath id="clip-path-4">
      <rect x="396.433" y="-411.481" width="303.567" height="303.567" rx="24.72" ry="24.72" fill="none"/>
    </clipPath>
    <clipPath id="clip-path-5">
      <path d="M47.145,6.5H22.081A16.081,16.081,0,0,0,6,22.581V333.632a16.081,16.081,0,0,0,20.139,15.561L284.3,281.6a16.082,16.082,0,0,0,7.681-26.551L67.605,15.373A28.024,28.024,0,0,0,47.145,6.5Z" fill="none"/>
    </clipPath>
    <linearGradient id="linear-gradient-3" x1="140.019" y1="174.757" x2="140.019" y2="242.882" gradientUnits="userSpaceOnUse">
      <stop offset="0" stop-color="#2194f4" stop-opacity="0.5"/>
      <stop offset="1" stop-color="#2194f4" stop-opacity="0"/>
    </linearGradient>
    <linearGradient id="linear-gradient-4" x1="139.271" y1="193.944" x2="139.271" y2="262.07" xlink:href="#linear-gradient-3"/>
    <linearGradient id="linear-gradient-5" x1="231.596" y1="174.757" x2="231.596" y2="242.882" xlink:href="#linear-gradient-3"/>
    <linearGradient id="linear-gradient-6" x1="230.849" y1="193.944" x2="230.849" y2="262.07" xlink:href="#linear-gradient-3"/>
  </defs>
  <title>services</title>
  <g style="isolation: isolate">
    <g id="Layer_1" data-name="Layer 1">
      <g clip-path="url(#clip-path)">
        <g>
          <rect x="67" y="-27.5" width="714" height="376" fill="#7cc94f"/>
          <rect x="279.241" y="-9.947" width="333.504" height="157.975" rx="11.181" ry="11.181" fill="#383838" opacity="0.2"/>
          <path d="M338.366,114.77H515.742a0,0,0,0,1,0,0v98.809A38.842,38.842,0,0,1,476.9,252.421H377.208a38.842,38.842,0,0,1-38.842-38.842V114.77A0,0,0,0,1,338.366,114.77Z" fill="#383838" opacity="0.2"/>
          <path d="M371.624,117.542H549a0,0,0,0,1,0,0v98.809a38.842,38.842,0,0,1-38.842,38.842H410.466a38.842,38.842,0,0,1-38.842-38.842V117.542A0,0,0,0,1,371.624,117.542Z" fill="#383838"/>
          <path d="M416.025,97.553h35.214a0,0,0,0,1,0,0v63.355a17.607,17.607,0,0,1-17.607,17.607h0a17.607,17.607,0,0,1-17.607-17.607V97.553a0,0,0,0,1,0,0Z" transform="translate(885.036 195.695) rotate(169.622)" fill="#64bdff"/>
          <path d="M484.552,97.553h0a17.607,17.607,0,0,1,17.607,17.607v63.355a0,0,0,0,1,0,0H466.945a0,0,0,0,1,0,0V115.16a17.607,17.607,0,0,1,17.607-17.607Z" transform="translate(32.792 -85.029) rotate(10.378)" fill="#64bdff"/>
          <rect x="294.946" y="-19.404" width="333.504" height="172.975" rx="11.181" ry="11.181" fill="#d5dbde"/>
          <rect x="387.329" y="86.131" width="126.565" height="59.125" rx="6.362" ry="6.362" opacity="0.15"/>
          <path d="M391.025,245.523a109.512,109.512,0,0,0,136.727,0" fill="none" stroke="#515151" stroke-linecap="round" stroke-miterlimit="10" stroke-width="22.818"/>
          <path d="M406.73,169.548H511.123a0,0,0,0,1,0,0v29.918a36.6,36.6,0,0,1-36.6,36.6h-31.2a36.6,36.6,0,0,1-36.6-36.6V169.548A0,0,0,0,1,406.73,169.548Z" transform="translate(917.853 405.612) rotate(180)" fill="#ea5334"/>
          <rect x="394.72" y="80.588" width="126.565" height="59.125" rx="6.362" ry="6.362" fill="#edf6fd"/>
          <rect x="403.034" y="88.903" width="9.238" height="9.238" rx="0.935" ry="0.935" fill="#dfe8ef"/>
          <rect x="417.42" y="88.903" width="9.238" height="9.238" rx="0.935" ry="0.935" fill="#dfe8ef"/>
          <rect x="431.805" y="88.903" width="9.238" height="9.238" rx="0.935" ry="0.935" fill="#dfe8ef"/>
          <rect x="446.191" y="88.903" width="9.238" height="9.238" rx="0.935" ry="0.935" fill="#dfe8ef"/>
          <rect x="460.576" y="88.903" width="9.238" height="9.238" rx="0.935" ry="0.935" fill="#dfe8ef"/>
          <rect x="474.961" y="88.903" width="9.238" height="9.238" rx="0.935" ry="0.935" fill="#dfe8ef"/>
          <rect x="489.347" y="88.903" width="9.238" height="9.238" rx="0.935" ry="0.935" fill="#dfe8ef"/>
          <rect x="503.732" y="88.903" width="9.238" height="9.238" rx="0.935" ry="0.935" fill="#dfe8ef"/>
          <rect x="403.034" y="105.532" width="9.238" height="9.238" rx="0.935" ry="0.935" fill="#dfe8ef"/>
          <rect x="417.42" y="105.532" width="9.238" height="9.238" rx="0.935" ry="0.935" fill="#dfe8ef"/>
          <rect x="431.805" y="105.532" width="9.238" height="9.238" rx="0.935" ry="0.935" fill="#dfe8ef"/>
          <rect x="446.191" y="105.532" width="9.238" height="9.238" rx="0.935" ry="0.935" fill="#dfe8ef"/>
          <rect x="460.576" y="105.532" width="9.238" height="9.238" rx="0.935" ry="0.935" fill="#dfe8ef"/>
          <rect x="474.961" y="105.532" width="9.238" height="9.238" rx="0.935" ry="0.935" fill="#dfe8ef"/>
          <rect x="489.347" y="105.532" width="9.238" height="9.238" rx="0.935" ry="0.935" fill="#dfe8ef"/>
          <rect x="503.732" y="105.532" width="9.238" height="9.238" rx="0.935" ry="0.935" fill="#dfe8ef"/>
          <g>
            <rect x="403.034" y="122.161" width="9.238" height="9.238" rx="0.935" ry="0.935" fill="#dfe8ef"/>
            <rect x="417.42" y="122.161" width="9.238" height="9.238" rx="0.935" ry="0.935" fill="#dfe8ef"/>
            <rect x="431.673" y="122.161" width="52.658" height="9.238" rx="0.935" ry="0.935" fill="#dfe8ef"/>
            <rect x="489.347" y="122.161" width="9.238" height="9.238" rx="0.935" ry="0.935" fill="#dfe8ef"/>
            <rect x="503.732" y="122.161" width="9.238" height="9.238" rx="0.935" ry="0.935" fill="#dfe8ef"/>
          </g>
          <rect x="394.72" y="14.996" width="124.717" height="65.592" rx="4.868" ry="4.868" fill="#383838"/>
          <rect x="403.034" y="23.311" width="109.012" height="48.039" fill="#fff"/>
          <rect x="403.034" y="23.311" width="24.02" height="48.039" fill="#efefef"/>
          <rect x="403.034" y="23.311" width="109.012" height="8.314" fill="#75d85d"/>
          <path d="M500.037,99.337h23.1a0,0,0,0,1,0,0v86.378a11.548,11.548,0,0,1-11.548,11.548h0a11.548,11.548,0,0,1-11.548-11.548V99.337a0,0,0,0,1,0,0Z" transform="translate(1023.17 296.599) rotate(-180)" fill="#ffc1b0"/>
          <path d="M392.872,99.337h23.1a0,0,0,0,1,0,0v86.378a11.548,11.548,0,0,1-11.548,11.548h0a11.548,11.548,0,0,1-11.548-11.548V99.337A0,0,0,0,1,392.872,99.337Z" transform="translate(808.84 296.599) rotate(-180)" fill="#ffc1b0"/>
          <path d="M507.428,176.939h0a20.324,20.324,0,0,1,20.324,20.324v38.8a0,0,0,0,1,0,0H487.1a0,0,0,0,1,0,0v-38.8A20.324,20.324,0,0,1,507.428,176.939Z" transform="translate(1014.855 413.002) rotate(180)" fill="#ea5334"/>
          <path d="M406.73,176.939h0a20.324,20.324,0,0,1,20.324,20.324v38.8a0,0,0,0,1,0,0H386.405a0,0,0,0,1,0,0v-38.8A20.324,20.324,0,0,1,406.73,176.939Z" transform="translate(813.46 413.002) rotate(180)" fill="#ea5334"/>
          <circle cx="459.388" cy="183.405" r="6.467" fill="#ffc1b0"/>
          <g>
            <path d="M499.575,218.375H506.5a0,0,0,0,1,0,0v13.857a0,0,0,0,1,0,0h-6.929a6.929,6.929,0,0,1-6.929-6.929v0A6.929,6.929,0,0,1,499.575,218.375Z" transform="translate(999.15 450.608) rotate(180)" fill="#ffc1b0"/>
            <path d="M419.2,218.375h6.929a0,0,0,0,1,0,0v13.857a0,0,0,0,1,0,0H419.2a6.929,6.929,0,0,1-6.929-6.929v0A6.929,6.929,0,0,1,419.2,218.375Z" fill="#ffc1b0"/>
          </g>
          <path d="M435.969,264.255h0a94.51,94.51,0,0,0,46.838,0h0a21.679,21.679,0,0,0,16.306-21V223.13a39.725,39.725,0,0,0-39.725-39.725h0a39.726,39.726,0,0,0-39.725,39.725v20.123A21.68,21.68,0,0,0,435.969,264.255Z" fill="#8c423b"/>
          <path d="M483.534,191.594a39.54,39.54,0,0,1,8.188,24.145v20.123a21.678,21.678,0,0,1-16.305,21h0a94.487,94.487,0,0,1-46.838,0h0a21.612,21.612,0,0,1-5.8-2.441,21.646,21.646,0,0,0,13.186,9.832h0a94.51,94.51,0,0,0,46.838,0h0a21.679,21.679,0,0,0,16.306-21V223.13A39.651,39.651,0,0,0,483.534,191.594Z" fill="#a3514d"/>
          <line x1="409.963" y1="127.242" x2="420.125" y2="118.004" fill="none" stroke="#ffc1b0" stroke-linecap="round" stroke-miterlimit="10" stroke-width="7.391"/>
          <line x1="506.042" y1="127.242" x2="495.88" y2="118.004" fill="none" stroke="#ffc1b0" stroke-linecap="round" stroke-miterlimit="10" stroke-width="7.391"/>
          <g>
            <rect x="568.401" y="27.93" width="44.344" height="58.201" rx="2.337" ry="2.337" opacity="0.2"/>
            <rect x="574.867" y="22.387" width="44.344" height="58.201" rx="2.337" ry="2.337" fill="#816056"/>
            <rect x="587.801" y="40.864" width="18.477" height="6.467" fill="#a0776d"/>
          </g>
          <circle cx="349.56" cy="103.91" r="15.575" fill="#383838" opacity="0.2"/>
          <g>
            <path d="M368.733,90.3h8.826a2.6,2.6,0,0,1,2.6,2.6v0a2.6,2.6,0,0,1-2.6,2.6h-8.826a0,0,0,0,1,0,0V90.3a0,0,0,0,1,0,0Z" transform="translate(-7.992 143.68) rotate(-21.497)" fill="#dfe8ef"/>
            <circle cx="355.414" cy="99.828" r="15.575" fill="#edf6fd"/>
            <circle cx="355.414" cy="99.828" r="11.422" fill="#816056"/>
          </g>
          <rect x="445.531" y="60.264" width="18.969" height="6.323" rx="1.598" ry="1.598" fill="#75d85d"/>
          <rect x="467.21" y="60.264" width="18.969" height="6.323" rx="1.598" ry="1.598" fill="#ea5334"/>
          <rect x="445.531" y="39.016" width="40.649" height="10.162" fill="#efefef"/>
          <rect x="445.531" y="52.873" width="26.791" height="3.695" fill="#efefef"/>
          <path d="M575.177,101.131h0a45.767,45.767,0,0,0-25.149-8.512h0a2.771,2.771,0,0,0-2.715,1.881l-12.6,37.233a2.772,2.772,0,0,0,1.013,3.143h0a45.782,45.782,0,0,0,25.15,8.513,2.771,2.771,0,0,0,2.714-1.882l12.6-37.233A2.771,2.771,0,0,0,575.177,101.131Z" opacity="0.2"/>
          <g>
            <path d="M566.417,142.465h0a45.776,45.776,0,0,1-25.149-8.513h0a2.771,2.771,0,0,1-1.014-3.143l12.6-37.233a2.773,2.773,0,0,1,2.715-1.881h0a45.767,45.767,0,0,1,25.149,8.512h0a2.771,2.771,0,0,1,1.014,3.143l-12.6,37.233A2.771,2.771,0,0,1,566.417,142.465Z" fill="#292b2d"/>
            <rect x="548.968" y="101.837" width="24.052" height="30.486" rx="0.924" ry="0.924" transform="translate(67.151 -173.679) rotate(18.7)" fill="#398aff"/>
            <circle cx="554.713" cy="135.637" r="0.987" fill="#ffd664"/>
            <path d="M560.731,98.329h12.6a.909.909,0,0,1,.909.909v0a.909.909,0,0,1-.909.909h-12.6a.909.909,0,0,1-.909-.909v0a.91.91,0,0,1,.91-.91Z" transform="translate(61.749 -176.557) rotate(18.7)" fill="#ffd664"/>
          </g>
        </g>
      </g>
      <g clip-path="url(#clip-path-2)">
        <g>
          <rect x="-79.649" y="198.687" width="897.409" height="487.635" fill="#7cc94f"/>
          <g clip-path="url(#clip-path-3)">
            <g>
              <g>
                <polygon points="22.073 257.93 -65.085 688.325 467.218 445.878 60.955 246.87 22.073 257.93" fill="url(#linear-gradient)" style="mix-blend-mode: overlay"/>
                <g>
                  <g>
                    <path d="M31.2,217.158h0A14.139,14.139,0,0,1,45.339,231.3v22.594a0,0,0,0,1,0,0H17.06a0,0,0,0,1,0,0V231.3A14.139,14.139,0,0,1,31.2,217.158Z" transform="translate(-93.554 33.332) rotate(-24.129)" fill="#1e1e1e"/>
                    <line x1="22.785" y1="259.419" x2="54.409" y2="245.253" fill="#1e1e1e" stroke="#1e1e1e" stroke-linecap="round" stroke-miterlimit="10" stroke-width="5.656"/>
                  </g>
                  <line x1="21.49" y1="259.999" x2="14.076" y2="279.962" fill="#1e1e1e" stroke="#1e1e1e" stroke-linecap="round" stroke-miterlimit="10" stroke-width="5.656"/>
                  <line x1="54.409" y1="245.253" x2="74.241" y2="253.013" fill="#1e1e1e" stroke="#1e1e1e" stroke-linecap="round" stroke-miterlimit="10" stroke-width="5.656"/>
                  <path d="M61.065,267.618,34.611,279.467a3.913,3.913,0,0,1-5.451-2.874l-2.81-15.51a3.913,3.913,0,0,1,2.251-4.269l18.985-8.5a3.914,3.914,0,0,1,4.589,1.045l10.28,12.165A3.914,3.914,0,0,1,61.065,267.618Z" fill="#1e1e1e"/>
                </g>
              </g>
              <g>
                <polygon points="454.451 296.142 567.475 606.348 111.448 419.003 415.157 286.649 454.451 296.142" fill="url(#linear-gradient-2)" style="mix-blend-mode: overlay"/>
                <g>
                  <g>
                    <path d="M387.364,217.646h0A14.139,14.139,0,0,1,401.5,231.785v22.594a0,0,0,0,1,0,0H373.225a0,0,0,0,1,0,0V231.785A14.139,14.139,0,0,1,387.364,217.646Z" transform="translate(111.042 -123.708) rotate(21.117)" fill="#1e1e1e"/>
                    <line x1="364.472" y1="246.86" x2="396.797" y2="259.344" fill="#1e1e1e" stroke="#1e1e1e" stroke-linecap="round" stroke-miterlimit="10" stroke-width="5.656"/>
                  </g>
                  <line x1="363.149" y1="246.349" x2="343.752" y2="255.14" fill="#1e1e1e" stroke="#1e1e1e" stroke-linecap="round" stroke-miterlimit="10" stroke-width="5.656"/>
                  <line x1="396.797" y1="259.344" x2="405.249" y2="278.891" fill="#1e1e1e" stroke="#1e1e1e" stroke-linecap="round" stroke-miterlimit="10" stroke-width="5.656"/>
                  <path d="M385.6,279.817l-27.04-10.444a3.914,3.914,0,0,1-1.8-5.894l9.036-12.916a3.913,3.913,0,0,1,4.617-1.407l19.405,7.494a3.916,3.916,0,0,1,2.489,4l-1.4,15.864A3.914,3.914,0,0,1,385.6,279.817Z" fill="#1e1e1e"/>
                </g>
              </g>
            </g>
          </g>
          <g>
            <g>
              <g>
                <path d="M141.91,493.283l-.96-18.419.1,0,7.991-.416a1.224,1.224,0,0,1,1.285,1.157l.905,17.369-9.308.485C141.919,493.4,141.913,493.341,141.91,493.283Z" fill="#75d353"/>
                <path d="M149.369,500.9c-2.764-.577-7.084-2.3-7.446-7.448l9.308-.485.315,6.053A1.817,1.817,0,0,1,149.369,500.9Z" fill="#eaeaea"/>
                <rect x="135.827" y="486.566" width="28.644" height="2.412" rx="1.206" ry="1.206" transform="translate(629.447 312.443) rotate(87.017)" fill="#d8d8d8"/>
                <path d="M140.427,483.592h5.97a1.025,1.025,0,0,1,1.025,1.025V487.4a0,0,0,0,1,0,0H139.4a0,0,0,0,1,0,0v-2.785A1.025,1.025,0,0,1,140.427,483.592Z" transform="translate(620.787 317.014) rotate(87.017)" fill="#f2f2f2"/>
              </g>
              <g>
                <path d="M65.751,490.946l16.01,9.156-.05.087-3.972,6.946a1.223,1.223,0,0,1-1.668.455l-15.1-8.635,4.627-8.091C65.65,490.892,65.7,490.917,65.751,490.946Z" fill="#75d353"/>
                <path d="M55.308,493.1c1.98-2.012,5.77-4.712,10.291-2.234l-4.627,8.091-5.26-3.009A1.817,1.817,0,0,1,55.308,493.1Z" fill="#eaeaea"/>
                <rect x="51.606" y="499.65" width="28.644" height="2.412" rx="1.206" ry="1.206" transform="translate(-125.488 968.364) rotate(-150.235)" fill="#d8d8d8"/>
                <path d="M68.5,494.516h5.97a1.025,1.025,0,0,1,1.025,1.025v2.785a0,0,0,0,1,0,0h-8.02a0,0,0,0,1,0,0v-2.785a1.025,1.025,0,0,1,1.025-1.025Z" transform="translate(-112.902 962.838) rotate(-150.235)" fill="#f2f2f2"/>
              </g>
              <path d="M120.373,453.254l-23.409,10.7a11.508,11.508,0,0,0-5.322,4.954l-15.4,28.172" fill="none" stroke="#d8bf8b" stroke-miterlimit="10" stroke-width="14.012"/>
              <path d="M122.841,452.826l-11.424,26.839a2.684,2.684,0,0,0,2.605,3.731l27.436-1.385" fill="none" stroke="#d8bf8b" stroke-miterlimit="10" stroke-width="14.012"/>
            </g>
            <g>
              <path d="M64.507,442.411a4.4,4.4,0,0,0,.888.12c39.663,1.388,44.275-15.125,44.671-17.012l-8.751-1.833a1.25,1.25,0,0,1,.043-.181c-.034.112-3.792,11.206-35.65,10.091a4.471,4.471,0,0,0-1.2,8.815Z" fill="#aa5d52"/>
              <path d="M70.6,436.559a1.788,1.788,0,0,0,1.893-2.747l-2.3-3.361a1.788,1.788,0,1,0-2.953,2.017l2.3,3.361A1.781,1.781,0,0,0,70.6,436.559Z" fill="#aa5d52"/>
            </g>
            <path d="M99.354,407.389h30.821a1.192,1.192,0,0,1,1.192,1.192v40.132a7.456,7.456,0,0,1-7.456,7.456H105.618a7.456,7.456,0,0,1-7.456-7.456V408.581a1.192,1.192,0,0,1,1.192-1.192Z" transform="translate(216.984 866.698) rotate(-178.342)" fill="#333"/>
            <path d="M94.85,410.568h13.709a7.748,7.748,0,0,1,7.748,7.748v0a7.748,7.748,0,0,1-7.748,7.748H94.85a1.192,1.192,0,0,1-1.192-1.192V411.76A1.192,1.192,0,0,1,94.85,410.568Z" transform="translate(-321.993 357.479) rotate(-67.803)" fill="#333"/>
            <circle cx="114.797" cy="420.195" r="1.373" fill="#ffe9e9"/>
            <circle cx="114.606" cy="426.792" r="1.373" fill="#ffe9e9"/>
            <g>
              <path d="M89.775,458.661a8,8,0,1,1-4.721-15.293l2.835-.875a6.527,6.527,0,0,0,3.941-9.1,4.438,4.438,0,1,1,7.978-3.891l.142.291a6.749,6.749,0,0,0,7.531,3.565c6.827-1.445,14-.77,18.664,5,3.807,4.71,4.3,11.323,2.556,16.965-2.669,8.621-10.609,17.007-20.354,15.213-5.382-.99-9.638-5.158-12.474-9.64A5.348,5.348,0,0,0,89.775,458.661Z" fill="#b280ce"/>
              <rect x="92.965" y="443.771" width="13.814" height="4.804" rx="2.402" ry="2.402" transform="translate(548.862 532.5) rotate(113.501)" fill="#fff"/>
              <rect x="109.447" y="452.507" width="13.814" height="1.666" rx="0.833" ry="0.833" transform="translate(578.489 527.41) rotate(113.501)" fill="#fff"/>
              <rect x="101.507" y="446.942" width="13.814" height="5.889" rx="1.63" ry="1.63" transform="translate(564.216 529.862) rotate(113.501)" fill="#333"/>
              <path d="M37.707,422.807l2.681-6.165a1.965,1.965,0,0,1,2.586-1.019L53.263,420.1a3.555,3.555,0,0,1,1.646,1.458l.859,1.46a3.55,3.55,0,0,0,1.646,1.458l41.44,18.019L96.5,447.9,55.075,429.89a3.551,3.551,0,0,0-2.216-.2l-1.643.379a3.557,3.557,0,0,1-2.216-.2l-10.274-4.467A1.966,1.966,0,0,1,37.707,422.807Z" fill="#333"/>
              <g>
                <rect x="46.587" y="429.484" width="1.721" height="2.582" rx="0.861" ry="0.861" transform="translate(461.411 559.038) rotate(113.501)" fill="#c1c1c1"/>
                <rect x="42.556" y="427.731" width="1.721" height="2.582" rx="0.861" ry="0.861" transform="translate(454.166 560.285) rotate(113.501)" fill="#c1c1c1"/>
                <rect x="38.526" y="425.978" width="1.721" height="2.582" rx="0.861" ry="0.861" transform="translate(446.921 561.529) rotate(113.501)" fill="#c1c1c1"/>
              </g>
              <g>
                <rect x="52.046" y="416.928" width="1.721" height="2.582" rx="0.861" ry="0.861" transform="translate(457.533 536.472) rotate(113.501)" fill="#c1c1c1"/>
                <rect x="48.016" y="415.176" width="1.721" height="2.582" rx="0.861" ry="0.861" transform="translate(450.289 537.714) rotate(113.501)" fill="#c1c1c1"/>
                <rect x="43.985" y="413.423" width="1.721" height="2.582" rx="0.861" ry="0.861" transform="translate(443.045 538.959) rotate(113.501)" fill="#c1c1c1"/>
              </g>
            </g>
            <path d="M148.066,457.341l.157-.018a4.47,4.47,0,0,0,3.841-5.021c-5.238-39.34-22.288-41.138-24.215-41.213l-.35,8.933a1.082,1.082,0,0,1-.186-.012c.117.015,11.681,1.873,15.888,33.472A4.471,4.471,0,0,0,148.066,457.341Z" fill="#aa5d52"/>
            <path d="M120.491,409.584H134.2a7.748,7.748,0,0,1,7.748,7.748v0a7.748,7.748,0,0,1-7.748,7.748H120.491a1.192,1.192,0,0,1-1.192-1.192V410.776A1.192,1.192,0,0,1,120.491,409.584Z" transform="translate(-59.927 810.932) rotate(-136.787)" fill="#333"/>
            <path d="M140.769,452.649a1.787,1.787,0,0,0,1.065-.492l2.931-2.824a1.788,1.788,0,0,0-2.481-2.575l-2.931,2.823a1.788,1.788,0,0,0,1.416,3.068Z" fill="#aa5d52"/>
            <g>
              <path d="M115.175,404.378h0a3.867,3.867,0,0,1,3.867,3.867v6.22a0,0,0,0,1,0,0h-7.733a0,0,0,0,1,0,0v-6.22A3.867,3.867,0,0,1,115.175,404.378Z" transform="translate(218.452 822.005) rotate(-178.342)" fill="#9e5447"/>
              <path d="M120.015,405.885l2.965,8.757a1.192,1.192,0,0,1-1.421,1.538L115,414.522Z" fill="#f2f2f2"/>
              <path d="M110.534,405.61l-3.414,8.583a1.192,1.192,0,0,0,1.333,1.611l6.662-1.279Z" fill="#f2f2f2"/>
              <path d="M134.1,384.84l.217-7.514a18.269,18.269,0,0,0-17.733-18.79h0a18.269,18.269,0,0,0-18.791,17.733l-.217,7.513" fill="#303030"/>
              <circle cx="99.582" cy="388.194" r="4.993" fill="#9e5447"/>
              <circle cx="131.405" cy="389.116" r="4.993" fill="#9e5447"/>
              <path d="M115.209,408.617h0a15.466,15.466,0,0,0,15.908-15.012l.472-16.3a1.577,1.577,0,0,0-1.877-1.593h0a61.817,61.817,0,0,1-27.078-.784h0a1.576,1.576,0,0,0-1.965,1.482l-.472,16.294A15.466,15.466,0,0,0,115.209,408.617Z" fill="#aa5d52"/>
              <g>
                <line x1="118.578" y1="394.201" x2="113.163" y2="394.045" fill="#fff"/>
                <path d="M113.138,394.885l5.416.157a.841.841,0,1,0,.049-1.681l-5.416-.157a.841.841,0,0,0-.049,1.681Z" fill="#683631"/>
              </g>
              <circle cx="122.138" cy="386.783" r="1.569" fill="#303030"/>
              <circle cx="107.119" cy="386.348" r="1.569" fill="#303030"/>
              <g>
                <g>
                  <path d="M111.212,398.546a.811.811,0,0,0-.841.908,5.186,5.186,0,0,0,10.2.3.811.811,0,0,0-.787-.955Z" fill="#41352e"/>
                  <path d="M114.449,401.765a2.63,2.63,0,0,1,1.972,2,5.148,5.148,0,0,1-4.759-1.614A2.628,2.628,0,0,1,114.449,401.765Z" fill="#f76c66"/>
                </g>
                <path d="M111.213,398.521l8.57.248a.8.8,0,0,1,.788.943,5.012,5.012,0,0,1-.264.852l-9.72-.282a5.007,5.007,0,0,1-.215-.866A.8.8,0,0,1,111.213,398.521Z" fill="#e6e7e8"/>
              </g>
            </g>
            <g>
              <path d="M125.954,384.722a.76.76,0,0,0,.741-1,3.759,3.759,0,0,0-4.762-2.362.759.759,0,1,0,.485,1.438,2.239,2.239,0,0,1,2.838,1.408A.76.76,0,0,0,125.954,384.722Z" fill="#303030"/>
              <path d="M105.753,384.137a.759.759,0,0,0,.726-.475,2.241,2.241,0,0,1,2.915-1.242.759.759,0,0,0,.568-1.408,3.763,3.763,0,0,0-4.891,2.083.759.759,0,0,0,.682,1.042Z" fill="#303030"/>
            </g>
          </g>
          <g>
            <path d="M73.941,537.412a1.465,1.465,0,0,1-.882-.4l-2.436-2.318a1.477,1.477,0,0,1,2.037-2.14l2.436,2.318a1.477,1.477,0,0,1-1.155,2.541Z" fill="#aa5d52"/>
            <rect x="89.606" y="565.666" width="3.593" height="16.487" fill="#b7b7b7"/>
            <g>
              <path d="M85.091,578.31h3.593a0,0,0,0,1,0,0v15.831a.656.656,0,0,1-.656.656H85.747a.656.656,0,0,1-.656-.656V578.31a0,0,0,0,1,0,0Z" transform="translate(440.205 110.359) rotate(45)" fill="#b7b7b7"/>
              <path d="M94.868,578.378h2.281a.656.656,0,0,1,.656.656v15.831a0,0,0,0,1,0,0H94.212a0,0,0,0,1,0,0V579.034A.656.656,0,0,1,94.868,578.378Z" transform="translate(578.701 933.537) rotate(135)" fill="#b7b7b7"/>
            </g>
            <circle cx="91.403" cy="566.105" r="4.284" fill="#b7b7b7"/>
            <circle cx="158.077" cy="529.556" r="4.284" fill="#b7b7b7"/>
            <circle cx="42.591" cy="556.098" r="4.284" fill="#b7b7b7"/>
            <rect x="74.716" y="554.749" width="33.373" height="11.356" rx="2.567" ry="2.567" fill="#303030"/>
            <g>
              <rect x="69.893" y="566.785" width="6.469" height="24.893" fill="#aa5d52"/>
              <path d="M73.127,585.11V557.1a5.881,5.881,0,0,1,5.881-5.88H98.692" fill="none" stroke="#4194e0" stroke-miterlimit="10" stroke-width="8.793"/>
              <g>
                <path d="M61.828,591.576l15.22,0a1.15,1.15,0,0,1,1.151,1.15V598.7a1.075,1.075,0,0,1-1.075,1.075l-15.3,0v-8.2Z" fill="#f42f2f"/>
                <path d="M54.941,597.781c.634-2.4,2.348-6.118,6.883-6.2v8.2H56.494A1.6,1.6,0,0,1,54.941,597.781Z" fill="#eaeaea"/>
                <rect x="53.841" y="598.004" width="25.196" height="2.122" rx="1.061" ry="1.061" transform="translate(132.988 1198.118) rotate(179.99)" fill="#d8d8d8"/>
                <path d="M65.446,591.575H69.11a.9.9,0,0,1,.9.9v2.45a0,0,0,0,1,0,0H64.544a0,0,0,0,1,0,0v-2.45A.9.9,0,0,1,65.446,591.575Z" transform="matrix(-1, 0, 0, -1, 134.663, 1186.489)" fill="#f2f2f2"/>
              </g>
            </g>
            <g>
              <rect x="107.434" y="566.815" width="6.469" height="24.893" transform="matrix(-1, 0, 0, -1, 221.441, 1158.502)" fill="#aa5d52"/>
              <path d="M110.668,585.14V557.127a5.881,5.881,0,0,0-5.881-5.881H85.1" fill="none" stroke="#4194e0" stroke-miterlimit="10" stroke-width="8.793"/>
              <g>
                <path d="M121.968,591.606l-15.221,0a1.15,1.15,0,0,0-1.15,1.15v5.977a1.075,1.075,0,0,0,1.075,1.075l15.3,0,0-8.2Z" fill="#f42f2f"/>
                <path d="M128.854,597.811c-.633-2.4-2.347-6.119-6.882-6.2l0,8.2H127.3A1.6,1.6,0,0,0,128.854,597.811Z" fill="#eaeaea"/>
                <rect x="104.758" y="598.034" width="25.196" height="2.122" rx="1.061" ry="1.061" fill="#d8d8d8"/>
                <path d="M113.784,591.6h5.468a0,0,0,0,1,0,0v2.45a.9.9,0,0,1-.9.9h-3.664a.9.9,0,0,1-.9-.9V591.6A0,0,0,0,1,113.784,591.6Z" fill="#f2f2f2"/>
              </g>
            </g>
            <path d="M78.715,476.893a14.251,14.251,0,0,1-8.663,23.028l-.034.006a1.5,1.5,0,0,0-.671,2.695,14.254,14.254,0,1,0,9.368-25.729Z" fill="#303030"/>
            <path d="M98.616,499.807l-13.592,0a6.879,6.879,0,0,0-6.881,6.878L79.3,518.19a96.657,96.657,0,0,1-.992,26.538l-.174.981a1.1,1.1,0,0,0,1.1,1.1l25.151,0a1.1,1.1,0,0,0,1.1-1.1h0a96.676,96.676,0,0,1-1.135-28.534l1.142-10.493A6.879,6.879,0,0,0,98.616,499.807Z" fill="#9e69b7"/>
            <path d="M88.359,495.03H95.28a0,0,0,0,1,0,0V500.6a3.461,3.461,0,0,1-3.461,3.461h0a3.461,3.461,0,0,1-3.461-3.461V495.03A0,0,0,0,1,88.359,495.03Z" fill="#aa5d52"/>
            <g>
              <path d="M92,453.719h0a17.439,17.439,0,0,1,17.439,17.439v9.66a0,0,0,0,1,0,0H74.559a0,0,0,0,1,0,0v-9.66A17.439,17.439,0,0,1,92,453.719Z" fill="#303030"/>
              <circle cx="76.919" cy="480.815" r="4.759" fill="#8c463f"/>
              <circle cx="106.727" cy="480.82" r="4.759" fill="#8c463f"/>
              <path d="M76.921,472.126l0,11.125a14.9,14.9,0,0,0,14.9,14.906h0a14.9,14.9,0,0,0,14.907-14.9l0-11.124-7.708-7.241Z" fill="#aa5d52"/>
              <g>
                <path d="M82.619,477.239a.752.752,0,0,1-.237-1.466l3.611-1.2A.752.752,0,1,1,86.469,476l-3.612,1.2A.733.733,0,0,1,82.619,477.239Z" fill="#303030"/>
                <path d="M101.028,477.177a.753.753,0,0,1-.237-.038l-3.611-1.2a.752.752,0,1,1,.476-1.427l3.61,1.2a.752.752,0,0,1-.238,1.466Z" fill="#303030"/>
                <path d="M88.531,481.725a.752.752,0,0,1-.733-.588,1.915,1.915,0,0,0-3.737,0,.752.752,0,0,1-1.468-.33,3.42,3.42,0,0,1,6.673,0,.753.753,0,0,1-.57.9A.779.779,0,0,1,88.531,481.725Z" fill="#683631"/>
                <path d="M100.3,481.727a.752.752,0,0,1-.733-.588,1.915,1.915,0,0,0-3.737,0,.752.752,0,0,1-1.468-.33,3.42,3.42,0,0,1,6.673,0,.753.753,0,0,1-.569.9A.788.788,0,0,1,100.3,481.727Z" fill="#683631"/>
              </g>
              <g>
                <g>
                  <path d="M96.261,489.319a.84.84,0,0,1,.843.965,5.37,5.37,0,0,1-10.565,0,.84.84,0,0,1,.843-.965Z" fill="#1a1a1a"/>
                  <path d="M92.813,492.554a2.725,2.725,0,0,0-2.1,2.014,5.415,5.415,0,0,0,1.11.119,5.349,5.349,0,0,0,3.866-1.647A2.724,2.724,0,0,0,92.813,492.554Z" fill="#f76c66"/>
                </g>
                <path d="M96.261,489.293l-8.879,0a.833.833,0,0,0-.843.952,5.24,5.24,0,0,0,.247.891h10.07a5.116,5.116,0,0,0,.248-.89A.833.833,0,0,0,96.261,489.293Z" fill="#e6e7e8"/>
              </g>
            </g>
            <path d="M125.748,474.6l.124.043a3.693,3.693,0,0,1,2.211,4.732C116.9,510.2,102.817,508.63,101.249,508.35l1.3-7.272a.991.991,0,0,0-.152-.023c.1.009,9.758.555,18.745-24.2A3.694,3.694,0,0,1,125.748,474.6Z" fill="#aa5d52"/>
            <path d="M96.222,497.4h11.326a6.4,6.4,0,0,1,6.4,6.4v0a6.4,6.4,0,0,1-6.4,6.4H96.222a.985.985,0,0,1-.985-.985V498.385a.985.985,0,0,1,.985-.985Z" transform="translate(452.713 882.706) rotate(149.153)" fill="#9e69b7"/>
            <path d="M99.031,459.731l-24.315,9.43c.037.161.078.322.131.48,1.414,4.274,8.172,5.883,15.094,3.593s11.388-7.612,9.974-11.886A5.2,5.2,0,0,0,99.031,459.731Z" fill="#303030"/>
            <path d="M109.336,472.023,98.33,463.11a2.647,2.647,0,0,0-.191.191c-1.633,1.82-.567,5.438,2.381,8.083s6.66,3.312,8.293,1.492A2.838,2.838,0,0,0,109.336,472.023Z" fill="#303030"/>
            <path d="M74.567,474.608H76.9a0,0,0,0,1,0,0v13.418a1.164,1.164,0,0,1-1.164,1.164h0a1.164,1.164,0,0,1-1.164-1.164V474.608A0,0,0,0,1,74.567,474.608Z" fill="#303030"/>
            <path d="M106.733,474.614h2.713a0,0,0,0,1,0,0V487.84a1.357,1.357,0,0,1-1.357,1.357h0a1.357,1.357,0,0,1-1.357-1.357V474.614A0,0,0,0,1,106.733,474.614Z" fill="#303030"/>
            <rect x="83.806" y="520.8" width="16.471" height="3.456" rx="1.728" ry="1.728" fill="#7c489b"/>
            <path d="M94.824,486.442H89.26a.863.863,0,1,1,0-1.726h5.564a.863.863,0,1,1,0,1.726Z" fill="#683631"/>
            <g>
              <rect x="120.13" y="571.312" width="3.593" height="24.364" fill="#b7b7b7"/>
              <g>
                <path d="M115.615,591.668h3.593a0,0,0,0,1,0,0V607.5a.656.656,0,0,1-.656.656h-2.281a.656.656,0,0,1-.656-.656V591.668A0,0,0,0,1,115.615,591.668Z" transform="translate(458.59 92.687) rotate(45)" fill="#b7b7b7"/>
                <path d="M125.392,591.735h2.281a.656.656,0,0,1,.656.656v15.831a0,0,0,0,1,0,0h-3.593a0,0,0,0,1,0,0V592.391A.656.656,0,0,1,125.392,591.735Z" transform="translate(640.253 934.756) rotate(135)" fill="#b7b7b7"/>
              </g>
              <circle cx="121.926" cy="571.751" r="4.284" fill="#b7b7b7"/>
            </g>
            <g>
              <rect x="101.481" y="553.232" width="38.459" height="18.852" transform="translate(-67.914 18.989) rotate(-7.026)" fill="#f42f2f"/>
              <path d="M100.042,551.273h39.011A1.943,1.943,0,0,1,141,553.217v0a1.943,1.943,0,0,1-1.943,1.943H100.042a1.943,1.943,0,0,1-1.943-1.943v0a1.944,1.944,0,0,1,1.944-1.944Z" transform="translate(-66.768 18.776) rotate(-7.026)" fill="#b7b7b7"/>
              <path d="M106.267,561.906h7.081a1.943,1.943,0,0,1,1.943,1.943v0a1.944,1.944,0,0,1-1.944,1.944h-7.081a1.943,1.943,0,0,1-1.943-1.943v0a1.943,1.943,0,0,1,1.943-1.943Z" transform="translate(-436.378 741.799) rotate(-97.026)" fill="#d31818"/>
              <rect x="115.208" y="560.565" width="10.968" height="3.887" rx="1.943" ry="1.943" transform="translate(-422.83 751.097) rotate(-97.026)" fill="#d31818"/>
              <path d="M128.805,559.3h7.081a1.944,1.944,0,0,1,1.944,1.944v0a1.943,1.943,0,0,1-1.943,1.943h-7.081a1.943,1.943,0,0,1-1.943-1.943v0a1.943,1.943,0,0,1,1.943-1.943Z" transform="translate(-408.495 761.242) rotate(-97.026)" fill="#d31818"/>
              <path d="M102.332,569.857h39.011a1.943,1.943,0,0,1,1.943,1.943v0a1.944,1.944,0,0,1-1.944,1.944H102.332a1.943,1.943,0,0,1-1.943-1.943v0a1.944,1.944,0,0,1,1.944-1.944Z" transform="translate(-69.024 19.196) rotate(-7.026)" fill="#b7b7b7"/>
              <path d="M100.131,552.726h15.264a1.944,1.944,0,0,1,1.944,1.944v0a1.943,1.943,0,0,1-1.943,1.943H100.131a1.944,1.944,0,0,1-1.944-1.944v0A1.943,1.943,0,0,1,100.131,552.726Z" transform="translate(-67.035 17.346) rotate(-7.026)" fill="#e8e8e8"/>
            </g>
            <g>
              <path d="M122.058,483.464l-6.522-22.453a1.015,1.015,0,0,1,1.927-.635l8.1,21.935a1.844,1.844,0,0,1-3.46,1.277C122.084,483.548,122.07,483.5,122.058,483.464Z" fill="#fcc846"/>
              <ellipse cx="115.702" cy="458.412" rx="1.48" ry="1.818" transform="translate(-137.585 59.195) rotate(-18.228)" fill="#fcc846"/>
            </g>
            <g>
              <path d="M67.587,533.021l20.488,11.265a1.015,1.015,0,0,1-.914,1.811l-21.235-9.785a1.844,1.844,0,0,1,1.544-3.35C67.508,532.979,67.55,533,67.587,533.021Z" fill="#fcc846"/>
              <ellipse cx="89.795" cy="546.24" rx="1.48" ry="1.818" transform="translate(-438.339 380.361) rotate(-63.228)" fill="#fcc846"/>
            </g>
            <path d="M123.312,478.9a1.472,1.472,0,0,1-.077.966l-1.349,3.08a1.478,1.478,0,0,1-2.707-1.186l1.35-3.08a1.478,1.478,0,0,1,2.783.22Z" fill="#aa5d52"/>
            <path d="M67.8,541.384c-.043,0-.086-.008-.13-.014a3.693,3.693,0,0,1-3.2-4.129c4.133-32.529,18.211-34.1,19.8-34.17l.334,7.379a1.027,1.027,0,0,0,.153-.011c-.1.013-9.641,1.6-12.961,27.733A3.693,3.693,0,0,1,67.8,541.384Z" fill="#aa5d52"/>
            <path d="M73.641,501.842H84.967a6.4,6.4,0,0,1,6.4,6.4v0a6.4,6.4,0,0,1-6.4,6.4H73.641a.985.985,0,0,1-.985-.985V502.826A.985.985,0,0,1,73.641,501.842Z" transform="translate(-327.632 196.428) rotate(-43.556)" fill="#9e69b7"/>
            <rect x="83.673" y="499.805" width="16.293" height="6.835" rx="3.418" ry="3.418" fill="#aa5d52"/>
            <g>
              <line x1="42.779" y1="534.494" x2="42.779" y2="596.198" fill="none" stroke="#b7b7b7" stroke-linecap="round" stroke-miterlimit="10" stroke-width="4.058"/>
              <g>
                <path d="M36.423,592.991h3.593a0,0,0,0,1,0,0v15.831a.656.656,0,0,1-.656.656H37.078a.656.656,0,0,1-.656-.656V592.991A0,0,0,0,1,36.423,592.991Z" transform="translate(436.331 149.072) rotate(45)" fill="#b7b7b7"/>
                <path d="M46.2,593.058h2.281a.656.656,0,0,1,.656.656v15.831a0,0,0,0,1,0,0H45.543a0,0,0,0,1,0,0V593.714a.656.656,0,0,1,.656-.656Z" transform="translate(505.999 993.012) rotate(135)" fill="#b7b7b7"/>
              </g>
              <path d="M40.952,542.3l-19.276,4.421a1.127,1.127,0,0,0,.252,2.225h41.7a1.127,1.127,0,0,0,.252-2.225L44.607,542.3A8.171,8.171,0,0,0,40.952,542.3Z" fill="#fcc846"/>
              <path d="M44.607,555.64l19.276-4.421a1.127,1.127,0,0,0-.252-2.225h-41.7a1.127,1.127,0,0,0-.252,2.225l19.276,4.421A8.171,8.171,0,0,0,44.607,555.64Z" fill="#f9974e"/>
            </g>
            <line x1="158.077" y1="517.332" x2="158.077" y2="594.379" fill="none" stroke="#b7b7b7" stroke-linecap="round" stroke-miterlimit="10" stroke-width="4.058"/>
            <g>
              <path d="M151.721,591.172h3.593a0,0,0,0,1,0,0V607a.656.656,0,0,1-.656.656h-2.281a.656.656,0,0,1-.656-.656V591.172A0,0,0,0,1,151.721,591.172Z" transform="translate(468.815 67.012) rotate(45)" fill="#b7b7b7"/>
              <path d="M161.5,591.239h2.281a.656.656,0,0,1,.656.656v15.831a0,0,0,0,1,0,0h-3.593a0,0,0,0,1,0,0V591.9A.656.656,0,0,1,161.5,591.239Z" transform="translate(701.538 908.379) rotate(135)" fill="#b7b7b7"/>
            </g>
            <path d="M155.373,521.659l-24.084,10.98a1.508,1.508,0,0,0,.929,2.85L186.9,524.273a1.508,1.508,0,0,0-.269-2.985l-26.462-.612A10.945,10.945,0,0,0,155.373,521.659Z" fill="#fcc846"/>
          </g>
          <g>
            <rect x="356.071" y="556.206" width="13.14" height="46.256" transform="translate(725.282 1158.668) rotate(-180)" fill="#f49684"/>
            <path d="M343.438,608.922h24.206a1.567,1.567,0,0,0,1.567-1.567v-8.473H349.427a7.556,7.556,0,0,0-7.556,7.556v.917A1.567,1.567,0,0,0,343.438,608.922Z" fill="#f49684"/>
            <path d="M362.641,605.453a6.571,6.571,0,0,1-6.57-6.571h-6.644a7.556,7.556,0,0,0-7.556,7.556v.917a1.567,1.567,0,0,0,1.567,1.567h24.206a1.567,1.567,0,0,0,1.567-1.567v-8.473A6.57,6.57,0,0,1,362.641,605.453Z" fill="#c9318c"/>
            <g>
              <path d="M304.289,514.484a5.877,5.877,0,0,1-1.157-11.638c41.073-8.3,42.493-23.627,42.5-23.781a1.63,1.63,0,0,0,0,.245l11.748-.327c.07,2.534-.789,25.054-51.924,35.383A5.921,5.921,0,0,1,304.289,514.484Z" fill="#ffaf9c"/>
              <path d="M310.289,505.142a2.339,2.339,0,0,1-1.579-.61l-3.961-3.6a2.351,2.351,0,1,1,3.16-3.481l3.961,3.6a2.351,2.351,0,0,1-1.581,4.091Z" fill="#ffaf9c"/>
            </g>
            <path d="M342.384,466.951H360.4a10.185,10.185,0,0,1,10.185,10.185v0A10.185,10.185,0,0,1,360.4,487.322h-18.02a1.567,1.567,0,0,1-1.567-1.567V468.518a1.567,1.567,0,0,1,1.567-1.567Z" transform="translate(-235.136 405.773) rotate(-46.409)" fill="#f42f2f"/>
            <rect x="373.897" y="556.206" width="13.14" height="46.256" transform="translate(760.933 1158.668) rotate(-180)" fill="#ffaf9c"/>
            <rect x="356.071" y="556.206" width="13.14" height="29.952" transform="translate(725.283 1142.364) rotate(-180)" fill="#4194e0"/>
            <rect x="373.897" y="556.206" width="13.14" height="29.952" transform="translate(760.934 1142.364) rotate(-180)" fill="#4194e0"/>
            <path d="M361.263,608.922H385.47a1.568,1.568,0,0,0,1.567-1.567v-8.473H367.252a7.556,7.556,0,0,0-7.556,7.556v.917A1.568,1.568,0,0,0,361.263,608.922Z" fill="#ffaf9c"/>
            <path d="M359.07,463.287h24.045a9.8,9.8,0,0,1,9.8,9.8l-1.945,40.241,1.945,48.476a1.567,1.567,0,0,1-1.567,1.567H350.835a1.567,1.567,0,0,1-1.567-1.567l2.358-48.476-2.358-40.241A9.8,9.8,0,0,1,359.07,463.287Z" fill="#f42f2f"/>
            <rect x="358.442" y="495.458" width="24.246" height="3.694" rx="1.847" ry="1.847" fill="#d31818"/>
            <path d="M380.467,605.453a6.57,6.57,0,0,1-6.57-6.571h-6.645a7.556,7.556,0,0,0-7.556,7.556v.917a1.568,1.568,0,0,0,1.567,1.567H385.47a1.568,1.568,0,0,0,1.567-1.567v-8.473A6.571,6.571,0,0,1,380.467,605.453Z" fill="#e553a3"/>
            <g>
              <path d="M392.7,539.111a5.885,5.885,0,0,1-5.8-6.888c7.2-41.278-6.563-48.174-6.7-48.239a1.572,1.572,0,0,0,.228.089l3.966-11.063c2.386.855,23.053,9.842,14.086,61.233A5.878,5.878,0,0,1,392.7,539.111Z" fill="#ffaf9c"/>
              <path d="M384.665,530.269a2.351,2.351,0,0,1-1.049-4.455l4.79-2.383a2.35,2.35,0,1,1,2.095,4.208l-4.79,2.383A2.337,2.337,0,0,1,384.665,530.269Z" fill="#ffaf9c"/>
            </g>
            <path d="M372.271,467.629h18.02a10.185,10.185,0,0,1,10.185,10.185v0A10.185,10.185,0,0,1,390.291,488h-18.02a1.567,1.567,0,0,1-1.567-1.567V469.2a1.567,1.567,0,0,1,1.567-1.567Z" transform="translate(157.665 1047.934) rotate(-119.306)" fill="#f42f2f"/>
            <circle cx="392.338" cy="444.774" r="9.875" fill="#fff"/>
            <circle cx="353.867" cy="444.774" r="9.875" fill="#fff"/>
            <circle cx="382.463" cy="450.958" r="9.875" fill="#fff"/>
            <circle cx="363.986" cy="450.958" r="9.875" fill="#fff"/>
            <circle cx="396.554" cy="433.744" r="9.875" fill="#fff"/>
            <circle cx="350.94" cy="435.078" r="12.407" fill="#fff"/>
            <circle cx="354.2" cy="418.976" r="12.407" fill="#fff"/>
            <rect x="359.529" y="463.362" width="22.225" height="9.324" rx="4.662" ry="4.662" transform="translate(741.282 936.049) rotate(180)" fill="#fc9a86"/>
            <path d="M370.641,456.848h0a4.721,4.721,0,0,1,4.721,4.721v7.594a0,0,0,0,1,0,0H365.92a0,0,0,0,1,0,0v-7.594A4.721,4.721,0,0,1,370.641,456.848Z" transform="translate(741.282 926.011) rotate(-180)" fill="#fc9a86"/>
            <circle cx="390.971" cy="437.461" r="6.491" fill="#fc9a86"/>
            <circle cx="350.311" cy="437.461" r="6.491" fill="#fc9a86"/>
            <rect x="350.311" y="410.453" width="40.661" height="50.661" rx="20.33" ry="20.33" fill="#ffaf9c"/>
            <path d="M357.531,439.517A5.251,5.251,0,0,1,353,436.9a1,1,0,1,1,1.726-1,3.231,3.231,0,0,0,5.6,0,1,1,0,1,1,1.726,1A5.248,5.248,0,0,1,357.531,439.517Z" fill="#dd816f"/>
            <path d="M377.281,439.517a5.249,5.249,0,0,1-4.526-2.615,1,1,0,1,1,1.726-1,3.231,3.231,0,0,0,5.6,0,1,1,0,1,1,1.726,1A5.251,5.251,0,0,1,377.281,439.517Z" fill="#dd816f"/>
            <g>
              <path d="M353.225,432.645a1,1,0,0,1-.935-1.344,4.947,4.947,0,0,1,6.347-2.922,1,1,0,1,1-.692,1.871,2.948,2.948,0,0,0-3.784,1.743A1,1,0,0,1,353.225,432.645Z" fill="#303030"/>
              <path d="M379.791,432.645a1,1,0,0,1-.936-.652,2.947,2.947,0,0,0-3.784-1.743,1,1,0,0,1-.692-1.871,4.947,4.947,0,0,1,6.348,2.922,1,1,0,0,1-.936,1.344Z" fill="#303030"/>
            </g>
            <circle cx="371.069" cy="414.53" r="9.875" fill="#fff"/>
            <circle cx="356.802" cy="411.874" r="9.875" fill="#fff"/>
            <circle cx="386.68" cy="409.158" r="11.954" fill="#fff"/>
            <circle cx="368.91" cy="406.81" r="12.057" fill="#fff"/>
            <circle cx="395.741" cy="421.75" r="9.875" fill="#fff"/>
            <circle cx="384.291" cy="417.221" r="7.184" fill="#fff"/>
            <circle cx="392.916" cy="426.56" r="7.184" fill="#fff"/>
            <path d="M367.531,446.575h-2.315a1.934,1.934,0,0,1-1.932-1.932v-4.02a1.026,1.026,0,0,1,2.052,0v3.9h2.195a1.026,1.026,0,1,1,0,2.052Z" fill="#dd816f"/>
            <g>
              <circle cx="364.977" cy="464.445" r="1.63" fill="#fff"/>
              <circle cx="368.498" cy="466.65" r="1.63" fill="#fff"/>
              <circle cx="372.761" cy="466.65" r="1.63" fill="#fff"/>
              <circle cx="376.237" cy="464.445" r="1.63" fill="#fff"/>
            </g>
            <path d="M373.537,471.141h-1.819v-1.819a.567.567,0,0,0-.567-.567h-1.02a.567.567,0,0,0-.567.567v1.819h-1.819a.567.567,0,0,0-.567.567v1.02a.567.567,0,0,0,.567.567h1.819v3.626a.567.567,0,0,0,.567.567h1.02a.567.567,0,0,0,.567-.567V473.3h1.819a.567.567,0,0,0,.567-.567v-1.02A.567.567,0,0,0,373.537,471.141Z" fill="#603813"/>
            <g>
              <path d="M366.28,449.427h11.17a0,0,0,0,1,0,0v2.655a4.812,4.812,0,0,1-4.812,4.812h-4.827a1.532,1.532,0,0,1-1.532-1.532v-5.936A0,0,0,0,1,366.28,449.427Z" fill="#41352e"/>
              <rect x="366.055" y="449.371" width="11.619" height="2.875" fill="#e6e7e8"/>
              <path d="M376.821,454.482a3.15,3.15,0,0,0-5.413,2.193c0,.078.006.155.012.232h1.226A4.809,4.809,0,0,0,376.821,454.482Z" fill="#f76c66"/>
            </g>
          </g>
          <g>
            <g>
              <rect x="317.646" y="475.563" width="4.945" height="125.876" fill="#303030"/>
              <rect x="317.646" y="472.856" width="4.945" height="10.14" fill="#1e1e1e"/>
            </g>
            <path d="M309.8,600.072h20.631a6.87,6.87,0,0,1,6.87,6.87v1.191a.984.984,0,0,1-.984.984h-32.4a.984.984,0,0,1-.984-.984v-1.191A6.87,6.87,0,0,1,309.8,600.072Z" fill="#303030"/>
            <g>
              <circle cx="332.203" cy="464.081" r="7.96" fill="#b7b7b7"/>
              <path d="M313.874,463.457H321.1a0,0,0,0,1,0,0v19.929a1.41,1.41,0,0,1-1.41,1.41h-4.41a1.41,1.41,0,0,1-1.41-1.41V463.457A0,0,0,0,1,313.874,463.457Z" transform="translate(530.053 -55.412) rotate(55.679)" fill="#303030"/>
              <circle cx="333.622" cy="461.35" r="2.018" fill="#939393"/>
            </g>
          </g>
          <g>
            <path d="M238.242,455.494h0a12.419,12.419,0,0,1,12.419,12.419v20.123a2.324,2.324,0,0,1-2.324,2.324h-20.19a2.324,2.324,0,0,1-2.324-2.324V467.913A12.419,12.419,0,0,1,238.242,455.494Z" transform="translate(-204.545 182.481) rotate(-30)" fill="#303030"/>
            <path d="M205.177,455.939l27.623,0a11.781,11.781,0,0,1,11.778,11.782l-.011,60.636a4.648,4.648,0,0,1-4.648,4.647L198.031,533a4.648,4.648,0,0,1-4.647-4.648l.011-60.636A11.781,11.781,0,0,1,205.177,455.939Z" fill="#303030"/>
            <g>
              <rect x="201.904" y="533.091" width="34.322" height="12.885" fill="#bcdd6b"/>
              <g>
                <polygon points="255.449 616.522 235.41 616.525 220.131 533.004 240.169 533.001 255.449 616.522" fill="#4194e0"/>
                <path d="M229.43,533.091h3.3a13.762,13.762,0,0,0,9.16,9.395l.657,3.49C236.349,544.454,230.835,539.33,229.43,533.091Z" fill="#1e78ba"/>
              </g>
              <g>
                <polygon points="183.34 616.522 203.379 616.525 218.658 533.004 198.62 533.001 183.34 616.522" fill="#4194e0"/>
                <path d="M209.359,533.091h-3.3a13.762,13.762,0,0,1-9.16,9.395l-.657,3.49C202.439,544.454,207.954,539.33,209.359,533.091Z" fill="#1e78ba"/>
              </g>
            </g>
            <g>
              <line x1="245.166" y1="497.278" x2="275.016" y2="476.339" fill="none" stroke="#eaafa9" stroke-linecap="round" stroke-miterlimit="10" stroke-width="13.943"/>
              <rect x="270.397" y="463.396" width="19.145" height="19.145" rx="4.03" ry="4.03" transform="translate(506.399 -27.843) rotate(54.952)" fill="#eaafa9"/>
              <line x1="281.255" y1="468.051" x2="290.582" y2="461.509" fill="none" stroke="#eaafa9" stroke-linecap="round" stroke-miterlimit="10" stroke-width="6.971"/>
            </g>
            <g>
              <path d="M243.7,524.985a12.51,12.51,0,0,0,2.187-24.925l-4.621-.406a10.2,10.2,0,0,1-9.014-12.608,6.939,6.939,0,0,0-13.473-3.325l-.121.492a10.553,10.553,0,0,1-10.339,7.926c-10.91.036-21.652,3.425-26.882,13.777-4.27,8.451-2.853,18.721,1.671,26.77,6.914,12.3,21.806,22.5,36.111,16.56,7.9-3.283,13.034-11.053,15.9-18.835A8.36,8.36,0,0,1,243.7,524.985Z" fill="#f42f2f"/>
              <rect x="213.361" y="505.463" width="21.596" height="7.51" rx="3.755" ry="3.755" transform="translate(507.379 30.328) rotate(54.36)" fill="#fff"/>
              <rect x="190.526" y="524.288" width="21.596" height="2.604" rx="1.302" ry="1.302" transform="translate(511.156 55.718) rotate(54.36)" fill="#fff"/>
              <rect x="201.527" y="513.1" width="21.596" height="9.206" rx="2.548" ry="2.548" transform="translate(509.337 43.486) rotate(54.36)" fill="#7f2626"/>
              <path d="M311.49,453.068l-6.124-8.542a3.074,3.074,0,0,0-4.288-.707l-14.254,10.22a5.556,5.556,0,0,0-2.037,2.769l-.832,2.514a5.565,5.565,0,0,1-2.037,2.77l-57.413,41.164,5.375,7.5L287.274,469.6a5.552,5.552,0,0,1,3.32-1.04l2.635.039a5.552,5.552,0,0,0,3.32-1.04l14.234-10.206A3.072,3.072,0,0,0,311.49,453.068Z" fill="#8c423b"/>
              <g>
                <rect x="297.877" y="466.429" width="2.691" height="4.036" rx="1.345" ry="1.345" transform="translate(505.568 -47.691) rotate(54.359)" fill="#fff"/>
                <rect x="303.461" y="462.426" width="2.691" height="4.036" rx="1.345" ry="1.345" transform="translate(504.648 -53.898) rotate(54.36)" fill="#fff"/>
                <rect x="309.045" y="458.422" width="2.691" height="4.036" rx="1.345" ry="1.345" transform="translate(503.723 -60.108) rotate(54.36)" fill="#fff"/>
              </g>
              <g>
                <rect x="285.406" y="449.035" width="2.691" height="4.036" rx="1.345" ry="1.345" transform="translate(486.229 -44.813) rotate(54.36)" fill="#fff"/>
                <rect x="290.989" y="445.031" width="2.691" height="4.036" rx="1.345" ry="1.345" transform="translate(485.306 -51.022) rotate(54.36)" fill="#fff"/>
                <rect x="296.573" y="441.028" width="2.691" height="4.036" rx="1.345" ry="1.345" transform="translate(484.383 -57.23) rotate(54.36)" fill="#fff"/>
              </g>
            </g>
            <g>
              <path d="M200.933,539.415a7.088,7.088,0,0,1-.649-1.259c-23.058-58.3-.92-73.909,1.68-75.5l7.36,12.055a1.927,1.927,0,0,0,.247-.16c-.149.11-14.673,11.576,3.847,58.407a7.063,7.063,0,0,1-12.485,6.454Z" fill="#eaafa9"/>
              <path d="M204.978,526.156a2.824,2.824,0,0,1,2.8-4.463l6.311,1.232a2.825,2.825,0,1,1-1.082,5.545l-6.311-1.232A2.817,2.817,0,0,1,204.978,526.156Z" fill="#eaafa9"/>
            </g>
            <path d="M187.315,461.471h21.657a12.241,12.241,0,0,1,12.241,12.241v0a12.241,12.241,0,0,1-12.241,12.241H187.315a1.883,1.883,0,0,1-1.883-1.883V463.354a1.883,1.883,0,0,1,1.883-1.883Z" transform="translate(-310.619 513.801) rotate(-71.231)" fill="#303030"/>
            <circle cx="195.247" cy="426.336" r="7.889" fill="#eaafa9"/>
            <circle cx="244.115" cy="426.345" r="7.889" fill="#eaafa9"/>
            <path d="M219.657,451.181h0a6.108,6.108,0,0,1,6.108,6.108v9.827a0,0,0,0,1,0,0H213.548a0,0,0,0,1,0,0v-9.827A6.108,6.108,0,0,1,219.657,451.181Z" transform="translate(439.23 918.337) rotate(-179.99)" fill="#eaafa9"/>
            <path d="M195.251,401.221v15.088l0,15.1a24.434,24.434,0,0,0,24.429,24.439h0a24.435,24.435,0,0,0,24.439-24.43l0-15.105V401.23Z" fill="#ffc1b0"/>
            <g>
              <line x1="222.125" y1="432.419" x2="216.844" y2="432.418" fill="#eaafa9"/>
              <path d="M216.844,433.746h5.281a1.328,1.328,0,1,0,0-2.656h-5.281a1.328,1.328,0,0,0,0,2.656Z" fill="#dd8783"/>
            </g>
            <g>
              <path d="M235.62,417.583a1.214,1.214,0,0,0,.416-.074,1.2,1.2,0,0,0,.709-1.54,5.936,5.936,0,0,0-7.627-3.514,1.2,1.2,0,0,0,.831,2.249A3.539,3.539,0,0,1,234.5,416.8,1.2,1.2,0,0,0,235.62,417.583Z" fill="#8c423b"/>
              <path d="M203.693,417.577a1.2,1.2,0,0,0,1.125-.783,3.542,3.542,0,0,1,4.548-2.094,1.2,1.2,0,0,0,.832-2.249,5.947,5.947,0,0,0-7.629,3.511,1.2,1.2,0,0,0,1.124,1.615Z" fill="#8c423b"/>
            </g>
            <circle cx="206.02" cy="387.917" r="18.662" fill="#8c423b"/>
            <path d="M193.017,394.831h5.064a0,0,0,0,1,0,0v28.192a2.532,2.532,0,0,1-2.532,2.532h0a2.532,2.532,0,0,1-2.532-2.532V394.831A0,0,0,0,1,193.017,394.831Z" fill="#8c423b"/>
            <path d="M240.5,394.161h5.064a0,0,0,0,1,0,0v28.87a2.532,2.532,0,0,1-2.532,2.532h0a2.532,2.532,0,0,1-2.532-2.532v-28.87A0,0,0,0,1,240.5,394.161Z" fill="#8c423b"/>
            <g>
              <path d="M217.9,437.082H233.94a0,0,0,0,1,0,0v3.812a6.908,6.908,0,0,1-6.908,6.908H220.1a2.2,2.2,0,0,1-2.2-2.2v-8.521A0,0,0,0,1,217.9,437.082Z" fill="#41352e"/>
              <rect x="217.582" y="437.002" width="16.681" height="4.128" fill="#e6e7e8"/>
              <path d="M233.038,444.339a4.522,4.522,0,0,0-7.771,3.148c0,.113.008.223.016.333h1.762A6.9,6.9,0,0,0,233.038,444.339Z" fill="#f76c66"/>
            </g>
            <path d="M212.689,425.563a1.068,1.068,0,0,1-1.04-.834,2.716,2.716,0,0,0-5.3,0,1.067,1.067,0,0,1-2.082-.468,4.85,4.85,0,0,1,9.464,0,1.067,1.067,0,0,1-.807,1.275A1.12,1.12,0,0,1,212.689,425.563Z" fill="#dd8783"/>
            <path d="M232.3,425.566a1.069,1.069,0,0,1-1.04-.834,2.716,2.716,0,0,0-5.3,0,1.067,1.067,0,0,1-2.082-.468,4.85,4.85,0,0,1,9.464,0,1.066,1.066,0,0,1-.807,1.275A1.113,1.113,0,0,1,232.3,425.566Z" fill="#dd8783"/>
            <path d="M235.208,381.15l-24.144-3.743v24.787h34.5v-8.959A12.23,12.23,0,0,0,235.208,381.15Z" fill="#8c423b"/>
            <line x1="290.66" y1="477.595" x2="284.118" y2="468.269" fill="none" stroke="#fccac8" stroke-linecap="round" stroke-miterlimit="10" stroke-width="6.971"/>
            <line x1="284.962" y1="481.592" x2="278.419" y2="472.266" fill="none" stroke="#fccac8" stroke-linecap="round" stroke-miterlimit="10" stroke-width="6.971"/>
            <line x1="279.249" y1="485.6" x2="272.706" y2="476.273" fill="none" stroke="#fccac8" stroke-linecap="round" stroke-miterlimit="10" stroke-width="6.971"/>
          </g>
          <g>
            <g>
              <rect x="292.997" y="545.811" width="6.919" height="97.431" fill="#303030"/>
              <rect x="292.997" y="545.811" width="6.919" height="5.105" fill="#1e1e1e"/>
            </g>
            <g>
              <rect x="267.344" y="471.877" width="58.224" height="73.934" rx="7.152" ry="7.152" fill="#303030"/>
              <rect x="269.72" y="487.327" width="53.472" height="43.035" rx="0.547" ry="0.547" transform="translate(805.3 212.388) rotate(90)" fill="#4dc12d"/>
              <circle cx="296.456" cy="541.159" r="1.736" fill="#1e1e1e"/>
              <path d="M296.456,497.989c-8.684,0-10.855,2.171-10.855,10.855s2.171,10.855,10.855,10.855,10.855-2.171,10.855-10.855S305.14,497.989,296.456,497.989Zm-4.937,15.769a1.151,1.151,0,1,1,1.151-1.151A1.151,1.151,0,0,1,291.519,513.758Zm0-3.744a1.151,1.151,0,1,1,1.151-1.151A1.151,1.151,0,0,1,291.519,510.014Zm0-3.743a1.151,1.151,0,1,1,1.151-1.151A1.151,1.151,0,0,1,291.519,506.271Zm10.391,6.848a.527.527,0,0,1-.527.528h-6.936a.527.527,0,0,1-.527-.528v-1.025a.527.527,0,0,1,.527-.528h6.936a.527.527,0,0,1,.527.528Zm0-3.743a.528.528,0,0,1-.527.528h-6.936a.528.528,0,0,1-.527-.528V508.35a.527.527,0,0,1,.527-.527h6.936a.527.527,0,0,1,.527.527Zm0-3.743a.527.527,0,0,1-.527.527h-6.936a.527.527,0,0,1-.527-.527v-1.026a.527.527,0,0,1,.527-.527h6.936a.527.527,0,0,1,.527.527Z" fill="#fff"/>
            </g>
          </g>
          <g>
            <g>
              <rect x="174.851" y="456.394" width="6.919" height="176.149" fill="#303030"/>
              <rect x="174.851" y="452.607" width="6.919" height="14.19" fill="#1e1e1e"/>
            </g>
            <g>
              <circle cx="195.221" cy="440.327" r="11.139" fill="#b7b7b7"/>
              <path d="M169.572,439.454h10.117a0,0,0,0,1,0,0v27.888a1.973,1.973,0,0,1-1.973,1.973h-6.171a1.973,1.973,0,0,1-1.973-1.973V439.454a0,0,0,0,1,0,0Z" transform="translate(451.438 53.962) rotate(55.679)" fill="#303030"/>
              <circle cx="197.207" cy="436.506" r="2.825" fill="#939393"/>
            </g>
          </g>
        </g>
      </g>
      <path d="M714.606,199.937,375.334,288.425a17.083,17.083,0,0,0-8.159,28.2L586.866,551.3a44.944,44.944,0,0,0,32.811,14.229h99.24A17.083,17.083,0,0,0,736,548.445V216.467A17.083,17.083,0,0,0,714.606,199.937Z" fill="#7cc94f"/>
      <path d="M46.822,6.107H21.758A16.081,16.081,0,0,0,5.677,22.188V333.239A16.081,16.081,0,0,0,25.816,348.8l258.16-67.6a16.081,16.081,0,0,0,7.681-26.55L67.282,14.98A28.024,28.024,0,0,0,46.822,6.107Z" fill="#7cc94f"/>
      <g clip-path="url(#clip-path-4)">
        <g>
          <rect x="556.735" y="-79.121" width="20.506" height="149.73" fill="#aa5d52"/>
          <path d="M600.334,69.88l-48.474-.009v.264l0,21.031a3.212,3.212,0,0,0,3.212,3.213l45.714.009,0-24.5C600.635,69.889,600.488,69.88,600.334,69.88Z" fill="#d31818"/>
          <path d="M621.35,88.42c-1.893-7.175-7.014-18.281-20.564-18.528l0,24.5,15.928,0A4.778,4.778,0,0,0,621.35,88.42Z" fill="#eaeaea"/>
          <rect x="549.352" y="89.087" width="75.285" height="6.34" rx="3.17" ry="3.17" fill="#bababa"/>
          <path d="M577.226,69.877h16.337a0,0,0,0,1,0,0V77.2a2.694,2.694,0,0,1-2.694,2.694H579.921a2.694,2.694,0,0,1-2.694-2.694V69.877A0,0,0,0,1,577.226,69.877Z" fill="#d8d8d8"/>
          <rect x="522.495" y="-79.127" width="19.328" height="149.73" fill="#aa5d52"/>
          <rect x="552.599" y="-79.121" width="28.782" height="128.016" fill="#115fea"/>
          <rect x="517.77" y="-79.127" width="28.782" height="128.016" fill="#115fea"/>
          <path d="M566.261,69.874l-45.478-.008a3.436,3.436,0,0,0-3.437,3.435l0,6.577,0,11.282a3.213,3.213,0,0,0,3.212,3.213l45.714.008,0-24.5Z" fill="#f42f2f"/>
          <path d="M586.836,88.414c-1.892-7.175-7.013-18.281-20.563-18.528l0,24.5,15.928,0A4.777,4.777,0,0,0,586.836,88.414Z" fill="#eaeaea"/>
          <rect x="514.838" y="89.08" width="75.285" height="6.34" rx="3.17" ry="3.17" fill="#d8d8d8"/>
          <path d="M541.809,69.871h16.337a0,0,0,0,1,0,0V77.19a2.694,2.694,0,0,1-2.694,2.694H544.5a2.694,2.694,0,0,1-2.694-2.694V69.871a0,0,0,0,1,0,0Z" fill="#f2f2f2"/>
          <rect x="556.735" y="-79.121" width="20.506" height="149.73" fill="#aa5d52"/>
          <g>
            <path d="M600.334,69.88l-48.474-.009v.264l0,21.031a3.212,3.212,0,0,0,3.212,3.213l45.714.009,0-24.5C600.635,69.889,600.488,69.88,600.334,69.88Z" fill="#d31818"/>
            <path d="M621.35,88.42c-1.893-7.175-7.014-18.281-20.564-18.528l0,24.5,15.928,0A4.778,4.778,0,0,0,621.35,88.42Z" fill="#eaeaea"/>
            <rect x="549.352" y="89.087" width="75.285" height="6.34" rx="3.17" ry="3.17" fill="#bababa"/>
            <path d="M577.226,69.877h16.337a0,0,0,0,1,0,0V77.2a2.694,2.694,0,0,1-2.694,2.694H579.921a2.694,2.694,0,0,1-2.694-2.694V69.877A0,0,0,0,1,577.226,69.877Z" fill="#d8d8d8"/>
          </g>
          <rect x="522.495" y="-79.127" width="19.328" height="149.73" fill="#aa5d52"/>
          <rect x="552.599" y="-79.121" width="28.782" height="128.016" fill="#64bdff"/>
          <rect x="517.77" y="-79.127" width="28.782" height="128.016" fill="#64bdff"/>
          <g>
            <path d="M566.261,69.874l-45.478-.008a3.436,3.436,0,0,0-3.437,3.435l0,6.577,0,11.282a3.213,3.213,0,0,0,3.212,3.213l45.714.008,0-24.5Z" fill="#f42f2f"/>
            <path d="M586.836,88.414c-1.892-7.175-7.013-18.281-20.563-18.528l0,24.5,15.928,0A4.777,4.777,0,0,0,586.836,88.414Z" fill="#eaeaea"/>
            <rect x="514.838" y="89.08" width="75.285" height="6.34" rx="3.17" ry="3.17" fill="#d8d8d8"/>
            <path d="M541.809,69.871h16.337a0,0,0,0,1,0,0V77.19a2.694,2.694,0,0,1-2.694,2.694H544.5a2.694,2.694,0,0,1-2.694-2.694V69.871a0,0,0,0,1,0,0Z" fill="#f2f2f2"/>
          </g>
        </g>
      </g>
      <path d="M717.606,199.937,378.334,288.425a17.083,17.083,0,0,0-8.159,28.2L589.866,551.3a44.944,44.944,0,0,0,32.811,14.229h99.24A17.083,17.083,0,0,0,739,548.445V216.467A17.083,17.083,0,0,0,717.606,199.937Z" fill="none"/>
      <path d="M567.957,112.832a1.352,1.352,0,0,0-.886-1.694l-1.863-.583-2.437-.763-.807,2.58-1.5,4.8a4.853,4.853,0,0,0-1.1-.5c-1.979-.619-3.965.1-4.436,1.6s.752,3.225,2.731,3.844,3.964-.1,4.435-1.6l2.311-7.381,1.863.583a1.352,1.352,0,0,0,1.694-.886Z" fill="#fff"/>
      <g clip-path="url(#clip-path-5)">
        <g>
          <g>
            <rect x="-36.542" y="221.035" width="358.542" height="170.465" fill="#49557a"/>
            <g>
              <g>
                <rect x="169.841" y="202.851" width="10.466" height="7.227" rx="3.05" ry="3.05" fill="#f9a819"/>
                <rect x="100.068" y="202.851" width="10.466" height="7.227" rx="3.05" ry="3.05" fill="#f9a819"/>
                <rect x="117.541" y="233.488" width="45.783" height="5.123" rx="2.562" ry="2.562" fill="#494949"/>
                <path d="M106.768,231.554h12.519a0,0,0,0,1,0,0v14.415a1.613,1.613,0,0,1-1.613,1.613h-9.293a1.613,1.613,0,0,1-1.613-1.613V231.554A0,0,0,0,1,106.768,231.554Z" fill="#303030"/>
                <path d="M162.008,231.554h12.519a0,0,0,0,1,0,0v14.415a1.613,1.613,0,0,1-1.613,1.613h-9.293a1.613,1.613,0,0,1-1.613-1.613V231.554A0,0,0,0,1,162.008,231.554Z" fill="#303030"/>
                <g>
                  <path d="M163.471,214.08h-46.9a4.555,4.555,0,0,1-4.452-5.521l3.79-17.458a4.555,4.555,0,0,1,4.451-3.589h39.325a4.556,4.556,0,0,1,4.452,3.589l3.789,17.458A4.555,4.555,0,0,1,163.471,214.08Z" opacity="0.5" fill="url(#linear-gradient-3)" style="mix-blend-mode: overlay"/>
                  <path d="M171.24,207.6l-3.789-17.457a7.949,7.949,0,0,0-7.724-6.228H120.4a7.948,7.948,0,0,0-7.724,6.228l-3.79,17.457a7.9,7.9,0,0,0,7.725,9.581h46.9a7.9,7.9,0,0,0,7.724-9.581Zm-7.724,6.232h-46.9a4.555,4.555,0,0,1-4.451-5.521l3.789-17.458a4.556,4.556,0,0,1,4.452-3.589h39.325a4.556,4.556,0,0,1,4.452,3.589l3.789,17.458A4.555,4.555,0,0,1,163.516,213.831Z" fill="#ffd066"/>
                  <path d="M113.665,207.513h54.2a8.4,8.4,0,0,1,8.4,8.4V225.7a4.213,4.213,0,0,1-4.213,4.213H109.474a4.213,4.213,0,0,1-4.213-4.213v-9.779A8.4,8.4,0,0,1,113.665,207.513Z" fill="#fcc846"/>
                  <g>
                    <circle cx="118.44" cy="219.072" r="6.634" fill="#f9a819"/>
                    <circle cx="118.44" cy="219.072" r="4.174" fill="#fff9f0"/>
                  </g>
                  <g>
                    <circle cx="163.324" cy="219.072" r="6.634" fill="#f9a819"/>
                    <circle cx="163.324" cy="219.072" r="4.174" fill="#fff9f0"/>
                  </g>
                  <path d="M136.672,229.55c0,.121-.007.239-.009.359h8.207c0-.12-.009-.238-.009-.359a21.882,21.882,0,0,1,19.131-21.705v-.784a3.245,3.245,0,0,0-3.245-3.245H120.786a3.245,3.245,0,0,0-3.245,3.245v.784A21.882,21.882,0,0,1,136.672,229.55Z" fill="#ffdc78"/>
                  <rect x="126.818" y="218.476" width="28.183" height="12.72" rx="2.575" ry="2.575" fill="#4d545e"/>
                  <g>
                    <circle cx="140.91" cy="223.245" r="3.043" fill="#fff9f0"/>
                    <g>
                      <path d="M131.929,221.826h4.88a0,0,0,0,1,0,0v2.839a0,0,0,0,1,0,0h-2.155a2.725,2.725,0,0,1-2.725-2.725v-.114A0,0,0,0,1,131.929,221.826Z" fill="#fff9f0"/>
                      <path d="M147.736,221.826h2.155a0,0,0,0,1,0,0v2.839a0,0,0,0,1,0,0h-4.88a0,0,0,0,1,0,0v-.114A2.725,2.725,0,0,1,147.736,221.826Z" transform="translate(294.901 446.491) rotate(-180)" fill="#fff9f0"/>
                    </g>
                  </g>
                  <rect x="103.587" y="227.207" width="74.137" height="8.695" rx="1.889" ry="1.889" fill="#b7b7b7"/>
                </g>
                <rect x="117.541" y="233.488" width="45.783" height="5.123" rx="2.562" ry="2.562" fill="#494949"/>
                <path d="M106.768,231.554h12.519a0,0,0,0,1,0,0v14.415a1.613,1.613,0,0,1-1.613,1.613h-9.293a1.613,1.613,0,0,1-1.613-1.613V231.554A0,0,0,0,1,106.768,231.554Z" fill="#303030"/>
                <path d="M162.008,231.554h12.519a0,0,0,0,1,0,0v14.415a1.613,1.613,0,0,1-1.613,1.613h-9.293a1.613,1.613,0,0,1-1.613-1.613V231.554A0,0,0,0,1,162.008,231.554Z" fill="#303030"/>
                <g>
                  <path d="M162.723,233.268h-46.9a4.555,4.555,0,0,1-4.451-5.521l3.789-17.458a4.555,4.555,0,0,1,4.451-3.589h39.326a4.554,4.554,0,0,1,4.451,3.589l3.789,17.458A4.554,4.554,0,0,1,162.723,233.268Z" opacity="0.5" fill="url(#linear-gradient-4)" style="mix-blend-mode: overlay"/>
                  <path d="M171.24,207.6l-3.789-17.457a7.949,7.949,0,0,0-7.724-6.228H120.4a7.948,7.948,0,0,0-7.724,6.228l-3.79,17.457a7.9,7.9,0,0,0,7.725,9.581h46.9a7.9,7.9,0,0,0,7.724-9.581Zm-7.724,6.232h-46.9a4.555,4.555,0,0,1-4.451-5.521l3.789-17.458a4.556,4.556,0,0,1,4.452-3.589h39.325a4.556,4.556,0,0,1,4.452,3.589l3.789,17.458A4.555,4.555,0,0,1,163.516,213.831Z" fill="#ffd066"/>
                  <path d="M113.665,207.513h54.2a8.4,8.4,0,0,1,8.4,8.4V225.7a4.213,4.213,0,0,1-4.213,4.213H109.474a4.213,4.213,0,0,1-4.213-4.213v-9.779A8.4,8.4,0,0,1,113.665,207.513Z" fill="#fcc846"/>
                  <g>
                    <circle cx="118.44" cy="219.072" r="6.634" fill="#f9a819"/>
                    <circle cx="118.44" cy="219.072" r="4.174" fill="#fff9f0"/>
                  </g>
                  <g>
                    <circle cx="163.324" cy="219.072" r="6.634" fill="#f9a819"/>
                    <circle cx="163.324" cy="219.072" r="4.174" fill="#fff9f0"/>
                  </g>
                  <path d="M136.672,229.55c0,.121-.007.239-.009.359h8.207c0-.12-.009-.238-.009-.359a21.882,21.882,0,0,1,19.131-21.705v-.784a3.245,3.245,0,0,0-3.245-3.245H120.786a3.245,3.245,0,0,0-3.245,3.245v.784A21.882,21.882,0,0,1,136.672,229.55Z" fill="#ffdc78"/>
                  <rect x="126.818" y="218.476" width="28.183" height="12.72" rx="2.575" ry="2.575" fill="#4d545e"/>
                  <g>
                    <circle cx="140.91" cy="223.245" r="3.043" fill="#fff9f0"/>
                    <g>
                      <path d="M131.929,221.826h4.88a0,0,0,0,1,0,0v2.839a0,0,0,0,1,0,0h-2.155a2.725,2.725,0,0,1-2.725-2.725v-.114A0,0,0,0,1,131.929,221.826Z" fill="#fff9f0"/>
                      <path d="M147.736,221.826h2.155a0,0,0,0,1,0,0v2.839a0,0,0,0,1,0,0h-4.88a0,0,0,0,1,0,0v-.114A2.725,2.725,0,0,1,147.736,221.826Z" transform="translate(294.901 446.491) rotate(-180)" fill="#fff9f0"/>
                    </g>
                  </g>
                  <rect x="103.587" y="227.207" width="74.137" height="8.695" rx="1.889" ry="1.889" fill="#b7b7b7"/>
                </g>
              </g>
              <rect x="264.534" y="202.851" width="10.466" height="7.227" rx="3.05" ry="3.05" fill="#f42f2f"/>
              <rect x="188.531" y="202.851" width="10.466" height="7.227" rx="3.05" ry="3.05" fill="#f42f2f"/>
              <rect x="206.004" y="233.488" width="52.013" height="5.123" rx="2.562" ry="2.562" fill="#494949"/>
              <path d="M195.231,231.554H207.75a0,0,0,0,1,0,0v14.415a1.613,1.613,0,0,1-1.613,1.613h-9.293a1.613,1.613,0,0,1-1.613-1.613V231.554A0,0,0,0,1,195.231,231.554Z" fill="#303030"/>
              <path d="M256.7,231.554H269.22a0,0,0,0,1,0,0v14.415a1.613,1.613,0,0,1-1.613,1.613h-9.293a1.613,1.613,0,0,1-1.613-1.613V231.554A0,0,0,0,1,256.7,231.554Z" fill="#303030"/>
              <path d="M258.163,214.08H205.03a4.555,4.555,0,0,1-4.452-5.521l3.789-17.458a4.556,4.556,0,0,1,4.452-3.589h45.555a4.555,4.555,0,0,1,4.451,3.589l3.79,17.458A4.555,4.555,0,0,1,258.163,214.08Z" opacity="0.5" fill="url(#linear-gradient-5)" style="mix-blend-mode: overlay"/>
              <path d="M265.933,207.6l-3.79-17.457a7.948,7.948,0,0,0-7.724-6.228H208.864a7.948,7.948,0,0,0-7.724,6.228L197.35,207.6a7.9,7.9,0,0,0,7.725,9.581h53.133a7.9,7.9,0,0,0,7.725-9.581Zm-7.725,6.232H205.074a4.555,4.555,0,0,1-4.451-5.521l3.789-17.458a4.556,4.556,0,0,1,4.452-3.589h45.555a4.555,4.555,0,0,1,4.451,3.589l3.79,17.458A4.555,4.555,0,0,1,258.208,213.831Z" fill="#ffd066"/>
              <path d="M202.128,207.513H262.56a8.4,8.4,0,0,1,8.4,8.4V225.7a4.213,4.213,0,0,1-4.213,4.213H197.937a4.213,4.213,0,0,1-4.213-4.213v-9.779A8.4,8.4,0,0,1,202.128,207.513Z" fill="#fcc846"/>
              <g>
                <circle cx="206.903" cy="219.072" r="6.634" fill="#f9a819"/>
                <circle cx="206.903" cy="219.072" r="4.174" fill="#fff9f0"/>
              </g>
              <g>
                <circle cx="258.017" cy="219.072" r="6.634" fill="#f9a819"/>
                <circle cx="258.017" cy="219.072" r="4.174" fill="#fff9f0"/>
              </g>
              <path d="M225.135,229.55c0,.121-.007.239-.009.359h14.437c0-.12-.009-.238-.009-.359a21.882,21.882,0,0,1,19.131-21.705v-.784a3.245,3.245,0,0,0-3.246-3.245h-46.19A3.245,3.245,0,0,0,206,207.061v.784A21.882,21.882,0,0,1,225.135,229.55Z" fill="#ffdc78"/>
              <rect x="215.281" y="218.476" width="34.413" height="12.72" rx="2.575" ry="2.575" fill="#4d545e"/>
              <g>
                <path d="M238.646,223.245c0-1.68-7.593-3.043-9.273-3.043a3.044,3.044,0,1,0,0,6.087C231.053,226.289,238.646,224.926,238.646,223.245Z" fill="#fff9f0"/>
                <g>
                  <path d="M220.392,221.826h4.88a0,0,0,0,1,0,0v2.839a0,0,0,0,1,0,0h-2.155a2.725,2.725,0,0,1-2.725-2.725v-.114A0,0,0,0,1,220.392,221.826Z" fill="#fff9f0"/>
                  <path d="M242.428,221.826h2.155a0,0,0,0,1,0,0v2.839a0,0,0,0,1,0,0H239.7a0,0,0,0,1,0,0v-.114A2.725,2.725,0,0,1,242.428,221.826Z" transform="translate(484.286 446.491) rotate(-180)" fill="#fff9f0"/>
                </g>
              </g>
              <rect x="192.049" y="227.207" width="80.366" height="8.695" rx="1.889" ry="1.889" fill="#b7b7b7"/>
              <rect x="206.004" y="233.488" width="52.013" height="5.123" rx="2.562" ry="2.562" fill="#494949"/>
              <path d="M195.231,231.554H207.75a0,0,0,0,1,0,0v14.415a1.613,1.613,0,0,1-1.613,1.613h-9.293a1.613,1.613,0,0,1-1.613-1.613V231.554A0,0,0,0,1,195.231,231.554Z" fill="#303030"/>
              <path d="M256.7,231.554H269.22a0,0,0,0,1,0,0v14.415a1.613,1.613,0,0,1-1.613,1.613h-9.293a1.613,1.613,0,0,1-1.613-1.613V231.554A0,0,0,0,1,256.7,231.554Z" fill="#303030"/>
              <path d="M257.416,233.268H204.282a4.554,4.554,0,0,1-4.451-5.521l3.789-17.458a4.554,4.554,0,0,1,4.451-3.589h45.556a4.555,4.555,0,0,1,4.451,3.589l3.789,17.458A4.555,4.555,0,0,1,257.416,233.268Z" opacity="0.5" fill="url(#linear-gradient-6)" style="mix-blend-mode: overlay"/>
              <path d="M265.933,207.6l-3.79-17.457a7.948,7.948,0,0,0-7.724-6.228H208.864a7.948,7.948,0,0,0-7.724,6.228L197.35,207.6a7.9,7.9,0,0,0,7.725,9.581h53.133a7.9,7.9,0,0,0,7.725-9.581Zm-7.725,6.232H205.074a4.555,4.555,0,0,1-4.451-5.521l3.789-17.458a4.556,4.556,0,0,1,4.452-3.589h45.555a4.555,4.555,0,0,1,4.451,3.589l3.79,17.458A4.555,4.555,0,0,1,258.208,213.831Z" fill="#ff6161"/>
              <path d="M202.128,207.513H262.56a8.4,8.4,0,0,1,8.4,8.4V225.7a4.213,4.213,0,0,1-4.213,4.213H197.937a4.213,4.213,0,0,1-4.213-4.213v-9.779A8.4,8.4,0,0,1,202.128,207.513Z" fill="#f42f2f"/>
              <g>
                <circle cx="206.903" cy="219.072" r="6.634" fill="#d31e1e"/>
                <circle cx="206.903" cy="219.072" r="4.174" fill="#fff9f0"/>
              </g>
              <g>
                <circle cx="258.017" cy="219.072" r="6.634" fill="#d31e1e"/>
                <circle cx="258.017" cy="219.072" r="4.174" fill="#fff9f0"/>
              </g>
              <path d="M225.135,229.55c0,.121-.007.239-.009.359h14.437c0-.12-.009-.238-.009-.359a21.882,21.882,0,0,1,19.131-21.705v-.784a3.245,3.245,0,0,0-3.246-3.245h-46.19A3.245,3.245,0,0,0,206,207.061v.784A21.882,21.882,0,0,1,225.135,229.55Z" fill="#ff6161"/>
              <rect x="215.281" y="218.476" width="34.413" height="12.72" rx="2.575" ry="2.575" fill="#4d545e"/>
              <rect x="192.049" y="227.207" width="80.366" height="8.695" rx="1.889" ry="1.889" fill="#d31e1e"/>
              <line x1="218.434" y1="224.531" x2="246.592" y2="224.531" fill="none" stroke="#303030" stroke-linecap="round" stroke-miterlimit="10" stroke-width="1.495"/>
              <line x1="218.434" y1="221.541" x2="246.592" y2="221.541" fill="none" stroke="#303030" stroke-linecap="round" stroke-miterlimit="10" stroke-width="1.495"/>
            </g>
          </g>
          <g>
            <g>
              <g>
                <path d="M34.516,128.3a34.045,34.045,0,0,1,7.148,15.743,34.227,34.227,0,0,1-27.94,39.527l-.082.014a3.609,3.609,0,0,0-1.612,6.469A34.211,34.211,0,1,0,34.516,128.3Z" fill="#303030"/>
                <rect x="71.876" y="293.501" width="16.472" height="120.274" fill="#aa5d52"/>
                <g>
                  <path d="M106.9,413.189l-38.938-.007v.211l0,16.894a2.582,2.582,0,0,0,2.581,2.582l36.72.006,0-19.677C107.139,413.2,107.021,413.189,106.9,413.189Z" fill="#d31818"/>
                  <path d="M123.779,428.082c-1.52-5.764-5.634-14.685-16.518-14.884l0,19.677,12.8,0A3.838,3.838,0,0,0,123.779,428.082Z" fill="#eaeaea"/>
                  <rect x="65.945" y="428.617" width="60.474" height="5.093" rx="2.546" ry="2.546" fill="#bababa"/>
                  <path d="M88.336,413.187h13.123a0,0,0,0,1,0,0v5.879a2.164,2.164,0,0,1-2.164,2.164H90.5a2.164,2.164,0,0,1-2.164-2.164v-5.879A0,0,0,0,1,88.336,413.187Z" fill="#d8d8d8"/>
                </g>
                <rect x="44.371" y="293.496" width="15.526" height="120.274" fill="#aa5d52"/>
                <rect x="68.553" y="293.501" width="23.12" height="102.832" fill="#115fea"/>
                <rect x="40.576" y="293.496" width="23.12" height="102.832" fill="#115fea"/>
                <g>
                  <path d="M79.528,413.184,43,413.177a2.761,2.761,0,0,0-2.761,2.76v14.345a2.58,2.58,0,0,0,2.58,2.582l36.72.006,0-19.677Z" fill="#f42f2f"/>
                  <path d="M96.055,428.077c-1.52-5.764-5.634-14.685-16.518-14.884l0,19.677,12.8,0A3.838,3.838,0,0,0,96.055,428.077Z" fill="#eaeaea"/>
                  <rect x="38.221" y="428.612" width="60.474" height="5.093" rx="2.546" ry="2.546" fill="#d8d8d8"/>
                  <path d="M59.886,413.182H73.008a0,0,0,0,1,0,0v5.879a2.164,2.164,0,0,1-2.164,2.164H62.05a2.164,2.164,0,0,1-2.164-2.164v-5.879a0,0,0,0,1,0,0Z" fill="#f2f2f2"/>
                </g>
                <rect x="40.584" y="293.498" width="51.097" height="14.687" fill="#115fea"/>
                <path d="M82.279,183.292l-32.622-.006A16.513,16.513,0,0,0,33.142,199.8l2.782,27.619a232.029,232.029,0,0,1-2.382,63.694l-.417,2.355a2.641,2.641,0,0,0,2.64,2.64l60.365.011a2.64,2.64,0,0,0,2.64-2.64h0a232.064,232.064,0,0,1-2.725-68.483l2.742-25.185A16.511,16.511,0,0,0,82.279,183.292Z" fill="#9e69b7"/>
                <path d="M57.662,171.828H74.274a0,0,0,0,1,0,0v13.361a8.306,8.306,0,0,1-8.306,8.306h0a8.306,8.306,0,0,1-8.306-8.306V171.828a0,0,0,0,1,0,0Z" fill="#aa5d52"/>
                <g>
                  <path d="M66.4,72.676h0a41.856,41.856,0,0,1,41.856,41.856v23.184a0,0,0,0,1,0,0H24.54a0,0,0,0,1,0,0V114.533A41.856,41.856,0,0,1,66.4,72.676Z" fill="#303030"/>
                  <circle cx="30.205" cy="137.71" r="11.421" fill="#8c463f"/>
                  <circle cx="101.747" cy="137.723" r="11.421" fill="#8c463f"/>
                  <path d="M30.209,116.856l0,26.7a35.771,35.771,0,0,0,35.764,35.777h0a35.771,35.771,0,0,0,35.777-35.764l.005-26.7L83.25,99.491Z" fill="#aa5d52"/>
                  <g>
                    <path d="M43.886,129.128a1.806,1.806,0,0,1-.57-3.519l8.667-2.888a1.806,1.806,0,1,1,1.141,3.426l-8.667,2.888A1.806,1.806,0,0,1,43.886,129.128Z" fill="#303030"/>
                    <path d="M88.069,128.979a1.772,1.772,0,0,1-.57-.093L78.832,126a1.806,1.806,0,0,1,1.142-3.426l8.667,2.891a1.805,1.805,0,0,1-.572,3.518Z" fill="#303030"/>
                    <path d="M58.074,139.9a1.809,1.809,0,0,1-1.76-1.411,4.6,4.6,0,0,0-8.969,0,1.805,1.805,0,1,1-3.523-.792,8.208,8.208,0,0,1,16.016,0,1.811,1.811,0,0,1-1.764,2.2Z" fill="#683631"/>
                    <path d="M86.315,139.9a1.806,1.806,0,0,1-1.76-1.411,4.6,4.6,0,0,0-8.97,0,1.805,1.805,0,1,1-3.522-.793,8.207,8.207,0,0,1,16.015,0,1.806,1.806,0,0,1-1.366,2.157A1.758,1.758,0,0,1,86.315,139.9Z" fill="#683631"/>
                  </g>
                  <g>
                    <g>
                      <path d="M76.628,158.121a2.016,2.016,0,0,1,2.023,2.316,12.889,12.889,0,0,1-25.358,0,2.016,2.016,0,0,1,2.024-2.316Z" fill="#1a1a1a"/>
                      <path d="M68.352,165.885c-2.891.89-4.906,2.91-5.045,4.834a12.8,12.8,0,0,0,11.942-3.667C74.056,165.534,71.249,164.994,68.352,165.885Z" fill="#f76c66"/>
                    </g>
                    <path d="M76.628,158.058l-21.311,0a2,2,0,0,0-2.024,2.286,12.472,12.472,0,0,0,.594,2.136l24.169,0a12.54,12.54,0,0,0,.595-2.136A2,2,0,0,0,76.628,158.058Z" fill="#e6e7e8"/>
                  </g>
                </g>
                <path d="M23.057,273.55a3.533,3.533,0,0,1-2.118-.963l-5.846-5.564a3.546,3.546,0,1,1,4.89-5.136l5.846,5.564a3.546,3.546,0,0,1-2.772,6.1Z" fill="#aa5d52"/>
                <path d="M8.318,283.083c-.1-.01-.208-.021-.311-.034A8.865,8.865,0,0,1,.33,273.138c9.92-78.071,43.708-81.839,47.528-82.011l.8,17.711a2.4,2.4,0,0,0,.368-.027c-.23.031-23.14,3.853-31.108,66.561A8.866,8.866,0,0,1,8.318,283.083Z" fill="#aa5d52"/>
                <path d="M22.337,188.176H49.521a15.365,15.365,0,0,1,15.365,15.365v0a15.365,15.365,0,0,1-15.365,15.365H22.337a2.364,2.364,0,0,1-2.364-2.364v-26A2.364,2.364,0,0,1,22.337,188.176Z" transform="translate(-128.571 85.27) rotate(-43.556)" fill="#9e69b7"/>
                <path d="M147.4,122.792c.1.032.2.066.3.1A8.864,8.864,0,0,1,153,134.251c-26.852,73.976-60.641,70.218-64.4,69.545l3.115-17.452a2.254,2.254,0,0,0-.365-.055c.232.021,23.422,1.332,44.99-58.087A8.865,8.865,0,0,1,147.4,122.792Z" fill="#aa5d52"/>
                <path d="M76.532,177.515h27.185a15.365,15.365,0,0,1,15.365,15.365v0a15.365,15.365,0,0,1-15.365,15.365H76.532a2.364,2.364,0,0,1-2.364-2.364v-26A2.364,2.364,0,0,1,76.532,177.515Z" transform="translate(278.481 308.932) rotate(149.153)" fill="#9e69b7"/>
                <rect x="46.414" y="183.289" width="39.104" height="16.406" rx="8.203" ry="8.203" fill="#aa5d52"/>
                <path d="M83.275,87.106,24.917,109.74c.087.387.188.772.314,1.152,3.393,10.258,19.613,14.119,36.228,8.623S88.792,101.247,85.4,90.988A12.549,12.549,0,0,0,83.275,87.106Z" fill="#303030"/>
                <path d="M108.009,116.608,81.593,95.216c-.159.146-.313.3-.458.459-3.919,4.367-1.361,13.053,5.714,19.4s15.985,7.95,19.9,3.583A6.823,6.823,0,0,0,108.009,116.608Z" fill="#303030"/>
                <path d="M24.559,122.814h5.589a0,0,0,0,1,0,0v32.2a2.795,2.795,0,0,1-2.795,2.795h0a2.795,2.795,0,0,1-2.795-2.795v-32.2A0,0,0,0,1,24.559,122.814Z" fill="#303030"/>
                <path d="M101.76,122.828h6.512a0,0,0,0,1,0,0v31.743a3.256,3.256,0,0,1-3.256,3.256h0a3.256,3.256,0,0,1-3.256-3.256V122.828a0,0,0,0,1,0,0Z" fill="#303030"/>
                <path d="M131.011,130.571a3.536,3.536,0,0,1,1.725,1.561l3.878,7.078a3.546,3.546,0,1,1-6.219,3.407l-3.878-7.078a3.546,3.546,0,0,1,4.494-4.968Z" fill="#aa5d52"/>
                <rect x="46.735" y="233.679" width="39.533" height="5.47" fill="#7c489b"/>
                <path d="M73.177,151.215H59.825a2.071,2.071,0,0,1,0-4.142H73.177a2.071,2.071,0,1,1,0,4.142Z" fill="#683631"/>
              </g>
              <g>
                <path d="M34.516,128.3a34.045,34.045,0,0,1,7.148,15.743,34.227,34.227,0,0,1-27.94,39.527l-.082.014a3.609,3.609,0,0,0-1.612,6.469A34.211,34.211,0,1,0,34.516,128.3Z" fill="#303030"/>
                <rect x="71.876" y="293.501" width="16.472" height="120.274" fill="#aa5d52"/>
                <g>
                  <path d="M106.9,413.189l-38.938-.007v.211l0,16.894a2.582,2.582,0,0,0,2.581,2.582l36.72.006,0-19.677C107.139,413.2,107.021,413.189,106.9,413.189Z" fill="#d31818"/>
                  <path d="M123.779,428.082c-1.52-5.764-5.634-14.685-16.518-14.884l0,19.677,12.8,0A3.838,3.838,0,0,0,123.779,428.082Z" fill="#eaeaea"/>
                  <rect x="65.945" y="428.617" width="60.474" height="5.093" rx="2.546" ry="2.546" fill="#bababa"/>
                  <path d="M88.336,413.187h13.123a0,0,0,0,1,0,0v5.879a2.164,2.164,0,0,1-2.164,2.164H90.5a2.164,2.164,0,0,1-2.164-2.164v-5.879A0,0,0,0,1,88.336,413.187Z" fill="#d8d8d8"/>
                </g>
                <rect x="44.371" y="293.496" width="15.526" height="120.274" fill="#aa5d52"/>
                <rect x="68.553" y="293.501" width="23.12" height="102.832" fill="#115fea"/>
                <rect x="40.576" y="293.496" width="23.12" height="102.832" fill="#115fea"/>
                <g>
                  <path d="M79.528,413.184,43,413.177a2.761,2.761,0,0,0-2.761,2.76v14.345a2.58,2.58,0,0,0,2.58,2.582l36.72.006,0-19.677Z" fill="#f42f2f"/>
                  <path d="M96.055,428.077c-1.52-5.764-5.634-14.685-16.518-14.884l0,19.677,12.8,0A3.838,3.838,0,0,0,96.055,428.077Z" fill="#eaeaea"/>
                  <rect x="38.221" y="428.612" width="60.474" height="5.093" rx="2.546" ry="2.546" fill="#d8d8d8"/>
                  <path d="M59.886,413.182H73.008a0,0,0,0,1,0,0v5.879a2.164,2.164,0,0,1-2.164,2.164H62.05a2.164,2.164,0,0,1-2.164-2.164v-5.879a0,0,0,0,1,0,0Z" fill="#f2f2f2"/>
                </g>
                <rect x="40.584" y="293.498" width="51.097" height="14.687" fill="#115fea"/>
                <path d="M82.279,183.292l-32.622-.006A16.513,16.513,0,0,0,33.142,199.8l2.782,27.619a232.029,232.029,0,0,1-2.382,63.694l-.417,2.355a2.641,2.641,0,0,0,2.64,2.64l60.365.011a2.64,2.64,0,0,0,2.64-2.64h0a232.064,232.064,0,0,1-2.725-68.483l2.742-25.185A16.511,16.511,0,0,0,82.279,183.292Z" fill="#9e69b7"/>
                <path d="M57.662,171.828H74.274a0,0,0,0,1,0,0v13.361a8.306,8.306,0,0,1-8.306,8.306h0a8.306,8.306,0,0,1-8.306-8.306V171.828a0,0,0,0,1,0,0Z" fill="#aa5d52"/>
                <g>
                  <path d="M66.4,72.676h0a41.856,41.856,0,0,1,41.856,41.856v23.184a0,0,0,0,1,0,0H24.54a0,0,0,0,1,0,0V114.533A41.856,41.856,0,0,1,66.4,72.676Z" fill="#303030"/>
                  <circle cx="30.205" cy="137.71" r="11.421" fill="#8c463f"/>
                  <circle cx="101.747" cy="137.723" r="11.421" fill="#8c463f"/>
                  <path d="M30.209,116.856l0,26.7a35.771,35.771,0,0,0,35.764,35.777h0a35.771,35.771,0,0,0,35.777-35.764l.005-26.7L83.25,99.491Z" fill="#aa5d52"/>
                  <g>
                    <path d="M43.886,129.128a1.806,1.806,0,0,1-.57-3.519l8.667-2.888a1.806,1.806,0,1,1,1.141,3.426l-8.667,2.888A1.806,1.806,0,0,1,43.886,129.128Z" fill="#303030"/>
                    <path d="M88.069,128.979a1.772,1.772,0,0,1-.57-.093L78.832,126a1.806,1.806,0,0,1,1.142-3.426l8.667,2.891a1.805,1.805,0,0,1-.572,3.518Z" fill="#303030"/>
                    <path d="M58.074,139.9a1.809,1.809,0,0,1-1.76-1.411,4.6,4.6,0,0,0-8.969,0,1.805,1.805,0,1,1-3.523-.792,8.208,8.208,0,0,1,16.016,0,1.811,1.811,0,0,1-1.764,2.2Z" fill="#683631"/>
                    <path d="M86.315,139.9a1.806,1.806,0,0,1-1.76-1.411,4.6,4.6,0,0,0-8.97,0,1.805,1.805,0,1,1-3.522-.793,8.207,8.207,0,0,1,16.015,0,1.806,1.806,0,0,1-1.366,2.157A1.758,1.758,0,0,1,86.315,139.9Z" fill="#683631"/>
                  </g>
                  <g>
                    <g>
                      <path d="M76.628,158.121a2.016,2.016,0,0,1,2.023,2.316,12.889,12.889,0,0,1-25.358,0,2.016,2.016,0,0,1,2.024-2.316Z" fill="#1a1a1a"/>
                      <path d="M68.352,165.885c-2.891.89-4.906,2.91-5.045,4.834a12.8,12.8,0,0,0,11.942-3.667C74.056,165.534,71.249,164.994,68.352,165.885Z" fill="#f76c66"/>
                    </g>
                    <path d="M76.628,158.058l-21.311,0a2,2,0,0,0-2.024,2.286,12.472,12.472,0,0,0,.594,2.136l24.169,0a12.54,12.54,0,0,0,.595-2.136A2,2,0,0,0,76.628,158.058Z" fill="#e6e7e8"/>
                  </g>
                </g>
                <path d="M23.057,273.55a3.533,3.533,0,0,1-2.118-.963l-5.846-5.564a3.546,3.546,0,1,1,4.89-5.136l5.846,5.564a3.546,3.546,0,0,1-2.772,6.1Z" fill="#aa5d52"/>
                <path d="M8.318,283.083c-.1-.01-.208-.021-.311-.034A8.865,8.865,0,0,1,.33,273.138c9.92-78.071,43.708-81.839,47.528-82.011l.8,17.711a2.4,2.4,0,0,0,.368-.027c-.23.031-23.14,3.853-31.108,66.561A8.866,8.866,0,0,1,8.318,283.083Z" fill="#aa5d52"/>
                <path d="M22.337,188.176H49.521a15.365,15.365,0,0,1,15.365,15.365v0a15.365,15.365,0,0,1-15.365,15.365H22.337a2.364,2.364,0,0,1-2.364-2.364v-26A2.364,2.364,0,0,1,22.337,188.176Z" transform="translate(-128.571 85.27) rotate(-43.556)" fill="#9e69b7"/>
                <path d="M147.4,122.792c.1.032.2.066.3.1A8.864,8.864,0,0,1,153,134.251c-26.852,73.976-60.641,70.218-64.4,69.545l3.115-17.452a2.254,2.254,0,0,0-.365-.055c.232.021,23.422,1.332,44.99-58.087A8.865,8.865,0,0,1,147.4,122.792Z" fill="#aa5d52"/>
                <path d="M76.532,177.515h27.185a15.365,15.365,0,0,1,15.365,15.365v0a15.365,15.365,0,0,1-15.365,15.365H76.532a2.364,2.364,0,0,1-2.364-2.364v-26A2.364,2.364,0,0,1,76.532,177.515Z" transform="translate(278.481 308.932) rotate(149.153)" fill="#9e69b7"/>
                <rect x="46.414" y="183.289" width="39.104" height="16.406" rx="8.203" ry="8.203" fill="#aa5d52"/>
                <path d="M83.275,87.106,24.917,109.74c.087.387.188.772.314,1.152,3.393,10.258,19.613,14.119,36.228,8.623S88.792,101.247,85.4,90.988A12.549,12.549,0,0,0,83.275,87.106Z" fill="#303030"/>
                <path d="M108.009,116.608,81.593,95.216c-.159.146-.313.3-.458.459-3.919,4.367-1.361,13.053,5.714,19.4s15.985,7.95,19.9,3.583A6.823,6.823,0,0,0,108.009,116.608Z" fill="#303030"/>
                <path d="M24.559,122.814h5.589a0,0,0,0,1,0,0v32.2a2.795,2.795,0,0,1-2.795,2.795h0a2.795,2.795,0,0,1-2.795-2.795v-32.2A0,0,0,0,1,24.559,122.814Z" fill="#303030"/>
                <path d="M101.76,122.828h6.512a0,0,0,0,1,0,0v31.743a3.256,3.256,0,0,1-3.256,3.256h0a3.256,3.256,0,0,1-3.256-3.256V122.828a0,0,0,0,1,0,0Z" fill="#303030"/>
                <path d="M131.011,130.571a3.536,3.536,0,0,1,1.725,1.561l3.878,7.078a3.546,3.546,0,1,1-6.219,3.407l-3.878-7.078a3.546,3.546,0,0,1,4.494-4.968Z" fill="#aa5d52"/>
                <rect x="46.735" y="233.679" width="39.533" height="5.47" fill="#7c489b"/>
                <path d="M73.177,151.215H59.825a2.071,2.071,0,0,1,0-4.142H73.177a2.071,2.071,0,1,1,0,4.142Z" fill="#683631"/>
              </g>
            </g>
            <path d="M39.159,182.5H56a0,0,0,0,1,0,0V293.765a5.735,5.735,0,0,1-5.735,5.735H39.159A8.159,8.159,0,0,1,31,291.341V190.659A8.159,8.159,0,0,1,39.159,182.5Z" fill="#fc8738"/>
            <path d="M84.159,182.5H95.265A5.735,5.735,0,0,1,101,188.235V299.5a0,0,0,0,1,0,0H84.159A8.159,8.159,0,0,1,76,291.341V190.659a8.159,8.159,0,0,1,8.159-8.159Z" transform="translate(177 482) rotate(-180)" fill="#fc8738"/>
            <line x1="46.5" y1="182.5" x2="46.5" y2="299.5" fill="none" stroke="#fff" stroke-miterlimit="10" stroke-width="5"/>
            <line x1="85.5" y1="182.5" x2="85.5" y2="299.5" fill="none" stroke="#fff" stroke-miterlimit="10" stroke-width="5"/>
          </g>
        </g>
      </g>
      <g>
        <g>
          <circle cx="508.483" cy="340.521" r="44.517" fill="#383838" opacity="0.2"/>
          <g>
            <circle cx="517.483" cy="334.522" r="44.517" fill="#3ea3db"/>
            <circle cx="517.483" cy="334.522" r="34.638" fill="#fff"/>
            <rect x="511.353" y="317.287" width="7.788" height="25.526" rx="3.894" ry="3.894" fill="#ffc338"/>
            <rect x="520.223" y="326.156" width="7.788" height="25.526" rx="3.894" ry="3.894" transform="translate(185.198 863.036) rotate(-90)" fill="#ffc338"/>
          </g>
          <g>
            <g>
              <g>
                <rect x="632.043" y="459.819" width="73.472" height="121.269" fill="#d8bf8b"/>
                <g>
                  <path d="M632.161,483.829V479.67a17.871,17.871,0,0,0,17.851-17.851h4.159A22.034,22.034,0,0,1,632.161,483.829Z" fill="#b59661"/>
                  <path d="M705.4,483.829a22.034,22.034,0,0,1-22.01-22.01h4.159A17.871,17.871,0,0,0,705.4,479.67Z" fill="#b59661"/>
                </g>
                <rect x="666.699" y="488.02" width="4.16" height="93.068" fill="#b59661"/>
                <rect x="661.661" y="483.228" width="14.236" height="4.16" fill="#b59661"/>
              </g>
              <g>
                <path d="M622.63,581.1h44.051v19.351a2.919,2.919,0,0,1-2.919,2.92H622.219v-22.26C622.357,581.111,622.491,581.1,622.63,581.1Z" fill="#75d353"/>
                <path d="M603.53,597.947c1.721-6.519,6.376-16.611,18.689-16.833v22.26H607.745A4.341,4.341,0,0,1,603.53,597.947Z" fill="#eaeaea"/>
                <rect x="600.542" y="598.559" width="68.414" height="5.761" rx="2.881" ry="2.881" transform="translate(1269.499 1202.879) rotate(180)" fill="#d8d8d8"/>
                <path d="M633.886,581.1h14.259a2.449,2.449,0,0,1,2.449,2.449V590.2a0,0,0,0,1,0,0H631.437a0,0,0,0,1,0,0v-6.651a2.449,2.449,0,0,1,2.449-2.449Z" transform="translate(1282.031 1171.306) rotate(-180)" fill="#f2f2f2"/>
              </g>
              <g>
                <path d="M714.912,581.1H670.861v19.351a2.92,2.92,0,0,0,2.92,2.92h41.542v-22.26C715.185,581.111,715.052,581.1,714.912,581.1Z" fill="#75d353"/>
                <path d="M734.013,597.947c-1.721-6.519-6.377-16.611-18.69-16.833v22.26H729.8A4.342,4.342,0,0,0,734.013,597.947Z" fill="#eaeaea"/>
                <rect x="668.586" y="598.559" width="68.414" height="5.761" rx="2.881" ry="2.881" fill="#d8d8d8"/>
                <path d="M686.949,581.1H706.1a0,0,0,0,1,0,0v6.651a2.449,2.449,0,0,1-2.449,2.449H689.4a2.449,2.449,0,0,1-2.449-2.449V581.1A0,0,0,0,1,686.949,581.1Z" fill="#f2f2f2"/>
              </g>
              <path d="M682.29,249.628a30.006,30.006,0,0,0-30.8,16.578h-4.148a15.483,15.483,0,0,0-15.484,15.483v10.62h19.5a30,30,0,1,0,30.923-42.681Z" fill="#606060"/>
              <path d="M546.344,440.881c.028.123.058.244.091.367a10.678,10.678,0,0,0,13.077,7.549c91.557-24.538,90.557-65.473,90.141-70.06l-21.266,1.926a2.828,2.828,0,0,1-.027-.444c0,.28-.835,28.242-74.376,47.952A10.677,10.677,0,0,0,546.344,440.881Z" fill="#ffc1b0"/>
              <path d="M646.8,364.313h43.689A17.809,17.809,0,0,1,708.3,382.122v76.851a2.847,2.847,0,0,1-2.847,2.847H631.837a2.847,2.847,0,0,1-2.847-2.847V382.122A17.809,17.809,0,0,1,646.8,364.313Z" fill="#333"/>
              <path d="M613.8,370.669h32.742a18.507,18.507,0,0,1,18.507,18.507v0a18.507,18.507,0,0,1-18.507,18.507H613.8a2.847,2.847,0,0,1-2.847-2.847V373.517a2.847,2.847,0,0,1,2.847-2.847Z" transform="translate(-75.033 612.975) rotate(-48.808)" fill="#333"/>
              <path d="M675.373,370.669h32.742a18.507,18.507,0,0,1,18.507,18.507v0a18.507,18.507,0,0,1-18.507,18.507H675.373a2.847,2.847,0,0,1-2.847-2.847V373.517a2.847,2.847,0,0,1,2.847-2.847Z" transform="translate(867.441 1171.917) rotate(-131.192)" fill="#333"/>
              <path d="M659.973,357.116h18.47a0,0,0,0,1,0,0v14.856a9.235,9.235,0,0,1-9.235,9.235h0a9.235,9.235,0,0,1-9.235-9.235V357.116A0,0,0,0,1,659.973,357.116Z" fill="#eaafa9"/>
              <path d="M657.9,360.383l-7.684,20.7a2.847,2.847,0,0,0,3.287,3.77l15.781-3.507Z" fill="#f2f2f2"/>
              <path d="M680.551,360.383l7.556,20.726a2.848,2.848,0,0,1-3.293,3.755L669,381.349Z" fill="#f2f2f2"/>
              <circle cx="707.9" cy="319.561" r="11.926" fill="#ffc1b0"/>
              <circle cx="631.862" cy="319.561" r="11.926" fill="#ffc1b0"/>
              <circle cx="669.365" cy="394.908" r="3.279" fill="#ffe9e9"/>
              <circle cx="669.365" cy="410.671" r="3.279" fill="#ffe9e9"/>
              <circle cx="669.365" cy="394.908" r="3.279" fill="#ffe9e9"/>
              <path d="M632.425,290.6V332.5a36.94,36.94,0,0,0,36.94,36.94h0a36.939,36.939,0,0,0,36.94-36.94V290.6Z" fill="#ffc1b0"/>
              <circle cx="650.7" cy="316.118" r="3.748" fill="#303030"/>
              <circle cx="686.586" cy="316.118" r="3.748" fill="#303030"/>
              <path d="M645.116,309.382a1.815,1.815,0,0,1-1.7-2.44,8.977,8.977,0,0,1,11.532-5.311,1.812,1.812,0,1,1-1.256,3.4,5.352,5.352,0,0,0-6.875,3.166A1.812,1.812,0,0,1,645.116,309.382Z" fill="#606060"/>
              <path d="M693.384,309.382a1.813,1.813,0,0,1-1.7-1.184,5.356,5.356,0,0,0-6.876-3.167,1.812,1.812,0,1,1-1.256-3.4,8.99,8.99,0,0,1,11.532,5.31,1.814,1.814,0,0,1-1.7,2.441Z" fill="#606060"/>
              <path d="M689.5,333.957h0a2.484,2.484,0,0,0-2.5-2.47H652.554a2.483,2.483,0,0,0-2.5,2.47h0a2.482,2.482,0,0,1-2.5,2.47h-15.7v1.984a37.031,37.031,0,0,0,37.222,36.837h0a37.031,37.031,0,0,0,37.221-36.837v-1.984H692A2.482,2.482,0,0,1,689.5,333.957Z" fill="#606060"/>
              <g>
                <path d="M658.816,339.709H682.9a0,0,0,0,1,0,0v5.726a10.376,10.376,0,0,1-10.376,10.376H662.118a3.3,3.3,0,0,1-3.3-3.3v-12.8A0,0,0,0,1,658.816,339.709Z" fill="#41352e"/>
                <rect x="658.331" y="339.589" width="25.054" height="6.2" fill="#e6e7e8"/>
                <path d="M681.545,350.608a6.793,6.793,0,0,0-11.672,4.73c0,.168.014.334.026.5h2.645A10.363,10.363,0,0,0,681.545,350.608Z" fill="#f76c66"/>
              </g>
              <path d="M674.12,329.005h-8.478a2.008,2.008,0,0,1,0-4.015h8.478a2.008,2.008,0,0,1,0,4.015Z" fill="#dd8783"/>
              <rect x="631.929" y="286.346" width="6.14" height="53.243" fill="#606060"/>
              <rect x="700.166" y="286.346" width="6.14" height="53.243" fill="#606060"/>
              <path d="M558.29,420.5a4.259,4.259,0,0,0,1.493,2.371l7.592,6.071a4.27,4.27,0,1,0,5.334-6.67l-7.592-6.072a4.27,4.27,0,0,0-6.827,4.3Z" fill="#ffc1b0"/>
              <g>
                <g>
                  <line x1="722.942" y1="438.564" x2="702.082" y2="407.077" fill="none" stroke="#eaafa9" stroke-linecap="round" stroke-miterlimit="10" stroke-width="19.858"/>
                  <rect x="683.86" y="386.249" width="27.267" height="27.267" rx="5.74" ry="5.74" transform="translate(-104.986 449.168) rotate(-33.341)" fill="#eaafa9"/>
                  <line x1="690.548" y1="397.843" x2="681.63" y2="384.289" fill="none" stroke="#eaafa9" stroke-linecap="round" stroke-miterlimit="10" stroke-width="9.929"/>
                  <line x1="722.942" y1="438.564" x2="702.082" y2="407.077" fill="none" stroke="#eaafa9" stroke-linecap="round" stroke-miterlimit="10" stroke-width="19.858"/>
                  <line x1="690.548" y1="397.843" x2="681.63" y2="384.289" fill="none" stroke="#eaafa9" stroke-linecap="round" stroke-miterlimit="10" stroke-width="9.929"/>
                </g>
                <g>
                  <rect x="710.83" y="413.8" width="1.907" height="9.833" rx="0.954" ry="0.954" transform="translate(-112.986 460.121) rotate(-33.341)" fill="#333"/>
                  <path d="M703.162,412.05h12.715a0,0,0,0,1,0,0v4.619a1.829,1.829,0,0,1-1.829,1.829h-9.056a1.829,1.829,0,0,1-1.829-1.829V412.05a0,0,0,0,1,0,0Z" transform="translate(-111.467 458.31) rotate(-33.341)" fill="#333"/>
                  <circle cx="682.353" cy="373.981" r="15.906" fill="#a3a3a3"/>
                  <g>
                    <path d="M692.621,366.329a12.031,12.031,0,0,0-3.744-3.641" fill="none" stroke="#e5e5e5" stroke-linecap="round" stroke-miterlimit="10" stroke-width="1.884"/>
                    <path d="M683.922,360.973a12.017,12.017,0,0,0-8.013,1.907" fill="none" stroke="#e5e5e5" stroke-linecap="round" stroke-miterlimit="10" stroke-width="1.884"/>
                  </g>
                  <path d="M691.169,382.355h16.508a0,0,0,0,1,0,0v33.8a1.346,1.346,0,0,1-1.346,1.346H692.515a1.346,1.346,0,0,1-1.346-1.346v-33.8a0,0,0,0,1,0,0Z" transform="translate(-104.694 450.235) rotate(-33.341)" fill="#3d3d3d"/>
                </g>
                <g>
                  <line x1="704.534" y1="384.86" x2="690.979" y2="393.778" fill="none" stroke="#fccac8" stroke-linecap="round" stroke-miterlimit="10" stroke-width="9.929"/>
                  <line x1="709.982" y1="393.142" x2="696.427" y2="402.059" fill="none" stroke="#fccac8" stroke-linecap="round" stroke-miterlimit="10" stroke-width="9.929"/>
                  <line x1="715.445" y1="401.445" x2="701.89" y2="410.362" fill="none" stroke="#fccac8" stroke-linecap="round" stroke-miterlimit="10" stroke-width="9.929"/>
                </g>
              </g>
            </g>
            <path d="M720.606,199.937,381.334,288.425a17.083,17.083,0,0,0-8.159,28.2L592.866,551.3a44.944,44.944,0,0,0,32.811,14.229h99.24A17.083,17.083,0,0,0,742,548.445V216.467A17.083,17.083,0,0,0,720.606,199.937Z" fill="none"/>
          </g>
        </g>
        <path d="M714.606,199.937,375.334,288.425a17.083,17.083,0,0,0-8.159,28.2L586.866,551.3a44.944,44.944,0,0,0,32.811,14.229h99.24A17.083,17.083,0,0,0,736,548.445V216.467A17.083,17.083,0,0,0,714.606,199.937Z" fill="none"/>
      </g>
    </g>
  </g>
</svg>
