<svg id="Layer_1" data-name="Layer 1" xmlns="http://www.w3.org/2000/svg" xmlns:xlink="http://www.w3.org/1999/xlink" viewBox="0 0 745 572">
  <defs>
    <clipPath id="clip-path">
      <path d="M79-270.369v132.611A31.258,31.258,0,0,0,110.258-106.5h448.4c27.354,0,41.513-32.651,22.819-52.62L393.691-359.7a31.256,31.256,0,0,0-30.707-8.883L102.369-300.615A31.258,31.258,0,0,0,79-270.369Z" fill="none"/>
    </clipPath>
    <clipPath id="clip-path-2">
      <rect x="39.792" y="6.162" width="333.734" height="328.734" rx="27.177" ry="27.177" fill="none"/>
    </clipPath>
    <clipPath id="clip-path-3">
      <rect x="396.433" y="261.519" width="303.567" height="303.567" rx="24.72" ry="24.72" fill="none"/>
    </clipPath>
    <clipPath id="clip-path-4">
      <rect x="398" y="7.5" width="303" height="229" rx="24.72" ry="24.72" fill="none"/>
    </clipPath>
    <clipPath id="clip-path-5">
      <rect x="39.667" y="363.5" width="335" height="202" rx="24.72" ry="24.72" fill="none"/>
    </clipPath>
  </defs>
  <title>giving</title>
  <g clip-path="url(#clip-path)">
    <g>
      <rect x="341.924" y="-68.524" width="19.507" height="142.434" fill="#aa5d52"/>
      <path d="M383.4,73.217l-46.113-.009v.251l0,20.007a3.055,3.055,0,0,0,3.055,3.056l43.487.008,0-23.3C383.685,73.225,383.545,73.217,383.4,73.217Z" fill="#d31818"/>
      <path d="M403.39,90.853c-1.8-6.825-6.671-17.39-19.561-17.625l0,23.3,15.152,0A4.545,4.545,0,0,0,403.39,90.853Z" fill="#eaeaea"/>
      <rect x="334.901" y="91.487" width="71.616" height="6.031" rx="3.015" ry="3.015" fill="#bababa"/>
      <path d="M361.417,73.214h15.541a0,0,0,0,1,0,0v6.962a2.563,2.563,0,0,1-2.563,2.563H363.98a2.563,2.563,0,0,1-2.563-2.563V73.214A0,0,0,0,1,361.417,73.214Z" fill="#d8d8d8"/>
      <rect x="309.352" y="-68.53" width="18.386" height="142.434" fill="#aa5d52"/>
      <rect x="337.989" y="-68.524" width="27.38" height="121.779" fill="#115fea"/>
      <rect x="304.857" y="-68.53" width="27.38" height="121.779" fill="#115fea"/>
      <path d="M350.986,73.211,307.723,73.2a3.269,3.269,0,0,0-3.269,3.268v6.257l0,10.732a3.055,3.055,0,0,0,3.055,3.056l43.487.008,0-23.3Z" fill="#f42f2f"/>
      <path d="M370.558,90.847c-1.8-6.825-6.671-17.39-19.561-17.625l0,23.3,15.152,0A4.545,4.545,0,0,0,370.558,90.847Z" fill="#eaeaea"/>
      <rect x="302.069" y="91.482" width="71.616" height="6.031" rx="3.015" ry="3.015" fill="#d8d8d8"/>
      <path d="M327.725,73.208h15.541a0,0,0,0,1,0,0V80.17a2.563,2.563,0,0,1-2.563,2.563H330.288a2.563,2.563,0,0,1-2.563-2.563V73.208A0,0,0,0,1,327.725,73.208Z" fill="#f2f2f2"/>
      <rect x="341.924" y="-68.524" width="19.507" height="142.434" fill="#aa5d52"/>
      <g>
        <path d="M383.4,73.217l-46.113-.009v.251l0,20.007a3.055,3.055,0,0,0,3.055,3.056l43.487.008,0-23.3C383.685,73.225,383.545,73.217,383.4,73.217Z" fill="#d31818"/>
        <path d="M403.39,90.853c-1.8-6.825-6.671-17.39-19.561-17.625l0,23.3,15.152,0A4.545,4.545,0,0,0,403.39,90.853Z" fill="#eaeaea"/>
        <rect x="334.901" y="91.487" width="71.616" height="6.031" rx="3.015" ry="3.015" fill="#bababa"/>
        <path d="M361.417,73.214h15.541a0,0,0,0,1,0,0v6.962a2.563,2.563,0,0,1-2.563,2.563H363.98a2.563,2.563,0,0,1-2.563-2.563V73.214A0,0,0,0,1,361.417,73.214Z" fill="#d8d8d8"/>
      </g>
      <rect x="309.352" y="-68.53" width="18.386" height="142.434" fill="#aa5d52"/>
      <rect x="337.989" y="-68.524" width="27.38" height="121.779" fill="#64bdff"/>
      <rect x="304.857" y="-68.53" width="27.38" height="121.779" fill="#64bdff"/>
      <g>
        <path d="M350.986,73.211,307.723,73.2a3.269,3.269,0,0,0-3.269,3.268v6.257l0,10.732a3.055,3.055,0,0,0,3.055,3.056l43.487.008,0-23.3Z" fill="#f42f2f"/>
        <path d="M370.558,90.847c-1.8-6.825-6.671-17.39-19.561-17.625l0,23.3,15.152,0A4.545,4.545,0,0,0,370.558,90.847Z" fill="#eaeaea"/>
        <rect x="302.069" y="91.482" width="71.616" height="6.031" rx="3.015" ry="3.015" fill="#d8d8d8"/>
        <path d="M327.725,73.208h15.541a0,0,0,0,1,0,0V80.17a2.563,2.563,0,0,1-2.563,2.563H330.288a2.563,2.563,0,0,1-2.563-2.563V73.208A0,0,0,0,1,327.725,73.208Z" fill="#f2f2f2"/>
      </g>
    </g>
  </g>
  <g clip-path="url(#clip-path-2)">
    <g>
      <rect x="38.063" y="3.568" width="462.559" height="350.932" fill="#ffda64"/>
      <rect x="54.355" y="10.996" width="312.119" height="147.846" rx="10.464" ry="10.464" fill="#383838" opacity="0.2"/>
      <path d="M110.689,136.716h166a0,0,0,0,1,0,0V229.19a36.351,36.351,0,0,1-36.351,36.351h-93.3a36.351,36.351,0,0,1-36.351-36.351V136.716A0,0,0,0,1,110.689,136.716Z" fill="#383838" opacity="0.2"/>
      <path d="M141.814,139.31h166a0,0,0,0,1,0,0v92.473a36.351,36.351,0,0,1-36.351,36.351h-93.3a36.351,36.351,0,0,1-36.351-36.351V139.31A0,0,0,0,1,141.814,139.31Z" fill="#dfe8ef"/>
      <path d="M183.368,120.6h32.956a0,0,0,0,1,0,0V179.9a16.478,16.478,0,0,1-16.478,16.478h0A16.478,16.478,0,0,1,183.368,179.9V120.6a0,0,0,0,1,0,0Z" transform="translate(424.973 278.383) rotate(169.622)" fill="#64bdff"/>
      <path d="M247.5,120.6h0a16.478,16.478,0,0,1,16.478,16.478v59.292a0,0,0,0,1,0,0H231.023a0,0,0,0,1,0,0V137.081A16.478,16.478,0,0,1,247.5,120.6Z" transform="translate(32.599 -41.992) rotate(10.378)" fill="#64bdff"/>
      <rect x="70.053" y="25.183" width="312.119" height="147.846" rx="10.464" ry="10.464" fill="#816056"/>
      <rect x="156.512" y="109.914" width="118.45" height="55.334" rx="5.954" ry="5.954" opacity="0.15"/>
      <path d="M159.971,259.085a102.489,102.489,0,0,0,127.96,0" fill="none" stroke="#fff" stroke-linecap="round" stroke-miterlimit="10" stroke-width="21.355"/>
      <path d="M174.669,187.982h97.7a0,0,0,0,1,0,0v28a34.251,34.251,0,0,1-34.251,34.251h-29.2a34.251,34.251,0,0,1-34.251-34.251v-28A0,0,0,0,1,174.669,187.982Z" transform="translate(447.037 438.214) rotate(180)" fill="#75d85d"/>
      <rect x="163.429" y="104.726" width="118.45" height="55.334" rx="5.954" ry="5.954" fill="#edf6fd"/>
      <rect x="171.211" y="112.508" width="8.646" height="8.646" rx="0.875" ry="0.875" fill="#dfe8ef"/>
      <rect x="184.674" y="112.508" width="8.646" height="8.646" rx="0.875" ry="0.875" fill="#dfe8ef"/>
      <rect x="198.137" y="112.508" width="8.646" height="8.646" rx="0.875" ry="0.875" fill="#dfe8ef"/>
      <rect x="211.6" y="112.508" width="8.646" height="8.646" rx="0.875" ry="0.875" fill="#dfe8ef"/>
      <rect x="225.063" y="112.508" width="8.646" height="8.646" rx="0.875" ry="0.875" fill="#dfe8ef"/>
      <rect x="238.526" y="112.508" width="8.646" height="8.646" rx="0.875" ry="0.875" fill="#dfe8ef"/>
      <rect x="251.989" y="112.508" width="8.646" height="8.646" rx="0.875" ry="0.875" fill="#dfe8ef"/>
      <rect x="265.452" y="112.508" width="8.646" height="8.646" rx="0.875" ry="0.875" fill="#dfe8ef"/>
      <rect x="171.211" y="128.07" width="8.646" height="8.646" rx="0.875" ry="0.875" fill="#dfe8ef"/>
      <rect x="184.674" y="128.07" width="8.646" height="8.646" rx="0.875" ry="0.875" fill="#dfe8ef"/>
      <rect x="198.137" y="128.07" width="8.646" height="8.646" rx="0.875" ry="0.875" fill="#dfe8ef"/>
      <rect x="211.6" y="128.07" width="8.646" height="8.646" rx="0.875" ry="0.875" fill="#dfe8ef"/>
      <rect x="225.063" y="128.07" width="8.646" height="8.646" rx="0.875" ry="0.875" fill="#dfe8ef"/>
      <rect x="238.526" y="128.07" width="8.646" height="8.646" rx="0.875" ry="0.875" fill="#dfe8ef"/>
      <rect x="251.989" y="128.07" width="8.646" height="8.646" rx="0.875" ry="0.875" fill="#dfe8ef"/>
      <rect x="265.452" y="128.07" width="8.646" height="8.646" rx="0.875" ry="0.875" fill="#dfe8ef"/>
      <g>
        <rect x="171.211" y="143.633" width="8.646" height="8.646" rx="0.875" ry="0.875" fill="#dfe8ef"/>
        <rect x="184.674" y="143.633" width="8.646" height="8.646" rx="0.875" ry="0.875" fill="#dfe8ef"/>
        <rect x="198.013" y="143.633" width="49.282" height="8.646" rx="0.875" ry="0.875" fill="#dfe8ef"/>
        <rect x="251.989" y="143.633" width="8.646" height="8.646" rx="0.875" ry="0.875" fill="#dfe8ef"/>
        <rect x="265.452" y="143.633" width="8.646" height="8.646" rx="0.875" ry="0.875" fill="#dfe8ef"/>
      </g>
      <rect x="163.429" y="43.34" width="116.72" height="61.386" rx="4.556" ry="4.556" fill="#383838"/>
      <rect x="171.211" y="51.121" width="102.022" height="44.959" fill="#fff"/>
      <rect x="171.211" y="51.121" width="22.48" height="44.959" fill="#efefef"/>
      <rect x="171.211" y="51.121" width="102.022" height="7.781" fill="#fec337"/>
      <path d="M261.993,122.272h21.615a0,0,0,0,1,0,0v80.84A10.807,10.807,0,0,1,272.8,213.919h0a10.807,10.807,0,0,1-10.807-10.807v-80.84A0,0,0,0,1,261.993,122.272Z" transform="translate(545.601 336.192) rotate(-180)" fill="#ffc1b0"/>
      <path d="M161.7,122.272h21.615a0,0,0,0,1,0,0v80.84a10.807,10.807,0,0,1-10.807,10.807h0A10.807,10.807,0,0,1,161.7,203.112v-80.84A0,0,0,0,1,161.7,122.272Z" transform="translate(345.015 336.192) rotate(180)" fill="#ffc1b0"/>
      <path d="M268.91,194.9h0a19.021,19.021,0,0,1,19.021,19.021v36.313a0,0,0,0,1,0,0H249.889a0,0,0,0,1,0,0V213.919A19.021,19.021,0,0,1,268.91,194.9Z" transform="translate(537.82 445.131) rotate(180)" fill="#75d85d"/>
      <path d="M174.669,194.9h0a19.021,19.021,0,0,1,19.021,19.021v36.313a0,0,0,0,1,0,0H155.648a0,0,0,0,1,0,0V213.919A19.021,19.021,0,0,1,174.669,194.9Z" transform="translate(349.338 445.131) rotate(180)" fill="#75d85d"/>
      <circle cx="223.951" cy="200.95" r="6.052" fill="#ffc1b0"/>
      <g>
        <path d="M261.561,233.678h6.484a0,0,0,0,1,0,0v12.969a0,0,0,0,1,0,0h-6.484a6.484,6.484,0,0,1-6.484-6.484v0A6.484,6.484,0,0,1,261.561,233.678Z" transform="translate(523.122 480.325) rotate(180)" fill="#ffc1b0"/>
        <path d="M186.341,233.678h6.484a0,0,0,0,1,0,0v12.969a0,0,0,0,1,0,0h-6.484a6.484,6.484,0,0,1-6.484-6.484v0A6.484,6.484,0,0,1,186.341,233.678Z" fill="#ffc1b0"/>
      </g>
      <line x1="177.695" y1="148.388" x2="187.206" y2="139.742" fill="none" stroke="#ffc1b0" stroke-linecap="round" stroke-miterlimit="10" stroke-width="6.917"/>
      <line x1="267.613" y1="148.388" x2="258.102" y2="139.742" fill="none" stroke="#ffc1b0" stroke-linecap="round" stroke-miterlimit="10" stroke-width="6.917"/>
      <circle cx="121.165" cy="126.552" r="14.576" fill="#383838" opacity="0.2"/>
      <g>
        <path d="M139.108,113.811h8.26a2.429,2.429,0,0,1,2.429,2.429v0a2.429,2.429,0,0,1-2.429,2.429h-8.26a0,0,0,0,1,0,0v-4.859A0,0,0,0,1,139.108,113.811Z" transform="translate(-32.548 61.023) rotate(-21.497)" fill="#dfe8ef"/>
        <circle cx="126.644" cy="122.732" r="14.576" fill="#edf6fd"/>
        <circle cx="126.644" cy="122.732" r="10.689" fill="#816056"/>
      </g>
      <rect x="203.982" y="84.788" width="25.073" height="3.458" fill="#efefef"/>
      <rect x="236.982" y="84.788" width="25.073" height="3.458" fill="#efefef"/>
      <path d="M217,64.5a8,8,0,1,0,8,8h-8Z" fill="#fec337"/>
      <g>
        <rect x="240" y="67.5" width="3" height="12" fill="#fec337"/>
        <rect x="255" y="67.5" width="3" height="12" fill="#fec337"/>
        <rect x="250" y="72.5" width="3" height="7" fill="#fec337"/>
        <rect x="245" y="64.5" width="3" height="15" fill="#fec337"/>
      </g>
    </g>
    <rect x="313.256" y="101.432" width="51.5" height="54.877" rx="5.739" ry="5.739" transform="translate(62.078 -105.317) rotate(19.406)" opacity="0.15"/>
    <g>
      <path d="M352.408,94.35l-10.627-3.744a1.4,1.4,0,0,0-1.781.853l-1.78,5.054" fill="none" stroke="#c4c6c6" stroke-miterlimit="10" stroke-width="2.533"/>
      <rect x="325.256" y="100.432" width="51.5" height="54.877" rx="5.739" ry="5.739" transform="translate(62.428 -109.361) rotate(19.406)" fill="#edf6fd"/>
      <rect x="329.642" y="117.616" width="46.012" height="11.82" rx="1.587" ry="1.587" transform="translate(61.078 -110.153) rotate(19.406)" fill="#303030"/>
      <rect x="337.237" y="100.737" width="21.529" height="10.975" rx="2.448" ry="2.448" transform="translate(55.065 -109.592) rotate(19.406)" fill="#dfe8ef"/>
      <rect x="343.544" y="85.485" width="17.73" height="17.73" rx="1.328" ry="1.328" transform="matrix(0.943, 0.332, -0.332, 0.943, 51.37, -111.731)" fill="#fff"/>
      <rect x="347.062" y="93.494" width="10.553" height="2.111" transform="translate(51.432 -111.697) rotate(19.406)" fill="#dfe8ef"/>
      <rect x="345.799" y="97.077" width="10.553" height="2.111" transform="translate(52.551 -111.074) rotate(19.406)" fill="#dfe8ef"/>
      <rect x="326.69" y="125.173" width="6.754" height="6.754" rx="1.431" ry="1.431" transform="matrix(0.943, 0.332, -0.332, 0.943, 61.464, -102.365)" fill="#d5dce0"/>
      <rect x="323.604" y="133.932" width="6.754" height="6.754" rx="1.431" ry="1.431" transform="translate(64.199 -100.842) rotate(19.406)" fill="#d5dce0"/>
      <rect x="332.363" y="137.018" width="6.754" height="6.754" rx="1.431" ry="1.431" transform="translate(65.722 -103.577) rotate(19.406)" fill="#d5dce0"/>
      <rect x="341.919" y="140.384" width="6.754" height="6.754" rx="1.431" ry="1.431" transform="translate(67.383 -106.561) rotate(19.406)" fill="#d5dce0"/>
      <rect x="335.947" y="128.434" width="6.754" height="6.754" rx="1.431" ry="1.431" transform="matrix(0.943, 0.332, -0.332, 0.943, 63.073, -105.255)" fill="#d5dce0"/>
      <rect x="345.204" y="131.695" width="6.754" height="6.754" rx="1.431" ry="1.431" transform="translate(64.683 -108.146) rotate(19.406)" fill="#d5dce0"/>
      <rect x="354.461" y="134.956" width="6.754" height="6.754" rx="1.431" ry="1.431" transform="translate(66.292 -111.036) rotate(19.406)" fill="#d5dce0"/>
      <rect x="350.773" y="144.053" width="6.754" height="10.131" rx="1.431" ry="1.431" transform="translate(69.666 -109.199) rotate(19.406)" fill="#d5dce0"/>
      <rect x="359.533" y="147.138" width="6.754" height="10.131" rx="1.431" ry="1.431" transform="translate(71.189 -111.934) rotate(19.406)" fill="#ff6268"/>
      <rect x="363.718" y="138.217" width="6.754" height="6.754" rx="1.431" ry="1.431" transform="translate(67.902 -113.927) rotate(19.406)" fill="#d5dce0"/>
      <g>
        <rect x="343.899" y="111.305" width="2.111" height="18.574" transform="translate(116.599 405.881) rotate(-70.594)" fill="#22d1af"/>
        <rect x="359.427" y="123.951" width="2.111" height="4.221" transform="translate(121.808 424.179) rotate(-70.594)" fill="#22d1af"/>
      </g>
    </g>
  </g>
  <g>
    <g clip-path="url(#clip-path-3)">
      <g>
        <rect x="376.15" y="258.988" width="342.304" height="311.66" fill="#ffda64"/>
        <path d="M485.048,435.683H611.895a20.36,20.36,0,0,1,20.36,20.36V587.6a0,0,0,0,1,0,0H464.688a0,0,0,0,1,0,0V456.043A20.36,20.36,0,0,1,485.048,435.683Z" fill="#b280ce"/>
        <line x1="475.12" y1="492.407" x2="616.606" y2="492.407" fill="none" stroke="#8a5da8" stroke-linecap="round" stroke-miterlimit="10" stroke-width="6.52"/>
        <g>
          <path d="M510.225,388.215a42.582,42.582,0,0,1-25.884,68.807l-.1.018a4.491,4.491,0,0,0-2.006,8.052,42.59,42.59,0,1,0,27.992-76.877Z" fill="#303030"/>
          <path d="M569.686,456.68l-40.612-.008a20.555,20.555,0,0,0-20.558,20.552l3.463,34.384a288.9,288.9,0,0,1-2.966,79.293l-.518,2.931a3.285,3.285,0,0,0,3.285,3.286l75.15.014a3.286,3.286,0,0,0,3.286-3.286h0a288.907,288.907,0,0,1-3.392-85.255l3.413-31.353A20.554,20.554,0,0,0,569.686,456.68Z" fill="#9e69b7"/>
          <rect x="525.437" y="519.406" width="49.215" height="6.81" fill="#7c489b"/>
          <path d="M569.686,456.68l-40.612-.008a20.555,20.555,0,0,0-20.558,20.552l3.463,34.384a288.9,288.9,0,0,1-2.966,79.293l-.518,2.931a3.285,3.285,0,0,0,3.285,3.286l75.15.014a3.286,3.286,0,0,0,3.286-3.286h0a288.907,288.907,0,0,1-3.392-85.255l3.413-31.353A20.554,20.554,0,0,0,569.686,456.68Z" fill="#ff6268"/>
          <rect x="525.437" y="519.406" width="49.215" height="6.81" fill="#7c489b"/>
          <path d="M539.041,442.407h20.68a0,0,0,0,1,0,0v16.634a10.34,10.34,0,0,1-10.34,10.34h0a10.34,10.34,0,0,1-10.34-10.34V442.407a0,0,0,0,1,0,0Z" fill="#aa5d52"/>
          <g>
            <g>
              <path d="M562.651,425.343a2.511,2.511,0,0,1,2.519,2.884,16.046,16.046,0,0,1-31.569,0,2.512,2.512,0,0,1,2.52-2.884Z" fill="#1a1a1a"/>
              <path d="M552.349,435.01c-3.6,1.107-6.108,3.622-6.281,6.017a16.161,16.161,0,0,0,3.315.357,15.987,15.987,0,0,0,11.551-4.922C559.449,434.572,555.955,433.9,552.349,435.01Z" fill="#f76c66"/>
            </g>
            <path d="M562.651,425.266l-26.53,0a2.488,2.488,0,0,0-2.52,2.845,15.512,15.512,0,0,0,.74,2.659l30.088.006a15.631,15.631,0,0,0,.741-2.659A2.489,2.489,0,0,0,562.651,425.266Z" fill="#e6e7e8"/>
          </g>
          <rect x="525.038" y="456.676" width="48.681" height="20.424" rx="10.212" ry="10.212" fill="#aa5d52"/>
          <path d="M568.646,524.512a4.394,4.394,0,0,1-2.563-1.35l-6.863-7.338a4.414,4.414,0,0,1,6.449-6.03l6.863,7.339a4.414,4.414,0,0,1-3.886,7.379Z" fill="#aa5d52"/>
          <path d="M528.3,524.512a4.391,4.391,0,0,0,2.562-1.35l6.863-7.338a4.414,4.414,0,0,0-6.448-6.03l-6.863,7.339a4.414,4.414,0,0,0,3.886,7.379Z" fill="#aa5d52"/>
          <path d="M549.913,318.973h0A52.107,52.107,0,0,1,602.02,371.08v28.862a0,0,0,0,1,0,0H497.806a0,0,0,0,1,0,0V371.08a52.107,52.107,0,0,1,52.107-52.107Z" fill="#303030"/>
          <circle cx="504.859" cy="399.934" r="14.218" fill="#8c463f"/>
          <circle cx="593.922" cy="399.95" r="14.218" fill="#8c463f"/>
          <path d="M504.864,373.973l-.006,33.24a44.53,44.53,0,0,0,44.523,44.539h0a44.532,44.532,0,0,0,44.54-44.523l.006-33.24L570.9,352.355Z" fill="#aa5d52"/>
          <g>
            <path d="M521.89,389.25a2.248,2.248,0,0,1-.709-4.381l10.79-3.6a2.248,2.248,0,0,1,1.42,4.266l-10.79,3.594A2.233,2.233,0,0,1,521.89,389.25Z" fill="#303030"/>
            <path d="M576.9,389.065a2.233,2.233,0,0,1-.711-.116l-10.789-3.6a2.248,2.248,0,0,1,1.422-4.265l10.789,3.6a2.248,2.248,0,0,1-.711,4.381Z" fill="#303030"/>
            <path d="M539.554,402.653a2.248,2.248,0,0,1-2.191-1.755,5.722,5.722,0,0,0-11.166,0,2.248,2.248,0,0,1-4.386-.986,10.218,10.218,0,0,1,19.938,0,2.247,2.247,0,0,1-1.7,2.685A2.213,2.213,0,0,1,539.554,402.653Z" fill="#683631"/>
            <path d="M574.71,402.66a2.249,2.249,0,0,1-2.191-1.756,5.722,5.722,0,0,0-11.166,0,2.247,2.247,0,1,1-4.385-.986,10.217,10.217,0,0,1,19.937,0,2.248,2.248,0,0,1-1.7,2.686A2.275,2.275,0,0,1,574.71,402.66Z" fill="#683631"/>
          </g>
          <path d="M570.926,336.937l-72.65,28.177c.109.482.234.96.39,1.434,4.225,12.771,24.417,17.577,45.1,10.734s34.027-22.742,29.8-35.512A15.6,15.6,0,0,0,570.926,336.937Z" fill="#303030"/>
          <path d="M601.717,373.664l-32.885-26.631c-.2.181-.389.369-.57.571-4.878,5.437-1.694,16.25,7.113,24.15s19.9,9.9,24.778,4.46A8.469,8.469,0,0,0,601.717,373.664Z" fill="#303030"/>
          <path d="M497.83,381.389h6.958a0,0,0,0,1,0,0v40.091a3.479,3.479,0,0,1-3.479,3.479h0a3.479,3.479,0,0,1-3.479-3.479V381.389A0,0,0,0,1,497.83,381.389Z" fill="#303030"/>
          <path d="M593.938,381.407h8.106a0,0,0,0,1,0,0v39.517a4.053,4.053,0,0,1-4.053,4.053h0a4.053,4.053,0,0,1-4.053-4.053V381.407A0,0,0,0,1,593.938,381.407Z" fill="#303030"/>
          <path d="M558.355,416.747H541.733a2.579,2.579,0,1,1,0-5.158h16.622a2.579,2.579,0,0,1,0,5.158Z" fill="#683631"/>
          <path d="M549.913,318.973h0A52.107,52.107,0,0,1,602.02,371.08v28.862a0,0,0,0,1,0,0H497.806a0,0,0,0,1,0,0V371.08a52.107,52.107,0,0,1,52.107-52.107Z" fill="#303030"/>
          <rect x="535.726" y="496.803" width="26.143" height="42.327" rx="3.131" ry="3.131" fill="#383838"/>
          <path d="M510.225,388.215a42.582,42.582,0,0,1-25.884,68.807l-.1.018a4.491,4.491,0,0,0-2.006,8.052,42.59,42.59,0,1,0,27.992-76.877Z" fill="#303030"/>
          <path d="M573.074,479.375l28.509,36.24a6.761,6.761,0,0,1-5.064,10.936l-37.139,1.375" fill="none" stroke="#aa5d52" stroke-linecap="round" stroke-miterlimit="10" stroke-width="18.674"/>
          <path d="M539.041,442.407h20.68a0,0,0,0,1,0,0v16.634a10.34,10.34,0,0,1-10.34,10.34h0a10.34,10.34,0,0,1-10.34-10.34V442.407a0,0,0,0,1,0,0Z" fill="#aa5d52"/>
          <path d="M551.526,462.549h33.842A19.128,19.128,0,0,1,604.5,481.677v0a19.128,19.128,0,0,1-19.128,19.128H551.526a2.943,2.943,0,0,1-2.943-2.943V465.492a2.943,2.943,0,0,1,2.943-2.943Z" transform="translate(643.618 1229.949) rotate(-135)" fill="#ff6268"/>
          <path d="M523.87,479.375l-28.509,36.24a6.761,6.761,0,0,0,5.063,10.936l37.14,1.375" fill="none" stroke="#aa5d52" stroke-linecap="round" stroke-miterlimit="10" stroke-width="18.674"/>
          <path d="M497.88,462.549h33.842a19.128,19.128,0,0,1,19.128,19.128v0a19.128,19.128,0,0,1-19.128,19.128H497.88a2.943,2.943,0,0,1-2.943-2.943V465.492A2.943,2.943,0,0,1,497.88,462.549Z" transform="translate(-187.445 510.822) rotate(-45)" fill="#ff6268"/>
          <circle cx="504.859" cy="399.934" r="14.218" fill="#8c463f"/>
          <circle cx="593.922" cy="399.95" r="14.218" fill="#8c463f"/>
          <path d="M504.864,373.973l-.006,33.24a44.53,44.53,0,0,0,44.523,44.539h0a44.532,44.532,0,0,0,44.54-44.523l.006-33.24L570.9,352.355Z" fill="#aa5d52"/>
          <path d="M521.89,390.5a2.248,2.248,0,0,1-.709-4.381l10.79-3.595a2.248,2.248,0,1,1,1.42,4.265l-10.79,3.6A2.233,2.233,0,0,1,521.89,390.5Z" fill="#303030"/>
          <path d="M576.9,390.31a2.233,2.233,0,0,1-.711-.116L565.4,386.6a2.248,2.248,0,0,1,1.422-4.265l10.789,3.6a2.248,2.248,0,0,1-.711,4.381Z" fill="#303030"/>
          <g>
            <path d="M562.651,425.343a2.511,2.511,0,0,1,2.519,2.884,16.046,16.046,0,0,1-31.569,0,2.512,2.512,0,0,1,2.52-2.884Z" fill="#1a1a1a"/>
            <path d="M552.349,435.01c-3.6,1.107-6.108,3.622-6.281,6.017a16.161,16.161,0,0,0,3.315.357,15.987,15.987,0,0,0,11.551-4.922C559.449,434.572,555.955,433.9,552.349,435.01Z" fill="#f76c66"/>
          </g>
          <path d="M562.651,425.266l-26.53,0a2.488,2.488,0,0,0-2.52,2.845,15.512,15.512,0,0,0,.74,2.659l30.088.006a15.631,15.631,0,0,0,.741-2.659A2.489,2.489,0,0,0,562.651,425.266Z" fill="#e6e7e8"/>
          <rect x="525.038" y="456.676" width="48.681" height="20.424" rx="10.212" ry="10.212" fill="#aa5d52"/>
          <path d="M570.926,336.937l-72.65,28.177c.109.482.234.96.39,1.434,4.225,12.771,24.417,17.577,45.1,10.734s34.027-22.742,29.8-35.512A15.6,15.6,0,0,0,570.926,336.937Z" fill="#303030"/>
          <path d="M601.717,373.664l-32.885-26.631c-.2.181-.389.369-.57.571-4.878,5.437-1.694,16.25,7.113,24.15s19.9,9.9,24.778,4.46A8.469,8.469,0,0,0,601.717,373.664Z" fill="#303030"/>
          <path d="M497.83,381.389h6.958a0,0,0,0,1,0,0v40.091a3.479,3.479,0,0,1-3.479,3.479h0a3.479,3.479,0,0,1-3.479-3.479V381.389A0,0,0,0,1,497.83,381.389Z" fill="#303030"/>
          <path d="M593.938,381.407h8.106a0,0,0,0,1,0,0v39.517a4.053,4.053,0,0,1-4.053,4.053h0a4.053,4.053,0,0,1-4.053-4.053V381.407A0,0,0,0,1,593.938,381.407Z" fill="#303030"/>
          <path d="M558.355,416.747H541.733a2.579,2.579,0,1,1,0-5.158h16.622a2.579,2.579,0,0,1,0,5.158Z" fill="#683631"/>
          <circle cx="529.447" cy="402.796" r="4.896" fill="#303030"/>
          <circle cx="570.111" cy="402.796" r="4.896" fill="#303030"/>
        </g>
        <g>
          <path d="M301.972,435.683H428.818a20.36,20.36,0,0,1,20.36,20.36V587.6a0,0,0,0,1,0,0H281.612a0,0,0,0,1,0,0V456.043A20.36,20.36,0,0,1,301.972,435.683Z" fill="#b280ce"/>
          <line x1="294.652" y1="492.407" x2="436.138" y2="492.407" fill="none" stroke="#8a5da8" stroke-linecap="round" stroke-miterlimit="10" stroke-width="6.52"/>
        </g>
        <g>
          <path d="M668.4,435.683H795.247a20.36,20.36,0,0,1,20.36,20.36V587.6a0,0,0,0,1,0,0H648.041a0,0,0,0,1,0,0V456.043A20.36,20.36,0,0,1,668.4,435.683Z" fill="#b280ce"/>
          <line x1="661.081" y1="492.407" x2="802.567" y2="492.407" fill="none" stroke="#8a5da8" stroke-linecap="round" stroke-miterlimit="10" stroke-width="6.52"/>
        </g>
      </g>
    </g>
    <g>
      <circle cx="609.637" cy="474.732" r="30.642" fill="#fec337" stroke="#fff" stroke-miterlimit="10" stroke-width="6.917"/>
      <path d="M574.111,498.508l11.938-.169a2.255,2.255,0,0,0,1.9-3.409l-6.117-10.254a2.253,2.253,0,0,0-3.9.056l-5.822,10.424A2.253,2.253,0,0,0,574.111,498.508Z" fill="#fff"/>
    </g>
  </g>
  <path d="M621.1,467.844h0a6.477,6.477,0,0,0-9.159,0l-1.687,1.687-1.687-1.687a6.478,6.478,0,0,0-9.16,0h0a6.477,6.477,0,0,0,0,9.159l1.688,1.688h0l8.617,8.617a.767.767,0,0,0,1.084,0l8.617-8.617L621.1,477A6.477,6.477,0,0,0,621.1,467.844Z" fill="#fff"/>
  <rect x="398" y="7.5" width="303" height="229" rx="24.72" ry="24.72" fill="#ffda64"/>
  <rect x="39.667" y="363.5" width="335" height="202" rx="24.72" ry="24.72" fill="#ffda64"/>
  <circle cx="223.452" cy="282.609" r="24.594" fill="#303030"/>
  <path d="M201.562,273.276h0a86.063,86.063,0,0,0,42.665,0h0a19.747,19.747,0,0,0,14.852-19.13v-18.33a36.185,36.185,0,0,0-36.185-36.185h0a36.186,36.186,0,0,0-36.185,36.185v18.33A19.748,19.748,0,0,0,201.562,273.276Z" fill="#303030"/>
  <path d="M244.888,207.09a36.015,36.015,0,0,1,7.459,21.994v18.329a19.747,19.747,0,0,1-14.853,19.131h0a86.083,86.083,0,0,1-42.664,0h0a19.7,19.7,0,0,1-5.279-2.223,19.713,19.713,0,0,0,12.011,8.955h0a86.063,86.063,0,0,0,42.665,0h0a19.746,19.746,0,0,0,14.852-19.13v-18.33A36.118,36.118,0,0,0,244.888,207.09Z" fill="#383838"/>
  <circle cx="104.388" cy="65.21" r="23.008" fill="#383838" opacity="0.2"/>
  <g>
    <circle cx="110" cy="60.5" r="24" fill="#edf6fd"/>
    <circle cx="110" cy="60.5" r="18" fill="#816056"/>
    <g>
      <path d="M111.085,59.707C106.693,43.893,90,50.043,90,50.043s2.636-.879,6.15,6.15,11.421,6.15,11.421,6.15Z" fill="#75d85d"/>
      <path d="M107.777,57.047s-4.454.48-5.989-7.326S98.84,43.28,98.84,43.28s10.895-3.427,13.749,8.569S107.777,57.047,107.777,57.047Z" fill="#54c634"/>
      <path d="M113.318,63.666s4.432-.652,6.267,7.09,3.194,6.322,3.194,6.322-10.754,3.845-14.068-8.032S113.318,63.666,113.318,63.666Z" fill="#54c634"/>
      <path d="M114.643,55.648s1.661-4.161,9.277-1.86,7.071.413,7.071.413-2.074,11.231-14.01,8.133S114.643,55.648,114.643,55.648Z" fill="#54c634"/>
      <path d="M104.1,63.473s-.154,3.768-6.845,4.077S91.526,69.2,91.526,69.2s-1.5-9.5,8.843-10.384S104.1,63.473,104.1,63.473Z" fill="#54c634"/>
      <path d="M107.571,57.071s0-7.028,6.15-9.664,5.271-7.907,5.271-7.907,6.15,3.514,5.272,10.543-8.786,8.785-11.421,9.664S107.571,57.071,107.571,57.071Z" fill="#75d85d"/>
      <path d="M106.971,62.779a9.294,9.294,0,0,0,8.628,6.836c7.076.328,9.077,4.238,9.077,4.238S127.659,56.537,112.2,58.33,106.971,62.779,106.971,62.779Z" fill="#75d85d"/>
      <path d="M104.672,56.193s-9.111,9.111-4.556,17.083,2.278,13.666,2.278,13.666S117.2,80.109,111.505,71s-2.278-12.528-2.278-12.528Z" fill="#75d85d"/>
    </g>
  </g>
  <g>
    <rect x="289" y="45.5" width="33" height="47" rx="7.232" ry="7.232" fill="#383838" opacity="0.2"/>
    <g>
      <rect x="293.25" y="41.5" width="33" height="47" rx="7.232" ry="7.232" fill="#383838"/>
      <path d="M301.615,88.5V56.635A8.135,8.135,0,0,1,309.75,48.5h0a8.135,8.135,0,0,1,8.135,8.135V88.5" fill="none" stroke="#000" stroke-miterlimit="10" stroke-width="4"/>
    </g>
  </g>
  <g clip-path="url(#clip-path-4)">
    <g>
      <g>
        <path d="M816.207,230.49c-.039.168-.081.335-.125.5a14.651,14.651,0,0,1-17.944,10.358c-125.631-33.669-124.259-89.839-123.688-96.133l29.18,2.643a3.79,3.79,0,0,0,.038-.609c0,.385,1.146,38.753,102.055,65.8A14.651,14.651,0,0,1,816.207,230.49Z" fill="#eaafa9"/>
        <g>
          <path d="M670.4-31.171A41.175,41.175,0,0,0,628.145-8.424h-5.692a21.246,21.246,0,0,0-21.246,21.246V27.393h26.764A41.168,41.168,0,1,0,670.4-31.171Z" fill="#606060"/>
          <path d="M538.875,289.125c.119.125.24.247.364.369a14.651,14.651,0,0,0,20.717-.244C650.836,196.2,621,148.591,617.3,143.469l-23.75,17.159a3.854,3.854,0,0,1-.343-.5c.2.331,18.783,33.916-54.212,108.653A14.65,14.65,0,0,0,538.875,289.125Z" fill="#d18b6b"/>
          <path d="M621.7,126.194h59.948a24.437,24.437,0,0,1,24.437,24.437V282.152a3.907,3.907,0,0,1-3.907,3.907H601.173a3.907,3.907,0,0,1-3.907-3.907V150.631A24.437,24.437,0,0,1,621.7,126.194Z" fill="#333"/>
          <g>
            <rect x="601.455" y="286.059" width="100.815" height="173.261" fill="#d8bf8b"/>
            <g>
              <path d="M601.618,316.26v-5.708a24.521,24.521,0,0,0,24.494-24.493h5.707A30.235,30.235,0,0,1,601.618,316.26Z" fill="#b59661"/>
              <path d="M702.107,316.26a30.235,30.235,0,0,1-30.2-30.2h5.708a24.52,24.52,0,0,0,24.493,24.493Z" fill="#b59661"/>
            </g>
            <rect x="649.009" y="319.266" width="5.708" height="140.054" fill="#b59661"/>
            <rect x="642.096" y="315.436" width="19.534" height="5.708" fill="#b59661"/>
          </g>
          <g>
            <path d="M588.54,459.34h60.445v26.553a4.006,4.006,0,0,1-4.006,4.006h-57V459.354C588.165,459.351,588.349,459.34,588.54,459.34Z" fill="#75d353"/>
            <path d="M562.331,482.453c2.361-8.946,8.749-22.793,25.645-23.1V489.9H568.115A5.957,5.957,0,0,1,562.331,482.453Z" fill="#eaeaea"/>
            <rect x="558.232" y="483.292" width="93.875" height="7.905" rx="3.953" ry="3.953" transform="translate(1210.339 974.49) rotate(-180)" fill="#d8d8d8"/>
            <path d="M603.985,459.34H623.55a3.36,3.36,0,0,1,3.36,3.36v9.126a0,0,0,0,1,0,0H600.625a0,0,0,0,1,0,0V462.7A3.36,3.36,0,0,1,603.985,459.34Z" transform="translate(1227.535 931.166) rotate(-180)" fill="#f2f2f2"/>
          </g>
          <g>
            <path d="M715.165,459.34H654.721v26.553a4.005,4.005,0,0,0,4,4.006h57V459.354C715.54,459.351,715.357,459.34,715.165,459.34Z" fill="#75d353"/>
            <path d="M741.374,482.453c-2.361-8.946-8.749-22.793-25.645-23.1V489.9H735.59A5.957,5.957,0,0,0,741.374,482.453Z" fill="#eaeaea"/>
            <rect x="651.598" y="483.292" width="93.875" height="7.905" rx="3.953" ry="3.953" fill="#d8d8d8"/>
            <path d="M676.8,459.34H703.08a0,0,0,0,1,0,0v9.126a3.36,3.36,0,0,1-3.36,3.36H680.155a3.36,3.36,0,0,1-3.36-3.36V459.34A0,0,0,0,1,676.8,459.34Z" fill="#f2f2f2"/>
          </g>
          <path d="M577.648,138.551h44.928a25.394,25.394,0,0,1,25.394,25.394v0a25.394,25.394,0,0,1-25.394,25.394H577.648a3.907,3.907,0,0,1-3.907-3.907V142.458a3.907,3.907,0,0,1,3.907-3.907Z" transform="translate(338.144 734.604) rotate(-79.481)" fill="#333"/>
          <path d="M660.912,134.916H705.84a25.394,25.394,0,0,1,25.394,25.394v0A25.394,25.394,0,0,1,705.84,185.7H660.912a3.907,3.907,0,0,1-3.907-3.907V138.823a3.907,3.907,0,0,1,3.907-3.907Z" transform="translate(1030.617 788.219) rotate(-131.192)" fill="#333"/>
          <path d="M639.78,116.319h25.344a0,0,0,0,1,0,0V136.7a12.672,12.672,0,0,1-12.672,12.672h0A12.672,12.672,0,0,1,639.78,136.7V116.319A0,0,0,0,1,639.78,116.319Z" fill="#d18b6b"/>
          <path d="M636.93,120.8,626.387,149.21a3.907,3.907,0,0,0,4.51,5.173l21.654-4.812Z" fill="#f2f2f2"/>
          <path d="M668.016,120.8l10.368,28.441a3.907,3.907,0,0,1-4.518,5.151l-21.7-4.822Z" fill="#f2f2f2"/>
          <circle cx="705.544" cy="64.788" r="16.365" fill="#d18b6b"/>
          <circle cx="601.207" cy="64.788" r="16.365" fill="#d18b6b"/>
          <circle cx="652.668" cy="168.175" r="4.5" fill="#ffe9e9"/>
          <circle cx="652.668" cy="189.804" r="4.5" fill="#ffe9e9"/>
          <circle cx="652.668" cy="168.175" r="4.5" fill="#ffe9e9"/>
          <path d="M601.98,25.043V82.548a50.687,50.687,0,0,0,50.688,50.687h0a50.687,50.687,0,0,0,50.687-50.687v-57.5Z" fill="#d18b6b"/>
          <circle cx="622.048" cy="60.063" r="5.142" fill="#303030"/>
          <circle cx="671.29" cy="60.063" r="5.142" fill="#303030"/>
          <path d="M619.394,50.82a2.486,2.486,0,0,1-2.333-3.348,12.316,12.316,0,0,1,15.823-7.287,2.487,2.487,0,1,1-1.724,4.666,7.341,7.341,0,0,0-9.433,4.343A2.488,2.488,0,0,1,619.394,50.82Z" fill="#606060"/>
          <path d="M685.625,50.82a2.488,2.488,0,0,1-2.333-1.625,7.347,7.347,0,0,0-9.434-4.344,2.487,2.487,0,1,1-1.724-4.666,12.335,12.335,0,0,1,15.824,7.286,2.487,2.487,0,0,1-2.333,3.349Z" fill="#606060"/>
          <path d="M680.3,84.542h0a3.407,3.407,0,0,0-3.424-3.39H629.6a3.408,3.408,0,0,0-3.425,3.39h0a3.407,3.407,0,0,1-3.425,3.389H601.207v2.722c0,27.915,22.867,50.545,51.074,50.545h0c28.208,0,51.074-22.63,51.074-50.545V87.931h-19.63A3.407,3.407,0,0,1,680.3,84.542Z" fill="#606060"/>
          <g>
            <path d="M638.192,92.433h33.05a0,0,0,0,1,0,0v7.856A14.237,14.237,0,0,1,657,114.527h-14.28A4.532,4.532,0,0,1,638.192,110V92.433A0,0,0,0,1,638.192,92.433Z" fill="#41352e"/>
            <rect x="637.528" y="92.269" width="34.379" height="8.507" fill="#e6e7e8"/>
            <path d="M669.381,107.389a9.321,9.321,0,0,0-16.016,6.49c0,.231.018.458.035.686h3.629A14.221,14.221,0,0,0,669.381,107.389Z" fill="#f76c66"/>
          </g>
          <path d="M659.192,77.746H647.559a2.755,2.755,0,0,1,0-5.509h11.633a2.755,2.755,0,0,1,0,5.509Z" fill="#ad6b50"/>
          <rect x="601.299" y="19.211" width="8.424" height="73.058" fill="#606060"/>
          <rect x="694.931" y="19.211" width="8.424" height="73.058" fill="#606060"/>
        </g>
      </g>
      <rect x="447.901" y="291.272" width="85.101" height="195.716" transform="matrix(-1, 0, 0, -1, 980.832, 778.349)" fill="#64bdff"/>
      <path d="M532.956,313.782v-5.82a24.294,24.294,0,0,1-16.167-16.594h-5.82A29.913,29.913,0,0,0,532.956,313.782Z" fill="#1e78ba"/>
      <path d="M469.94,291.45h-5.82a24.293,24.293,0,0,1-16.173,16.589v5.82A29.915,29.915,0,0,0,469.94,291.45Z" fill="#1e78ba"/>
      <path d="M532.956,313.782v-5.82a24.294,24.294,0,0,1-16.167-16.594h-5.82A29.913,29.913,0,0,0,532.956,313.782Z" fill="#1e78ba"/>
      <path d="M469.94,291.45h-5.82a24.293,24.293,0,0,1-16.173,16.589v5.82A29.915,29.915,0,0,0,469.94,291.45Z" fill="#1e78ba"/>
      <g>
        <path d="M427.225,486.646l61,.011v.332l0,26.464a4.042,4.042,0,0,1-4.043,4.042l-57.523-.01,0-30.824C426.847,486.657,427.032,486.646,427.225,486.646Z" fill="#303030"/>
        <path d="M400.773,509.966c2.384-9.027,8.833-23,25.883-23.305l0,30.824-20.043,0A6.011,6.011,0,0,1,400.773,509.966Z" fill="#d8d8d8"/>
        <rect x="396.635" y="510.821" width="94.732" height="7.977" rx="3.989" ry="3.989" transform="translate(887.909 1029.699) rotate(-179.99)" fill="#b7b7b7"/>
        <path d="M442.81,486.651h19.744a3.39,3.39,0,0,1,3.39,3.39v9.21a0,0,0,0,1,0,0H439.419a0,0,0,0,1,0,0v-9.21A3.39,3.39,0,0,1,442.81,486.651Z" transform="translate(905.274 985.984) rotate(-179.99)" fill="#d8d8d8"/>
      </g>
      <g>
        <path d="M553.775,486.646l-61,.011v.332l0,26.464a4.042,4.042,0,0,0,4.043,4.042l57.523-.01,0-30.824C554.153,486.657,553.968,486.646,553.775,486.646Z" fill="#303030"/>
        <path d="M580.227,509.966c-2.384-9.027-8.833-23-25.883-23.305l0,30.824,20.043,0A6.011,6.011,0,0,0,580.227,509.966Z" fill="#d8d8d8"/>
        <rect x="489.632" y="510.821" width="94.732" height="7.977" rx="3.989" ry="3.989" fill="#b7b7b7"/>
        <path d="M515.056,486.651h26.525a0,0,0,0,1,0,0v9.21a3.39,3.39,0,0,1-3.39,3.39H518.446a3.39,3.39,0,0,1-3.39-3.39v-9.21a0,0,0,0,1,0,0Z" fill="#d8d8d8"/>
      </g>
      <rect x="487.627" y="328.783" width="5.642" height="158.205" fill="#1e78ba"/>
      <rect x="480.808" y="325.961" width="19.309" height="5.642" fill="#1e78ba"/>
      <path d="M461.587,128.179l57.827.009a24.66,24.66,0,0,1,24.655,24.665l-.023,131.809a9.729,9.729,0,0,1-9.731,9.728l-87.687-.015a9.729,9.729,0,0,1-9.728-9.731l.023-131.809A24.66,24.66,0,0,1,461.587,128.179Z" fill="#fd7700"/>
      <rect x="487.627" y="328.783" width="5.642" height="158.205" fill="#1e78ba"/>
      <path d="M453.82,150.6l-40,67.1a5.707,5.707,0,0,0,7.14,7.853l28.583-4.5a8.714,8.714,0,0,1,2.091-.076l19.431,1.636" fill="none" stroke="#eaafa9" stroke-linecap="round" stroke-miterlimit="10" stroke-width="29.188"/>
      <path d="M431.726,125.938h42.267a4.865,4.865,0,0,1,4.865,4.865v42.125a26,26,0,0,1-26,26h0a26,26,0,0,1-26-26V130.8a4.865,4.865,0,0,1,4.865-4.865Z" transform="translate(708.622 569.925) rotate(-141.846)" fill="#fd7700"/>
      <path d="M524.806,150.6l40,67.1a5.707,5.707,0,0,1-7.14,7.853l-28.584-4.5a8.711,8.711,0,0,0-2.091-.076l-19.431,1.636" fill="none" stroke="#eaafa9" stroke-linecap="round" stroke-miterlimit="10" stroke-width="29.188"/>
      <path d="M525.766,125.938h0a26,26,0,0,1,26,26v42.125a4.865,4.865,0,0,1-4.865,4.865H504.633a4.865,4.865,0,0,1-4.865-4.865V151.936A26,26,0,0,1,525.766,125.938Z" transform="translate(11.981 359.507) rotate(-38.154)" fill="#fd7700"/>
      <g>
        <path d="M488.628,196.849c-28.4,0-51.421-6.918-51.421-15.453v4.468a51.421,51.421,0,0,0,51.421,51.421h0a51.421,51.421,0,0,0,51.421-51.421V181.4C540.049,189.931,517.027,196.849,488.628,196.849Z" fill="#eaeaea"/>
        <ellipse cx="488.628" cy="181.396" rx="51.421" ry="15.454" fill="#b7b7b7"/>
        <ellipse cx="488.628" cy="187.789" rx="46.811" ry="9.061" fill="#bc4a44"/>
      </g>
      <path d="M463.8-6.98h6.537c16.847-10.144,36.7,2.536,56.15,5.444l4.415.66a8.779,8.779,0,0,1,7.481,8.682V67.835h-101.6v-47.8A27.018,27.018,0,0,1,463.8-6.98Z" fill="#9c4a3f"/>
      <path d="M473.733,108.483h29.789a0,0,0,0,1,0,0v30.7a14.894,14.894,0,0,1-14.894,14.894h0a14.894,14.894,0,0,1-14.894-14.894v-30.7a0,0,0,0,1,0,0Z" fill="#f4a991"/>
      <circle cx="443.67" cy="75.109" r="16.001" fill="#f4a991"/>
      <circle cx="531.564" cy="75.109" r="16.001" fill="#f4a991"/>
      <path d="M525.341,42.968H500a20.587,20.587,0,0,1-12.844-4.5l-11.433-9.124a3.93,3.93,0,0,0-5.5.588l-4.45,5.456a20.592,20.592,0,0,1-15.958,7.577h0a6.223,6.223,0,0,0-6.223,6.223v37.76a43.983,43.983,0,0,0,43.983,43.982h0a43.983,43.983,0,0,0,43.982-43.982V49.191A6.223,6.223,0,0,0,525.341,42.968Z" fill="#fbcab7"/>
      <g>
        <circle cx="476.268" cy="73.717" r="4.839" fill="#492420"/>
        <circle cx="518.193" cy="73.717" r="4.839" fill="#492420"/>
      </g>
      <path d="M476.266,108.944a22.413,22.413,0,0,0,19.877,1.287" fill="none" stroke="#ec9e89" stroke-linecap="round" stroke-miterlimit="10" stroke-width="4.763"/>
      <path d="M494.47,72.07V92.18a.548.548,0,0,1-.547.548h-7.984" fill="none" stroke="#ec9e89" stroke-linecap="round" stroke-miterlimit="10" stroke-width="4.763"/>
      <path d="M463.085,66.364a9.415,9.415,0,0,1,12.094-5.57" fill="none" stroke="#9c4a3f" stroke-linecap="round" stroke-miterlimit="10" stroke-width="4.763"/>
      <path d="M526.514,66.364a9.416,9.416,0,0,0-12.1-5.57" fill="none" stroke="#9c4a3f" stroke-linecap="round" stroke-miterlimit="10" stroke-width="4.763"/>
      <path d="M413.822,217.7a5.707,5.707,0,0,0,7.14,7.853l28.583-4.5a8.714,8.714,0,0,1,2.091-.076l19.431,1.636" fill="none" stroke="#eaafa9" stroke-linecap="round" stroke-miterlimit="10" stroke-width="29.188"/>
      <path d="M564.8,217.7a5.707,5.707,0,0,1-7.14,7.853l-28.584-4.5a8.711,8.711,0,0,0-2.091-.076l-19.431,1.636" fill="none" stroke="#eaafa9" stroke-linecap="round" stroke-miterlimit="10" stroke-width="29.188"/>
      <path d="M514.031,187.823c0,1.688-3,3.056-6.707,3.056s-6.706-1.368-6.706-3.056,3-4.754,6.706-4.754S514.031,186.135,514.031,187.823Z" fill="#ad2d2a"/>
      <path d="M475.843,188.638c0,1.688-3,3.056-6.707,3.056s-6.707-1.368-6.707-3.056,3-4.754,6.707-4.754S475.843,186.95,475.843,188.638Z" fill="#ad2d2a"/>
    </g>
  </g>
  <g clip-path="url(#clip-path-5)">
    <path d="M288.176,405.917a28.236,28.236,0,0,0-53.749-14.6,2.79,2.79,0,0,1-2.566,1.6h-.019a21.055,21.055,0,0,0-20.671,17.068,1.171,1.171,0,0,1-1.143.968h0a18.412,18.412,0,0,0-18.412,18.412h0a18.412,18.412,0,0,0,18.412,18.412h73.56A18.412,18.412,0,0,0,302,429.365h0a18.4,18.4,0,0,0-9.9-16.322A7.225,7.225,0,0,1,288.176,405.917Z" fill="#fff" opacity="0.3"/>
    <path d="M376.685,443.683a19.281,19.281,0,0,0,.034-3.385,19.027,19.027,0,0,0-36.254-6.452,1.88,1.88,0,0,1-1.73,1.077h-.012a14.186,14.186,0,0,0-13.929,11.5.791.791,0,0,1-.771.653h0a12.407,12.407,0,0,0-12.407,12.407h0a12.407,12.407,0,0,0,12.407,12.407h49.57A12.407,12.407,0,0,0,386,459.484h0a12.4,12.4,0,0,0-6.671-11A4.867,4.867,0,0,1,376.685,443.683Z" fill="#fff" opacity="0.3"/>
    <g>
      <g>
        <path d="M333.573,424.378l-44.822,2.394a62.963,62.963,0,0,1-35.013-8.447l-2.132-1.24a4.691,4.691,0,0,1-2.326-3.805l-.23-4.311,68.063-3.635a18,18,0,0,1,13.912,5.476l.67.695,3.575,1.281a5.975,5.975,0,0,1,3.951,5.307h0A5.975,5.975,0,0,1,333.573,424.378Z" fill="#fff"/>
        <path d="M256.416,394.7h0a8.117,8.117,0,0,0-7.672,8.538l.478,8.948,20.813-1.112-5.92-11.887A8.117,8.117,0,0,0,256.416,394.7Z" fill="#fff"/>
        <rect x="279.68" y="424.279" width="15.867" height="6.589" rx="3.294" ry="3.294" transform="matrix(0.999, -0.053, 0.053, 0.999, -22.394, 15.948)" fill="#fff"/>
        <path d="M261.66,430.328a2.671,2.671,0,0,0,2.5,4.573l46.7-13.513-.143-2.682-36.884,1.969a3.62,3.62,0,0,0-2.193.894Z" fill="#e55445"/>
        <path d="M251,418.821l-5.551.59a1.421,1.421,0,0,1-1.1-2.467l5.967-5.4,15-.8-3.889,3.464A18.628,18.628,0,0,1,251,418.821Z" fill="#e55445"/>
        <path d="M330.5,412.7l-12.226.653a1.923,1.923,0,0,1-2.023-1.818l-.225-4.218a1.924,1.924,0,0,1,1.818-2.024l.624-.033a15.037,15.037,0,0,1,12.75,5.885h0A.968.968,0,0,1,330.5,412.7Z" fill="#3690ea" opacity="0.3"/>
        <rect x="272.16" y="412.494" width="3.182" height="4.213" rx="1.591" ry="1.591" transform="translate(-21.721 15.189) rotate(-3.057)" fill="#3690ea" opacity="0.3"/>
        <rect x="279.196" y="412.118" width="3.182" height="4.213" rx="1.591" ry="1.591" transform="translate(-21.691 15.564) rotate(-3.057)" fill="#3690ea" opacity="0.3"/>
        <rect x="286.232" y="411.742" width="3.182" height="4.213" rx="1.591" ry="1.591" transform="translate(-21.662 15.94) rotate(-3.057)" fill="#3690ea" opacity="0.3"/>
        <rect x="293.268" y="411.367" width="3.182" height="4.213" rx="1.591" ry="1.591" transform="translate(-21.632 16.314) rotate(-3.057)" fill="#3690ea" opacity="0.3"/>
        <rect x="300.304" y="410.991" width="3.182" height="4.213" rx="1.591" ry="1.591" transform="translate(-21.602 16.689) rotate(-3.057)" fill="#3690ea" opacity="0.3"/>
        <rect x="307.341" y="410.615" width="3.182" height="4.213" rx="1.591" ry="1.591" transform="matrix(0.999, -0.053, 0.053, 0.999, -21.571, 17.063)" fill="#3690ea" opacity="0.3"/>
      </g>
      <g>
        <path d="M106.536,520.005l12.35,25.758a5.86,5.86,0,0,1,.291,4.335l-11.39,35.18" fill="none" stroke="#aa5d52" stroke-miterlimit="10" stroke-width="11.242"/>
        <path d="M92.021,519.772l5.027,35.039a2.578,2.578,0,0,1-3.666,2.692l-27.26-13.049" fill="none" stroke="#aa5d52" stroke-miterlimit="10" stroke-width="11.242"/>
        <rect x="94.927" y="522.205" width="16.89" height="9.389" fill="#105fea"/>
        <line x1="106.536" y1="520.005" x2="118.886" y2="545.763" fill="none" stroke="#105fea" stroke-miterlimit="10" stroke-width="11.242"/>
        <line x1="92.021" y1="519.772" x2="95.305" y2="542.657" fill="none" stroke="#105fea" stroke-miterlimit="10" stroke-width="11.242"/>
        <g>
          <path d="M50.363,543.251H69a2.2,2.2,0,0,1,2.2,2.2v6.732a0,0,0,0,1,0,0H53.789a5.622,5.622,0,0,1-5.622-5.622v-1.11A2.2,2.2,0,0,1,50.363,543.251Z" transform="translate(-461.877 370.147) rotate(-64.98)" fill="#bcdd6b"/>
          <path d="M57.837,548.89h5.436a0,0,0,0,1,0,0v1.746a2.718,2.718,0,0,1-2.718,2.718h0a2.718,2.718,0,0,1-2.718-2.718V548.89A0,0,0,0,1,57.837,548.89Z" transform="translate(585.569 729.34) rotate(115.02)" fill="#aa5d52"/>
        </g>
        <path d="M117.394,525.541l-32.094.237a1.169,1.169,0,0,1-1.178-1.161l-.246-35.745a14.377,14.377,0,0,1,14.27-14.482l5.681-.042a14.376,14.376,0,0,1,14.482,14.269l.246,35.746A1.17,1.17,0,0,1,117.394,525.541Z" fill="#64bdff"/>
        <circle cx="68.351" cy="414.004" r="10.81" fill="#303030"/>
        <circle cx="84.945" cy="406.359" r="10.81" fill="#303030"/>
        <circle cx="74.038" cy="404.916" r="14.936" fill="#303030"/>
        <circle cx="87.319" cy="419.636" r="13.278" fill="#9e69b7"/>
        <path d="M96.147,465.7H107.7a0,0,0,0,1,0,0v11.909a5.779,5.779,0,0,1-5.779,5.779h0a5.779,5.779,0,0,1-5.779-5.779V465.7a0,0,0,0,1,0,0Z" transform="translate(-3.502 0.766) rotate(-0.423)" fill="#aa5d52"/>
        <circle cx="76.656" cy="455.47" r="8.298" fill="#aa5d52"/>
        <circle cx="126.903" cy="454.225" r="8.298" fill="#aa5d52"/>
        <circle cx="101.513" cy="451.29" r="27.037" fill="#aa5d52"/>
        <g>
          <circle cx="89.701" cy="451.38" r="2.821" fill="#492420"/>
          <circle cx="114.141" cy="451.2" r="2.821" fill="#492420"/>
        </g>
        <path d="M85.081,447.254a1.814,1.814,0,0,1-.623-.109,1.833,1.833,0,0,1-1.1-2.347,5.342,5.342,0,0,1,6.832-3.208,1.833,1.833,0,1,1-1.245,3.449,1.674,1.674,0,0,0-2.138,1A1.834,1.834,0,0,1,85.081,447.254Z" fill="#303030"/>
        <path d="M118.76,446.936a1.834,1.834,0,0,1-1.716-1.185,1.668,1.668,0,0,0-2.152-.972,1.833,1.833,0,0,1-1.3-3.43,5.339,5.339,0,0,1,6.878,3.106,1.835,1.835,0,0,1-1.714,2.481Z" fill="#303030"/>
        <ellipse cx="100.596" cy="458.113" rx="7.587" ry="2.837" fill="#773835"/>
        <circle cx="76.652" cy="429.725" r="8.156" fill="#303030"/>
        <ellipse cx="106.163" cy="416.108" rx="13.482" ry="12.921" fill="#303030"/>
        <circle cx="88.797" cy="421.567" r="10.81" fill="#303030"/>
        <circle cx="72.8" cy="440.945" r="7.113" fill="#303030"/>
        <circle cx="130.465" cy="438.904" r="7.915" fill="#303030"/>
        <circle cx="122.77" cy="424.804" r="10.81" fill="#303030"/>
        <path d="M73.937,445.936h0a2.116,2.116,0,0,1,2.116,2.116V456.2a0,0,0,0,1,0,0H71.821a0,0,0,0,1,0,0v-8.151A2.116,2.116,0,0,1,73.937,445.936Z" transform="translate(147.955 902.127) rotate(179.99)" fill="#303030"/>
        <path d="M129.786,445.926h0a2.116,2.116,0,0,1,2.116,2.116v8.151a0,0,0,0,1,0,0H127.67a0,0,0,0,1,0,0v-8.151a2.116,2.116,0,0,1,2.116-2.116Z" transform="translate(259.655 902.096) rotate(179.99)" fill="#303030"/>
        <g>
          <g>
            <path d="M109.381,463.187a1.662,1.662,0,0,1,1.668,1.91,10.626,10.626,0,0,1-20.906,0,1.663,1.663,0,0,1,1.669-1.909Z" fill="#1a1a1a"/>
            <path d="M102.559,469.588c-2.384.734-4.045,2.4-4.16,3.985a10.736,10.736,0,0,0,2.2.237,10.59,10.59,0,0,0,7.649-3.259C107.261,469.3,104.947,468.853,102.559,469.588Z" fill="#f76c66"/>
          </g>
          <path d="M109.381,463.135l-17.569,0a1.648,1.648,0,0,0-1.669,1.884,10.315,10.315,0,0,0,.49,1.762l19.925,0a10.127,10.127,0,0,0,.491-1.761A1.648,1.648,0,0,0,109.381,463.135Z" fill="#e6e7e8"/>
        </g>
        <g>
          <path d="M138.825,466.781a5.172,5.172,0,0,1,0,9.442l-9.878,4.422a5.171,5.171,0,1,1-4.225-9.44l9.877-4.422A5.163,5.163,0,0,1,138.825,466.781Z" fill="#aa5d52"/>
          <path d="M108.9,472.57h13.217a7.8,7.8,0,0,1,7.8,7.8v0a7.8,7.8,0,0,1-7.8,7.8H108.9a1.829,1.829,0,0,1-1.829-1.829V474.4a1.829,1.829,0,0,1,1.829-1.829Z" transform="translate(415.326 876.218) rotate(156.992)" fill="#64bdff"/>
          <path d="M154.864,455.389c-.024.038-.049.076-.074.114l-12.2,18.19a5.171,5.171,0,0,1-8.59-5.76l12.2-18.191a5.171,5.171,0,0,1,8.664,5.647Z" fill="#aa5d52"/>
          <rect x="141.469" y="449.281" width="4.126" height="8.253" rx="2.063" ry="2.063" transform="translate(506.115 761.162) rotate(147.89)" fill="#aa5d52"/>
        </g>
        <g>
          <path d="M63.21,466.781a5.171,5.171,0,0,0-.005,9.442l9.878,4.422a5.171,5.171,0,1,0,4.226-9.44l-9.878-4.422A5.161,5.161,0,0,0,63.21,466.781Z" fill="#aa5d52"/>
          <path d="M73.942,472.57H87.159a7.8,7.8,0,0,1,7.8,7.8v0a7.8,7.8,0,0,1-7.8,7.8H73.942a1.829,1.829,0,0,1-1.829-1.829V474.4a1.829,1.829,0,0,1,1.829-1.829Z" transform="translate(194.405 5.562) rotate(23.008)" fill="#64bdff"/>
          <path d="M47.17,455.389l.075.114,12.2,18.19a5.171,5.171,0,1,0,8.59-5.76l-12.2-18.191a5.172,5.172,0,0,0-8.665,5.647Z" fill="#aa5d52"/>
          <rect x="56.44" y="449.281" width="4.126" height="8.253" rx="2.063" ry="2.063" transform="translate(249.957 38.261) rotate(32.11)" fill="#aa5d52"/>
        </g>
      </g>
      <g>
        <path d="M292.228,515.41h62.689a0,0,0,0,1,0,0v46.859a8.231,8.231,0,0,1-8.231,8.231H300.46a8.231,8.231,0,0,1-8.231-8.231V515.41A0,0,0,0,1,292.228,515.41Z" fill="#2e83ff"/>
        <path d="M337.524,492.613h2.85a8.074,8.074,0,0,1,8.074,8.074v0a8.074,8.074,0,0,1-8.074,8.074H329.45a0,0,0,0,1,0,0v-8.074A8.074,8.074,0,0,1,337.524,492.613Z" fill="none" stroke="#ededed" stroke-miterlimit="10" stroke-width="5.699"/>
        <path d="M299.055,492.613h10.923a8.074,8.074,0,0,1,8.074,8.074v0a8.074,8.074,0,0,1-8.074,8.074h-2.85a8.074,8.074,0,0,1-8.074-8.074v-8.074A0,0,0,0,1,299.055,492.613Z" transform="translate(617.107 1001.374) rotate(180)" fill="none" stroke="#ededed" stroke-miterlimit="10" stroke-width="5.699"/>
        <rect x="292.228" y="515.41" width="62.689" height="16.147" fill="#206fce"/>
        <path d="M291.6,509.711H355.55a4.116,4.116,0,0,1,4.116,4.116v10.631a1.4,1.4,0,0,1-1.4,1.4H288.879a1.4,1.4,0,0,1-1.4-1.4V513.827A4.116,4.116,0,0,1,291.6,509.711Z" fill="#2e83ff"/>
        <rect x="317.815" y="509.711" width="11.398" height="16.147" fill="#ededed"/>
        <rect x="317.874" y="525.858" width="11.398" height="44.642" fill="#ededed"/>
        <rect x="317.874" y="525.858" width="11.398" height="5.699" fill="#d3d3d3"/>
        <rect x="315.202" y="495.682" width="17.255" height="15.928" rx="5.221" ry="5.221" fill="#fff"/>
      </g>
      <g>
        <path d="M184.92,517.3a5.216,5.216,0,0,1-.691-10.275c.934-.226,21.292-5.5,29.181-35.119a5.216,5.216,0,1,1,10.08,2.684c-9.6,36.046-35.823,42.352-36.935,42.6A5.251,5.251,0,0,1,184.92,517.3Z" fill="#c17956"/>
        <path d="M181.19,500.662h13.33a7.871,7.871,0,0,1,7.871,7.871v0a7.871,7.871,0,0,1-7.871,7.871H181.19a1.845,1.845,0,0,1-1.845-1.845V502.507a1.845,1.845,0,0,1,1.845-1.845Z" transform="translate(610.431 853.501) rotate(150)" fill="#64bdff"/>
        <path d="M211.658,473.319a2.577,2.577,0,0,1,1.138,1.259l2.3,5.422a2.587,2.587,0,1,1-4.764,2.018l-2.3-5.422a2.587,2.587,0,0,1,3.627-3.277Z" fill="#c17956"/>
        <g>
          <path d="M159.253,517.3a5.217,5.217,0,0,0,.691-10.275c-.935-.226-21.293-5.5-29.182-35.119a5.215,5.215,0,1,0-10.079,2.684c9.6,36.046,35.823,42.352,36.934,42.6A5.255,5.255,0,0,0,159.253,517.3Z" fill="#c17956"/>
          <path d="M143.626,500.662h13.33a7.871,7.871,0,0,1,7.871,7.871v0a7.871,7.871,0,0,1-7.871,7.871h-13.33a1.845,1.845,0,0,1-1.845-1.845V502.507A1.845,1.845,0,0,1,143.626,500.662Z" transform="translate(274.805 -8.522) rotate(30)" fill="#64bdff"/>
          <path d="M132.515,473.319a2.573,2.573,0,0,0-1.138,1.259L129.08,480a2.587,2.587,0,0,0,4.764,2.018l2.3-5.422a2.587,2.587,0,0,0-3.626-3.277Z" fill="#c17956"/>
        </g>
        <rect x="178.952" y="562.212" width="7.266" height="24.996" transform="translate(-49.564 18.171) rotate(-5.017)" fill="#c17956"/>
        <rect x="151.128" y="571.235" width="24.997" height="7.265" transform="translate(-421.66 696.056) rotate(-85.81)" fill="#c17956"/>
        <path d="M177.781,577.261l10.556-.735a2.2,2.2,0,0,0,2.045-2.352l-1.5-21.539-.009-1.266L157.4,551.6l.009,1.266-1.192,21.558a2.2,2.2,0,0,0,2.079,2.322l10.565.584a2.2,2.2,0,0,0,2.322-2.079l.651-11.763,2.781-.02.819,11.752A2.2,2.2,0,0,0,177.781,577.261Z" fill="#105fea"/>
        <path d="M170.1,502.937h5.73a14.5,14.5,0,0,1,14.5,14.5V551.2a1.179,1.179,0,0,1-1.179,1.179H156.777A1.179,1.179,0,0,1,155.6,551.2V517.436A14.5,14.5,0,0,1,170.1,502.937Z" transform="translate(-3.796 1.259) rotate(-0.413)" fill="#64bdff"/>
        <g>
          <path d="M166.96,494.63h11.656a0,0,0,0,1,0,0v12.011a5.828,5.828,0,0,1-5.828,5.828h0a5.828,5.828,0,0,1-5.828-5.828V494.63a0,0,0,0,1,0,0Z" transform="translate(-3.623 1.258) rotate(-0.413)" fill="#a86145"/>
          <circle cx="175.247" cy="465.755" r="27.089" fill="#492420"/>
          <circle cx="162.092" cy="468.416" r="20.25" fill="#492420"/>
          <circle cx="147.306" cy="484.306" r="8.369" fill="#a86145"/>
          <circle cx="197.983" cy="483.058" r="8.369" fill="#a86145"/>
          <circle cx="172.376" cy="480.094" r="27.268" fill="#c17956"/>
          <path d="M159.271,474.8a16.1,16.1,0,0,1,6.677-1.725,1.626,1.626,0,0,1,.122,3.249,12.841,12.841,0,0,0-6.895,2.315,1.625,1.625,0,1,1-1.867-2.661A16.139,16.139,0,0,1,159.271,474.8Z" fill="#93523b"/>
          <path d="M183.571,471.928a16.1,16.1,0,0,1,6.766,1.331,1.625,1.625,0,1,1-1.293,2.982,12.853,12.853,0,0,0-7.219-.893,1.625,1.625,0,1,1-.533-3.206A16.086,16.086,0,0,1,183.571,471.928Z" fill="#93523b"/>
          <ellipse cx="178.29" cy="458.34" rx="9.297" ry="23.249" transform="translate(-312.981 481.039) rotate(-71.39)" fill="#492420"/>
          <path d="M155.132,471.046a1.873,1.873,0,0,1-.629-.11,1.851,1.851,0,0,1-1.111-2.368,5.388,5.388,0,0,1,6.892-3.234,1.849,1.849,0,0,1-1.257,3.478,1.688,1.688,0,0,0-2.156,1.013A1.853,1.853,0,0,1,155.132,471.046Z" fill="#492420"/>
          <path d="M188,466.468a1.85,1.85,0,0,1-2.1-.033,1.685,1.685,0,0,0-2.35.392,1.849,1.849,0,0,1-3.009-2.149,5.386,5.386,0,0,1,7.508-1.252,1.848,1.848,0,0,1,.43,2.579A1.818,1.818,0,0,1,188,466.468Z" fill="#492420"/>
          <ellipse cx="175.813" cy="481.158" rx="7.652" ry="2.861" fill="#a86145"/>
        </g>
        <path d="M154.773,449.331a5.619,5.619,0,0,0-3.151-2A1.235,1.235,0,0,0,150.4,449.3a6.042,6.042,0,0,1,1.026,2.435,5.67,5.67,0,0,1-.425,3.733,5.466,5.466,0,0,1-2.832,2.567,5.642,5.642,0,0,0,6.606-8.7Z" fill="#492420"/>
        <g>
          <g>
            <path d="M181.391,488.709a1.641,1.641,0,0,1,1.646,1.886,10.49,10.49,0,0,1-20.638,0,1.642,1.642,0,0,1,1.647-1.885Z" fill="#1a1a1a"/>
            <path d="M174.656,495.028c-2.354.725-3.994,2.368-4.106,3.934a10.415,10.415,0,0,0,9.718-2.984C179.3,494.742,177.013,494.3,174.656,495.028Z" fill="#f76c66"/>
          </g>
          <path d="M181.391,488.658l-17.345,0a1.627,1.627,0,0,0-1.647,1.86,10.074,10.074,0,0,0,.484,1.739l19.67,0a10.128,10.128,0,0,0,.484-1.738A1.627,1.627,0,0,0,181.391,488.658Z" fill="#e6e7e8"/>
        </g>
      </g>
      <g>
        <path d="M216.228,514.41h62.689a0,0,0,0,1,0,0v46.859a8.231,8.231,0,0,1-8.231,8.231H224.46a8.231,8.231,0,0,1-8.231-8.231V514.41A0,0,0,0,1,216.228,514.41Z" fill="#ea5334"/>
        <path d="M261.524,491.613h2.85a8.074,8.074,0,0,1,8.074,8.074v0a8.074,8.074,0,0,1-8.074,8.074H253.45a0,0,0,0,1,0,0v-8.074A8.074,8.074,0,0,1,261.524,491.613Z" fill="none" stroke="#ededed" stroke-miterlimit="10" stroke-width="5.699"/>
        <path d="M223.055,491.613h10.923a8.074,8.074,0,0,1,8.074,8.074v0a8.074,8.074,0,0,1-8.074,8.074h-2.85a8.074,8.074,0,0,1-8.074-8.074v-8.074a0,0,0,0,1,0,0Z" transform="translate(465.107 999.374) rotate(180)" fill="none" stroke="#ededed" stroke-miterlimit="10" stroke-width="5.699"/>
        <rect x="216.228" y="514.41" width="62.689" height="16.147" fill="#ce290f"/>
        <path d="M215.6,508.711H279.55a4.116,4.116,0,0,1,4.116,4.116v10.631a1.4,1.4,0,0,1-1.4,1.4H212.879a1.4,1.4,0,0,1-1.4-1.4V512.827A4.116,4.116,0,0,1,215.6,508.711Z" fill="#ea5334"/>
        <rect x="241.815" y="508.711" width="11.398" height="16.147" fill="#ededed"/>
        <rect x="241.874" y="524.858" width="11.398" height="44.642" fill="#ededed"/>
        <rect x="241.874" y="524.858" width="11.398" height="5.699" fill="#d3d3d3"/>
        <rect x="239.202" y="494.682" width="17.255" height="15.928" rx="5.221" ry="5.221" fill="#fff"/>
      </g>
    </g>
  </g>
  <g>
    <path d="M518.4,125.5H540.49a6.4,6.4,0,0,1,6.4,6.4v15.057a14.559,14.559,0,0,1-14.559,14.559h-5.769A14.559,14.559,0,0,1,512,146.953V131.9A6.4,6.4,0,0,1,518.4,125.5Z" fill="#d18b6b"/>
    <path d="M533.975,134.108a6.567,6.567,0,0,0,2.442,3.572l12.067,8.928a6.595,6.595,0,0,0,7.844-10.6l-12.067-8.928a6.594,6.594,0,0,0-10.286,7.031Z" fill="#d18b6b"/>
  </g>
  <path d="M491.931,118.915A18.2,18.2,0,0,1,504.4,150.371a17.836,17.836,0,0,1-8.087,4.09c-2.953.727-6.056.662-8.978,1.423a18.2,18.2,0,0,0,4.6,35.81" fill="none" stroke="#e0e0e0" stroke-linecap="round" stroke-miterlimit="10" stroke-width="2.879" opacity="0.3"/>
  <path d="M526.5,150.371a17.836,17.836,0,0,1-8.087,4.09c-2.953.727-6.056.662-8.978,1.423a18.2,18.2,0,0,0,4.6,35.81" fill="none" stroke="#e0e0e0" stroke-linecap="round" stroke-miterlimit="10" stroke-width="2.879" opacity="0.3"/>
</svg>
