<svg id="Layer_1" data-name="Layer 1" xmlns="http://www.w3.org/2000/svg" xmlns:xlink="http://www.w3.org/1999/xlink" viewBox="0 0 745 572">
  <defs>
    <clipPath id="clip-path">
      <path d="M507.614,6.574H26.531A22.25,22.25,0,0,0,4.281,28.823V205.4a22.25,22.25,0,0,0,18.87,21.991l313.288,48.149a22.249,22.249,0,0,0,21.208-8.679l167.8-224.727A22.249,22.249,0,0,0,507.614,6.574Z" fill="none"/>
    </clipPath>
    <clipPath id="clip-path-2">
      <path d="M3,287.837V543.724a22.249,22.249,0,0,0,22.25,22.25H149.81a22.249,22.249,0,0,0,17.828-8.938L326.209,344.664a22.249,22.249,0,0,0-14.448-35.3L28.629,265.846A22.25,22.25,0,0,0,3,287.837Z" fill="none"/>
    </clipPath>
    <clipPath id="clip-path-3">
      <path d="M743,304.96V28.209A22.249,22.249,0,0,0,720.75,5.96H605.583A22.249,22.249,0,0,0,587.755,14.9L414.243,247.281a22.25,22.25,0,0,0,14.448,35.3l288.68,44.367A22.249,22.249,0,0,0,743,304.96Z" fill="none"/>
    </clipPath>
    <clipPath id="clip-path-4">
      <path d="M724.218,365.107l-318.836-49a22.249,22.249,0,0,0-21.208,8.679L231.32,529.5a22.249,22.249,0,0,0,17.828,35.561h471.69a22.249,22.249,0,0,0,22.249-22.249V387.1A22.249,22.249,0,0,0,724.218,365.107Z" fill="none"/>
    </clipPath>
  </defs>
  <title>registrations</title>
  <path d="M743,304.96V28.209A22.249,22.249,0,0,0,720.75,5.96H605.583A22.249,22.249,0,0,0,587.755,14.9L414.243,247.281a22.25,22.25,0,0,0,14.448,35.3l288.68,44.367A22.249,22.249,0,0,0,743,304.96Z" fill="#42dbbe"/>
  <path d="M724.218,365.107l-318.836-49a22.249,22.249,0,0,0-21.208,8.679L231.32,529.5a22.249,22.249,0,0,0,17.828,35.561h471.69a22.249,22.249,0,0,0,22.249-22.249V387.1A22.249,22.249,0,0,0,724.218,365.107Z" fill="#42dbbe"/>
  <path d="M3,287.837V543.724a22.249,22.249,0,0,0,22.25,22.25H149.81a22.249,22.249,0,0,0,17.828-8.938L326.209,344.664a22.249,22.249,0,0,0-14.448-35.3L28.629,265.846A22.25,22.25,0,0,0,3,287.837Z" fill="#42dbbe"/>
  <path d="M507.614,6.574H26.531A22.25,22.25,0,0,0,4.281,28.823V205.4a22.25,22.25,0,0,0,18.87,21.991l313.288,48.149a22.249,22.249,0,0,0,21.208-8.679l167.8-224.727A22.249,22.249,0,0,0,507.614,6.574Z" fill="#45a7ff"/>
  <g clip-path="url(#clip-path)">
    <g>
      <path d="M23.991,61.791H32.1c.171-.316.357-.624.544-.931A15.24,15.24,0,0,1,58.266,46.013,16.4,16.4,0,0,1,79.34,35.185a19.777,19.777,0,0,1,36.1,16.106,29.988,29.988,0,0,1,9.2,7.555,16.855,16.855,0,0,1,16.951,2.945h7.283a5.018,5.018,0,0,1,0,10.036H23.991a5.018,5.018,0,0,1,0-10.036Z" fill="#fff"/>
      <path d="M116.154,141.663h23.991c.506-.938,1.055-1.847,1.607-2.755A45.1,45.1,0,0,1,217.57,94.975a48.528,48.528,0,0,1,62.355-32.038,58.52,58.52,0,0,1,106.812,47.657,88.708,88.708,0,0,1,27.224,22.355,49.864,49.864,0,0,1,50.157,8.714h21.547a14.847,14.847,0,0,1,0,29.694H116.154a14.847,14.847,0,0,1,0-29.694Z" fill="#fff"/>
      <g>
        <path d="M-24.008,188.628l133.985-44.861a145.294,145.294,0,0,1,92.518.086l55.379,18.657a145.29,145.29,0,0,0,97.167-1.558h0a145.293,145.293,0,0,1,105.567,1.563l60.183,24.5L501.478,302.9l-289.7,18.509-221.3-19.314Z" fill="#42dbbe"/>
        <rect x="204.893" y="197.62" width="46.067" height="3.921" rx="1.96" ry="1.96" fill="#383838" opacity="0.2"/>
        <g>
          <path d="M246.109,187.435h6.564a0,0,0,0,1,0,0v12.724a1.345,1.345,0,0,1-1.345,1.345h-3.874a1.345,1.345,0,0,1-1.345-1.345V187.435A0,0,0,0,1,246.109,187.435Z" fill="#e5c098"/>
          <path d="M245.96,142.908a3.729,3.729,0,0,1,6.863,0l11.507,27.029a16.236,16.236,0,0,1-3.458,17.84h0a16.237,16.237,0,0,1-22.961,0h0a16.234,16.234,0,0,1-3.458-17.84l11.507-27.029" fill="#0c935c"/>
        </g>
        <rect x="377.401" y="187.819" width="46.067" height="3.921" rx="1.96" ry="1.96" fill="#383838" opacity="0.2"/>
        <g>
          <path d="M416.948,177.973h6.564a0,0,0,0,1,0,0V190.7a1.345,1.345,0,0,1-1.345,1.345h-3.874a1.345,1.345,0,0,1-1.345-1.345V177.973A0,0,0,0,1,416.948,177.973Z" fill="#e5c098"/>
          <path d="M416.8,133.446a3.729,3.729,0,0,1,6.863,0l11.507,27.029a16.236,16.236,0,0,1-3.458,17.84h0a16.237,16.237,0,0,1-22.961,0h0a16.236,16.236,0,0,1-3.458-17.84L416.8,133.446" fill="#0c935c"/>
        </g>
        <rect x="68.651" y="170.176" width="46.067" height="3.921" rx="1.96" ry="1.96" fill="#383838" opacity="0.2"/>
        <g>
          <path d="M108.15,160h6.564a0,0,0,0,1,0,0v12.724a1.345,1.345,0,0,1-1.345,1.345H109.5a1.345,1.345,0,0,1-1.345-1.345V160A0,0,0,0,1,108.15,160Z" fill="#e5c098"/>
          <path d="M108,115.475a3.729,3.729,0,0,1,6.863,0L126.371,142.5a16.238,16.238,0,0,1-3.458,17.841h0a16.237,16.237,0,0,1-22.961,0h0A16.236,16.236,0,0,1,96.494,142.5L108,115.475" fill="#0c935c"/>
        </g>
        <rect x="-1.921" y="184.878" width="46.067" height="3.921" rx="1.96" ry="1.96" fill="#383838" opacity="0.2"/>
        <g>
          <path d="M37.674,174.56h6.564a0,0,0,0,1,0,0v12.724a1.345,1.345,0,0,1-1.345,1.345H39.019a1.345,1.345,0,0,1-1.345-1.345V174.56A0,0,0,0,1,37.674,174.56Z" fill="#e5c098"/>
          <path d="M37.525,130.032a3.729,3.729,0,0,1,6.862,0l11.507,27.029a16.234,16.234,0,0,1-3.458,17.84h0a16.235,16.235,0,0,1-22.961,0h0a16.236,16.236,0,0,1-3.457-17.84l11.507-27.029" fill="#0c935c"/>
        </g>
      </g>
      <rect x="284.58" y="228.985" width="117.325" height="17.643" rx="8.821" ry="8.821" fill="#383838" opacity="0.2"/>
      <rect x="93.694" y="190.759" width="84.735" height="12.742" rx="6.371" ry="6.371" fill="#383838" opacity="0.2"/>
      <g>
        <path d="M442.032,243.908h-117.5a7.619,7.619,0,0,1-7.619-7.618V173.3l66.369-38.832L449.65,173.3V236.29A7.618,7.618,0,0,1,442.032,243.908Z" fill="#aa5d52"/>
        <polygon points="383.282 134.471 316.913 173.303 316.913 188.837 383.282 150.004 449.65 188.837 449.65 173.303 383.282 134.471" fill="#8c453e"/>
        <path d="M299.968,175.546l78.193-45.752a10.142,10.142,0,0,1,10.241,0L466.6,175.546" fill="none" stroke="#d8b691" stroke-linecap="round" stroke-miterlimit="10" stroke-width="14.121"/>
        <rect x="403.757" y="207.9" width="36.008" height="4.942" rx="2.471" ry="2.471" fill="#8c453e"/>
        <rect x="351.51" y="181.776" width="36.008" height="4.942" rx="2.471" ry="2.471" fill="#8c453e"/>
        <rect x="343.743" y="166.949" width="28.242" height="4.942" rx="2.471" ry="2.471" fill="#8c453e"/>
        <rect x="381.164" y="166.949" width="52.247" height="4.942" rx="2.471" ry="2.471" fill="#8c453e"/>
        <rect x="419.29" y="222.021" width="19.063" height="4.942" rx="2.471" ry="2.471" fill="#8c453e"/>
        <rect x="392.46" y="181.776" width="19.063" height="4.942" rx="2.471" ry="2.471" fill="#8c453e"/>
        <rect x="405.875" y="222.021" width="9.179" height="4.942" rx="2.471" ry="2.471" fill="#8c453e"/>
        <rect x="325.386" y="229.787" width="19.063" height="4.942" rx="2.471" ry="2.471" fill="#8c453e"/>
        <rect x="369.161" y="195.897" width="28.948" height="40.951" rx="3.441" ry="3.441" fill="#3d2d2d"/>
        <path d="M361.924,234.829H404.64a2.648,2.648,0,0,1,2.648,2.648v8.469a.886.886,0,0,1-.886.886H360.162a.886.886,0,0,1-.886-.886v-8.469A2.648,2.648,0,0,1,361.924,234.829Z" fill="#d8b691"/>
        <g>
          <path d="M334.981,193.956h14.346a5.889,5.889,0,0,1,5.889,5.889v14.345a5.889,5.889,0,0,1-5.889,5.889H334.98a5.888,5.888,0,0,1-5.888-5.888V199.845A5.889,5.889,0,0,1,334.981,193.956Z" fill="#fff"/>
          <path d="M349.327,195.72a4.124,4.124,0,0,1,4.124,4.124V214.19a4.124,4.124,0,0,1-4.124,4.124H334.982a4.124,4.124,0,0,1-4.124-4.124V199.844a4.124,4.124,0,0,1,4.124-4.124h14.345m0-3.53H334.982a7.663,7.663,0,0,0-7.654,7.654V214.19a7.662,7.662,0,0,0,7.654,7.654h14.345a7.662,7.662,0,0,0,7.654-7.654V199.844a7.663,7.663,0,0,0-7.654-7.654Z" fill="#8c453e"/>
        </g>
        <g>
          <rect x="328.387" y="204.546" width="27.536" height="4.942" rx="2.471" ry="2.471" transform="translate(135.137 549.172) rotate(-90)" fill="#8c453e"/>
          <rect x="328.387" y="204.546" width="27.536" height="4.942" rx="2.471" ry="2.471" transform="translate(684.309 414.034) rotate(-180)" fill="#8c453e"/>
        </g>
      </g>
      <g>
        <path d="M203.31,201.816h-77.9a5.051,5.051,0,0,1-5.051-5.052V155.005l44-25.746,44,25.746v41.759A5.052,5.052,0,0,1,203.31,201.816Z" fill="#aa5d52"/>
        <polygon points="164.359 129.259 120.357 155.005 120.357 165.303 164.359 139.558 208.361 165.303 208.361 155.005 164.359 129.259" fill="#8c453e"/>
        <path d="M109.122,156.492l51.842-30.333a6.723,6.723,0,0,1,6.79,0L219.6,156.492" fill="none" stroke="#d8b691" stroke-linecap="round" stroke-miterlimit="10" stroke-width="9.362"/>
        <rect x="177.934" y="177.942" width="23.873" height="3.277" rx="1.638" ry="1.638" fill="#8c453e"/>
        <rect x="143.294" y="160.622" width="23.873" height="3.277" rx="1.638" ry="1.638" fill="#8c453e"/>
        <rect x="138.145" y="150.792" width="18.724" height="3.277" rx="1.638" ry="1.638" fill="#8c453e"/>
        <rect x="162.955" y="150.792" width="34.64" height="3.277" rx="1.638" ry="1.638" fill="#8c453e"/>
        <rect x="188.232" y="187.304" width="12.639" height="3.277" rx="1.638" ry="1.638" fill="#8c453e"/>
        <rect x="170.444" y="160.622" width="12.639" height="3.277" rx="1.638" ry="1.638" fill="#8c453e"/>
        <rect x="179.338" y="187.304" width="6.085" height="3.277" rx="1.638" ry="1.638" fill="#8c453e"/>
        <rect x="125.974" y="192.453" width="12.639" height="3.277" rx="1.638" ry="1.638" fill="#8c453e"/>
        <rect x="154.997" y="169.984" width="19.192" height="27.15" rx="2.281" ry="2.281" fill="#3d2d2d"/>
        <path d="M150.2,195.8h28.32a1.755,1.755,0,0,1,1.755,1.755v5.615a.587.587,0,0,1-.587.587H149.031a.587.587,0,0,1-.587-.587v-5.615A1.755,1.755,0,0,1,150.2,195.8Z" fill="#d8b691"/>
        <g>
          <path d="M132.336,168.7h9.511a3.9,3.9,0,0,1,3.9,3.9v9.512a3.9,3.9,0,0,1-3.9,3.9h-9.511a3.9,3.9,0,0,1-3.9-3.9V172.6A3.9,3.9,0,0,1,132.336,168.7Z" fill="#fff"/>
          <path d="M141.847,169.867a2.734,2.734,0,0,1,2.734,2.735v9.511a2.734,2.734,0,0,1-2.734,2.734h-9.511a2.734,2.734,0,0,1-2.734-2.734V172.6a2.734,2.734,0,0,1,2.734-2.735h9.511m0-2.34h-9.511a5.081,5.081,0,0,0-5.075,5.075v9.511a5.08,5.08,0,0,0,5.075,5.074h9.511a5.08,5.08,0,0,0,5.075-5.074V172.6a5.08,5.08,0,0,0-5.075-5.075Z" fill="#8c453e"/>
        </g>
        <g>
          <rect x="127.964" y="175.719" width="18.256" height="3.277" rx="1.638" ry="1.638" transform="translate(-40.265 314.449) rotate(-90)" fill="#8c453e"/>
          <rect x="127.964" y="175.719" width="18.256" height="3.277" rx="1.638" ry="1.638" transform="translate(274.184 354.714) rotate(180)" fill="#8c453e"/>
        </g>
      </g>
    </g>
  </g>
  <g clip-path="url(#clip-path-2)">
    <g>
      <g>
        <path d="M174.8,361.11h0a14.207,14.207,0,0,1,14.207,14.207v62.962a0,0,0,0,1,0,0H160.6a0,0,0,0,1,0,0V375.317A14.207,14.207,0,0,1,174.8,361.11Z" transform="translate(316.201 -13.002) rotate(42.534)" fill="#aa5d52"/>
        <path d="M164.952,382.285h0A21.146,21.146,0,0,1,186.1,403.431v56.023a0,0,0,0,1,0,0H157.684a0,0,0,0,1,0,0v-69.9A7.268,7.268,0,0,1,164.952,382.285Z" transform="translate(610.813 539.294) rotate(127.315)" fill="#aa5d52"/>
        <path d="M150.3,439.974l28.45-.363,8.046,14.657a12.751,12.751,0,0,1,1.573,5.973l.464,36.392a5.942,5.942,0,0,1-5.866,6.017h0a17.288,17.288,0,0,1-17.506-17.065l-.314-24.626Z" fill="#aa5d52"/>
        <rect x="57.248" y="312.531" width="125.88" height="203.417" rx="14.197" ry="14.197" transform="translate(53.723 -11.932) rotate(7.315)" fill="#383838"/>
        <rect x="26.877" y="359.698" width="186.62" height="109.083" rx="5.799" ry="5.799" transform="matrix(-0.127, 0.992, -0.992, -0.127, 546.358, 347.775)" fill="#f3f5f9"/>
        <rect x="50.996" y="488.328" width="117.114" height="21.194" transform="translate(64.419 -9.888) rotate(7.315)" fill="#383838"/>
        <path d="M182.409,357.9l3.018-23.51a5.8,5.8,0,0,0-5.013-6.49L83.723,315.482a5.807,5.807,0,0,0-6.491,5.014l-3.018,23.51Z" fill="#1db78f"/>
      </g>
      <rect x="78.754" y="456.142" width="68.048" height="17.752" rx="2.155" ry="2.155" transform="translate(60.128 -10.575) rotate(7.315)" fill="#1db78f"/>
      <path d="M57.042,455.322s28.783,5.071,35.436,62.071S48.71,539.714,48.71,539.714L37.218,512.469Z" fill="#aa5d52"/>
      <path d="M53.886,508.244l4.786-37.282,5.711-11.192c-.107-.095-.209-.193-.316-.287l15.054-27.911a21.7,21.7,0,0,0-8.8-29.4l-2.78-1.5a3.064,3.064,0,0,0-4.151,1.242l-32.4,60.076a32.47,32.47,0,0,0-3.751,18.434S31.9,530.408,31.9,530.427c.275,4.829-9.091,15.267-11.473,19.668-3.464,6.4-6.964,13.436-7.625,20.81-1.43,15.94,7.577,33.372,16.526,46a20.622,20.622,0,0,0,6,6.167c4.707,2.77,10.893,1.782,15.567-1.045,19.77-11.96,24.973-39.663,35.181-58.6q.4-.744.853-1.459l.27-.427a24.822,24.822,0,0,1,12.25-9.9,76.46,76.46,0,0,0,26.194-17.253,81.444,81.444,0,0,0,12.245-15.36Z" fill="#aa5d52"/>
      <g>
        <circle cx="121.875" cy="402.489" r="29.405" fill="#e2e2e2"/>
        <path d="M129.829,416.786a11.74,11.74,0,0,1-6.673,2.3l-.453,3.021a3.223,3.223,0,0,1-3.666,2.71h0a3.223,3.223,0,0,1-2.709-3.666l.434-2.9a13.392,13.392,0,0,1-6.44-4.077,9.79,9.79,0,0,1-1.3-1.95,3.446,3.446,0,0,1,2.9-5l.513-.027a3.385,3.385,0,0,1,3.377,2.149q1.11,3.043,4.985,3.624a5.619,5.619,0,0,0,3.578-.421,3.086,3.086,0,0,0,1.614-2.379,2.8,2.8,0,0,0-.432-2.089,5.179,5.179,0,0,0-2.17-1.582l-5.834-2.58a14.334,14.334,0,0,1-5.354-3.935,7.55,7.55,0,0,1-1.322-6.1,8.98,8.98,0,0,1,3.233-5.928,11.106,11.106,0,0,1,6.694-2.3l.3-2.021a3.223,3.223,0,0,1,3.666-2.71h0a3.223,3.223,0,0,1,2.709,3.666l-.309,2.063a11.7,11.7,0,0,1,5.491,3.87A10.386,10.386,0,0,1,133.6,392a3.434,3.434,0,0,1-2.88,5h0a3.423,3.423,0,0,1-3.358-2.1,4.719,4.719,0,0,0-.97-1.489,5.753,5.753,0,0,0-3.388-1.7,4.958,4.958,0,0,0-3.135.446,2.99,2.99,0,0,0-1.587,2.34q-.332,2.208,2.217,3.4l6.409,3.007a12.311,12.311,0,0,1,5.165,4.056,8.123,8.123,0,0,1,1.052,5.91A8.748,8.748,0,0,1,129.829,416.786Z" fill="#03877d"/>
      </g>
    </g>
  </g>
  <g clip-path="url(#clip-path-3)">
    <g>
      <g>
        <g>
          <g>
            <path d="M615.321,139.319a18.338,18.338,0,0,1-11.146,29.63l-.044.007a1.934,1.934,0,0,0-.864,3.468,18.34,18.34,0,1,0,12.054-33.105Z" fill="#303030"/>
            <rect x="635.349" y="227.882" width="8.83" height="64.476" fill="#aa5d52"/>
            <g>
              <path d="M654.124,292.044l-20.874,0v.113l0,9.056a1.383,1.383,0,0,0,1.383,1.384l19.685,0,0-10.549C654.253,292.048,654.19,292.044,654.124,292.044Z" fill="#d31818"/>
              <path d="M663.173,300.028c-.815-3.09-3.02-7.872-8.855-7.979l0,10.549h6.859A2.057,2.057,0,0,0,663.173,300.028Z" fill="#eaeaea"/>
              <rect x="632.17" y="300.315" width="32.419" height="2.73" rx="1.365" ry="1.365" fill="#bababa"/>
              <path d="M644.173,292.043h7.035a0,0,0,0,1,0,0v3.152a1.16,1.16,0,0,1-1.16,1.16h-4.714a1.16,1.16,0,0,1-1.16-1.16v-3.152a0,0,0,0,1,0,0Z" fill="#d8d8d8"/>
            </g>
            <rect x="620.604" y="227.879" width="8.323" height="64.476" fill="#aa5d52"/>
            <g>
              <path d="M639.451,292.042l-19.584,0a1.48,1.48,0,0,0-1.48,1.48v7.69a1.383,1.383,0,0,0,1.383,1.383l19.685,0,0-10.548Z" fill="#f42f2f"/>
              <path d="M648.311,300.025c-.815-3.089-3.02-7.872-8.855-7.978l0,10.548h6.859A2.057,2.057,0,0,0,648.311,300.025Z" fill="#eaeaea"/>
              <rect x="617.307" y="300.312" width="32.419" height="2.73" rx="1.365" ry="1.365" fill="#d8d8d8"/>
              <path d="M628.921,292.04h7.035a0,0,0,0,1,0,0v3.152a1.16,1.16,0,0,1-1.16,1.16h-4.714a1.16,1.16,0,0,1-1.16-1.16V292.04A0,0,0,0,1,628.921,292.04Z" fill="#f2f2f2"/>
            </g>
            <rect x="618.574" y="227.88" width="27.392" height="7.873" fill="#115fea"/>
            <path d="M640.926,168.8l-17.488,0a8.851,8.851,0,0,0-8.853,8.85l1.491,14.806c1.147,11.386-3.824,57.692-5.818,68.96l-.223,1.262a1.416,1.416,0,0,0,1.414,1.416l42.957.006a1.415,1.415,0,0,0,1.415-1.415h0c-2.3-12.1-8.848-59.286-7.515-71.528l1.47-13.5A8.852,8.852,0,0,0,640.926,168.8Z" fill="#9e69b7"/>
            <path d="M627.729,162.655h8.905a0,0,0,0,1,0,0v7.163a4.453,4.453,0,0,1-4.453,4.453h0a4.453,4.453,0,0,1-4.453-4.453v-7.163A0,0,0,0,1,627.729,162.655Z" fill="#aa5d52"/>
            <g>
              <path d="M632.411,109.5h0A22.438,22.438,0,0,1,654.85,131.94v12.428a0,0,0,0,1,0,0H609.973a0,0,0,0,1,0,0V131.94A22.438,22.438,0,0,1,632.411,109.5Z" fill="#303030"/>
              <circle cx="613.01" cy="144.365" r="6.123" fill="#8c463f"/>
              <circle cx="651.362" cy="144.372" r="6.123" fill="#8c463f"/>
              <path d="M613.012,133.186l0,14.314a19.176,19.176,0,0,0,19.172,19.179h0a19.176,19.176,0,0,0,19.18-19.172l0-14.314-9.917-9.316Z" fill="#aa5d52"/>
              <g>
                <path d="M620.344,139.765a.968.968,0,0,1-.305-1.887l4.646-1.548a.968.968,0,0,1,.612,1.837l-4.647,1.548A.957.957,0,0,1,620.344,139.765Z" fill="#303030"/>
                <path d="M644.03,139.685a.966.966,0,0,1-.306-.05l-4.646-1.549a.968.968,0,1,1,.613-1.837l4.645,1.55a.968.968,0,0,1-.306,1.886Z" fill="#303030"/>
                <path d="M627.95,145.536a.968.968,0,0,1-.943-.756,2.464,2.464,0,0,0-4.808,0,.968.968,0,0,1-1.889-.424,4.4,4.4,0,0,1,8.586,0,.966.966,0,0,1-.946,1.18Z" fill="#683631"/>
                <path d="M643.089,145.539a.968.968,0,0,1-.943-.756,2.464,2.464,0,0,0-4.808,0,.968.968,0,1,1-1.889-.425,4.4,4.4,0,0,1,8.586,0,.967.967,0,0,1-.733,1.156A.916.916,0,0,1,643.089,145.539Z" fill="#683631"/>
              </g>
              <g>
                <g>
                  <path d="M637.9,155.307a1.081,1.081,0,0,1,1.085,1.242,6.91,6.91,0,0,1-13.594,0,1.082,1.082,0,0,1,1.085-1.242Z" fill="#1a1a1a"/>
                  <path d="M633.46,159.47c-1.55.477-2.63,1.559-2.7,2.591a6.864,6.864,0,0,0,6.4-1.966C636.518,159.281,635.013,158.992,633.46,159.47Z" fill="#f76c66"/>
                </g>
                <path d="M637.9,155.274l-11.425,0a1.071,1.071,0,0,0-1.085,1.225,6.688,6.688,0,0,0,.319,1.145l12.956,0a6.662,6.662,0,0,0,.319-1.145A1.071,1.071,0,0,0,637.9,155.274Z" fill="#e6e7e8"/>
              </g>
            </g>
            <path d="M609.178,217.187a1.893,1.893,0,0,1-1.135-.517l-3.134-2.983a1.9,1.9,0,1,1,2.621-2.753l3.134,2.983a1.9,1.9,0,0,1-1.486,3.27Z" fill="#aa5d52"/>
            <path d="M601.277,222.3c-.056,0-.111-.011-.167-.018A4.752,4.752,0,0,1,597,216.966c5.318-41.853,23.431-43.872,25.479-43.965l.429,9.5a1.378,1.378,0,0,0,.2-.015c-.124.017-12.4,2.066-16.677,35.683A4.752,4.752,0,0,1,601.277,222.3Z" fill="#aa5d52"/>
            <path d="M608.792,171.419h14.573a8.237,8.237,0,0,1,8.237,8.237v0a8.237,8.237,0,0,1-8.237,8.237H608.792a1.267,1.267,0,0,1-1.267-1.267v-13.94A1.267,1.267,0,0,1,608.792,171.419Z" transform="translate(46.768 476.373) rotate(-43.556)" fill="#9e69b7"/>
            <path d="M675.836,136.368c.053.017.106.036.159.055a4.752,4.752,0,0,1,2.846,6.088c-14.4,39.657-32.509,37.643-34.527,37.282l1.67-9.356a1.219,1.219,0,0,0-.2-.029c.125.011,12.556.714,24.118-31.14A4.753,4.753,0,0,1,675.836,136.368Z" fill="#aa5d52"/>
            <path d="M637.845,165.7h14.573a8.237,8.237,0,0,1,8.237,8.237v0a8.237,8.237,0,0,1-8.237,8.237H637.845a1.267,1.267,0,0,1-1.267-1.267v-13.94a1.267,1.267,0,0,1,1.267-1.267Z" transform="translate(1294.668 -9.299) rotate(149.153)" fill="#9e69b7"/>
            <rect x="621.7" y="168.8" width="20.963" height="8.795" rx="4.397" ry="4.397" fill="#aa5d52"/>
            <path d="M641.46,117.238l-31.285,12.133c.047.208.1.414.168.618,1.82,5.5,10.515,7.569,19.422,4.622s14.652-9.793,12.833-15.292A6.724,6.724,0,0,0,641.46,117.238Z" fill="#303030"/>
            <path d="M654.719,133.053l-14.161-11.468a3.345,3.345,0,0,0-.245.246c-2.1,2.341-.73,7,3.063,10.4s8.569,4.262,10.67,1.92A3.63,3.63,0,0,0,654.719,133.053Z" fill="#303030"/>
            <path d="M609.984,136.38h3a0,0,0,0,1,0,0v17.264a1.5,1.5,0,0,1-1.5,1.5h0a1.5,1.5,0,0,1-1.5-1.5V136.38A0,0,0,0,1,609.984,136.38Z" fill="#303030"/>
            <path d="M651.369,136.387h3.491a0,0,0,0,1,0,0V153.4a1.745,1.745,0,0,1-1.745,1.745h0a1.745,1.745,0,0,1-1.745-1.745V136.387a0,0,0,0,1,0,0Z" fill="#303030"/>
            <path d="M667.05,140.538a1.9,1.9,0,0,1,.925.837l2.079,3.794A1.9,1.9,0,1,1,666.72,147l-2.079-3.794a1.9,1.9,0,0,1,2.409-2.664Z" fill="#aa5d52"/>
            <rect x="621.871" y="195.812" width="21.193" height="2.932" fill="#7c489b"/>
            <path d="M636.047,151.6h-7.158a1.111,1.111,0,1,1,0-2.221h7.158a1.111,1.111,0,0,1,0,2.221Z" fill="#683631"/>
          </g>
          <path d="M615.321,139.319a18.338,18.338,0,0,1-11.146,29.63l-.044.007a1.934,1.934,0,0,0-.864,3.468,18.34,18.34,0,1,0,12.054-33.105Z" fill="#303030"/>
          <rect x="635.349" y="227.882" width="8.83" height="64.476" fill="#aa5d52"/>
          <g>
            <path d="M654.124,292.044l-20.874,0v.113l0,9.056a1.383,1.383,0,0,0,1.383,1.384l19.685,0,0-10.549C654.253,292.048,654.19,292.044,654.124,292.044Z" fill="#d31818"/>
            <path d="M663.173,300.028c-.815-3.09-3.02-7.872-8.855-7.979l0,10.549h6.859A2.057,2.057,0,0,0,663.173,300.028Z" fill="#eaeaea"/>
            <rect x="632.17" y="300.315" width="32.419" height="2.73" rx="1.365" ry="1.365" fill="#bababa"/>
            <path d="M644.173,292.043h7.035a0,0,0,0,1,0,0v3.152a1.16,1.16,0,0,1-1.16,1.16h-4.714a1.16,1.16,0,0,1-1.16-1.16v-3.152a0,0,0,0,1,0,0Z" fill="#d8d8d8"/>
          </g>
          <rect x="620.604" y="227.879" width="8.323" height="64.476" fill="#aa5d52"/>
          <rect x="635.218" y="227.882" width="9.094" height="55.126" fill="#303030"/>
          <rect x="620.359" y="227.879" width="8.817" height="55.126" fill="#303030"/>
          <g>
            <path d="M639.451,292.042l-19.584,0a1.48,1.48,0,0,0-1.48,1.48v7.69a1.383,1.383,0,0,0,1.383,1.383l19.685,0,0-10.548Z" fill="#f42f2f"/>
            <path d="M648.311,300.025c-.815-3.089-3.02-7.872-8.855-7.978l0,10.548h6.859A2.057,2.057,0,0,0,648.311,300.025Z" fill="#eaeaea"/>
            <rect x="617.307" y="300.312" width="32.419" height="2.73" rx="1.365" ry="1.365" fill="#d8d8d8"/>
            <path d="M628.921,292.04h7.035a0,0,0,0,1,0,0v3.152a1.16,1.16,0,0,1-1.16,1.16h-4.714a1.16,1.16,0,0,1-1.16-1.16V292.04A0,0,0,0,1,628.921,292.04Z" fill="#f2f2f2"/>
          </g>
          <rect x="618.574" y="227.88" width="27.392" height="7.873" fill="#115fea"/>
          <path d="M640.926,168.8l-17.488,0a8.851,8.851,0,0,0-8.853,8.85l1.491,14.806c1.147,11.386-3.824,57.692-5.818,68.96l-.223,1.262a1.416,1.416,0,0,0,1.414,1.416l42.957.006a1.415,1.415,0,0,0,1.415-1.415h0c-2.3-12.1-8.848-59.286-7.515-71.528l1.47-13.5A8.852,8.852,0,0,0,640.926,168.8Z" fill="#fff"/>
          <path d="M627.729,162.655h8.905a0,0,0,0,1,0,0v7.163a4.453,4.453,0,0,1-4.453,4.453h0a4.453,4.453,0,0,1-4.453-4.453v-7.163A0,0,0,0,1,627.729,162.655Z" fill="#aa5d52"/>
          <g>
            <path d="M632.411,109.5h0A22.438,22.438,0,0,1,654.85,131.94v12.428a0,0,0,0,1,0,0H609.973a0,0,0,0,1,0,0V131.94A22.438,22.438,0,0,1,632.411,109.5Z" fill="#303030"/>
            <circle cx="613.01" cy="144.365" r="6.123" fill="#8c463f"/>
            <circle cx="651.362" cy="144.372" r="6.123" fill="#8c463f"/>
            <path d="M613.012,133.186l0,14.314a19.176,19.176,0,0,0,19.172,19.179h0a19.176,19.176,0,0,0,19.18-19.172l0-14.314-9.917-9.316Z" fill="#aa5d52"/>
            <g>
              <path d="M620.344,139.765a.968.968,0,0,1-.305-1.887l4.646-1.548a.968.968,0,0,1,.612,1.837l-4.647,1.548A.957.957,0,0,1,620.344,139.765Z" fill="#303030"/>
              <path d="M644.03,139.685a.966.966,0,0,1-.306-.05l-4.646-1.549a.968.968,0,1,1,.613-1.837l4.645,1.55a.968.968,0,0,1-.306,1.886Z" fill="#303030"/>
              <path d="M627.95,145.536a.968.968,0,0,1-.943-.756,2.464,2.464,0,0,0-4.808,0,.968.968,0,0,1-1.889-.424,4.4,4.4,0,0,1,8.586,0,.966.966,0,0,1-.946,1.18Z" fill="#683631"/>
              <path d="M643.089,145.539a.968.968,0,0,1-.943-.756,2.464,2.464,0,0,0-4.808,0,.968.968,0,1,1-1.889-.425,4.4,4.4,0,0,1,8.586,0,.967.967,0,0,1-.733,1.156A.916.916,0,0,1,643.089,145.539Z" fill="#683631"/>
            </g>
            <g>
              <g>
                <path d="M637.9,155.307a1.081,1.081,0,0,1,1.085,1.242,6.91,6.91,0,0,1-13.594,0,1.082,1.082,0,0,1,1.085-1.242Z" fill="#1a1a1a"/>
                <path d="M633.46,159.47c-1.55.477-2.63,1.559-2.7,2.591a6.864,6.864,0,0,0,6.4-1.966C636.518,159.281,635.013,158.992,633.46,159.47Z" fill="#f76c66"/>
              </g>
              <path d="M637.9,155.274l-11.425,0a1.071,1.071,0,0,0-1.085,1.225,6.688,6.688,0,0,0,.319,1.145l12.956,0a6.662,6.662,0,0,0,.319-1.145A1.071,1.071,0,0,0,637.9,155.274Z" fill="#e6e7e8"/>
            </g>
          </g>
          <path d="M609.178,217.187a1.893,1.893,0,0,1-1.135-.517l-3.134-2.983a1.9,1.9,0,1,1,2.621-2.753l3.134,2.983a1.9,1.9,0,0,1-1.486,3.27Z" fill="#aa5d52"/>
          <path d="M601.277,222.3c-.056,0-.111-.011-.167-.018A4.752,4.752,0,0,1,597,216.966c5.318-41.853,23.431-43.872,25.479-43.965l.429,9.5a1.378,1.378,0,0,0,.2-.015c-.124.017-12.4,2.066-16.677,35.683A4.752,4.752,0,0,1,601.277,222.3Z" fill="#aa5d52"/>
          <path d="M627.994,183.006l-10.561,10.042a1.267,1.267,0,0,1-1.791-.045l-9.606-10.1a1.267,1.267,0,0,1,.046-1.792l10.561-10.042a8.237,8.237,0,0,1,11.645.294h0A8.236,8.236,0,0,1,627.994,183.006Z" fill="#fff"/>
          <path d="M675.836,136.368c.053.017.106.036.159.055a4.752,4.752,0,0,1,2.846,6.088c-14.4,39.657-32.509,37.643-34.527,37.282l1.67-9.356a1.219,1.219,0,0,0-.2-.029c.125.011,12.556.714,24.118-31.14A4.753,4.753,0,0,1,675.836,136.368Z" fill="#aa5d52"/>
          <path d="M641.129,168.819l12.512-7.473a1.268,1.268,0,0,1,1.738.439l7.147,11.967a1.267,1.267,0,0,1-.438,1.738l-12.512,7.472a8.236,8.236,0,0,1-11.3-2.848h0A8.237,8.237,0,0,1,641.129,168.819Z" fill="#fff"/>
          <rect x="621.7" y="168.8" width="20.963" height="8.795" rx="4.397" ry="4.397" fill="#aa5d52"/>
          <path d="M641.46,117.238l-31.285,12.133c.047.208.1.414.168.618,1.82,5.5,10.515,7.569,19.422,4.622s14.652-9.793,12.833-15.292A6.724,6.724,0,0,0,641.46,117.238Z" fill="#303030"/>
          <path d="M654.719,133.053l-14.161-11.468a3.345,3.345,0,0,0-.245.246c-2.1,2.341-.73,7,3.063,10.4s8.569,4.262,10.67,1.92A3.63,3.63,0,0,0,654.719,133.053Z" fill="#303030"/>
          <path d="M609.984,136.38h3a0,0,0,0,1,0,0v17.264a1.5,1.5,0,0,1-1.5,1.5h0a1.5,1.5,0,0,1-1.5-1.5V136.38A0,0,0,0,1,609.984,136.38Z" fill="#303030"/>
          <path d="M651.369,136.387h3.491a0,0,0,0,1,0,0V153.4a1.745,1.745,0,0,1-1.745,1.745h0a1.745,1.745,0,0,1-1.745-1.745V136.387a0,0,0,0,1,0,0Z" fill="#303030"/>
          <rect x="621.871" y="195.812" width="21.193" height="2.932" fill="#d6d7d8"/>
          <path d="M636.047,151.6h-7.158a1.111,1.111,0,1,1,0-2.221h7.158a1.111,1.111,0,0,1,0,2.221Z" fill="#683631"/>
        </g>
        <circle cx="609.966" cy="149.284" r="1.821" fill="#fff"/>
        <circle cx="655.503" cy="149.284" r="1.821" fill="#fff"/>
      </g>
      <g>
        <g>
          <rect x="690.296" y="212.509" width="54.231" height="73.454" fill="#d8bf8b"/>
          <g>
            <path d="M690.383,228.755v-3.071a13.19,13.19,0,0,0,13.176-13.176h3.071A16.265,16.265,0,0,1,690.383,228.755Z" fill="#b59661"/>
            <path d="M744.44,228.755a16.265,16.265,0,0,1-16.246-16.247h3.07a13.191,13.191,0,0,0,13.176,13.176Z" fill="#b59661"/>
          </g>
          <rect x="715.877" y="230.372" width="3.07" height="55.591" fill="#b59661"/>
          <rect x="712.158" y="228.311" width="10.508" height="3.07" fill="#b59661"/>
        </g>
        <g>
          <path d="M683.348,285.973h32.515v14.284a2.154,2.154,0,0,1-2.154,2.155H683.045V285.981C683.147,285.979,683.245,285.973,683.348,285.973Z" fill="#f27130"/>
          <path d="M669.25,298.406c1.27-4.812,4.706-12.261,13.795-12.425v16.431H672.361A3.2,3.2,0,0,1,669.25,298.406Z" fill="#eaeaea"/>
          <rect x="667.045" y="298.858" width="50.498" height="4.252" rx="2.126" ry="2.126" transform="translate(1384.588 601.968) rotate(-180)" fill="#d8d8d8"/>
          <path d="M691.657,285.973h10.525a1.807,1.807,0,0,1,1.807,1.807v4.909a0,0,0,0,1,0,0h-14.14a0,0,0,0,1,0,0V287.78A1.807,1.807,0,0,1,691.657,285.973Z" transform="translate(1393.838 578.663) rotate(-180)" fill="#f2f2f2"/>
        </g>
        <g>
          <path d="M751.464,285.973H718.949v14.284a2.155,2.155,0,0,0,2.155,2.155h30.663V285.981C751.666,285.979,751.567,285.973,751.464,285.973Z" fill="#f27130"/>
          <rect x="717.269" y="298.858" width="50.498" height="4.252" rx="2.126" ry="2.126" fill="#d8d8d8"/>
          <path d="M730.824,285.973h14.14a0,0,0,0,1,0,0v4.909a1.807,1.807,0,0,1-1.807,1.807H732.631a1.807,1.807,0,0,1-1.807-1.807v-4.909A0,0,0,0,1,730.824,285.973Z" fill="#f2f2f2"/>
        </g>
        <path d="M731,139.444h26.548a0,0,0,0,1,0,0v34.845a13.274,13.274,0,0,1-13.274,13.274h0A13.274,13.274,0,0,1,731,174.288V139.444a0,0,0,0,1,0,0Z" transform="translate(1485.791 -12.072) rotate(154.289)" fill="#303030"/>
        <path d="M689.1,139.444h0a13.274,13.274,0,0,1,13.274,13.274v34.845a0,0,0,0,1,0,0H675.825a0,0,0,0,1,0,0V152.717A13.274,13.274,0,0,1,689.1,139.444Z" transform="translate(139.158 -282.766) rotate(25.711)" fill="#303030"/>
        <path d="M694.1,140.508h45.535A13.422,13.422,0,0,1,753.06,153.93v46.632a0,0,0,0,1,0,0H680.68a0,0,0,0,1,0,0V153.93A13.422,13.422,0,0,1,694.1,140.508Z" fill="#303030"/>
        <path d="M704.022,173.614s-5.555,5.4-7.807,12.348" fill="none" stroke="#9e5447" stroke-linecap="round" stroke-miterlimit="10" stroke-width="7.603"/>
        <path d="M729.35,173.614s5.555,5.4,7.807,12.348" fill="none" stroke="#9e5447" stroke-linecap="round" stroke-miterlimit="10" stroke-width="7.603"/>
        <path d="M720.066,162.856a3.485,3.485,0,1,0-6.969,0h-2.112a1.944,1.944,0,0,0-1.944,1.944V167.2h15.08V164.8a1.943,1.943,0,0,0-1.943-1.944Z" fill="#a3a3a3"/>
        <rect x="702.065" y="164.573" width="28.964" height="35.99" rx="1.901" ry="1.901" fill="#f1c36b"/>
        <g>
          <path d="M674.647,184.108s8.059,1.791,25.192,1.769" fill="none" stroke="#aa5d52" stroke-linecap="round" stroke-miterlimit="10" stroke-width="19.009"/>
          <path d="M694.3,180.1s7.692.919,14.51-1.705" fill="none" stroke="#aa5d52" stroke-linecap="round" stroke-miterlimit="10" stroke-width="7.603"/>
          <path d="M695.88,187.209s7.691.919,14.509-1.705" fill="none" stroke="#aa5d52" stroke-linecap="round" stroke-miterlimit="10" stroke-width="7.603"/>
          <path d="M693.856,189.915s7.326,2.515,14.543,1.383" fill="none" stroke="#aa5d52" stroke-linecap="round" stroke-miterlimit="10" stroke-width="7.603"/>
        </g>
        <g>
          <path d="M758.725,184.108s-8.059,1.791-25.192,1.769" fill="none" stroke="#aa5d52" stroke-linecap="round" stroke-miterlimit="10" stroke-width="19.009"/>
          <path d="M739.077,180.1s-7.691.919-14.509-1.705" fill="none" stroke="#aa5d52" stroke-linecap="round" stroke-miterlimit="10" stroke-width="7.603"/>
          <path d="M737.492,187.209s-7.691.919-14.509-1.705" fill="none" stroke="#aa5d52" stroke-linecap="round" stroke-miterlimit="10" stroke-width="7.603"/>
          <path d="M739.516,189.915s-7.326,2.515-14.543,1.383" fill="none" stroke="#aa5d52" stroke-linecap="round" stroke-miterlimit="10" stroke-width="7.603"/>
        </g>
        <path d="M731,139.444h26.548a0,0,0,0,1,0,0v34.845a13.274,13.274,0,0,1-13.274,13.274h0A13.274,13.274,0,0,1,731,174.288V139.444a0,0,0,0,1,0,0Z" transform="translate(1485.791 -12.072) rotate(154.289)" fill="#303030"/>
        <path d="M689.1,139.444h0a13.274,13.274,0,0,1,13.274,13.274v34.845a0,0,0,0,1,0,0H675.825a0,0,0,0,1,0,0V152.717A13.274,13.274,0,0,1,689.1,139.444Z" transform="translate(139.158 -282.766) rotate(25.711)" fill="#303030"/>
        <path d="M694.1,140.508h45.535A13.422,13.422,0,0,1,753.06,153.93v60.3a0,0,0,0,1,0,0H680.68a0,0,0,0,1,0,0v-60.3A13.422,13.422,0,0,1,694.1,140.508Z" fill="#303030"/>
        <g>
          <path d="M695.824,206.219s-7.164-2.947-14.435-2.246" fill="none" stroke="#9e5447" stroke-linecap="round" stroke-miterlimit="10" stroke-width="7.603"/>
          <g>
            <path d="M674.5,183.449s1.565,8.106,8.4,23.815" fill="none" stroke="#aa5d52" stroke-linecap="round" stroke-miterlimit="10" stroke-width="19.009"/>
            <path d="M686.006,199.877s2.218,7.422,7.34,12.631" fill="none" stroke="#aa5d52" stroke-linecap="round" stroke-miterlimit="10" stroke-width="7.603"/>
            <path d="M680.111,204.162s2.219,7.422,7.34,12.631" fill="none" stroke="#aa5d52" stroke-linecap="round" stroke-miterlimit="10" stroke-width="7.603"/>
            <path d="M676.823,203.382s.609,7.722,4.52,13.893" fill="none" stroke="#aa5d52" stroke-linecap="round" stroke-miterlimit="10" stroke-width="7.603"/>
          </g>
        </g>
        <g>
          <path d="M737.536,206.871s7.164-2.947,14.436-2.246" fill="none" stroke="#9e5447" stroke-linecap="round" stroke-miterlimit="10" stroke-width="7.603"/>
          <g>
            <path d="M758.857,184.1s-1.566,8.106-8.406,23.814" fill="none" stroke="#aa5d52" stroke-linecap="round" stroke-miterlimit="10" stroke-width="19.009"/>
            <path d="M747.355,200.528s-2.219,7.422-7.34,12.632" fill="none" stroke="#aa5d52" stroke-linecap="round" stroke-miterlimit="10" stroke-width="7.603"/>
            <path d="M753.25,204.813s-2.219,7.422-7.34,12.632" fill="none" stroke="#aa5d52" stroke-linecap="round" stroke-miterlimit="10" stroke-width="7.603"/>
          </g>
        </g>
        <circle cx="716.844" cy="174.025" r="2.488" fill="#ffe9e9"/>
        <circle cx="716.844" cy="183.699" r="2.488" fill="#ffe9e9"/>
        <path d="M705.525,104.564l21.517.159a.784.784,0,0,0,.79-.778L728,86.729a9.638,9.638,0,0,0-9.567-9.709l-3.809-.028a9.638,9.638,0,0,0-9.709,9.567l-.165,17.215A.784.784,0,0,0,705.525,104.564Z" fill="#9e69b7"/>
        <line x1="709.68" y1="99.111" x2="723.185" y2="99.113" fill="none" stroke="#ffc338" stroke-miterlimit="10" stroke-width="3.171"/>
        <g>
          <circle cx="743.461" cy="42.493" r="7.248" fill="#1e1b1b"/>
          <circle cx="734.218" cy="33.227" r="7.248" fill="#1e1b1b"/>
          <circle cx="743.044" cy="34.688" r="10.014" fill="#1e1b1b"/>
          <circle cx="730.204" cy="42.962" r="8.902" fill="#9e69b7"/>
        </g>
        <g>
          <circle cx="696.518" cy="30.851" r="7.248" fill="#1e1b1b"/>
          <circle cx="690.634" cy="42.541" r="7.248" fill="#1e1b1b"/>
          <circle cx="690.694" cy="35.063" r="10.014" fill="#1e1b1b"/>
          <circle cx="701.138" cy="43.286" r="8.902" fill="#9e69b7"/>
        </g>
        <path d="M715.9,71.2h0a3.874,3.874,0,0,1,3.874,3.874v7.984a0,0,0,0,1,0,0h-7.748a0,0,0,0,1,0,0V75.07A3.874,3.874,0,0,1,715.9,71.2Z" transform="translate(1431.203 159.535) rotate(-179.577)" fill="#603a2c"/>
        <circle cx="732.837" cy="64.335" r="5.563" fill="#603a2c"/>
        <circle cx="699.15" cy="63.5" r="5.563" fill="#603a2c"/>
        <circle cx="716.172" cy="61.533" r="18.127" fill="#7f4f3c"/>
        <path d="M727.189,58.827a1.248,1.248,0,0,0,.418-.073,1.229,1.229,0,0,0,.738-1.574,3.58,3.58,0,0,0-4.58-2.15,1.229,1.229,0,1,0,.835,2.312,1.123,1.123,0,0,1,1.433.673A1.231,1.231,0,0,0,727.189,58.827Z" fill="#1e1b1b"/>
        <path d="M704.609,58.614a1.229,1.229,0,0,0,1.15-.795,1.121,1.121,0,0,1,1.444-.652,1.229,1.229,0,0,0,.868-2.3,3.58,3.58,0,0,0-4.611,2.082,1.23,1.23,0,0,0,1.149,1.664Z" fill="#1e1b1b"/>
        <ellipse cx="715.898" cy="66.615" rx="5.086" ry="1.902" fill="#603a2c"/>
        <circle cx="732.84" cy="47.075" r="5.468" fill="#1e1b1b"/>
        <ellipse cx="713.789" cy="39.21" rx="9.774" ry="9.367" fill="#1e1b1b"/>
        <circle cx="724.698" cy="41.605" r="7.248" fill="#1e1b1b"/>
        <circle cx="729.932" cy="43.152" r="7.248" fill="#1e1b1b"/>
        <circle cx="735.422" cy="55.01" r="5.089" fill="#1e1b1b"/>
        <circle cx="697.195" cy="54.291" r="5.663" fill="#1e1b1b"/>
        <circle cx="701.921" cy="43.776" r="7.248" fill="#1e1b1b"/>
        <g>
          <rect x="735.733" y="126.792" width="9.094" height="23.92" transform="translate(79.714 500.58) rotate(-39.328)" fill="#7f4f3c"/>
          <path d="M746.514,143.419H763.26a1.973,1.973,0,0,1,1.973,1.973v6.049a0,0,0,0,1,0,0H749.593a5.052,5.052,0,0,1-5.052-5.052v-1A1.973,1.973,0,0,1,746.514,143.419Z" transform="translate(1432.252 -216.942) rotate(140.672)" fill="#9e69b7"/>
        </g>
        <g>
          <rect x="688.084" y="126.792" width="9.094" height="23.92" transform="translate(1140.47 685.04) rotate(-140.672)" fill="#7f4f3c"/>
          <g>
            <path d="M672.73,143.419H688.37a0,0,0,0,1,0,0v6.049a1.973,1.973,0,0,1-1.973,1.973H669.651a1.973,1.973,0,0,1-1.973-1.973v-1a5.052,5.052,0,0,1,5.052-5.052Z" transform="translate(246.985 -396.314) rotate(39.328)" fill="#9e69b7"/>
            <path d="M677.406,142.326h0a2.442,2.442,0,0,1,2.442,2.442v1.569a0,0,0,0,1,0,0h-4.884a0,0,0,0,1,0,0v-1.569A2.442,2.442,0,0,1,677.406,142.326Z" transform="translate(1109.932 685.286) rotate(-140.672)" fill="#7f4f3c"/>
          </g>
        </g>
        <path d="M733.242,57.943h2.837a0,0,0,0,1,0,0v5.465a1.419,1.419,0,0,1-1.419,1.419h0a1.419,1.419,0,0,1-1.419-1.419V57.943a0,0,0,0,1,0,0Z" fill="#1e1b1b"/>
        <path d="M695.8,57.937h2.837a0,0,0,0,1,0,0V63.4a1.419,1.419,0,0,1-1.419,1.419h0A1.419,1.419,0,0,1,695.8,63.4V57.937A0,0,0,0,1,695.8,57.937Z" fill="#1e1b1b"/>
        <g>
          <g>
            <path d="M720.754,70.448a.943.943,0,0,1,.946,1.084,6.03,6.03,0,0,1-11.862,0,.944.944,0,0,1,.947-1.084Z" fill="#1a1a1a"/>
            <path d="M716.883,74.08a3.057,3.057,0,0,0-2.36,2.261,5.986,5.986,0,0,0,5.586-1.715A3.056,3.056,0,0,0,716.883,74.08Z" fill="#f76c66"/>
          </g>
          <path d="M720.992,70.369H710.547a.979.979,0,0,0-.992,1.12,6.165,6.165,0,0,0,.291,1.047l11.846,0a6.142,6.142,0,0,0,.292-1.047A.981.981,0,0,0,720.992,70.369Z" fill="#e6e7e8"/>
        </g>
        <g>
          <path d="M704.836,132.558h23.315a0,0,0,0,1,0,0v18.753a11.658,11.658,0,0,1-11.658,11.658h0a11.658,11.658,0,0,1-11.658-11.658V132.558A0,0,0,0,1,704.836,132.558Z" fill="#9e5447"/>
          <path d="M692.157,128.134V118.086a24.424,24.424,0,0,1,24.424-24.425h0a24.424,24.424,0,0,1,24.425,24.425v10.048" fill="#303030"/>
          <circle cx="738.151" cy="130.261" r="6.676" fill="#9e5447"/>
          <circle cx="695.589" cy="130.261" r="6.676" fill="#9e5447"/>
          <path d="M695.8,115.087h41.354a0,0,0,0,1,0,0v32.739a9.122,9.122,0,0,1-9.122,9.122h-23.11a9.122,9.122,0,0,1-9.122-9.122V115.087A0,0,0,0,1,695.8,115.087Z" fill="#aa5d52"/>
          <path d="M719.777,138.677h-7.243a1.124,1.124,0,1,1,0-2.247h7.243a1.124,1.124,0,0,1,0,2.247Z" fill="#683631"/>
          <circle cx="706.112" cy="129.6" r="2.098" fill="#303030"/>
          <circle cx="726.199" cy="129.6" r="2.098" fill="#303030"/>
          <g>
            <path d="M708.56,142.36h13.1A2.939,2.939,0,0,1,724.6,145.3v4.095a0,0,0,0,1,0,0H708.56a0,0,0,0,1,0,0V142.36A0,0,0,0,1,708.56,142.36Z" fill="#66241b"/>
            <path d="M723.458,147.469a3.948,3.948,0,1,0-7.9,0Z" fill="#f76c66"/>
            <path d="M713.954,146.132H724.6a0,0,0,0,1,0,0v3.262a0,0,0,0,1,0,0H711.868a0,0,0,0,1,0,0v-1.176A2.086,2.086,0,0,1,713.954,146.132Z" fill="#fff"/>
          </g>
          <path d="M730.105,129.258H702.243a1.124,1.124,0,1,1,0-2.247h27.862a1.124,1.124,0,0,1,0,2.247Z" fill="#683631"/>
        </g>
        <g>
          <path d="M704.836,132.558h23.315a0,0,0,0,1,0,0v18.753a11.658,11.658,0,0,1-11.658,11.658h0a11.658,11.658,0,0,1-11.658-11.658V132.558A0,0,0,0,1,704.836,132.558Z" fill="#9e5447"/>
          <path d="M708.141,147.826l-5.83,15.71a2.16,2.16,0,0,0,2.494,2.861l11.975-2.661Z" fill="#f2f2f2"/>
          <path d="M725.332,147.826l5.734,15.728a2.161,2.161,0,0,1-2.5,2.849l-12-2.667Z" fill="#f2f2f2"/>
          <path d="M692.157,128.134V118.086a24.424,24.424,0,0,1,24.424-24.425h0a24.424,24.424,0,0,1,24.425,24.425v10.048" fill="#303030"/>
          <circle cx="738.151" cy="130.261" r="6.676" fill="#9e5447"/>
          <circle cx="695.589" cy="130.261" r="6.676" fill="#9e5447"/>
          <path d="M695.8,115.087h41.354a0,0,0,0,1,0,0v32.739a9.122,9.122,0,0,1-9.122,9.122h-23.11a9.122,9.122,0,0,1-9.122-9.122V115.087A0,0,0,0,1,695.8,115.087Z" fill="#aa5d52"/>
          <path d="M719.777,132.921h-7.243a1.124,1.124,0,1,1,0-2.247h7.243a1.124,1.124,0,0,1,0,2.247Z" fill="#683631"/>
          <circle cx="706.112" cy="124.431" r="2.098" fill="#303030"/>
          <circle cx="726.199" cy="124.431" r="2.098" fill="#303030"/>
        </g>
        <g>
          <circle cx="708.385" cy="63.556" r="1.757" fill="#1e1b1b"/>
          <circle cx="723.608" cy="63.444" r="1.757" fill="#1e1b1b"/>
        </g>
        <g>
          <g>
            <path d="M723.438,137.652a1.264,1.264,0,0,1,1.269,1.452,8.081,8.081,0,0,1-15.9,0,1.265,1.265,0,0,1,1.269-1.452Z" fill="#1a1a1a"/>
            <path d="M718.25,142.52c-1.813.557-3.076,1.824-3.163,3.03a8.136,8.136,0,0,0,1.67.179,8.048,8.048,0,0,0,5.817-2.478C721.826,142.3,720.066,141.961,718.25,142.52Z" fill="#f76c66"/>
          </g>
          <path d="M723.757,137.546l-14,0a1.312,1.312,0,0,0-1.329,1.5,8.087,8.087,0,0,0,.39,1.4l15.875,0a8.18,8.18,0,0,0,.391-1.4A1.314,1.314,0,0,0,723.757,137.546Z" fill="#e6e7e8"/>
        </g>
        <g>
          <path d="M731.567,100.31a3.467,3.467,0,0,0,3.189-5.469l-4.231-5.895a3.467,3.467,0,1,0-5.633,4.043l4.23,5.895A3.46,3.46,0,0,0,731.567,100.31Z" fill="#7f4f3c"/>
          <path d="M717.943,80.343H726.8a5.232,5.232,0,0,1,5.232,5.232v0a5.232,5.232,0,0,1-5.232,5.232h-8.861a1.226,1.226,0,0,1-1.226-1.226V81.569a1.226,1.226,0,0,1,1.226-1.226Z" transform="translate(1089.454 717.052) rotate(-126.771)" fill="#9e69b7"/>
          <path d="M724.056,109.95l.065-.064,10.3-10.463a3.467,3.467,0,1,0-4.94-4.865l-10.3,10.462a3.467,3.467,0,0,0,4.875,4.93Z" fill="#7f4f3c"/>
          <rect x="719.845" y="100.008" width="2.767" height="5.533" rx="1.383" ry="1.383" transform="translate(372.171 742.221) rotate(-69.481)" fill="#7f4f3c"/>
        </g>
        <g>
          <path d="M701.066,100.378a3.467,3.467,0,0,1-3.215-5.453l4.2-5.915a3.467,3.467,0,1,1,5.653,4.015l-4.2,5.915A3.457,3.457,0,0,1,701.066,100.378Z" fill="#7f4f3c"/>
          <path d="M701.75,80.376h8.861a5.232,5.232,0,0,1,5.232,5.232v0a5.232,5.232,0,0,1-5.232,5.232H701.75a1.226,1.226,0,0,1-1.226-1.226V81.6a1.226,1.226,0,0,1,1.226-1.226Z" transform="translate(218.218 604.055) rotate(-53.511)" fill="#9e69b7"/>
          <path d="M708.624,109.981l-.066-.064L698.2,99.506a3.467,3.467,0,0,1,4.917-4.89l10.355,10.411a3.467,3.467,0,0,1-4.851,4.954Z" fill="#7f4f3c"/>
          <rect x="710.033" y="100.025" width="2.767" height="5.533" rx="1.383" ry="1.383" transform="translate(867.961 804.342) rotate(-110.801)" fill="#7f4f3c"/>
        </g>
      </g>
    </g>
    <g>
      <path d="M514.449,242.249v19.285A10.767,10.767,0,0,0,521.7,271.71l5.193,1.8-12.441,6.767-17.072-11.381V252.854Z" fill="#ea9d8b"/>
      <path d="M550.143,353.421a23.015,23.015,0,0,1,4.1-13.1l7.028-10.145v-.5s-47.342-51.463-47.6-52.239-.575-55.041-.575-55.041l51.4,10.161,4.145,15.781a15.043,15.043,0,0,0,18.37,10.728l.678-.178a4.432,4.432,0,0,0,3.161-5.411l-8.59-32.706a9.174,9.174,0,0,0-7.1-6.671l-62.241-12.3a15.667,15.667,0,0,0-18.115,11.113l-15.529,55.018a24.436,24.436,0,0,0,.257,14.134l17.007,52.822a77.582,77.582,0,0,1,3.666,20.559l1.071,25.866h48.865Z" fill="#ea9d8b"/>
      <g>
        <path d="M557.75,155.72a2.005,2.005,0,0,0-2.006,1.737,14.487,14.487,0,0,1-28.764,0,2.007,2.007,0,0,0-2.006-1.737H513.386a2.029,2.029,0,0,0-2.029,2.029V263.407a2.029,2.029,0,0,0,2.029,2.029h11.588a2.007,2.007,0,0,0,2.006-1.737,14.487,14.487,0,0,1,28.764,0,2.005,2.005,0,0,0,2.006,1.737h11.587a2.028,2.028,0,0,0,2.029-2.029V157.749a2.028,2.028,0,0,0-2.029-2.029Z" fill="#fff"/>
        <g>
          <line x1="511.357" y1="193.257" x2="516.013" y2="193.257" fill="none" stroke="#d6d7d8" stroke-miterlimit="10" stroke-width="4.656"/>
          <line x1="526.153" y1="193.257" x2="561.641" y2="193.257" fill="none" stroke="#d6d7d8" stroke-miterlimit="10" stroke-width="4.656" stroke-dasharray="10.139 10.139"/>
          <line x1="566.71" y1="193.257" x2="571.366" y2="193.257" fill="none" stroke="#d6d7d8" stroke-miterlimit="10" stroke-width="4.656"/>
        </g>
      </g>
      <path d="M543.037,210.868l3.46,7.009L554.232,219a1.869,1.869,0,0,1,1.036,3.187l-5.6,5.456,1.321,7.7a1.868,1.868,0,0,1-2.71,1.969l-6.919-3.637-6.919,3.637a1.868,1.868,0,0,1-2.711-1.969l1.322-7.7-5.6-5.456A1.868,1.868,0,0,1,528.491,219l7.736-1.124,3.46-7.009A1.867,1.867,0,0,1,543.037,210.868Z" fill="#fec337"/>
      <path d="M561.731,228.233a20.331,20.331,0,0,0-20.369,20.331v25.577a2.922,2.922,0,0,1-3.815,2.782l-28.272-9.067v86.651h32.087v26.8h8.781V353.421a23.011,23.011,0,0,1,4.1-13.1l8.223-11.871a27.429,27.429,0,0,0,4.882-15.62V233.884A5.643,5.643,0,0,0,561.731,228.233Z" fill="#ea9d8b"/>
    </g>
  </g>
  <g clip-path="url(#clip-path-4)">
    <g>
      <g>
        <g>
          <polygon points="412.931 337.847 412.931 323.849 366.916 323.849 366.916 341.075 387.116 341.075 366.278 367.435 366.278 381.871 412.999 381.871 412.999 364.679 391.756 364.679 412.931 337.847" fill="#3a3630"/>
          <path d="M463.1,329.308c-4.548-4.626-11-6.972-19.182-6.972s-14.633,2.344-19.18,6.968c-5.855,5.364-8.823,13.265-8.823,23.489,0,10.032,2.959,17.924,8.794,23.459,4.549,4.643,11.011,7,19.209,7s14.661-2.356,19.211-7c5.811-5.535,8.757-13.427,8.757-23.456C471.884,342.572,468.929,334.671,463.1,329.308Zm-12.717,33.768a7.653,7.653,0,0,1-6.465,2.948,7.787,7.787,0,0,1-6.535-2.971c-1.81-2.24-2.728-5.693-2.728-10.26s.918-8.02,2.729-10.262a7.786,7.786,0,0,1,6.534-2.969,7.635,7.635,0,0,1,6.46,2.958c1.792,2.259,2.7,5.716,2.7,10.273C453.077,357.369,452.17,360.829,450.381,363.076Z" fill="#3a3630"/>
          <path d="M522.588,330.153c-4.549-4.626-11-6.973-19.183-6.973s-14.632,2.345-19.18,6.969c-5.855,5.364-8.823,13.265-8.823,23.488,0,10.033,2.959,17.925,8.794,23.46,4.549,4.643,11.012,7,19.209,7s14.661-2.356,19.211-7c5.811-5.536,8.757-13.427,8.757-23.457C531.373,343.416,528.418,335.516,522.588,330.153ZM509.871,363.92a7.653,7.653,0,0,1-6.466,2.949,7.788,7.788,0,0,1-6.535-2.971c-1.81-2.241-2.727-5.693-2.727-10.261s.917-8.019,2.728-10.261a7.788,7.788,0,0,1,6.534-2.969,7.634,7.634,0,0,1,6.46,2.958c1.793,2.259,2.7,5.716,2.7,10.272C512.566,358.214,511.659,361.674,509.871,363.92Z" fill="#3a3630"/>
        </g>
        <g>
          <g>
            <path d="M398.116,521.725a22.162,22.162,0,0,1-11.048-2.96l-9.262-5.307a3.033,3.033,0,0,1-1.28-3.922,2.964,2.964,0,0,1,4.14-1.274l9.35,5.357a16.372,16.372,0,0,0,20.907-3.962,2.972,2.972,0,0,1,3.8-.739h0a2.964,2.964,0,0,1,.858,4.409,22.124,22.124,0,0,1-11.591,7.609A22.391,22.391,0,0,1,398.116,521.725Z" fill="#dbae3e"/>
            <path d="M411.558,504.47l6.684-3.488a1.166,1.166,0,0,1,1.7,1.083l-.322,7.533a5.519,5.519,0,0,1-8.474,4.422h0A5.519,5.519,0,0,1,411.558,504.47Z" fill="#ba4b2d"/>
          </g>
          <g>
            <path d="M342.422,477.814l-2.405,45.564a2.193,2.193,0,0,0,2.169,2.515h45.7a2.194,2.194,0,0,0,2.17-2.515l-2.4-45.564Z" fill="#edc658"/>
            <path d="M354.359,477.814l-1.135,45.564c-.093,1.325.392,2.515,1.024,2.515h21.574c.633,0,1.117-1.19,1.025-2.515l-1.136-45.564Z" fill="#ffecd4"/>
          </g>
          <g>
            <path d="M371.215,526a2.392,2.392,0,0,1-1.92-3.82,13.412,13.412,0,0,1,10.047-4.763c3.966,0,5.783,2.318,6.351,5.784a2.4,2.4,0,0,1-2.358,2.8Z" fill="#fd8"/>
            <path d="M356.377,526a2.393,2.393,0,0,0,1.92-3.82,13.412,13.412,0,0,0-10.047-4.763c-3.967,0-5.783,2.318-6.351,5.784a2.4,2.4,0,0,0,2.358,2.8Z" fill="#fd8"/>
          </g>
          <g>
            <path d="M401.43,433.241c-10.162-11.2-24.6-14.472-36.395-9.517-11.792-4.955-26.232-1.68-36.394,9.517-13.447,14.815-14.31,37.884-1.929,51.526,8.22,9.057,24.424,16.321,38.323,15.847,13.9.474,30.1-6.79,38.323-15.847C415.74,471.125,414.876,448.056,401.43,433.241Z" fill="#ba4b2d"/>
            <g>
              <line x1="338.698" y1="471.412" x2="329.991" y2="474.282" fill="none" stroke="#8e3420" stroke-linecap="round" stroke-miterlimit="10" stroke-width="2.306"/>
              <line x1="341.498" y1="476.543" x2="335.105" y2="480.669" fill="none" stroke="#8e3420" stroke-linecap="round" stroke-miterlimit="10" stroke-width="2.306"/>
              <line x1="337.168" y1="465.328" x2="330.557" y2="466.185" fill="none" stroke="#8e3420" stroke-linecap="round" stroke-miterlimit="10" stroke-width="2.306"/>
            </g>
            <g>
              <line x1="389.817" y1="471.412" x2="398.525" y2="474.282" fill="none" stroke="#8e3420" stroke-linecap="round" stroke-miterlimit="10" stroke-width="2.306"/>
              <line x1="387.017" y1="476.543" x2="393.41" y2="480.669" fill="none" stroke="#8e3420" stroke-linecap="round" stroke-miterlimit="10" stroke-width="2.306"/>
              <line x1="391.347" y1="465.328" x2="397.958" y2="466.185" fill="none" stroke="#8e3420" stroke-linecap="round" stroke-miterlimit="10" stroke-width="2.306"/>
            </g>
            <g>
              <g>
                <path d="M395.3,456.15c-4.414,3.7-9.978,2.267-13.674-2.147s-4.123-10.143.291-13.838,12.5-4.383,16.2.032S399.711,452.454,395.3,456.15Z" fill="#edc658"/>
                <path d="M383.847,447.888s3.882-6.411,11.118-3.571" fill="none" stroke="#b78b29" stroke-linecap="round" stroke-miterlimit="10" stroke-width="2.306"/>
              </g>
              <g>
                <path d="M334.774,456.15c4.415,3.7,9.978,2.267,13.674-2.147s4.124-10.143-.29-13.838-12.5-4.383-16.2.032S330.36,452.454,334.774,456.15Z" fill="#edc658"/>
                <path d="M346.224,447.888s-3.882-6.411-11.119-3.571" fill="none" stroke="#b78b29" stroke-linecap="round" stroke-miterlimit="10" stroke-width="2.306"/>
              </g>
            </g>
            <path d="M392.705,462.327c0-15.264-12.373-24.381-27.637-24.381s-27.637,9.117-27.637,24.381,12.374,30.75,27.637,30.75S392.705,477.59,392.705,462.327Z" fill="#edc658"/>
            <circle cx="350.696" cy="460.746" r="2.556" fill="#202020"/>
            <circle cx="379.842" cy="460.746" r="2.556" fill="#202020"/>
            <g>
              <g>
                <circle cx="349.414" cy="477.091" r="0.715" fill="#933e21"/>
                <circle cx="351.18" cy="480.121" r="0.715" fill="#933e21"/>
              </g>
              <circle cx="352.537" cy="477.301" r="0.715" fill="#933e21"/>
            </g>
            <g>
              <g>
                <circle cx="381.404" cy="477.091" r="0.715" fill="#933e21"/>
                <circle cx="379.638" cy="480.121" r="0.715" fill="#933e21"/>
              </g>
              <circle cx="378.281" cy="477.301" r="0.715" fill="#933e21"/>
            </g>
            <path d="M364.983,439.009c-7.534,0-14.361,2.226-19.346,6.311l4.26,3.386a25.6,25.6,0,0,1,9.672,20.043v5.467h10.9v-5.467a25.6,25.6,0,0,1,9.673-20.043l4.221-3.355C379.379,441.245,372.536,439.009,364.983,439.009Z" fill="#f9dc93"/>
            <line x1="365.112" y1="476.95" x2="365.146" y2="481.258" fill="none" stroke="#231f20" stroke-miterlimit="10" stroke-width="2.306"/>
            <path d="M380.751,435.478l-3.193,2.765a19.177,19.177,0,0,1-25.111,0l-3.193-2.765" fill="#ba4b2d"/>
            <g>
              <path d="M365.011,479.165a6.672,6.672,0,0,1-11.39,4.717" fill="none" stroke="#493630" stroke-linecap="round" stroke-miterlimit="10" stroke-width="2.306"/>
              <path d="M365.146,479.165a6.671,6.671,0,0,0,11.389,4.717" fill="none" stroke="#493630" stroke-linecap="round" stroke-miterlimit="10" stroke-width="2.306"/>
            </g>
            <line x1="345.906" y1="455.558" x2="353.572" y2="453.809" fill="none" stroke="#493630" stroke-linecap="round" stroke-miterlimit="10" stroke-width="2.306"/>
            <line x1="384.584" y1="455.558" x2="376.918" y2="453.809" fill="none" stroke="#493630" stroke-linecap="round" stroke-miterlimit="10" stroke-width="2.306"/>
            <path d="M368.483,473.152h-6.829a2.038,2.038,0,0,0-2.038,2.038h0a2.037,2.037,0,0,0,2.038,2.038h1.617l1.316,1.461a.664.664,0,0,0,.994-.007l1.268-1.454h1.634a2.038,2.038,0,0,0,2.038-2.038h0A2.039,2.039,0,0,0,368.483,473.152Z" fill="#493630"/>
          </g>
        </g>
        <g>
          <g>
            <path d="M494.235,481.589l-4.458,30.074a12.105,12.105,0,0,0,11.974,13.88h39.4a12.105,12.105,0,0,0,11.974-13.88l-4.458-30.074Z" fill="#3a3630"/>
            <polygon points="504.385 482.307 501.391 525.543 541.44 525.543 538.011 481.896 504.385 482.307" fill="#7c766d"/>
            <path d="M522.809,518.1a2.494,2.494,0,1,1,0-4.987" fill="none" stroke="#49443c" stroke-linecap="round" stroke-miterlimit="10" stroke-width="2.138"/>
            <path d="M516.252,503.12a12.664,12.664,0,0,1-17.687-2.817" fill="none" stroke="#3a3630" stroke-linecap="round" stroke-miterlimit="10" stroke-width="2.776"/>
            <path d="M526.259,503.12a12.664,12.664,0,0,0,17.687-2.817" fill="none" stroke="#3a3630" stroke-linecap="round" stroke-miterlimit="10" stroke-width="2.776"/>
          </g>
          <path d="M549.057,512.111h0a7.824,7.824,0,0,1-10.709.425l-.931-.809a2.969,2.969,0,0,1-.632-3.716l1.406-2.461a1,1,0,0,0-.474-1.411l-1.35-.574a2.971,2.971,0,0,1-1.944-3.677h0a2.815,2.815,0,0,1,3.185-1.969l6.294,1.107,8.71,9.189Z" fill="#a5a4a4"/>
          <path d="M493.443,512.111h0a7.823,7.823,0,0,0,10.708.425l.932-.809a2.97,2.97,0,0,0,.632-3.716l-1.407-2.461a1,1,0,0,1,.475-1.411l1.35-.574a2.97,2.97,0,0,0,1.943-3.677h0a2.815,2.815,0,0,0-3.185-1.969l-6.294,1.107-8.709,9.189Z" fill="#a5a4a4"/>
          <path d="M487.608,481.352l-4.4,6.9a14.848,14.848,0,0,0,3.614,19.856l3.533,2.65a7.752,7.752,0,0,0,10.761-1.43h0a7.753,7.753,0,0,0-1.917-11.3l-2.886-1.855a1.208,1.208,0,0,1-.33-1.718l3.591-5.036a7.221,7.221,0,0,0-2.007-10.288h0A7.221,7.221,0,0,0,487.608,481.352Z" fill="#514d47"/>
          <path d="M554.33,481.352l4.4,6.9a14.848,14.848,0,0,1-3.614,19.856l-3.533,2.65a7.752,7.752,0,0,1-10.761-1.43h0a7.753,7.753,0,0,1,1.917-11.3l2.885-1.855a1.208,1.208,0,0,0,.331-1.718l-3.591-5.036a7.22,7.22,0,0,1,2.007-10.288h0A7.222,7.222,0,0,1,554.33,481.352Z" fill="#514d47"/>
          <g>
            <circle cx="487.592" cy="465.748" r="7.5" fill="#7c766d"/>
            <circle cx="554.811" cy="465.748" r="7.5" fill="#7c766d"/>
            <path d="M534.442,422.824l.408-5.794a1.163,1.163,0,0,0-1.455-1.206l-7.431,1.946c-.228-.6-.58-1.527-1.107-2.9a1.167,1.167,0,0,0-1.482-.681c-15.274,5.43-20.111,11.464-20.111,11.464h0c-10.836,8.055-18.153,22.57-18.176,35.937a35.967,35.967,0,0,0,71.933.123C557.047,446.552,547.7,429.886,534.442,422.824Z" fill="#49443c"/>
            <path d="M538.856,464.753a13.279,13.279,0,0,0,2.8-8.4c-.064-6.772-5.062-12.292-11.062-12.227a9.809,9.809,0,0,0-3.319.616,16.966,16.966,0,0,1-11.9-.021,9.815,9.815,0,0,0-3.316-.627c-6-.086-11.017,5.418-11.1,12.189a13.268,13.268,0,0,0,2.776,8.41,3.471,3.471,0,0,1-.477,4.782c-3.017,2.39-4.818,5.4-4.824,8.667-.013,7.807,10.2,14.153,22.815,14.175s22.85-6.289,22.864-14.1c0-3.271-1.785-6.284-4.795-8.684A3.471,3.471,0,0,1,538.856,464.753Z" fill="#7c766d"/>
            <circle cx="512.696" cy="459.795" r="3.076" fill="#202020"/>
            <circle cx="530.502" cy="459.729" r="3.076" fill="#202020"/>
            <path d="M513.489,472.218a2.806,2.806,0,0,1-1.182-2.108c0-2.409,4.257-4.362,9.508-4.362s9.507,1.953,9.507,4.362a3.056,3.056,0,0,1-1.547,2.386" fill="none" stroke="#3a3630" stroke-linecap="round" stroke-miterlimit="10" stroke-width="2.776"/>
            <line x1="542.175" y1="454.122" x2="532.949" y2="452.017" fill="none" stroke="#3a3630" stroke-linecap="round" stroke-miterlimit="10" stroke-width="2.776"/>
            <line x1="501.748" y1="454.122" x2="510.975" y2="452.017" fill="none" stroke="#3a3630" stroke-linecap="round" stroke-miterlimit="10" stroke-width="2.776"/>
            <g>
              <path d="M516.256,476.882h19.326a0,0,0,0,1,0,0v4.594a8.325,8.325,0,0,1-8.325,8.325h-8.35a2.65,2.65,0,0,1-2.65-2.65V476.882A0,0,0,0,1,516.256,476.882Z" fill="#202020"/>
              <path d="M516.892,476.786h18.054a1.024,1.024,0,0,1,1.024,1.024v1.8a2.147,2.147,0,0,1-2.147,2.147h-15.81a2.147,2.147,0,0,1-2.147-2.147v-1.8A1.024,1.024,0,0,1,516.892,476.786Z" fill="#e6e7e8"/>
              <path d="M534.494,485.628a5.45,5.45,0,0,0-9.366,3.794c0,.136.011.269.021.4h2.122A8.319,8.319,0,0,0,534.494,485.628Z" fill="#f76c66"/>
            </g>
          </g>
          <path d="M511.814,527.775a2.879,2.879,0,0,0,2.311-4.6c-2.593-3.482-7.8-5.733-12.091-5.733-4.774,0-6.96,2.791-7.644,6.962a2.887,2.887,0,0,0,2.838,3.369Z" fill="#9b948c"/>
          <path d="M530.692,527.775a2.88,2.88,0,0,1-2.311-4.6c2.593-3.481,7.8-5.733,12.091-5.733,4.774,0,6.96,2.791,7.644,6.962a2.887,2.887,0,0,1-2.838,3.369Z" fill="#9b948c"/>
        </g>
        <rect x="448.06" y="396.474" width="148.984" height="121.54" fill="#caf4ff" opacity="0.1"/>
        <g opacity="0.5">
          <line x1="565.496" y1="420.685" x2="535.001" y2="451.18" fill="none" stroke="#fff" stroke-miterlimit="10" stroke-width="5.881"/>
          <line x1="573.466" y1="429.349" x2="554.407" y2="448.408" fill="none" stroke="#fff" stroke-miterlimit="10" stroke-width="5.881"/>
        </g>
        <rect x="290.254" y="396.474" width="148.984" height="121.54" fill="#caf4ff" opacity="0.1"/>
        <g>
          <rect x="429.927" y="386.673" width="28.425" height="139.183" fill="#3a3630"/>
          <rect x="271.631" y="386.673" width="28.425" height="139.183" fill="#3a3630"/>
          <rect x="588.222" y="386.673" width="28.425" height="139.183" fill="#3a3630"/>
        </g>
        <g>
          <rect x="257.909" y="378.831" width="372.46" height="17.643" rx="8.821" ry="8.821" fill="#d8bf8b"/>
          <rect x="257.909" y="518.014" width="372.46" height="17.643" rx="8.821" ry="8.821" fill="#d8bf8b"/>
        </g>
        <g opacity="0.5">
          <line x1="407.691" y1="420.685" x2="377.195" y2="451.18" fill="none" stroke="#fff" stroke-miterlimit="10" stroke-width="5.881"/>
          <line x1="415.661" y1="429.349" x2="396.601" y2="448.408" fill="none" stroke="#fff" stroke-miterlimit="10" stroke-width="5.881"/>
        </g>
      </g>
      <g>
        <path d="M554.679,486.293H579.66a0,0,0,0,1,0,0v7.113a0,0,0,0,1,0,0H550.023a0,0,0,0,1,0,0v-2.457A4.656,4.656,0,0,1,554.679,486.293Z" fill="#eda515"/>
        <rect x="581.226" y="431.754" width="225.361" height="117.652" rx="12.52" ry="12.52" fill="#fec337"/>
        <path d="M549.177,490.58h257.41a0,0,0,0,1,0,0v58.826a0,0,0,0,1,0,0H537.314a0,0,0,0,1,0,0V502.443A11.863,11.863,0,0,1,549.177,490.58Z" fill="#fec337"/>
        <rect x="558.856" y="431.754" width="247.731" height="23.199" rx="11.599" ry="11.599" fill="#fec337"/>
        <rect x="521.572" y="531.178" width="299.929" height="26.513" rx="5.622" ry="5.622" fill="#333"/>
        <rect x="627.831" y="454.953" width="33.97" height="35.627" rx="5.118" ry="5.118" fill="#46a7ff"/>
        <rect x="676.093" y="454.953" width="33.97" height="35.627" rx="5.118" ry="5.118" fill="#46a7ff"/>
        <rect x="724.355" y="454.953" width="33.97" height="35.627" rx="5.118" ry="5.118" fill="#46a7ff"/>
        <g>
          <circle cx="593.654" cy="549.406" r="28.17" fill="#333"/>
          <circle cx="593.654" cy="549.406" r="12.428" fill="#dfe8ef"/>
        </g>
        <circle cx="762.674" cy="549.406" r="28.17" fill="#333"/>
        <rect x="624.31" y="470.281" width="42.255" height="4.971" fill="#fec337"/>
        <rect x="670.707" y="470.695" width="42.255" height="4.971" fill="#fec337"/>
        <rect x="550.57" y="512.951" width="256.016" height="4.971" fill="#333"/>
        <rect x="550.57" y="503.837" width="256.016" height="4.971" fill="#333"/>
        <rect x="719.591" y="470.695" width="42.255" height="4.971" fill="#fec337"/>
        <path d="M535.509,507.151h15.241a3.962,3.962,0,0,1,3.962,3.962v20.065a0,0,0,0,1,0,0H533.426a0,0,0,0,1,0,0V509.234A2.083,2.083,0,0,1,535.509,507.151Z" fill="#898989"/>
        <rect x="541.564" y="500.907" width="23.919" height="19.648" rx="3.453" ry="3.453" fill="#fff"/>
        <rect x="607.826" y="469.697" width="176.429" height="5.927" fill="#eda515"/>
        <rect x="643.677" y="435.317" width="141.073" height="5.927" rx="2.964" ry="2.964" fill="#ffce6c"/>
        <rect x="603.37" y="435.317" width="30.823" height="5.927" rx="2.964" ry="2.964" fill="#ffce6c"/>
        <rect x="531.055" y="512.374" width="7.113" height="4.742" rx="2.371" ry="2.371" fill="#aaa"/>
        <rect x="531.055" y="520.673" width="9.484" height="4.742" rx="2.371" ry="2.371" fill="#aaa"/>
        <g>
          <path d="M616.411,549.406a22.9,22.9,0,0,0-.323-3.838,22.645,22.645,0,0,0-1.35-4.742" fill="none" stroke="#474747" stroke-linecap="round" stroke-miterlimit="10" stroke-width="4.742"/>
          <path d="M609.3,532.879a22.7,22.7,0,0,0-15.644-6.23" fill="none" stroke="#474747" stroke-linecap="round" stroke-miterlimit="10" stroke-width="4.742"/>
        </g>
        <circle cx="593.654" cy="549.406" r="5.35" fill="#fff"/>
        <path d="M579.569,454.953h29.819a4.151,4.151,0,0,1,4.151,4.151v27.324a4.151,4.151,0,0,1-4.151,4.151H579.569a0,0,0,0,1,0,0V454.953A0,0,0,0,1,579.569,454.953Z" fill="#46a7ff"/>
      </g>
    </g>
  </g>
</svg>
