<svg id="Layer_1" data-name="Layer 1" xmlns="http://www.w3.org/2000/svg" xmlns:xlink="http://www.w3.org/1999/xlink" viewBox="0 0 745 572">
  <defs>
    <clipPath id="clip-path">
      <rect x="42.792" y="7.162" width="333.734" height="328.734" rx="27.177" ry="27.177" fill="#9e69b7"/>
    </clipPath>
    <clipPath id="clip-path-2">
      <rect x="399.933" y="263.019" width="303.567" height="303.567" rx="24.72" ry="24.72" fill="#9e69b7"/>
    </clipPath>
    <clipPath id="clip-path-3">
      <rect x="42.792" y="7.162" width="333.734" height="328.734" rx="27.177" ry="27.177" fill="none"/>
    </clipPath>
    <clipPath id="clip-path-4">
      <rect x="399.933" y="262.019" width="303.567" height="303.567" rx="24.72" ry="24.72" fill="none"/>
    </clipPath>
    <clipPath id="clip-path-5">
      <rect x="401" y="8.5" width="303" height="229" rx="24.72" ry="24.72" fill="none"/>
    </clipPath>
    <clipPath id="clip-path-6">
      <rect x="42.667" y="364.5" width="335" height="202" rx="24.72" ry="24.72" fill="none"/>
    </clipPath>
  </defs>
  <title>check-ins</title>
  <g>
    <rect x="42.792" y="7.162" width="333.734" height="328.734" rx="27.177" ry="27.177" fill="#9e69b7"/>
    <g clip-path="url(#clip-path)">
      <rect x="41.063" y="4.568" width="462.559" height="350.932" fill="#b685d3"/>
    </g>
  </g>
  <g>
    <rect x="399.933" y="263.019" width="303.567" height="303.567" rx="24.72" ry="24.72" fill="#9e69b7"/>
    <g clip-path="url(#clip-path-2)">
      <rect x="379.65" y="260.488" width="342.304" height="311.66" fill="#b685d3"/>
    </g>
  </g>
  <rect x="401" y="8.5" width="303" height="229" rx="24.72" ry="24.72" fill="#b685d3"/>
  <rect x="42.667" y="364.5" width="335" height="202" rx="24.72" ry="24.72" fill="#b685d3"/>
  <g clip-path="url(#clip-path-3)">
    <g>
      <g>
        <line x1="-19.553" y1="238.648" x2="32.74" y2="238.648" fill="none" stroke="#f9a819" stroke-miterlimit="10" stroke-width="3.109"/>
        <line x1="-19.553" y1="229.969" x2="32.74" y2="229.969" fill="none" stroke="#6bb242" stroke-miterlimit="10" stroke-width="3.109"/>
        <line x1="-19.553" y1="221.289" x2="32.74" y2="221.289" fill="none" stroke="#f42f2f" stroke-miterlimit="10" stroke-width="3.109"/>
        <line x1="75.332" y1="262.045" x2="75.332" y2="295.102" fill="none" stroke="#b7b7b7" stroke-linecap="round" stroke-miterlimit="10" stroke-width="5.724"/>
        <rect x="-43.3" y="254.719" width="142.112" height="11.857" rx="2.416" ry="2.416" fill="#f9a819"/>
        <g>
          <rect x="2.448" y="211.895" width="8.291" height="77.377" rx="1.493" ry="1.493" transform="translate(-243.99 257.177) rotate(-90)" fill="#e2ceaf"/>
          <rect x="28.594" y="216.438" width="8.291" height="35.403" rx="1.493" ry="1.493" fill="#e2ceaf"/>
        </g>
        <rect x="-1.305" y="217.786" width="3.534" height="7.259" rx="1.224" ry="1.224" fill="#ff5050"/>
        <rect x="4.095" y="217.786" width="3.534" height="7.259" rx="1.224" ry="1.224" fill="#ff5050"/>
        <rect x="22.553" y="217.786" width="3.534" height="7.259" rx="1.224" ry="1.224" fill="#ff5050"/>
        <rect x="-1.305" y="235.018" width="3.534" height="7.259" rx="1.224" ry="1.224" fill="#f7c31c"/>
        <rect x="4.095" y="235.018" width="3.534" height="7.259" rx="1.224" ry="1.224" fill="#f7c31c"/>
        <rect x="22.553" y="235.018" width="3.534" height="7.259" rx="1.224" ry="1.224" fill="#f7c31c"/>
        <rect x="-1.305" y="226.339" width="3.534" height="7.259" rx="1.224" ry="1.224" fill="#89d15a"/>
        <rect x="17.349" y="226.339" width="3.534" height="7.259" rx="1.224" ry="1.224" fill="#89d15a"/>
        <rect x="22.553" y="226.339" width="3.534" height="7.259" rx="1.224" ry="1.224" fill="#89d15a"/>
        <rect x="28.594" y="241.409" width="8.291" height="5.029" fill="#c1ac8f"/>
      </g>
      <g>
        <path d="M98.986,171.658l22.719,27.166a4.687,4.687,0,0,0,3.659,1.68l38.48-.512" fill="none" stroke="#965953" stroke-linecap="round" stroke-miterlimit="10" stroke-width="13.931"/>
        <path d="M75.969,157.2h24.463a13.827,13.827,0,0,1,13.827,13.827v0a13.827,13.827,0,0,1-13.827,13.827H75.969a2.127,2.127,0,0,1-2.127-2.127v-23.4A2.127,2.127,0,0,1,75.969,157.2Z" transform="translate(18.003 350.775) rotate(-128.261)" fill="#d61a1a"/>
        <g>
          <rect x="14.137" y="284.285" width="17.482" height="18.226" transform="translate(314.651 331.785) rotate(101.954)" fill="#9e5447"/>
          <path d="M-3.442,313.6l6.606-31.2a2.065,2.065,0,0,1,2.447-1.593l10.92,2.312-5.4,25.5A9.954,9.954,0,0,1-.669,316.3l-1.181-.25A2.065,2.065,0,0,1-3.442,313.6Z" fill="#9e5447"/>
          <rect x="-19.394" y="295.013" width="43.16" height="4.178" rx="2.089" ry="2.089" transform="translate(293.298 356.5) rotate(101.954)" fill="#ff69ad"/>
          <path d="M-.554,305.284a2.048,2.048,0,0,1,.375-.817,2.064,2.064,0,0,1,2.892-.4A13.03,13.03,0,0,1,7.727,312.4a13.1,13.1,0,0,1,.07,3.725,2.064,2.064,0,1,1-4.1-.511,8.991,8.991,0,0,0-.049-2.553,8.914,8.914,0,0,0-3.432-5.7A2.067,2.067,0,0,1-.554,305.284Z" fill="#ff69ad"/>
          <path d="M77.363,301.157l1.045-4.937,4.99-23.571a.612.612,0,0,0-.473-.727l-15.9-3.367a.614.614,0,0,0-.727.473L61.306,292.6l-29.929-6.337-3.621,17.1,30.529,6.463,3.181.674,5.447,1.153a8.048,8.048,0,0,0,9.541-6.207Z" fill="#c0a0ea"/>
        </g>
        <rect x="59.175" y="253.947" width="29.768" height="37.246" transform="translate(58.061 -9.429) rotate(11.954)" fill="#d61a1a"/>
        <rect x="133.691" y="284.896" width="17.482" height="18.226" fill="#7f4139"/>
        <path d="M167.649,315.573H135.756a2.065,2.065,0,0,1-2.065-2.064V302.347h26.067a9.955,9.955,0,0,1,9.955,9.955v1.207A2.064,2.064,0,0,1,167.649,315.573Z" fill="#7f4139"/>
        <path d="M137.237,221.873h-28.2a.612.612,0,0,0-.613.613v16.255a.612.612,0,0,0,.613.613h24.65v47.818h17.482V229.921a8.048,8.048,0,0,0-8.048-8.048Z" fill="#a184d1"/>
        <rect x="128.762" y="311.396" width="43.16" height="4.178" rx="2.089" ry="2.089" fill="#ff69ad"/>
        <path d="M158.914,314.47a2.065,2.065,0,0,1-1.866-2.944,13.088,13.088,0,0,1,10.742-7.47,2.064,2.064,0,1,1,.348,4.114,8.969,8.969,0,0,0-7.354,5.114A2.065,2.065,0,0,1,158.914,314.47Z" fill="#ff69ad"/>
        <path d="M102.745,219.9l3.041-40.663A36.076,36.076,0,0,0,69.71,143.165h0a36.076,36.076,0,0,0-36.076,36.076l3.84,40.663Z" fill="#f42f2f"/>
        <circle cx="61.604" cy="146.599" r="12.893" fill="#303030"/>
        <line x1="51.726" y1="191.762" x2="91.371" y2="191.762" fill="none" stroke="#c61414" stroke-miterlimit="10" stroke-width="3.715"/>
        <path d="M69.71,168.877c11.676,0,21.562-6.512,24.926-15.5-5.79-6.3-14.8-10.358-24.926-10.358h0c-10.127,0-19.136,4.056-24.925,10.358C48.148,162.365,58.034,168.877,69.71,168.877Z" fill="#aa5d52"/>
        <path d="M57.592,115.744l2.392-12.038A29.833,29.833,0,0,1,95.061,80.261h0a29.833,29.833,0,0,1,23.445,35.076l-2.393,12.039" fill="#303030"/>
        <circle cx="112.187" cy="129.244" r="8.154" fill="#9e5447"/>
        <circle cx="61.197" cy="119.11" r="8.154" fill="#9e5447"/>
        <path d="M57.53,123.066a3.535,3.535,0,1,0,2.778,4.157" fill="none" stroke="#fcc846" stroke-miterlimit="10" stroke-width="2.322"/>
        <path d="M113.109,134.113a3.535,3.535,0,1,1-4.156,2.778" fill="none" stroke="#fcc846" stroke-miterlimit="10" stroke-width="2.322"/>
        <path d="M66.1,134.426H89.81a0,0,0,0,1,0,0V153.5a11.855,11.855,0,0,1-11.855,11.855h0A11.855,11.855,0,0,1,66.1,153.5v-19.07A0,0,0,0,1,66.1,134.426Z" fill="#9e5447"/>
        <path d="M64.239,105.414h41.224a4.644,4.644,0,0,1,4.644,4.644v21.232a25.256,25.256,0,0,1-25.256,25.256h0A25.256,25.256,0,0,1,59.6,131.289V110.058a4.644,4.644,0,0,1,4.644-4.644Z" transform="translate(27.161 -14.028) rotate(11.241)" fill="#aa5d52"/>
        <g>
          <line x1="86.285" y1="133.178" x2="94.963" y2="134.902" fill="#fff"/>
          <path d="M94.7,136.249l-8.677-1.725a1.372,1.372,0,1,1,.535-2.692l8.677,1.724a1.373,1.373,0,1,1-.535,2.693Z" fill="#683631"/>
        </g>
        <path d="M78.346,116.512s3.044-2.145,7.951-.47" fill="none" stroke="#303030" stroke-linecap="round" stroke-miterlimit="10" stroke-width="2.786"/>
        <path d="M107.788,121.769s-2.334-2.9-7.513-2.643" fill="none" stroke="#303030" stroke-linecap="round" stroke-miterlimit="10" stroke-width="2.786"/>
        <path d="M37.581,219.9H109.71a0,0,0,0,1,0,0v37.564a0,0,0,0,1,0,0H49.444a11.863,11.863,0,0,1-11.863-11.863V219.9A0,0,0,0,1,37.581,219.9Z" fill="#f42f2f"/>
        <line x1="84.196" y1="219.185" x2="102.215" y2="219.185" fill="none" stroke="#c61414" stroke-miterlimit="10" stroke-width="3.715"/>
        <g>
          <path d="M52.112,167.128l7.832,42.9a8.017,8.017,0,0,0,7.877,6.522h42.752" fill="none" stroke="#965953" stroke-linecap="round" stroke-miterlimit="10" stroke-width="13.931"/>
          <path d="M34.031,157.842H58.494a13.827,13.827,0,0,1,13.827,13.827v0A13.827,13.827,0,0,1,58.494,185.5H34.031a2.127,2.127,0,0,1-2.127-2.127v-23.4A2.127,2.127,0,0,1,34.031,157.842Z" transform="translate(-112.223 243.64) rotate(-96.765)" fill="#f74d4d"/>
          <path d="M108.773,206.624a2.791,2.791,0,0,1-.344,1.806l-3.183,5.528a2.8,2.8,0,1,1-4.856-2.8l3.182-5.527a2.8,2.8,0,0,1,5.2.99Z" fill="#965953"/>
        </g>
        <circle cx="84.563" cy="123.881" r="2.646" fill="#303030"/>
        <circle cx="104.031" cy="126.631" r="2.646" fill="#303030"/>
        <g>
          <path d="M76.1,138.048h6.653a6.633,6.633,0,0,1,6.633,6.633v3.66a0,0,0,0,1,0,0h-15.4a0,0,0,0,1,0,0v-8.182a2.111,2.111,0,0,1,2.111-2.111Z" transform="translate(133.898 299.566) rotate(-168.759)" fill="#41352e"/>
          <rect x="74.313" y="138.033" width="16.016" height="3.963" transform="translate(135.769 293.391) rotate(-168.759)" fill="#e6e7e8"/>
          <path d="M74.634,143.649a4.342,4.342,0,0,1,6.729,4.419c-.021.106-.05.208-.078.311l-1.659-.33A6.625,6.625,0,0,1,74.634,143.649Z" fill="#f76c66"/>
        </g>
        <path d="M163.562,192.013a2.791,2.791,0,0,1-1,1.541l-5.038,3.912a2.8,2.8,0,1,1-3.436-4.427l5.037-3.911a2.8,2.8,0,0,1,4.439,2.885Z" fill="#965953"/>
      </g>
      <g>
        <g>
          <path d="M207.606,131.77l-15.231,25.223a10.2,10.2,0,0,0,.841,11.733l19.846,24.221,3.33,16.611" fill="none" stroke="#eaafa9" stroke-linecap="round" stroke-miterlimit="10" stroke-width="15.543"/>
          <line x1="213.762" y1="189.779" x2="226.064" y2="192.928" fill="none" stroke="#eaafa9" stroke-linecap="round" stroke-miterlimit="10" stroke-width="7.771"/>
        </g>
        <g>
          <path d="M257.545,129.889l15.231,25.223a10.2,10.2,0,0,1-.841,11.733L252.09,191.066l-3.331,16.611" fill="none" stroke="#eaafa9" stroke-linecap="round" stroke-miterlimit="10" stroke-width="15.543"/>
          <line x1="251.39" y1="187.898" x2="239.087" y2="191.047" fill="none" stroke="#eaafa9" stroke-linecap="round" stroke-miterlimit="10" stroke-width="7.771"/>
        </g>
        <g>
          <path d="M198.97,290.106l32.48.006v.177l0,14.092a2.152,2.152,0,0,1-2.153,2.152l-30.63-.006,0-16.413C198.768,290.112,198.867,290.106,198.97,290.106Z" fill="#303030"/>
          <path d="M184.884,302.524c1.269-4.807,4.7-12.248,13.783-12.41l0,16.413-10.673,0A3.2,3.2,0,0,1,184.884,302.524Z" fill="#d8d8d8"/>
          <rect x="182.681" y="302.979" width="50.444" height="4.248" rx="2.124" ry="2.124" transform="matrix(-1, 0, 0, -1, 415.75, 610.243)" fill="#b7b7b7"/>
          <path d="M207.268,290.109h10.514a1.805,1.805,0,0,1,1.805,1.805v4.9a0,0,0,0,1,0,0H205.463a0,0,0,0,1,0,0v-4.9a1.805,1.805,0,0,1,1.805-1.805Z" transform="translate(424.997 586.965) rotate(-179.99)" fill="#d8d8d8"/>
        </g>
        <g>
          <path d="M266.356,290.106l-32.48.006v.177l0,14.092a2.152,2.152,0,0,0,2.153,2.152l30.63-.006,0-16.413C266.558,290.112,266.459,290.106,266.356,290.106Z" fill="#303030"/>
          <path d="M280.442,302.524c-1.27-4.807-4.7-12.248-13.783-12.41l0,16.413,10.673,0A3.2,3.2,0,0,0,280.442,302.524Z" fill="#d8d8d8"/>
          <rect x="232.201" y="302.979" width="50.444" height="4.248" rx="2.124" ry="2.124" fill="#b7b7b7"/>
          <path d="M245.739,290.109h14.124a0,0,0,0,1,0,0v4.9a1.805,1.805,0,0,1-1.805,1.805H247.544a1.805,1.805,0,0,1-1.805-1.805v-4.9a0,0,0,0,1,0,0Z" fill="#d8d8d8"/>
        </g>
        <rect x="209.981" y="198.805" width="45.316" height="91.201" transform="translate(465.232 488.853) rotate(-179.99)" fill="#64bdff"/>
        <rect x="231.134" y="216.285" width="3.004" height="73.721" fill="#1e78ba"/>
        <rect x="227.502" y="214.268" width="10.282" height="3.004" fill="#1e78ba"/>
        <path d="M255.27,210.792v-3.1a12.937,12.937,0,0,1-8.609-8.837h-3.1A15.929,15.929,0,0,0,255.27,210.792Z" fill="#1e78ba"/>
        <path d="M221.715,198.9h-3.1A12.937,12.937,0,0,1,210,207.733v3.1A15.93,15.93,0,0,0,221.715,198.9Z" fill="#1e78ba"/>
        <g>
          <path d="M198.97,290.106l32.48.006v.177l0,14.092a2.152,2.152,0,0,1-2.153,2.152l-30.63-.006,0-16.413C198.768,290.112,198.867,290.106,198.97,290.106Z" fill="#303030"/>
          <path d="M184.884,302.524c1.269-4.807,4.7-12.248,13.783-12.41l0,16.413-10.673,0A3.2,3.2,0,0,1,184.884,302.524Z" fill="#d8d8d8"/>
          <rect x="182.681" y="302.979" width="50.444" height="4.248" rx="2.124" ry="2.124" transform="matrix(-1, 0, 0, -1, 415.75, 610.243)" fill="#b7b7b7"/>
          <path d="M207.268,290.109h10.514a1.805,1.805,0,0,1,1.805,1.805v4.9a0,0,0,0,1,0,0H205.463a0,0,0,0,1,0,0v-4.9a1.805,1.805,0,0,1,1.805-1.805Z" transform="translate(424.997 586.965) rotate(-179.99)" fill="#d8d8d8"/>
        </g>
        <g>
          <path d="M266.356,290.106l-32.48.006v.177l0,14.092a2.152,2.152,0,0,0,2.153,2.152l30.63-.006,0-16.413C266.558,290.112,266.459,290.106,266.356,290.106Z" fill="#303030"/>
          <path d="M280.442,302.524c-1.27-4.807-4.7-12.248-13.783-12.41l0,16.413,10.673,0A3.2,3.2,0,0,0,280.442,302.524Z" fill="#d8d8d8"/>
          <rect x="232.201" y="302.979" width="50.444" height="4.248" rx="2.124" ry="2.124" fill="#b7b7b7"/>
          <path d="M245.739,290.109h14.124a0,0,0,0,1,0,0v4.9a1.805,1.805,0,0,1-1.805,1.805H247.544a1.805,1.805,0,0,1-1.805-1.805v-4.9a0,0,0,0,1,0,0Z" fill="#d8d8d8"/>
        </g>
        <rect x="209.981" y="198.805" width="45.316" height="91.201" transform="translate(465.232 488.853) rotate(-179.99)" fill="#64bdff"/>
        <rect x="231.134" y="216.285" width="3.004" height="73.721" fill="#1e78ba"/>
        <rect x="227.502" y="214.268" width="10.282" height="3.004" fill="#1e78ba"/>
        <path d="M255.27,210.792v-3.1a12.937,12.937,0,0,1-8.609-8.837h-3.1A15.929,15.929,0,0,0,255.27,210.792Z" fill="#1e78ba"/>
        <path d="M221.715,198.9h-3.1A12.937,12.937,0,0,1,210,207.733v3.1A15.93,15.93,0,0,0,221.715,198.9Z" fill="#1e78ba"/>
        <path d="M217.251,113.06l30.792,0A13.131,13.131,0,0,1,261.172,126.2l-.012,67.592a5.181,5.181,0,0,1-5.182,5.18l-46.693-.008a5.179,5.179,0,0,1-5.18-5.181l.012-67.593A13.132,13.132,0,0,1,217.251,113.06Z" fill="#303030"/>
        <path d="M233.392,107.756h0a6.809,6.809,0,0,1,6.809,6.809v10.954a0,0,0,0,1,0,0H226.582a0,0,0,0,1,0,0V114.565A6.809,6.809,0,0,1,233.392,107.756Z" transform="translate(466.762 233.317) rotate(-179.99)" fill="#eaafa9"/>
        <path d="M254.339,111.845h0a13.844,13.844,0,0,1,13.844,13.844V148.12a2.59,2.59,0,0,1-2.59,2.59H243.086a2.59,2.59,0,0,1-2.59-2.59V125.689A13.844,13.844,0,0,1,254.339,111.845Z" transform="translate(-26.762 185.17) rotate(-38.154)" fill="#303030"/>
        <path d="M201.024,111.845H223.53a2.59,2.59,0,0,1,2.59,2.59v22.431a13.844,13.844,0,0,1-13.844,13.844h0a13.844,13.844,0,0,1-13.844-13.844V114.435A2.59,2.59,0,0,1,201.024,111.845Z" transform="translate(298.102 365.648) rotate(-141.846)" fill="#303030"/>
        <path d="M233.392,107.756h0a6.809,6.809,0,0,1,6.809,6.809v10.954a0,0,0,0,1,0,0H226.582a0,0,0,0,1,0,0V114.565A6.809,6.809,0,0,1,233.392,107.756Z" transform="translate(466.762 233.317) rotate(-179.99)" fill="#eaafa9"/>
        <g>
          <circle cx="205.126" cy="83.771" r="8.344" fill="#eaafa9"/>
          <circle cx="256.666" cy="79.862" r="8.344" fill="#eaafa9"/>
          <path d="M203.117,57.283l.675,8.905.532,7.008,1.208,15.931a25.844,25.844,0,0,0,27.724,23.816h0a25.844,25.844,0,0,0,23.816-27.724l-1.208-15.932-.532-7.007-.675-8.906Z" fill="#ffc1b0"/>
          <g>
            <line x1="233.961" y1="88.032" x2="228.391" y2="88.454" fill="#eaafa9"/>
            <path d="M228.5,89.854l5.57-.422a1.4,1.4,0,1,0-.213-2.8l-5.569.422a1.4,1.4,0,1,0,.212,2.8Z" fill="#dd8783"/>
          </g>
          <g>
            <path d="M247.005,71.3a1.27,1.27,0,0,0,1.057-1.793,6.281,6.281,0,0,0-8.326-3.095,1.268,1.268,0,1,0,1.056,2.306,3.744,3.744,0,0,1,4.964,1.845A1.269,1.269,0,0,0,247.005,71.3Z" fill="#8c423b"/>
            <path d="M213.332,73.856a1.269,1.269,0,0,0,1.123-.916,3.747,3.747,0,0,1,4.629-2.573,1.268,1.268,0,1,0,.7-2.438,6.29,6.29,0,0,0-7.765,4.314,1.268,1.268,0,0,0,1.316,1.613Z" fill="#8c423b"/>
          </g>
          <circle cx="213.408" cy="42.388" r="19.739" fill="#8c423b"/>
          <path d="M201.472,50.472h5.357a0,0,0,0,1,0,0V80.291a2.678,2.678,0,0,1-2.678,2.678h0a2.678,2.678,0,0,1-2.678-2.678V50.472a0,0,0,0,1,0,0Z" transform="translate(-4.461 15.629) rotate(-4.337)" fill="#8c423b"/>
          <path d="M251.52,45.958h5.357a0,0,0,0,1,0,0V76.495a2.678,2.678,0,0,1-2.678,2.678h0a2.678,2.678,0,0,1-2.678-2.678V45.958A0,0,0,0,1,251.52,45.958Z" transform="translate(-4.003 19.401) rotate(-4.337)" fill="#8c423b"/>
          <path d="M223.46,81.557a1.128,1.128,0,0,1-1.164-.8,2.873,2.873,0,0,0-5.59.424,1.129,1.129,0,1,1-2.234-.327,5.13,5.13,0,0,1,9.982-.757,1.128,1.128,0,0,1-.994,1.456Z" fill="#dd8783"/>
          <path d="M244.146,79.988a1.131,1.131,0,0,1-1.164-.8,2.873,2.873,0,0,0-5.59.424,1.128,1.128,0,1,1-2.233-.327,5.13,5.13,0,0,1,9.982-.757,1.132,1.132,0,0,1-1,1.456Z" fill="#dd8783"/>
          <path d="M243.649,32.912,217.885,30.9l1.987,26.143,36.385-2.766-.718-9.45A12.934,12.934,0,0,0,243.649,32.912Z" fill="#8c423b"/>
          <circle cx="205.126" cy="83.771" r="8.344" fill="#eaafa9"/>
          <circle cx="256.666" cy="79.862" r="8.344" fill="#eaafa9"/>
          <path d="M203.117,57.283l.675,8.905.532,7.008,1.208,15.931a25.844,25.844,0,0,0,27.724,23.816h0a25.844,25.844,0,0,0,23.816-27.724l-1.208-15.932-.532-7.007-.675-8.906Z" fill="#ffc1b0"/>
          <g>
            <line x1="233.961" y1="88.032" x2="228.391" y2="88.454" fill="#eaafa9"/>
            <path d="M228.5,89.854l5.57-.422a1.4,1.4,0,1,0-.213-2.8l-5.569.422a1.4,1.4,0,1,0,.212,2.8Z" fill="#dd8783"/>
          </g>
          <g>
            <path d="M247.005,71.3a1.27,1.27,0,0,0,1.057-1.793,6.281,6.281,0,0,0-8.326-3.095,1.268,1.268,0,1,0,1.056,2.306,3.744,3.744,0,0,1,4.964,1.845A1.269,1.269,0,0,0,247.005,71.3Z" fill="#8c423b"/>
            <path d="M213.332,73.856a1.269,1.269,0,0,0,1.123-.916,3.747,3.747,0,0,1,4.629-2.573,1.268,1.268,0,1,0,.7-2.438,6.29,6.29,0,0,0-7.765,4.314,1.268,1.268,0,0,0,1.316,1.613Z" fill="#8c423b"/>
          </g>
          <circle cx="213.408" cy="42.388" r="19.739" fill="#704035"/>
          <path d="M201.472,50.472h5.357a0,0,0,0,1,0,0V80.291a2.678,2.678,0,0,1-2.678,2.678h0a2.678,2.678,0,0,1-2.678-2.678V50.472a0,0,0,0,1,0,0Z" transform="translate(-4.461 15.629) rotate(-4.337)" fill="#704035"/>
          <path d="M251.52,45.958h5.357a0,0,0,0,1,0,0V76.495a2.678,2.678,0,0,1-2.678,2.678h0a2.678,2.678,0,0,1-2.678-2.678V45.958A0,0,0,0,1,251.52,45.958Z" transform="translate(-4.003 19.401) rotate(-4.337)" fill="#704035"/>
          <g>
            <path d="M230.289,92.629H247.25a0,0,0,0,1,0,0v4.032a7.307,7.307,0,0,1-7.307,7.307h-7.329a2.326,2.326,0,0,1-2.326-2.326V92.629A0,0,0,0,1,230.289,92.629Z" transform="translate(-6.764 18.381) rotate(-4.347)" fill="#41352e"/>
            <rect x="229.677" y="92.555" width="17.643" height="4.366" transform="translate(-6.495 18.351) rotate(-4.347)" fill="#e6e7e8"/>
            <path d="M246.426,99.728a4.784,4.784,0,0,0-7.944,3.944c.009.119.027.234.045.35l1.857-.141A7.3,7.3,0,0,0,246.426,99.728Z" fill="#f76c66"/>
          </g>
          <path d="M223.46,81.557a1.128,1.128,0,0,1-1.164-.8,2.873,2.873,0,0,0-5.59.424,1.129,1.129,0,1,1-2.234-.327,5.13,5.13,0,0,1,9.982-.757,1.128,1.128,0,0,1-.994,1.456Z" fill="#dd8783"/>
          <path d="M244.146,79.988a1.131,1.131,0,0,1-1.164-.8,2.873,2.873,0,0,0-5.59.424,1.128,1.128,0,1,1-2.233-.327,5.13,5.13,0,0,1,9.982-.757,1.132,1.132,0,0,1-1,1.456Z" fill="#dd8783"/>
          <path d="M243.649,32.912,217.885,30.9l1.987,26.143,36.385-2.766-.718-9.45A12.934,12.934,0,0,0,243.649,32.912Z" fill="#704035"/>
        </g>
      </g>
      <g>
        <g>
          <rect x="193.409" y="286.635" width="7.973" height="20.97" fill="#ffc9c0"/>
          <rect x="203.725" y="286.637" width="7.973" height="20.97" fill="#ffc9c0"/>
          <path d="M189.817,263.222l25.281.187a.921.921,0,0,0,.928-.914l.194-20.228a11.324,11.324,0,0,0-11.24-11.407l-4.476-.033a11.324,11.324,0,0,0-11.407,11.24l-.194,20.227A.921.921,0,0,0,189.817,263.222Z" fill="#fff"/>
          <path d="M219.288,287.32l-33.409-.006a2.777,2.777,0,0,1-2.692-3.457l5.8-22.966,27.225,0,5.764,22.972A2.776,2.776,0,0,1,219.288,287.32Z" fill="#fff"/>
          <line x1="193.497" y1="262.135" x2="211.622" y2="262.139" fill="none" stroke="#efefef" stroke-miterlimit="10" stroke-width="4.256"/>
          <circle cx="228.45" cy="183.292" r="8.516" fill="#8c423b"/>
          <circle cx="215.378" cy="177.27" r="8.516" fill="#8c423b"/>
          <circle cx="223.97" cy="176.134" r="11.765" fill="#8c423b"/>
          <circle cx="213.508" cy="187.729" r="10.459" fill="#9e69b7"/>
          <g>
            <path d="M220.415,258.224a4.073,4.073,0,0,0,3.746-6.425l-4.97-6.926a4.074,4.074,0,1,0-6.619,4.75l4.97,6.926A4.065,4.065,0,0,0,220.415,258.224Z" fill="#ffc9c0"/>
            <path d="M204.408,234.764H214.82a6.148,6.148,0,0,1,6.148,6.148v0a6.148,6.148,0,0,1-6.148,6.148H204.408a1.441,1.441,0,0,1-1.441-1.441V236.2a1.441,1.441,0,0,1,1.441-1.441Z" transform="translate(145.877 554.919) rotate(-126.771)" fill="#fff"/>
            <path d="M211.59,269.55c.026-.024.052-.05.077-.075l12.106-12.293a4.073,4.073,0,0,0-5.805-5.716l-12.106,12.292a4.073,4.073,0,0,0,5.728,5.792Z" fill="#ffc9c0"/>
            <rect x="206.643" y="257.869" width="3.25" height="6.501" rx="1.625" ry="1.625" transform="translate(-109.286 364.647) rotate(-69.481)" fill="#ffc9c0"/>
          </g>
          <g>
            <path d="M184.579,258.3A4.073,4.073,0,0,1,180.8,251.9l4.936-6.951a4.074,4.074,0,0,1,6.643,4.717l-4.936,6.951A4.066,4.066,0,0,1,184.579,258.3Z" fill="#ffc9c0"/>
            <path d="M185.382,234.8h10.411a6.148,6.148,0,0,1,6.148,6.148v0a6.148,6.148,0,0,1-6.148,6.148H185.382a1.441,1.441,0,0,1-1.441-1.441v-9.413a1.441,1.441,0,0,1,1.441-1.441Z" transform="translate(-115.512 252.781) rotate(-53.511)" fill="#fff"/>
            <path d="M193.458,269.587l-.077-.075-12.166-12.233a4.073,4.073,0,1,1,5.776-5.745l12.167,12.233a4.074,4.074,0,0,1-5.7,5.82Z" fill="#ffc9c0"/>
            <rect x="195.114" y="257.889" width="3.25" height="6.501" rx="1.625" ry="1.625" transform="translate(22.486 537.791) rotate(-110.801)" fill="#ffc9c0"/>
          </g>
          <path d="M202,224.016h0a4.552,4.552,0,0,1,4.552,4.552v9.381a0,0,0,0,1,0,0h-9.1a0,0,0,0,1,0,0v-9.381A4.552,4.552,0,0,1,202,224.016Z" transform="translate(402.293 463.451) rotate(-179.577)" fill="#f4bbb3"/>
          <circle cx="221.907" cy="215.956" r="6.536" fill="#f4bbb3"/>
          <circle cx="182.327" cy="214.975" r="6.536" fill="#f4bbb3"/>
          <circle cx="202.327" cy="212.663" r="21.298" fill="#ffc9c0"/>
          <path d="M205.014,228.028a12.574,12.574,0,0,0,5.26-1.155,1.27,1.27,0,1,0-1.061-2.307,10.023,10.023,0,0,1-5.622.821,1.269,1.269,0,1,0-.361,2.513A12.447,12.447,0,0,0,205.014,228.028Z" fill="#e2786d"/>
          <g>
            <circle cx="210.735" cy="212.017" r="2.222" fill="#492420"/>
            <circle cx="191.484" cy="211.875" r="2.222" fill="#492420"/>
          </g>
          <path d="M215.271,209.485a1.447,1.447,0,0,0,1.359-1.935,4.208,4.208,0,0,0-5.382-2.527,1.444,1.444,0,1,0,.981,2.716,1.319,1.319,0,0,1,1.684.791A1.448,1.448,0,0,0,215.271,209.485Z" fill="#8c423b"/>
          <path d="M188.741,209.234a1.446,1.446,0,0,0,1.352-.934,1.315,1.315,0,0,1,1.7-.766,1.444,1.444,0,0,0,1.021-2.7,4.207,4.207,0,0,0-5.418,2.447,1.446,1.446,0,0,0,1.35,1.955Z" fill="#8c423b"/>
          <ellipse cx="202.004" cy="219.452" rx="5.976" ry="2.234" fill="#f29f9c"/>
          <circle cx="221.911" cy="195.676" r="6.424" fill="#8c423b"/>
          <ellipse cx="198.665" cy="184.949" rx="10.62" ry="10.178" fill="#8c423b"/>
          <circle cx="212.344" cy="189.25" r="8.516" fill="#8c423b"/>
          <circle cx="224.945" cy="204.515" r="5.603" fill="#8c423b"/>
          <circle cx="179.521" cy="202.907" r="6.235" fill="#8c423b"/>
          <circle cx="185.583" cy="191.8" r="8.516" fill="#8c423b"/>
          <g>
            <path d="M187.667,307.6h13.712a0,0,0,0,1,0,0v5.3a1.73,1.73,0,0,1-1.73,1.73H184.968a1.73,1.73,0,0,1-1.73-1.73v-.874A4.429,4.429,0,0,1,187.667,307.6Z" fill="#f42f2f"/>
            <path d="M187.724,307.6h4.282a0,0,0,0,1,0,0v1.376a2.141,2.141,0,0,1-2.141,2.141h0a2.141,2.141,0,0,1-2.141-2.141V307.6A0,0,0,0,1,187.724,307.6Z" fill="#ffc9c0"/>
          </g>
          <g>
            <path d="M205.453,307.608h14.681a1.73,1.73,0,0,1,1.73,1.73v5.3a0,0,0,0,1,0,0H208.151a4.429,4.429,0,0,1-4.429-4.429v-.874A1.73,1.73,0,0,1,205.453,307.608Z" transform="translate(425.53 622.287) rotate(-179.99)" fill="#f42f2f"/>
            <path d="M212.793,307.608h4.282a0,0,0,0,1,0,0v1.376a2.141,2.141,0,0,1-2.141,2.141h0a2.141,2.141,0,0,1-2.141-2.141v-1.376A0,0,0,0,1,212.793,307.608Z" fill="#ffc9c0"/>
          </g>
        </g>
        <path d="M222.383,208.446h3.334a0,0,0,0,1,0,0v6.421a1.667,1.667,0,0,1-1.667,1.667h0a1.667,1.667,0,0,1-1.667-1.667v-6.421A0,0,0,0,1,222.383,208.446Z" fill="#8c423b"/>
        <path d="M178.388,208.438h3.334a0,0,0,0,1,0,0v6.421a1.667,1.667,0,0,1-1.667,1.667h0a1.667,1.667,0,0,1-1.667-1.667v-6.421A0,0,0,0,1,178.388,208.438Z" fill="#8c423b"/>
      </g>
      <g>
        <g>
          <rect x="319.866" y="199.822" width="7.522" height="105.918" fill="#303030"/>
          <rect x="319.866" y="199.822" width="7.522" height="5.549" fill="#1e1e1e"/>
        </g>
        <path d="M307.934,305.74H339.32a10.451,10.451,0,0,1,10.451,10.451V318a1.5,1.5,0,0,1-1.5,1.5h-49.3a1.5,1.5,0,0,1-1.5-1.5v-1.812A10.451,10.451,0,0,1,307.934,305.74Z" fill="#303030"/>
        <g>
          <rect x="291.979" y="119.447" width="63.296" height="80.375" rx="7.775" ry="7.775" fill="#303030"/>
          <rect x="294.562" y="136.243" width="58.13" height="46.783" rx="0.594" ry="0.594" transform="translate(483.261 -163.992) rotate(90)" fill="#b280ce"/>
          <circle cx="323.627" cy="194.764" r="1.887" fill="#1e1e1e"/>
          <path d="M323.627,146.335c-10.305,0-12.881,2.577-12.881,12.881s2.576,12.881,12.881,12.881,12.881-2.576,12.881-12.881S333.932,146.335,323.627,146.335Zm5.971,10.623-6.639,6.638a1.5,1.5,0,0,1-2.121,0l-3.183-3.181a1.5,1.5,0,0,1,2.122-2.121l2.121,2.121,5.579-5.578a1.5,1.5,0,1,1,2.121,2.121Z" fill="#fff"/>
        </g>
      </g>
    </g>
  </g>
  <g clip-path="url(#clip-path-4)">
    <g>
      <g>
        <g>
          <g>
            <path d="M604.273,449.19a3.261,3.261,0,0,1-1.746,1.255l-7.15,2.126a3.277,3.277,0,0,1-1.868-6.282l7.15-2.126a3.277,3.277,0,0,1,3.614,5.027Z" fill="#eaa48f"/>
            <g>
              <path d="M605.133,465.39c-.056.079-.113.157-.171.235a8.193,8.193,0,0,1-11.476,1.593c-58.013-43.87-45.488-72.686-43.868-75.827l14.563,7.507a2.071,2.071,0,0,0,.148-.307c-.081.2-7.557,20.321,39.04,55.557A8.194,8.194,0,0,1,605.133,465.39Z" fill="#eaa48f"/>
              <path d="M538.5,387.254h25.124a14.2,14.2,0,0,1,14.2,14.2v0a14.2,14.2,0,0,1-14.2,14.2H538.5a2.185,2.185,0,0,1-2.185-2.185V389.438a2.185,2.185,0,0,1,2.185-2.185Z" transform="translate(298.979 1037.757) rotate(-103.701)" fill="#bcdd6b"/>
            </g>
          </g>
          <rect x="543.817" y="481.237" width="15.43" height="112.67" fill="#d88e7d"/>
          <rect x="518.052" y="481.232" width="14.544" height="112.67" fill="#eaa48f"/>
          <rect x="540.705" y="481.237" width="21.658" height="96.331" fill="#115fea"/>
          <rect x="514.496" y="481.232" width="21.658" height="96.331" fill="#115fea"/>
          <line x1="562.369" y1="494.997" x2="514.503" y2="494.989" fill="#115fea"/>
          <rect x="514.503" y="481.239" width="47.869" height="16.098" fill="#115fea"/>
          <path d="M539.018,377.542h0a28.4,28.4,0,0,0-28.4,28.4l1.082,8.876a217.742,217.742,0,0,1,.707,46.044l-1.789,19.688a2.537,2.537,0,0,0,2.538,2.537H564.88a2.537,2.537,0,0,0,2.537-2.537l-1.8-20.8a217.735,217.735,0,0,1,.64-43.824l1.157-9.98A28.4,28.4,0,0,0,539.018,377.542Z" fill="#bcdd6b"/>
          <line x1="522.76" y1="422.02" x2="556.846" y2="422.02" fill="none" stroke="#79c43d" stroke-miterlimit="10" stroke-width="4.91"/>
          <g>
            <path d="M506.571,466.249a3.264,3.264,0,0,1-2.034-.7l-5.875-4.6A3.277,3.277,0,0,1,502.7,455.8l5.875,4.6a3.277,3.277,0,0,1-2,5.858Z" fill="#eaa48f"/>
            <g>
              <path d="M493.865,476.335c-.1,0-.193,0-.289,0a8.194,8.194,0,0,1-7.948-8.431c2.149-72.7,32.892-79.186,36.391-79.686l2.318,16.22a2.233,2.233,0,0,0,.337-.058c-.21.049-20.942,5.613-22.667,64.008A8.194,8.194,0,0,1,493.865,476.335Z" fill="#eaa48f"/>
              <path d="M499.565,385.919h25.124a14.2,14.2,0,0,1,14.2,14.2v0a14.2,14.2,0,0,1-14.2,14.2H499.565a2.185,2.185,0,0,1-2.185-2.185V388.1A2.185,2.185,0,0,1,499.565,385.919Z" transform="translate(-123.531 529.83) rotate(-49.105)" fill="#bcdd6b"/>
            </g>
          </g>
          <path d="M501.427,327.7h5.039a0,0,0,0,1,0,0V356.74a2.52,2.52,0,0,1-2.52,2.52h0a2.52,2.52,0,0,1-2.52-2.52V327.7A0,0,0,0,1,501.427,327.7Z" fill="#303030"/>
          <path d="M571.032,327.717H576.9a0,0,0,0,1,0,0v28.62a2.935,2.935,0,0,1-2.935,2.935h0a2.935,2.935,0,0,1-2.935-2.935v-28.62a0,0,0,0,1,0,0Z" fill="#303030"/>
          <path d="M510.4,332.647a30.841,30.841,0,0,1-18.746,49.833l-.074.013a3.253,3.253,0,0,0-1.453,5.832A30.846,30.846,0,1,0,510.4,332.647Z" fill="#303030"/>
          <path d="M531.273,371.9H546.25a0,0,0,0,1,0,0v12.047a7.488,7.488,0,0,1-7.488,7.488h0a7.488,7.488,0,0,1-7.488-7.488V371.9A0,0,0,0,1,531.273,371.9Z" fill="#d88e7d"/>
          <path d="M539.147,282.5h0a37.738,37.738,0,0,1,37.738,37.738v20.9a0,0,0,0,1,0,0H501.41a0,0,0,0,1,0,0v-20.9A37.738,37.738,0,0,1,539.147,282.5Z" fill="#303030"/>
          <circle cx="506.518" cy="341.135" r="10.297" fill="#d88e7d"/>
          <circle cx="571.02" cy="341.146" r="10.297" fill="#d88e7d"/>
          <path d="M506.521,322.333l0,24.073a32.251,32.251,0,0,0,32.245,32.257h0a32.251,32.251,0,0,0,32.257-32.245l0-24.074-16.68-15.668Z" fill="#eaa48f"/>
          <path d="M544.543,353.034H540.87a1.628,1.628,0,1,1,0-3.255h3.483v-6.186a1.628,1.628,0,1,1,3.255,0v6.377A3.068,3.068,0,0,1,544.543,353.034Z" fill="#bc695b"/>
          <path d="M554.465,295.51,503.949,315.1c.076.335.162.668.271,1,2.938,8.88,16.978,12.222,31.36,7.464S559.24,307.75,556.3,298.87A10.869,10.869,0,0,0,554.465,295.51Z" fill="#303030"/>
          <path d="M576.666,322.109l-23.817-19.287c-.143.131-.282.267-.413.413-3.533,3.938-1.226,11.769,5.152,17.491s14.412,7.168,17.945,3.23A6.144,6.144,0,0,0,576.666,322.109Z" fill="#303030"/>
          <circle cx="502.354" cy="348.599" r="2.992" fill="#e8e8e8"/>
          <circle cx="575.623" cy="348.599" r="2.992" fill="#e8e8e8"/>
          <circle cx="558.138" cy="341.964" r="3.387" fill="#303030"/>
          <circle cx="530.213" cy="341.964" r="3.387" fill="#303030"/>
          <g>
            <g>
              <path d="M550.682,359.089a2.06,2.06,0,0,1,2.066,2.366,13.16,13.16,0,0,1-25.89,0,2.06,2.06,0,0,1,2.066-2.365Z" fill="#1a1a1a"/>
              <path d="M542.233,367.017c-2.952.908-5.009,2.97-5.151,4.934a13.06,13.06,0,0,0,12.192-3.743C548.056,366.658,545.19,366.107,542.233,367.017Z" fill="#f76c66"/>
            </g>
            <path d="M550.867,358.987l-22.128,0a2.075,2.075,0,0,0-2.1,2.373q.057.309.128.613a2.057,2.057,0,0,0,1.993,1.606l22.087,0a2.057,2.057,0,0,0,1.993-1.605q.072-.3.129-.613A2.077,2.077,0,0,0,550.867,358.987Z" fill="#e6e7e8"/>
          </g>
        </g>
        <path d="M519.565,331.207s3.01-2.787,8.977-2.479" fill="none" stroke="#303030" stroke-linecap="round" stroke-miterlimit="10" stroke-width="3.698"/>
        <path d="M560.04,331.454s-3.009-2.787-8.977-2.479" fill="none" stroke="#303030" stroke-linecap="round" stroke-miterlimit="10" stroke-width="3.698"/>
        <g>
          <rect x="543.562" y="405.728" width="15.986" height="11.439" rx="3.315" ry="3.315" fill="#eff2f4"/>
          <g>
            <line x1="548.073" y1="409.727" x2="553.715" y2="409.73" fill="none" stroke="#64bcf2" stroke-linecap="round" stroke-miterlimit="10" stroke-width="2.465"/>
            <line x1="548.073" y1="413.166" x2="550.894" y2="413.169" fill="none" stroke="#64bcf2" stroke-linecap="round" stroke-miterlimit="10" stroke-width="2.465"/>
          </g>
        </g>
      </g>
      <g>
        <g>
          <g>
            <rect x="485.73" y="551.451" width="17.785" height="9.886" fill="#115fea"/>
            <rect x="496.46" y="544.611" width="10.657" height="59.078" transform="translate(1003.681 1148.21) rotate(179.99)" fill="#115fea"/>
            <rect x="482.67" y="544.614" width="10.657" height="59.078" transform="translate(976.102 1148.217) rotate(179.99)" fill="#115fea"/>
            <path d="M511.918,554.964l-33.793.249a1.232,1.232,0,0,1-1.241-1.222l-.259-37.638A15.139,15.139,0,0,1,491.65,501.1l5.983-.044a15.137,15.137,0,0,1,15.249,15.025l.258,37.638A1.232,1.232,0,0,1,511.918,554.964Z" fill="#fff"/>
            <circle cx="460.278" cy="437.52" r="11.383" fill="#492420"/>
            <circle cx="477.751" cy="429.47" r="11.383" fill="#492420"/>
            <circle cx="466.267" cy="427.951" r="15.727" fill="#492420"/>
            <circle cx="480.25" cy="443.451" r="13.981" fill="#9e69b7"/>
            <path d="M489.546,491.956h12.169a0,0,0,0,1,0,0V504.5a6.085,6.085,0,0,1-6.085,6.085h0a6.085,6.085,0,0,1-6.085-6.085v-12.54a0,0,0,0,1,0,0Z" transform="translate(-3.688 3.674) rotate(-0.423)" fill="#d88e7d"/>
            <circle cx="469.023" cy="481.182" r="8.737" fill="#d88e7d"/>
            <circle cx="521.931" cy="479.871" r="8.737" fill="#d88e7d"/>
            <circle cx="495.196" cy="476.78" r="28.469" fill="#eaa48f"/>
            <path d="M491.166,495.778a16.805,16.805,0,0,1-6.665-2.723,1.7,1.7,0,0,1,1.925-2.8,13.41,13.41,0,0,0,7.216,2.365,1.7,1.7,0,0,1-.1,3.392A16.806,16.806,0,0,1,491.166,495.778Z" fill="#bc695b"/>
            <g>
              <circle cx="486.495" cy="471.228" r="2.97" fill="#492420"/>
              <circle cx="512.229" cy="471.038" r="2.97" fill="#492420"/>
            </g>
            <path d="M479.674,468.8a1.931,1.931,0,0,1-1.816-2.586,5.622,5.622,0,0,1,7.193-3.378,1.93,1.93,0,1,1-1.311,3.631,1.763,1.763,0,0,0-2.251,1.058A1.932,1.932,0,0,1,479.674,468.8Z" fill="#492420"/>
            <path d="M515.137,468.469a1.931,1.931,0,0,1-1.807-1.249,1.758,1.758,0,0,0-2.267-1.023,1.93,1.93,0,0,1-1.364-3.612,5.623,5.623,0,0,1,7.242,3.271,1.931,1.931,0,0,1-1.8,2.613Z" fill="#492420"/>
            <ellipse cx="497.404" cy="483.573" rx="7.988" ry="2.987" fill="#bc695b"/>
            <circle cx="469.018" cy="454.074" r="8.588" fill="#492420"/>
            <ellipse cx="500.092" cy="439.735" rx="14.196" ry="13.605" fill="#492420"/>
            <circle cx="481.806" cy="445.484" r="11.383" fill="#492420"/>
            <circle cx="464.962" cy="465.888" r="7.49" fill="#492420"/>
            <circle cx="525.681" cy="463.739" r="8.334" fill="#492420"/>
            <circle cx="517.579" cy="448.892" r="11.383" fill="#492420"/>
            <path d="M466.16,471.144h0a2.228,2.228,0,0,1,2.228,2.228v8.583a0,0,0,0,1,0,0h-4.456a0,0,0,0,1,0,0v-8.583A2.228,2.228,0,0,1,466.16,471.144Z" transform="translate(932.406 953.013) rotate(179.99)" fill="#492420"/>
            <path d="M524.967,471.133h0a2.228,2.228,0,0,1,2.228,2.228v8.583a0,0,0,0,1,0,0h-4.456a0,0,0,0,1,0,0v-8.583A2.228,2.228,0,0,1,524.967,471.133Z" transform="translate(1050.021 952.981) rotate(179.99)" fill="#492420"/>
          </g>
          <g>
            <path d="M517.749,535.773a4.686,4.686,0,0,0,4.309-7.39l-5.716-7.966a4.685,4.685,0,0,0-7.613,5.463l5.716,7.966A4.678,4.678,0,0,0,517.749,535.773Z" fill="#eaa48f"/>
            <path d="M499.34,508.791h11.975a7.071,7.071,0,0,1,7.071,7.071v0a7.071,7.071,0,0,1-7.071,7.071H499.34a1.657,1.657,0,0,1-1.657-1.657V510.448a1.657,1.657,0,0,1,1.657-1.657Z" transform="translate(398.93 1231.617) rotate(-126.771)" fill="#fff"/>
            <path d="M507.6,548.8l.088-.087,13.924-14.138A4.685,4.685,0,1,0,514.936,528l-13.924,14.138A4.685,4.685,0,0,0,507.6,548.8Z" fill="#eaa48f"/>
            <rect x="501.91" y="535.364" width="3.738" height="7.477" rx="1.869" ry="1.869" transform="translate(-177.705 821.954) rotate(-69.481)" fill="#eaa48f"/>
          </g>
          <g>
            <path d="M472.807,534.83a4.686,4.686,0,0,1-4.346-7.369l5.677-7.994a4.685,4.685,0,1,1,7.64,5.426l-5.677,7.994A4.675,4.675,0,0,1,472.807,534.83Z" fill="#eaa48f"/>
            <path d="M473.73,507.8H485.7a7.071,7.071,0,0,1,7.071,7.071v0a7.071,7.071,0,0,1-7.071,7.071H473.73a1.657,1.657,0,0,1-1.657-1.657V509.457A1.657,1.657,0,0,1,473.73,507.8Z" transform="translate(-218.4 596.543) rotate(-53.511)" fill="#fff"/>
            <path d="M483.019,547.807l-.088-.087-13.993-14.069a4.685,4.685,0,0,1,6.644-6.608l13.993,14.07a4.685,4.685,0,0,1-6.556,6.694Z" fill="#eaa48f"/>
            <rect x="484.924" y="534.353" width="3.738" height="7.477" rx="1.869" ry="1.869" transform="translate(156.643 1184.242) rotate(-110.801)" fill="#eaa48f"/>
          </g>
        </g>
        <g>
          <rect x="493.189" y="514.614" width="15.986" height="11.439" rx="3.315" ry="3.315" fill="#eff2f4"/>
          <g>
            <line x1="497.7" y1="518.613" x2="503.342" y2="518.616" fill="none" stroke="#64bcf2" stroke-linecap="round" stroke-miterlimit="10" stroke-width="2.465"/>
            <line x1="497.7" y1="522.052" x2="500.521" y2="522.055" fill="none" stroke="#64bcf2" stroke-linecap="round" stroke-miterlimit="10" stroke-width="2.465"/>
          </g>
        </g>
      </g>
      <g>
        <g>
          <g>
            <path d="M617.739,515.854a5.869,5.869,0,0,0,1.278,11.515c1.08.065,24.672,1.852,39.3,33.089a5.868,5.868,0,1,0,10.628-4.977c-17.8-38.009-48.093-39.778-49.373-39.835A5.857,5.857,0,0,0,617.739,515.854Z" fill="#eaa48f"/>
            <path d="M629.4,520.639h15a8.856,8.856,0,0,1,8.856,8.856v0a8.856,8.856,0,0,1-8.856,8.856h-15a2.076,2.076,0,0,1-2.076-2.076V522.715a2.076,2.076,0,0,1,2.076-2.076Z" transform="translate(909.26 1315.613) rotate(-148.478)" fill="#115fea"/>
            <path d="M656.653,560.358a2.9,2.9,0,0,0,1.453-1.239l3.353-5.714a2.911,2.911,0,0,0-5.021-2.946l-3.353,5.714a2.911,2.911,0,0,0,3.568,4.185Z" fill="#eaa48f"/>
          </g>
          <g>
            <path d="M627.653,515.854a5.869,5.869,0,0,1-1.278,11.515c-1.08.065-24.672,1.852-39.3,33.089a5.868,5.868,0,1,1-10.628-4.977c17.8-38.009,48.093-39.778,49.373-39.835A5.857,5.857,0,0,1,627.653,515.854Z" fill="#eaa48f"/>
            <path d="M594.218,520.639h15a8.856,8.856,0,0,1,8.856,8.856v0a8.856,8.856,0,0,1-8.856,8.856h-15a2.076,2.076,0,0,1-2.076-2.076V522.715a2.076,2.076,0,0,1,2.076-2.076Z" transform="translate(-187.543 394.493) rotate(-31.522)" fill="#115fea"/>
            <path d="M588.74,560.358a2.9,2.9,0,0,1-1.454-1.239l-3.353-5.714a2.911,2.911,0,0,1,5.021-2.946l3.353,5.714a2.911,2.911,0,0,1-3.567,4.185Z" fill="#eaa48f"/>
          </g>
          <path d="M616.341,598.98l-11.877-.828a2.48,2.48,0,0,1-2.3-2.646l1.69-24.234.01-1.424,35.415.255-.01,1.425,1.341,24.255a2.481,2.481,0,0,1-2.34,2.613l-11.887.656a2.479,2.479,0,0,1-2.612-2.339l-.732-13.235-3.129-.022-.922,13.222A2.48,2.48,0,0,1,616.341,598.98Z" fill="#009345"/>
          <path d="M603.554,515.356h36.42a1.327,1.327,0,0,1,1.327,1.327v37.986a16.313,16.313,0,0,1-16.313,16.313H618.54a16.313,16.313,0,0,1-16.313-16.313V516.683A1.327,1.327,0,0,1,603.554,515.356Z" transform="translate(1239.599 1090.802) rotate(-179.587)" fill="#115fea"/>
          <g>
            <path d="M621.959,506.009h0a6.557,6.557,0,0,1,6.557,6.557V526.08a0,0,0,0,1,0,0H615.4a0,0,0,0,1,0,0V512.566A6.557,6.557,0,0,1,621.959,506.009Z" transform="translate(1240.185 1036.555) rotate(-179.587)" fill="#d88e7d"/>
            <circle cx="619.192" cy="473.521" r="30.478" fill="#492420"/>
            <circle cx="633.993" cy="476.515" r="22.783" fill="#492420"/>
            <circle cx="650.629" cy="494.392" r="9.416" fill="#d88e7d"/>
            <circle cx="593.611" cy="492.989" r="9.416" fill="#d88e7d"/>
            <circle cx="622.422" cy="489.654" r="30.68" fill="#eaa48f"/>
            <path d="M621.5,502.6a18.11,18.11,0,0,0,7.577-1.665,1.828,1.828,0,1,0-1.529-3.322,14.451,14.451,0,0,1-8.1,1.183,1.829,1.829,0,0,0-.52,3.621A18.059,18.059,0,0,0,621.5,502.6Z" fill="#bc695b"/>
            <g>
              <circle cx="633.058" cy="484.432" r="3.201" fill="#492420"/>
              <circle cx="605.325" cy="484.232" r="3.201" fill="#492420"/>
            </g>
            <ellipse cx="615.768" cy="465.178" rx="26.158" ry="10.461" transform="translate(-116.253 220.831) rotate(-18.61)" fill="#492420"/>
            <path d="M639.391,481.442a2.081,2.081,0,0,0,1.957-2.787,6.061,6.061,0,0,0-7.754-3.639,2.08,2.08,0,1,0,1.414,3.913,1.9,1.9,0,0,1,2.426,1.139A2.083,2.083,0,0,0,639.391,481.442Z" fill="#492420"/>
            <path d="M605.967,479.1a2.082,2.082,0,0,0,2.367-.036,1.894,1.894,0,0,1,2.644.441,2.08,2.08,0,0,0,3.385-2.419,6.06,6.06,0,0,0-8.447-1.408,2.079,2.079,0,0,0-.484,2.9A2.046,2.046,0,0,0,605.967,479.1Z" fill="#492420"/>
            <ellipse cx="618.556" cy="490.851" rx="8.609" ry="3.219" fill="#bc695b"/>
          </g>
          <path d="M642.228,455.041a6.326,6.326,0,0,1,3.545-2.252A1.389,1.389,0,0,1,647.15,455a6.783,6.783,0,0,0-1.154,2.74,6.386,6.386,0,0,0,.478,4.2,6.148,6.148,0,0,0,3.186,2.888,6.348,6.348,0,0,1-7.432-9.789Z" fill="#492420"/>
        </g>
        <g>
          <rect x="621.385" y="531.73" width="15.986" height="11.439" rx="3.315" ry="3.315" fill="#eff2f4"/>
          <g>
            <line x1="625.896" y1="535.728" x2="631.538" y2="535.731" fill="none" stroke="#64bcf2" stroke-linecap="round" stroke-miterlimit="10" stroke-width="2.465"/>
            <line x1="625.896" y1="539.167" x2="628.717" y2="539.17" fill="none" stroke="#64bcf2" stroke-linecap="round" stroke-miterlimit="10" stroke-width="2.465"/>
          </g>
        </g>
      </g>
    </g>
  </g>
  <g>
    <rect x="413.155" y="175.141" width="130.096" height="12.509" rx="6.255" ry="6.255" fill="#383838" opacity="0.2"/>
    <g clip-path="url(#clip-path-5)">
      <g>
        <g>
          <rect x="564.155" y="175.141" width="114.096" height="12.509" rx="6.255" ry="6.255" fill="#383838" opacity="0.2"/>
          <g>
            <path d="M683.324,142.952l-14.941-42.111A28.707,28.707,0,0,0,641.33,81.734H610.316a28.7,28.7,0,0,0-27.053,19.107l-14.941,42.111a28.705,28.705,0,0,0,27.053,38.3h60.9A28.705,28.705,0,0,0,683.324,142.952Z" fill="#303030"/>
            <rect x="595.375" y="116.191" width="61.027" height="53.056" rx="9.891" ry="9.891" fill="#e0dde8"/>
            <rect x="605.39" y="90.773" width="41.842" height="11.638" rx="5.819" ry="5.819" fill="#e0dde8"/>
            <rect x="605.39" y="150.069" width="41.842" height="11.638" rx="5.819" ry="5.819" fill="#303030"/>
            <rect x="616.39" y="127.768" width="16.312" height="11.638" rx="5.819" ry="5.819" fill="#33b6ff"/>
          </g>
          <g>
            <path d="M640.886,155.624v44.915a4.135,4.135,0,0,1-4.135,4.135h-20.8a4.135,4.135,0,0,1-4.135-4.135V155.624S641.243,155.98,640.886,155.624Z" fill="#fff"/>
            <circle cx="625.584" cy="189.829" r="8.863" fill="#a892dd"/>
            <rect x="614.658" y="167.315" width="15.41" height="3.971" rx="1.985" ry="1.985" transform="translate(453.062 791.663) rotate(-90)" fill="#a892dd"/>
            <rect x="625.339" y="170.175" width="9.69" height="3.971" rx="1.985" ry="1.985" transform="translate(458.024 802.345) rotate(-90)" fill="#a892dd"/>
            <polyline points="625.226 192.68 627.551 190.183 623.977 186.292" fill="none" stroke="#fff" stroke-linecap="round" stroke-linejoin="round" stroke-width="2.802"/>
          </g>
        </g>
        <g>
          <g>
            <rect x="425.945" y="39.5" width="112.971" height="141.167" rx="7.729" ry="7.729" fill="#303030"/>
            <rect x="441.98" y="59.924" width="80.902" height="100.318" rx="2.26" ry="2.26" fill="#b280ce"/>
            <rect x="464.787" y="46.569" width="35.286" height="4.451" rx="2.225" ry="2.225" fill="#ffd664"/>
            <circle cx="482.431" cy="169.935" r="2.416" fill="#ffd664"/>
          </g>
          <rect x="456.041" y="71.337" width="54.394" height="9.425" rx="0.808" ry="0.808" fill="#fff"/>
          <rect x="456.041" y="129.097" width="54.394" height="9.425" rx="0.808" ry="0.808" fill="#8a5da8"/>
          <g>
            <rect x="456.041" y="84.296" width="15.972" height="11.237" rx="1.212" ry="1.212" fill="#d2a5ef"/>
            <rect x="475.04" y="84.296" width="15.972" height="11.237" rx="1.212" ry="1.212" fill="#d2a5ef"/>
            <rect x="494.039" y="84.296" width="15.972" height="11.237" rx="1.212" ry="1.212" fill="#d2a5ef"/>
          </g>
          <g>
            <rect x="456.041" y="99.271" width="15.972" height="11.237" rx="1.212" ry="1.212" fill="#d2a5ef"/>
            <rect x="475.04" y="99.271" width="15.972" height="11.237" rx="1.212" ry="1.212" fill="#d2a5ef"/>
            <rect x="494.039" y="99.271" width="15.972" height="11.237" rx="1.212" ry="1.212" fill="#d2a5ef"/>
          </g>
          <g>
            <rect x="456.041" y="114.246" width="15.972" height="11.237" rx="1.212" ry="1.212" fill="#d2a5ef"/>
            <rect x="475.04" y="114.246" width="15.972" height="11.237" rx="1.212" ry="1.212" fill="#d2a5ef"/>
            <rect x="494.039" y="114.246" width="15.972" height="11.237" rx="1.212" ry="1.212" fill="#d2a5ef"/>
          </g>
          <line x1="456.58" y1="66.785" x2="510.011" y2="66.785" fill="none" stroke="#fff" stroke-linecap="round" stroke-miterlimit="10" stroke-width="1.616"/>
        </g>
        <path d="M488.994,158.779a11.805,11.805,0,0,0-13.49,9.861l-2.266,14.675a1.7,1.7,0,0,1-2.436,1.259,1.941,1.941,0,0,1-1.073-1.737V118.292A11.793,11.793,0,0,0,457.936,106.5h-1.747a3.693,3.693,0,0,0-3.693,3.694V152.87a8.6,8.6,0,0,0-14.613,6.022,8.6,8.6,0,0,0-11.678,9.149,8.6,8.6,0,0,0-8.759,11.54c1.3,6.735,2.935,13.424,4.777,20.029a150.527,150.527,0,0,0,5.22,15.843c1.786,4.435,4.835,8.3,6.237,12.854a49.311,49.311,0,0,1,1.756,14.953c-.055,6.423-.679,12.858-.128,19.257,11.473.054,22.947.008,34.421.008V248.777a121.646,121.646,0,0,1,1.425-18.569l.1-.622a13.354,13.354,0,0,1,3.512-7.157l5.77-6.083a15.928,15.928,0,0,0,4.186-8.53l1.9-12.294.436-2.824,4.661-30.179A3.276,3.276,0,0,0,488.994,158.779Z" fill="#ffc1b0"/>
      </g>
    </g>
  </g>
  <g clip-path="url(#clip-path-6)">
    <g>
      <rect x="58.021" y="375.996" width="288.197" height="136.514" rx="9.662" ry="9.662" fill="#383838" opacity="0.2"/>
      <path d="M110.038,492.08H263.317a0,0,0,0,1,0,0v85.386a33.565,33.565,0,0,1-33.565,33.565H143.6a33.565,33.565,0,0,1-33.565-33.565V492.08A0,0,0,0,1,110.038,492.08Z" fill="#383838" opacity="0.2"/>
      <path d="M138.778,494.475H292.057a0,0,0,0,1,0,0v85.386a33.565,33.565,0,0,1-33.565,33.565H172.343a33.565,33.565,0,0,1-33.565-33.565V494.475A0,0,0,0,1,138.778,494.475Z" fill="#303030"/>
      <path d="M177.146,477.2h30.43a0,0,0,0,1,0,0V531.95a15.215,15.215,0,0,1-15.215,15.215h0a15.215,15.215,0,0,1-15.215-15.215V477.2a0,0,0,0,1,0,0Z" transform="translate(473.841 981.336) rotate(169.622)" fill="#64bdff"/>
      <path d="M236.364,477.2h0a15.215,15.215,0,0,1,15.215,15.215v54.748a0,0,0,0,1,0,0h-30.43a0,0,0,0,1,0,0V492.417A15.215,15.215,0,0,1,236.364,477.2Z" transform="translate(96.132 -34.2) rotate(10.378)" fill="#64bdff"/>
      <rect x="72.516" y="389.096" width="288.197" height="136.514" rx="9.662" ry="9.662" fill="#d5dbde"/>
      <rect x="152.349" y="467.332" width="109.371" height="51.093" rx="5.498" ry="5.498" opacity="0.15"/>
      <path d="M169.114,539.416h90.211a0,0,0,0,1,0,0V565.27A31.626,31.626,0,0,1,227.7,596.9H200.74a31.626,31.626,0,0,1-31.626-31.626V539.416A0,0,0,0,1,169.114,539.416Z" transform="translate(428.44 1136.313) rotate(180)" fill="#75d85d"/>
      <rect x="158.736" y="462.542" width="109.371" height="51.093" rx="5.498" ry="5.498" fill="#edf6fd"/>
      <rect x="165.921" y="469.727" width="7.983" height="7.983" rx="0.808" ry="0.808" fill="#dfe8ef"/>
      <rect x="178.352" y="469.727" width="7.983" height="7.983" rx="0.808" ry="0.808" fill="#dfe8ef"/>
      <rect x="190.783" y="469.727" width="7.983" height="7.983" rx="0.808" ry="0.808" fill="#dfe8ef"/>
      <rect x="203.214" y="469.727" width="7.983" height="7.983" rx="0.808" ry="0.808" fill="#dfe8ef"/>
      <rect x="215.645" y="469.727" width="7.983" height="7.983" rx="0.808" ry="0.808" fill="#dfe8ef"/>
      <rect x="228.077" y="469.727" width="7.983" height="7.983" rx="0.808" ry="0.808" fill="#dfe8ef"/>
      <rect x="240.508" y="469.727" width="7.983" height="7.983" rx="0.808" ry="0.808" fill="#dfe8ef"/>
      <rect x="252.939" y="469.727" width="7.983" height="7.983" rx="0.808" ry="0.808" fill="#dfe8ef"/>
      <rect x="165.921" y="484.097" width="7.983" height="7.983" rx="0.808" ry="0.808" fill="#dfe8ef"/>
      <rect x="178.352" y="484.097" width="7.983" height="7.983" rx="0.808" ry="0.808" fill="#dfe8ef"/>
      <rect x="190.783" y="484.097" width="7.983" height="7.983" rx="0.808" ry="0.808" fill="#dfe8ef"/>
      <rect x="203.214" y="484.097" width="7.983" height="7.983" rx="0.808" ry="0.808" fill="#dfe8ef"/>
      <rect x="215.645" y="484.097" width="7.983" height="7.983" rx="0.808" ry="0.808" fill="#dfe8ef"/>
      <rect x="228.077" y="484.097" width="7.983" height="7.983" rx="0.808" ry="0.808" fill="#dfe8ef"/>
      <rect x="240.508" y="484.097" width="7.983" height="7.983" rx="0.808" ry="0.808" fill="#dfe8ef"/>
      <rect x="252.939" y="484.097" width="7.983" height="7.983" rx="0.808" ry="0.808" fill="#dfe8ef"/>
      <g>
        <rect x="165.921" y="498.467" width="7.983" height="7.983" rx="0.808" ry="0.808" fill="#dfe8ef"/>
        <rect x="178.352" y="498.467" width="7.983" height="7.983" rx="0.808" ry="0.808" fill="#dfe8ef"/>
        <rect x="190.669" y="498.467" width="45.505" height="7.983" rx="0.808" ry="0.808" fill="#dfe8ef"/>
        <rect x="240.508" y="498.467" width="7.983" height="7.983" rx="0.808" ry="0.808" fill="#dfe8ef"/>
        <rect x="252.939" y="498.467" width="7.983" height="7.983" rx="0.808" ry="0.808" fill="#dfe8ef"/>
      </g>
      <rect x="158.736" y="405.861" width="107.774" height="56.681" rx="4.207" ry="4.207" fill="#383838"/>
      <rect x="165.921" y="413.046" width="94.203" height="41.513" fill="#fff"/>
      <rect x="165.921" y="413.046" width="20.757" height="41.513" fill="#efefef"/>
      <rect x="165.921" y="413.046" width="94.203" height="7.185" fill="#9e69b7"/>
      <path d="M249.745,478.743H269.7a0,0,0,0,1,0,0v74.644a9.979,9.979,0,0,1-9.979,9.979h0a9.979,9.979,0,0,1-9.979-9.979V478.743a0,0,0,0,1,0,0Z" transform="translate(519.449 1042.11) rotate(180)" fill="#ffc1b0"/>
      <path d="M157.139,478.743H177.1a0,0,0,0,1,0,0v74.644a9.979,9.979,0,0,1-9.979,9.979h0a9.979,9.979,0,0,1-9.979-9.979V478.743A0,0,0,0,1,157.139,478.743Z" transform="translate(334.237 1042.11) rotate(-180)" fill="#ffc1b0"/>
      <path d="M256.132,545.8h0A17.563,17.563,0,0,1,273.7,563.366V596.9a0,0,0,0,1,0,0H238.569a0,0,0,0,1,0,0v-33.53A17.563,17.563,0,0,1,256.132,545.8Z" transform="translate(512.264 1142.699) rotate(180)" fill="#75d85d"/>
      <path d="M169.114,545.8h0a17.563,17.563,0,0,1,17.563,17.563V596.9a0,0,0,0,1,0,0H151.551a0,0,0,0,1,0,0v-33.53A17.563,17.563,0,0,1,169.114,545.8Z" transform="translate(338.228 1142.699) rotate(180)" fill="#75d85d"/>
      <circle cx="214.619" cy="551.391" r="5.588" fill="#ffc1b0"/>
      <line x1="171.908" y1="502.858" x2="180.69" y2="494.875" fill="none" stroke="#ffc1b0" stroke-linecap="round" stroke-miterlimit="10" stroke-width="6.387"/>
      <line x1="254.935" y1="502.858" x2="246.153" y2="494.875" fill="none" stroke="#ffc1b0" stroke-linecap="round" stroke-miterlimit="10" stroke-width="6.387"/>
      <circle cx="325.619" cy="489.159" r="13.459" fill="#383838" opacity="0.2"/>
      <g>
        <path d="M342.187,477.394h7.627a2.243,2.243,0,0,1,2.243,2.243v0a2.243,2.243,0,0,1-2.243,2.243h-7.627a0,0,0,0,1,0,0v-4.486A0,0,0,0,1,342.187,477.394Z" transform="translate(-151.62 160.573) rotate(-21.497)" fill="#dfe8ef"/>
        <circle cx="330.678" cy="485.632" r="13.459" fill="#edf6fd"/>
        <circle cx="330.678" cy="485.632" r="9.87" fill="#816056"/>
      </g>
      <rect x="196.181" y="444.133" width="23.152" height="3.193" fill="#efefef"/>
      <rect x="226.651" y="444.133" width="23.152" height="3.193" fill="#efefef"/>
      <path d="M208.2,425.4a7.387,7.387,0,1,0,7.387,7.387H208.2Z" fill="#9e69b7"/>
      <g>
        <rect x="229.438" y="428.169" width="2.77" height="11.08" fill="#9e69b7"/>
        <rect x="243.288" y="428.169" width="2.77" height="11.08" fill="#9e69b7"/>
        <rect x="238.671" y="432.786" width="2.77" height="6.463" fill="#9e69b7"/>
        <rect x="234.055" y="425.399" width="2.77" height="13.85" fill="#9e69b7"/>
      </g>
      <path d="M193.946,618.174h0a79.48,79.48,0,0,0,39.4,0h0a18.234,18.234,0,0,0,13.714-17.665V583.585a33.412,33.412,0,0,0-33.412-33.412h0a33.412,33.412,0,0,0-33.411,33.412v16.924A18.233,18.233,0,0,0,193.946,618.174Z" fill="#303030"/>
      <path d="M233.952,557.06a33.26,33.26,0,0,1,6.887,20.309v16.924a18.234,18.234,0,0,1-13.715,17.665h0a79.476,79.476,0,0,1-39.394,0h0a18.214,18.214,0,0,1-4.874-2.053,18.2,18.2,0,0,0,11.09,8.269h0a79.48,79.48,0,0,0,39.4,0h0a18.234,18.234,0,0,0,13.714-17.665V583.585A33.352,33.352,0,0,0,233.952,557.06Z" fill="#383838"/>
      <circle cx="104.22" cy="426.054" r="21.244" fill="#383838" opacity="0.2"/>
      <g>
        <circle cx="109.402" cy="421.706" r="22.161" fill="#edf6fd"/>
        <circle cx="109.402" cy="421.706" r="16.62" fill="#816056"/>
        <g>
          <path d="M110.4,420.973c-4.056-14.6-19.469-8.923-19.469-8.923s2.433-.811,5.678,5.679,10.546,5.678,10.546,5.678Z" fill="#75d85d"/>
          <path d="M107.349,418.517s-4.112.444-5.53-6.764-2.722-5.947-2.722-5.947,10.06-3.165,12.7,7.912S107.349,418.517,107.349,418.517Z" fill="#54c634"/>
          <path d="M112.466,424.629s4.092-.6,5.786,6.546,2.949,5.838,2.949,5.838-9.93,3.551-12.99-7.416S112.466,424.629,112.466,424.629Z" fill="#54c634"/>
          <path d="M113.688,417.225s1.535-3.841,8.567-1.717,6.529.381,6.529.381-1.915,10.371-12.936,7.51S113.688,417.225,113.688,417.225Z" fill="#54c634"/>
          <path d="M103.954,424.451s-.142,3.479-6.32,3.764-5.291,1.528-5.291,1.528-1.386-8.77,8.166-9.588S103.954,424.451,103.954,424.451Z" fill="#54c634"/>
          <path d="M107.159,418.54s0-6.49,5.679-8.924,4.867-7.3,4.867-7.3,5.678,3.245,4.867,9.735-8.112,8.112-10.546,8.923S107.159,418.54,107.159,418.54Z" fill="#75d85d"/>
          <path d="M106.605,423.811a8.582,8.582,0,0,0,7.967,6.311c6.533.3,8.381,3.914,8.381,3.914s2.754-15.989-11.525-14.333S106.605,423.811,106.605,423.811Z" fill="#75d85d"/>
          <path d="M104.482,417.729s-8.413,8.412-4.206,15.773,2.1,12.619,2.1,12.619,13.67-6.309,8.413-14.722-2.1-11.567-2.1-11.567Z" fill="#75d85d"/>
        </g>
      </g>
    </g>
  </g>
</svg>
