<svg xmlns="http://www.w3.org/2000/svg" xmlns:xlink="http://www.w3.org/1999/xlink" viewBox="0 0 745 612">
  <defs>
    <clipPath id="clip-path">
      <path d="M736,153V24.055A21.448,21.448,0,0,0,714.552,2.607H145.861c-18.769,0-28.485,22.4-15.658,36.106L338.832,261.566a21.45,21.45,0,0,0,21.07,6.1l360.063-93.911A21.448,21.448,0,0,0,736,153Z" fill="none"/>
    </clipPath>
    <clipPath id="clip-path-2">
      <path d="M5.677,402.293v134.14A31.618,31.618,0,0,0,37.3,568.051H490.86c27.669,0,41.992-33.028,23.082-53.227L324,311.928a31.617,31.617,0,0,0-31.062-8.986L29.315,371.7A31.619,31.619,0,0,0,5.677,402.293Z" fill="none"/>
    </clipPath>
    <clipPath id="clip-path-3">
      <path d="M46.822,2.607H20.746A16.081,16.081,0,0,0,4.665,18.688V329.739A16.081,16.081,0,0,0,24.805,345.3l259.171-67.6a16.081,16.081,0,0,0,7.681-26.55L67.282,11.48A28.024,28.024,0,0,0,46.822,2.607Z" fill="none"/>
    </clipPath>
    <linearGradient id="linear-gradient" x1="187.701" y1="220.962" x2="187.701" y2="258" gradientUnits="userSpaceOnUse">
      <stop offset="0" stop-color="#2194f4" stop-opacity="0.5"/>
      <stop offset="1" stop-color="#2194f4" stop-opacity="0"/>
    </linearGradient>
    <linearGradient id="linear-gradient-2" x1="187.294" y1="231.394" x2="187.294" y2="268.432" xlink:href="#linear-gradient"/>
    <linearGradient id="linear-gradient-3" x1="237.49" y1="220.962" x2="237.49" y2="258" xlink:href="#linear-gradient"/>
    <linearGradient id="linear-gradient-4" x1="237.084" y1="231.394" x2="237.084" y2="268.432" xlink:href="#linear-gradient"/>
  </defs>
  <title>people</title>
  <g style="isolation: isolate">
    <g id="Layer_1" data-name="Layer 1">
      <g clip-path="url(#clip-path)">
        <rect x="64.346" y="-26.727" width="749.542" height="363.138" fill="#45a7ff"/>
        <g>
          <rect x="572.15" y="237.81" width="16.155" height="56.868" transform="translate(1160.456 532.488) rotate(-180)" fill="#f49684"/>
          <path d="M556.619,302.619h29.76a1.926,1.926,0,0,0,1.926-1.926V290.277H563.982a9.29,9.29,0,0,0-9.29,9.29v1.126A1.926,1.926,0,0,0,556.619,302.619Z" fill="#f49684"/>
          <path d="M580.228,298.355a8.078,8.078,0,0,1-8.078-8.078h-8.168a9.29,9.29,0,0,0-9.29,9.29v1.126a1.926,1.926,0,0,0,1.927,1.926h29.76a1.926,1.926,0,0,0,1.926-1.926V290.277A8.078,8.078,0,0,1,580.228,298.355Z" fill="#c9318c"/>
          <g>
            <path d="M508.489,186.516a7.225,7.225,0,0,1-1.423-14.306c50.5-10.2,52.242-29.048,52.254-29.237a1.866,1.866,0,0,0,0,.3l14.443-.4c.086,3.116-.969,30.8-63.835,43.5A7.3,7.3,0,0,1,508.489,186.516Z" fill="#ffaf9c"/>
            <path d="M515.865,175.032a2.881,2.881,0,0,1-1.941-.75l-4.87-4.421a2.89,2.89,0,1,1,3.885-4.279l4.87,4.421a2.89,2.89,0,0,1-1.944,5.029Z" fill="#ffaf9c"/>
          </g>
          <path d="M320.874,200.865a2.877,2.877,0,0,1-1.791-.624l-5.159-4.079a2.89,2.89,0,1,1,3.585-4.533l5.159,4.079a2.89,2.89,0,0,1-1.794,5.157Z" fill="#eaa48f"/>
          <path d="M555.324,128.079h22.154A12.522,12.522,0,0,1,590,140.6v0a12.522,12.522,0,0,1-12.522,12.522H555.324A1.926,1.926,0,0,1,553.4,151.2V130.006a1.926,1.926,0,0,1,1.926-1.926Z" transform="translate(75.672 457.723) rotate(-46.409)" fill="#f42f2f"/>
          <rect x="594.065" y="237.81" width="16.155" height="56.868" transform="translate(1204.285 532.488) rotate(-180)" fill="#ffaf9c"/>
          <rect x="572.151" y="237.81" width="16.155" height="36.823" transform="translate(1160.456 512.444) rotate(-180)" fill="#064cbc"/>
          <rect x="594.065" y="237.81" width="16.155" height="36.823" transform="translate(1204.286 512.444) rotate(-180)" fill="#064cbc"/>
          <path d="M578.534,302.619h29.76a1.926,1.926,0,0,0,1.926-1.926V290.277H585.9a9.29,9.29,0,0,0-9.29,9.29v1.126A1.926,1.926,0,0,0,578.534,302.619Z" fill="#ffaf9c"/>
          <path d="M575.837,123.575H605.4a12.05,12.05,0,0,1,12.05,12.05L615.057,185.1l2.391,59.6a1.927,1.927,0,0,1-1.927,1.927H565.714a1.927,1.927,0,0,1-1.927-1.927l2.9-59.6-2.9-49.473A12.05,12.05,0,0,1,575.837,123.575Z" fill="#f42f2f"/>
          <rect x="575.065" y="163.126" width="29.808" height="2.89" fill="#d31818"/>
          <path d="M602.143,298.355a8.078,8.078,0,0,1-8.078-8.078H585.9a9.29,9.29,0,0,0-9.29,9.29v1.126a1.926,1.926,0,0,0,1.927,1.926h29.76a1.926,1.926,0,0,0,1.926-1.926V290.277A8.078,8.078,0,0,1,602.143,298.355Z" fill="#e553a3"/>
          <g>
            <path d="M617.18,216.793a7.31,7.31,0,0,1-1.251-.109,7.224,7.224,0,0,1-5.874-8.358c8.853-50.749-8.07-59.227-8.242-59.306a1.843,1.843,0,0,0,.28.109l4.877-13.6c2.933,1.051,28.341,12.1,17.318,75.28A7.226,7.226,0,0,1,617.18,216.793Z" fill="#ffaf9c"/>
            <path d="M607.3,205.923a2.89,2.89,0,0,1-1.29-5.477l5.889-2.93a2.889,2.889,0,0,1,2.574,5.174l-5.889,2.93A2.87,2.87,0,0,1,607.3,205.923Z" fill="#ffaf9c"/>
          </g>
          <path d="M592.066,128.913h22.154a12.522,12.522,0,0,1,12.522,12.522v0a12.522,12.522,0,0,1-12.522,12.522H592.066a1.926,1.926,0,0,1-1.926-1.926V130.839A1.926,1.926,0,0,1,592.066,128.913Z" transform="translate(782.925 741.234) rotate(-119.306)" fill="#f42f2f"/>
          <circle cx="616.738" cy="100.815" r="12.141" fill="#fff"/>
          <circle cx="569.441" cy="100.815" r="12.141" fill="#fff"/>
          <circle cx="604.597" cy="108.418" r="12.141" fill="#fff"/>
          <circle cx="581.881" cy="108.418" r="12.141" fill="#fff"/>
          <circle cx="621.92" cy="87.255" r="12.141" fill="#fff"/>
          <circle cx="565.843" cy="88.895" r="15.253" fill="#fff"/>
          <circle cx="569.85" cy="69.098" r="15.253" fill="#fff"/>
          <rect x="576.401" y="123.668" width="27.323" height="11.463" rx="5.732" ry="5.732" transform="translate(1180.126 258.799) rotate(180)" fill="#fc9a86"/>
          <path d="M590.063,115.659h0a5.8,5.8,0,0,1,5.8,5.8V130.8a0,0,0,0,1,0,0H584.259a0,0,0,0,1,0,0v-9.336A5.8,5.8,0,0,1,590.063,115.659Z" transform="translate(1180.126 246.457) rotate(-180)" fill="#fc9a86"/>
          <circle cx="615.057" cy="91.824" r="7.98" fill="#fc9a86"/>
          <circle cx="565.068" cy="91.824" r="7.98" fill="#fc9a86"/>
          <rect x="565.068" y="58.621" width="49.989" height="62.283" rx="24.994" ry="24.994" fill="#ffaf9c"/>
          <circle cx="572.693" cy="89.411" r="2.536" fill="#303030"/>
          <circle cx="596.974" cy="89.411" r="2.536" fill="#303030"/>
          <path d="M573.945,97.5a6.454,6.454,0,0,1-5.565-3.215A1.226,1.226,0,1,1,570.5,93.06a3.972,3.972,0,0,0,6.886,0,1.226,1.226,0,1,1,2.122,1.229A6.454,6.454,0,0,1,573.945,97.5Z" fill="#f98f80"/>
          <path d="M598.226,97.5a6.456,6.456,0,0,1-5.565-3.215,1.227,1.227,0,1,1,2.123-1.229,3.972,3.972,0,0,0,6.885,0,1.226,1.226,0,1,1,2.122,1.229A6.454,6.454,0,0,1,598.226,97.5Z" fill="#f98f80"/>
          <g>
            <path d="M568.652,85.9a1.229,1.229,0,0,1-1.151-1.652,6.084,6.084,0,0,1,7.8-3.593,1.227,1.227,0,0,1-.851,2.3A3.624,3.624,0,0,0,569.8,85.1,1.228,1.228,0,0,1,568.652,85.9Z" fill="#303030"/>
            <path d="M601.312,85.9a1.228,1.228,0,0,1-1.151-.8,3.622,3.622,0,0,0-4.652-2.142,1.226,1.226,0,0,1-.85-2.3,6.082,6.082,0,0,1,7.8,3.593,1.228,1.228,0,0,1-1.15,1.652Z" fill="#303030"/>
          </g>
          <circle cx="590.59" cy="63.632" r="12.141" fill="#fff"/>
          <circle cx="573.049" cy="60.368" r="12.141" fill="#fff"/>
          <circle cx="609.781" cy="57.028" r="14.697" fill="#fff"/>
          <circle cx="587.935" cy="54.141" r="14.823" fill="#fff"/>
          <circle cx="620.921" cy="72.508" r="12.141" fill="#fff"/>
          <circle cx="606.845" cy="66.941" r="8.832" fill="#fff"/>
          <circle cx="617.448" cy="78.422" r="8.832" fill="#fff"/>
          <path d="M586.239,103.029h-2.846a2.377,2.377,0,0,1-2.375-2.375V95.712a1.262,1.262,0,1,1,2.523,0v4.794h2.7a1.262,1.262,0,1,1,0,2.523Z" fill="#dd816f"/>
          <path d="M587.637,111.947a14.551,14.551,0,0,1-8.151-2.482,1.262,1.262,0,1,1,1.408-2.094,12.1,12.1,0,0,0,13.486,0,1.262,1.262,0,0,1,1.408,2.094A14.548,14.548,0,0,1,587.637,111.947Z" fill="#dd816f"/>
          <circle cx="331.072" cy="47.424" r="24.097" fill="#512720"/>
          <circle cx="341.475" cy="57.056" r="14.767" fill="#ff69ad"/>
          <rect x="352.113" y="236.745" width="16.155" height="56.868" fill="#d88e7d"/>
          <path d="M383.8,301.554H354.04a1.926,1.926,0,0,1-1.927-1.926V289.212h24.324a9.289,9.289,0,0,1,9.289,9.29v1.126A1.926,1.926,0,0,1,383.8,301.554Z" fill="#d88e7d"/>
          <rect x="347.005" y="297.656" width="40.273" height="3.898" rx="1.949" ry="1.949" fill="#db2882"/>
          <path d="M383.986,205.249a7.2,7.2,0,0,1-4.771-1.8l-3.771-3.321a15.454,15.454,0,0,1-3.864-18.136l9.532-20.832a.767.767,0,0,0-.094-.794l-18.19-23.244a7.224,7.224,0,1,1,11.378-8.905L392.4,151.46a15.161,15.161,0,0,1,1.854,15.71L384.719,188a1.091,1.091,0,0,0,.273,1.28l3.771,3.321a7.224,7.224,0,0,1-4.777,12.646Z" fill="#d88e7d"/>
          <path d="M352.634,126.726h22.154a12.522,12.522,0,0,1,12.522,12.522v0a12.522,12.522,0,0,1-12.522,12.522H352.634a1.926,1.926,0,0,1-1.926-1.926V128.652a1.926,1.926,0,0,1,1.926-1.926Z" transform="translate(522.591 502.524) rotate(-133.591)" fill="#a63fef"/>
          <rect x="330.198" y="236.745" width="16.155" height="56.868" fill="#eaa48f"/>
          <path d="M361.885,301.554h-29.76a1.926,1.926,0,0,1-1.927-1.926V289.212h24.324a9.289,9.289,0,0,1,9.289,9.29v1.126A1.926,1.926,0,0,1,361.885,301.554Z" fill="#eaa48f"/>
          <path d="M364.581,122.51H335.02a12.05,12.05,0,0,0-12.05,12.05l2.391,49.474-2.391,59.6a1.927,1.927,0,0,0,1.927,1.927h49.808a1.926,1.926,0,0,0,1.926-1.927l-2.9-59.6,2.9-49.474A12.05,12.05,0,0,0,364.581,122.51Z" fill="#a63fef"/>
          <path d="M344.552,114.594h11.607a0,0,0,0,1,0,0v9.336a5.8,5.8,0,0,1-5.8,5.8h0a5.8,5.8,0,0,1-5.8-5.8v-9.336A0,0,0,0,1,344.552,114.594Z" fill="#d88e7d"/>
          <g>
            <path d="M350.645,45.313h0A29.246,29.246,0,0,1,379.891,74.56v16.2a0,0,0,0,1,0,0H321.4a0,0,0,0,1,0,0V74.56a29.246,29.246,0,0,1,29.246-29.246Z" fill="#704035"/>
            <circle cx="325.361" cy="90.759" r="7.98" fill="#d88e7d"/>
            <circle cx="375.35" cy="90.759" r="7.98" fill="#d88e7d"/>
            <path d="M325.361,68.036V94.845a25,25,0,0,0,25,24.994h0A24.994,24.994,0,0,0,375.35,94.845V68.036Z" fill="#eaa48f"/>
            <path d="M348.646,66.863H325.361A29.789,29.789,0,0,0,352.7,84.809V73.587A29.726,29.726,0,0,0,375.98,84.809V66.863Z" fill="#704035"/>
            <g>
              <path d="M334.919,84.761a1.262,1.262,0,0,1-.4-2.459l6.056-2.019a1.262,1.262,0,0,1,.8,2.394L335.318,84.7A1.262,1.262,0,0,1,334.919,84.761Z" fill="#704035"/>
              <path d="M365.792,84.652a1.262,1.262,0,0,1-.4-.065l-6.056-2.019a1.262,1.262,0,0,1,.8-2.394l6.056,2.019a1.262,1.262,0,0,1-.4,2.459Z" fill="#704035"/>
              <path d="M351.59,101.337h-2.847a1.262,1.262,0,0,1,0-2.523h2.7V94.02a1.262,1.262,0,0,1,2.523,0v4.942A2.377,2.377,0,0,1,351.59,101.337Z" fill="#bc695b"/>
              <path d="M344.835,92.282a1.261,1.261,0,0,1-1.23-.985,3.212,3.212,0,0,0-6.267,0,1.262,1.262,0,0,1-2.462-.553,5.735,5.735,0,0,1,11.19,0,1.262,1.262,0,0,1-1.231,1.538Z" fill="#bc695b"/>
              <path d="M364.567,92.282a1.263,1.263,0,0,1-1.23-.985,3.212,3.212,0,0,0-6.267,0,1.262,1.262,0,0,1-2.462-.553,5.735,5.735,0,0,1,11.191,0,1.262,1.262,0,0,1-1.232,1.538Z" fill="#bc695b"/>
            </g>
            <g>
              <g>
                <path d="M357.8,105.015a1.41,1.41,0,0,1,1.414,1.619,9.007,9.007,0,0,1-17.719,0,1.41,1.41,0,0,1,1.414-1.619Z" fill="#1a1a1a"/>
                <path d="M352.02,110.442c-2.021.622-3.428,2.033-3.525,3.377a8.939,8.939,0,0,0,8.343-2.563C356.005,110.2,354.043,109.818,352.02,110.442Z" fill="#f76c66"/>
              </g>
              <path d="M357.8,104.971H342.91a1.4,1.4,0,0,0-1.414,1.6,8.712,8.712,0,0,0,.416,1.492H358.8a8.712,8.712,0,0,0,.416-1.492A1.4,1.4,0,0,0,357.8,104.971Z" fill="#e6e7e8"/>
            </g>
          </g>
          <rect x="325.879" y="297.656" width="40.273" height="3.898" rx="1.949" ry="1.949" fill="#ff69ad"/>
          <path d="M354.015,300.525a1.928,1.928,0,0,1-1.742-2.747,12.222,12.222,0,0,1,10.024-6.971,1.926,1.926,0,0,1,.325,3.839,8.374,8.374,0,0,0-6.863,4.772A1.926,1.926,0,0,1,354.015,300.525Z" fill="#ff69ad"/>
          <path d="M375.687,300.525a1.928,1.928,0,0,1-1.741-2.747,12.223,12.223,0,0,1,10.023-6.971,1.926,1.926,0,1,1,.326,3.839,8.371,8.371,0,0,0-6.863,4.772A1.926,1.926,0,0,1,375.687,300.525Z" fill="#db2882"/>
          <rect x="332.908" y="162.061" width="34.926" height="2.89" fill="#760dd3"/>
          <path d="M370.8,239.175a4.335,4.335,0,0,1-1.368-8.448c.756-.26,17.193-6.2,21.426-31.321a4.335,4.335,0,0,1,8.549,1.44c-5.151,30.571-26.362,37.821-27.262,38.114A4.32,4.32,0,0,1,370.8,239.175Z" fill="#c17956"/>
          <g>
            <path d="M510.426,188.359a7.255,7.255,0,0,1-1.441-.145c-62.86-12.731-63.9-40.418-63.813-43.533l14.443.409a2.087,2.087,0,0,0,0-.3c.011.189,1.747,19.038,52.238,29.264a7.225,7.225,0,0,1-1.427,14.306Z" fill="#aa5d52"/>
            <path d="M503.053,176.871a2.89,2.89,0,0,1-1.942-5.03l4.872-4.418a2.89,2.89,0,1,1,3.883,4.281l-4.872,4.418A2.88,2.88,0,0,1,503.053,176.871Z" fill="#aa5d52"/>
          </g>
          <path d="M393.114,206.944c-.085,0-.17,0-.255,0a7.224,7.224,0,0,1-6.97-7.47c2.226-64.1,29.365-69.676,32.452-70.1l1.97,14.313a2,2,0,0,0,.3-.05c-.185.043-18.491,4.854-20.279,56.338A7.224,7.224,0,0,1,393.114,206.944Z" fill="#aa5d52"/>
          <path d="M418.81,123.025h29.561a12.05,12.05,0,0,1,12.05,12.05V199.93a1.926,1.926,0,0,1-1.926,1.926H408.687a1.926,1.926,0,0,1-1.926-1.926V135.075A12.05,12.05,0,0,1,418.81,123.025Z" fill="#333"/>
          <g>
            <rect x="408.826" y="201.856" width="49.713" height="85.436" fill="#d8bf8b"/>
            <g>
              <path d="M408.907,216.748v-2.814a12.091,12.091,0,0,0,12.077-12.078H423.8A14.909,14.909,0,0,1,408.907,216.748Z" fill="#b59661"/>
              <path d="M458.459,216.748a14.909,14.909,0,0,1-14.893-14.892h2.815a12.091,12.091,0,0,0,12.078,12.078Z" fill="#b59661"/>
            </g>
            <rect x="432.276" y="218.231" width="2.814" height="69.062" fill="#b59661"/>
            <rect x="428.867" y="216.342" width="9.632" height="2.814" fill="#b59661"/>
          </g>
          <g>
            <path d="M402.458,287.3h29.8V300.4a1.975,1.975,0,0,1-1.975,1.975H402.18V287.309C402.273,287.308,402.363,287.3,402.458,287.3Z" fill="#75d353"/>
            <path d="M389.534,298.7c1.164-4.412,4.314-11.24,12.646-11.391v15.062h-9.794A2.936,2.936,0,0,1,389.534,298.7Z" fill="#eaeaea"/>
            <rect x="387.513" y="299.113" width="46.29" height="3.898" rx="1.949" ry="1.949" transform="translate(821.315 602.125) rotate(180)" fill="#d8d8d8"/>
            <path d="M410.073,287.3h9.648a1.657,1.657,0,0,1,1.657,1.657v4.5a0,0,0,0,1,0,0H408.417a0,0,0,0,1,0,0v-4.5A1.657,1.657,0,0,1,410.073,287.3Z" transform="translate(829.795 580.762) rotate(-180)" fill="#f2f2f2"/>
          </g>
          <g>
            <path d="M464.9,287.3H435.092V300.4a1.975,1.975,0,0,0,1.975,1.975h28.108V287.309C465.082,287.308,464.992,287.3,464.9,287.3Z" fill="#75d353"/>
            <path d="M477.821,298.7c-1.164-4.412-4.314-11.24-12.646-11.391v15.062h9.794A2.936,2.936,0,0,0,477.821,298.7Z" fill="#eaeaea"/>
            <rect x="433.552" y="299.113" width="46.29" height="3.898" rx="1.949" ry="1.949" fill="#d8d8d8"/>
            <path d="M445.977,287.3h12.961a0,0,0,0,1,0,0v4.5a1.657,1.657,0,0,1-1.657,1.657h-9.648a1.657,1.657,0,0,1-1.657-1.657v-4.5A0,0,0,0,1,445.977,287.3Z" fill="#f2f2f2"/>
          </g>
          <rect x="362.677" y="278.676" width="6.039" height="20.774" transform="translate(-23.88 33.091) rotate(-5.017)" fill="#ffc9c0"/>
          <path d="M381.772,300.77a4.491,4.491,0,0,0-2.992-4.2l-8.024-2.839-.179-.443a1.006,1.006,0,0,0-1.866.754l.217.537a3.026,3.026,0,0,1-2.77,4.16h0a4.431,4.431,0,0,1-2.254-.594.846.846,0,0,0-1.267.744l.021,2.959a.944.944,0,0,0,.949.936l16.3-.118a1.881,1.881,0,0,0,1.868-1.9Z" fill="#333"/>
          <rect x="339.553" y="286.175" width="20.774" height="6.038" transform="matrix(0.073, -0.997, 0.997, 0.073, 35.951, 617.07)" fill="#c17956"/>
          <path d="M361.7,291.183l8.773-.611a1.83,1.83,0,0,0,1.7-1.954l-1.248-17.9-.007-1.052-26.16.188.007,1.053-.99,17.916a1.832,1.832,0,0,0,1.728,1.93l8.781.485a1.83,1.83,0,0,0,1.929-1.728l.541-9.776,2.311-.016.681,9.767A1.831,1.831,0,0,0,361.7,291.183Z" fill="#009345"/>
          <path d="M353.237,298.964a.846.846,0,0,0-1.277-.726,4.432,4.432,0,0,1-2.246.627h0a3.026,3.026,0,0,1-2.829-4.12l.209-.54a1.006,1.006,0,1,0-1.877-.727l-.172.445-7.982,2.954a4.493,4.493,0,0,0-2.932,4.244h0a1.882,1.882,0,0,0,1.9,1.868l16.3-.117a.943.943,0,0,0,.936-.95Z" fill="#333"/>
          <path d="M355.317,229.414h4.762a12.05,12.05,0,0,1,12.05,12.05v28.059a.98.98,0,0,1-.98.98h-26.9a.98.98,0,0,1-.98-.98V241.464a12.05,12.05,0,0,1,12.05-12.05Z" transform="translate(-1.791 2.583) rotate(-0.413)" fill="#ffc338"/>
          <path d="M334.891,256.2a4.334,4.334,0,0,1-3.228-7.226l6.051-6.758A4.334,4.334,0,1,1,344.172,248l-6.051,6.758A4.324,4.324,0,0,1,334.891,256.2Z" fill="#c17956"/>
          <path d="M337.766,232.312h11.079a6.541,6.541,0,0,1,6.541,6.541v0a6.541,6.541,0,0,1-6.541,6.541H337.766a1.533,1.533,0,0,1-1.533-1.533V233.845A1.533,1.533,0,0,1,337.766,232.312Z" transform="translate(-64.639 329.227) rotate(-47.05)" fill="#ffc338"/>
          <path d="M353.247,256.675h-.114L334.78,256.2a4.334,4.334,0,1,1,.224-8.666l18.352.474a4.334,4.334,0,0,1-.109,8.667Z" fill="#c17956"/>
          <rect x="347.835" y="244.304" width="3.459" height="6.918" rx="1.729" ry="1.729" transform="translate(558.262 621.966) rotate(-154.477)" fill="#c17956"/>
          <path d="M364.537,227.523h11.079a6.541,6.541,0,0,1,6.541,6.541v0a6.541,6.541,0,0,1-6.541,6.541H364.537A1.533,1.533,0,0,1,363,239.072V229.056a1.533,1.533,0,0,1,1.533-1.533Z" transform="translate(812.276 250.48) rotate(150)" fill="#ffc338"/>
          <g>
            <path d="M352.71,222.51H362.4a0,0,0,0,1,0,0v9.982a4.844,4.844,0,0,1-4.844,4.844h0a4.844,4.844,0,0,1-4.844-4.844V222.51A0,0,0,0,1,352.71,222.51Z" transform="translate(-1.647 2.582) rotate(-0.413)" fill="#a86145"/>
            <circle cx="359.598" cy="198.512" r="22.513" fill="#492420"/>
            <circle cx="348.665" cy="200.724" r="16.829" fill="#492420"/>
            <circle cx="336.376" cy="213.929" r="6.955" fill="#a86145"/>
            <circle cx="378.493" cy="212.893" r="6.955" fill="#a86145"/>
            <circle cx="357.212" cy="210.429" r="22.662" fill="#c17956"/>
            <path d="M357.892,219.99a13.37,13.37,0,0,1-5.6-1.23,1.351,1.351,0,0,1,1.13-2.454,10.68,10.68,0,0,0,5.982.875,1.351,1.351,0,1,1,.384,2.674A13.313,13.313,0,0,1,357.892,219.99Z" fill="#93523b"/>
            <g>
              <circle cx="349.355" cy="206.572" r="2.364" fill="#492420"/>
              <circle cx="369.84" cy="206.424" r="2.364" fill="#492420"/>
            </g>
            <ellipse cx="362.127" cy="192.349" rx="7.727" ry="19.322" transform="translate(64.271 474.158) rotate(-71.39)" fill="#492420"/>
            <path d="M344.678,204.363a1.536,1.536,0,0,1-1.446-2.059,4.478,4.478,0,0,1,5.727-2.688,1.537,1.537,0,1,1-1.044,2.891,1.4,1.4,0,0,0-1.792.841A1.538,1.538,0,0,1,344.678,204.363Z" fill="#492420"/>
            <path d="M373.5,204.1a1.538,1.538,0,0,1-1.439-.994,1.4,1.4,0,0,0-1.8-.815,1.537,1.537,0,0,1-1.085-2.876,4.478,4.478,0,0,1,5.765,2.6,1.539,1.539,0,0,1-1.437,2.08Z" fill="#492420"/>
            <ellipse cx="360.068" cy="211.314" rx="6.359" ry="2.378" fill="#a86145"/>
          </g>
          <path d="M398.487,127.326h22.154a12.522,12.522,0,0,1,12.522,12.522v0a12.522,12.522,0,0,1-12.522,12.522H398.487a1.926,1.926,0,0,1-1.926-1.926V129.253a1.926,1.926,0,0,1,1.926-1.926Z" transform="translate(36.405 359.935) rotate(-48.808)" fill="#333"/>
          <path d="M433.646,128.629H455.8a12.522,12.522,0,0,1,12.522,12.522v0A12.522,12.522,0,0,1,455.8,153.672H433.646a1.926,1.926,0,0,1-1.926-1.926V130.555a1.926,1.926,0,0,1,1.926-1.926Z" transform="translate(475.729 612.087) rotate(-110.539)" fill="#333"/>
          <g>
            <path d="M427.724,118.156h12.5a0,0,0,0,1,0,0v10.052a6.249,6.249,0,0,1-6.249,6.249h0a6.249,6.249,0,0,1-6.249-6.249V118.156a0,0,0,0,1,0,0Z" fill="#9e5447"/>
            <path d="M426.319,120.366l-5.2,14.009a1.927,1.927,0,0,0,2.224,2.551l10.678-2.373Z" fill="#f2f2f2"/>
            <path d="M441.648,120.366l5.112,14.024a1.927,1.927,0,0,1-2.228,2.541l-10.7-2.378Z" fill="#f2f2f2"/>
            <path d="M404.555,85.712V73.565a29.525,29.525,0,0,1,29.524-29.524h0A29.525,29.525,0,0,1,463.6,73.565V85.712" fill="#303030"/>
            <circle cx="460.153" cy="92.745" r="8.07" fill="#9e5447"/>
            <circle cx="408.704" cy="92.745" r="8.07" fill="#9e5447"/>
            <path d="M433.955,125.005h0a25,25,0,0,1-25-24.995V73.667a2.548,2.548,0,0,1,3.106-2.486h0a99.887,99.887,0,0,0,43.777,0h0a2.547,2.547,0,0,1,3.106,2.486V100.01A25,25,0,0,1,433.955,125.005Z" fill="#aa5d52"/>
            <path d="M437.942,102.919h-8.756a1.359,1.359,0,0,1,0-2.717h8.756a1.359,1.359,0,0,1,0,2.717Z" fill="#683631"/>
            <circle cx="423.783" cy="89.411" r="2.536" fill="#303030"/>
            <circle cx="448.065" cy="89.411" r="2.536" fill="#303030"/>
            <g>
              <g>
                <path d="M440.883,108.923a1.312,1.312,0,0,1,1.316,1.506,8.381,8.381,0,0,1-16.488,0,1.311,1.311,0,0,1,1.315-1.506Z" fill="#41352e"/>
                <path d="M435.5,113.972c-1.88.579-3.19,1.893-3.28,3.144a8.446,8.446,0,0,0,1.732.186,8.348,8.348,0,0,0,6.032-2.572C439.211,113.743,437.386,113.392,435.5,113.972Z" fill="#f76c66"/>
              </g>
              <path d="M440.883,108.882H427.026a1.3,1.3,0,0,0-1.315,1.486,8.079,8.079,0,0,0,.386,1.389h15.715a8.082,8.082,0,0,0,.387-1.389A1.3,1.3,0,0,0,440.883,108.882Z" fill="#e6e7e8"/>
            </g>
          </g>
          <g>
            <path d="M417.716,85.9a1.228,1.228,0,0,1-1.15-1.652,6.075,6.075,0,0,1,7.8-3.593,1.226,1.226,0,1,1-.85,2.3,3.619,3.619,0,0,0-4.651,2.142A1.228,1.228,0,0,1,417.716,85.9Z" fill="#303030"/>
            <path d="M450.376,85.9a1.228,1.228,0,0,1-1.151-.8,3.622,3.622,0,0,0-4.652-2.142,1.226,1.226,0,0,1-.85-2.3,6.083,6.083,0,0,1,7.8,3.593,1.228,1.228,0,0,1-1.15,1.652Z" fill="#303030"/>
          </g>
          <path d="M404.111,198.247a2.882,2.882,0,0,1-1.791-.623l-5.159-4.08a2.889,2.889,0,0,1,3.584-4.533l5.16,4.08a2.89,2.89,0,0,1-1.794,5.156Z" fill="#aa5d52"/>
          <circle cx="434.08" cy="143.727" r="2.219" fill="#ffe9e9"/>
          <circle cx="434.08" cy="154.392" r="2.219" fill="#ffe9e9"/>
          <path d="M342.582,184.862a4.672,4.672,0,0,0-2.619-1.664,1.027,1.027,0,0,0-1.017,1.635,5.009,5.009,0,0,1,.853,2.024,4.713,4.713,0,0,1-.354,3.1,4.533,4.533,0,0,1-2.353,2.133,4.688,4.688,0,0,0,5.49-7.23Z" fill="#492420"/>
          <g>
            <circle cx="583.1" cy="124.998" r="2.004" fill="#fff"/>
            <circle cx="587.429" cy="127.709" r="2.004" fill="#fff"/>
            <circle cx="592.669" cy="127.709" r="2.004" fill="#fff"/>
            <circle cx="596.943" cy="124.998" r="2.004" fill="#fff"/>
          </g>
          <path d="M299.542,191.469H321.81a.513.513,0,0,1,.513.513v33.613a.513.513,0,0,1-.513.513H299.542a3.226,3.226,0,0,1-3.226-3.226V194.7A3.226,3.226,0,0,1,299.542,191.469Z" transform="translate(518.108 -100.531) rotate(90)" fill="#1e140c"/>
          <rect x="314.736" y="202.405" width="3.56" height="12.766" rx="1.78" ry="1.78" fill="#4d4d4d"/>
          <path d="M309.324,206.429c-.085,0-.171,0-.256,0a7.224,7.224,0,0,1-6.969-7.47c2.226-64.1,29.365-69.676,32.452-70.1l1.971,14.313a2,2,0,0,0,.3-.05c-.184.043-18.491,4.854-20.279,56.338A7.225,7.225,0,0,1,309.324,206.429Z" fill="#eaa48f"/>
          <path d="M314.7,126.811h22.154a12.522,12.522,0,0,1,12.522,12.522v0a12.522,12.522,0,0,1-12.522,12.522H314.7a1.926,1.926,0,0,1-1.926-1.926V128.738a1.926,1.926,0,0,1,1.926-1.926Z" transform="translate(8.185 296.706) rotate(-48.808)" fill="#a63fef"/>
          <rect x="336.694" y="122.603" width="27.323" height="11.463" rx="5.732" ry="5.732" fill="#d88e7d"/>
          <path d="M593.623,133.231h-2.236v-2.237a.7.7,0,0,0-.7-.7h-1.254a.7.7,0,0,0-.7.7v2.237H586.5a.7.7,0,0,0-.7.7v1.255a.7.7,0,0,0,.7.7h2.237v4.458a.7.7,0,0,0,.7.7h1.254a.7.7,0,0,0,.7-.7v-4.458h2.236a.7.7,0,0,0,.7-.7v-1.255A.7.7,0,0,0,593.623,133.231Z" fill="#603813"/>
          <rect x="572.15" y="237.81" width="16.155" height="56.868" transform="translate(1160.456 532.488) rotate(-180)" fill="#f49684"/>
          <path d="M556.619,302.619h29.76a1.926,1.926,0,0,0,1.926-1.926V290.277H563.982a9.29,9.29,0,0,0-9.29,9.29v1.126A1.926,1.926,0,0,0,556.619,302.619Z" fill="#f49684"/>
          <path d="M580.228,298.355a8.078,8.078,0,0,1-8.078-8.078h-8.168a9.29,9.29,0,0,0-9.29,9.29v1.126a1.926,1.926,0,0,0,1.927,1.926h29.76a1.926,1.926,0,0,0,1.926-1.926V290.277A8.078,8.078,0,0,1,580.228,298.355Z" fill="#c9318c"/>
          <g>
            <path d="M508.489,186.516a7.225,7.225,0,0,1-1.423-14.306c50.5-10.2,52.242-29.048,52.254-29.237a1.866,1.866,0,0,0,0,.3l14.443-.4c.086,3.116-.969,30.8-63.835,43.5A7.3,7.3,0,0,1,508.489,186.516Z" fill="#ffaf9c"/>
            <path d="M515.865,175.032a2.881,2.881,0,0,1-1.941-.75l-4.87-4.421a2.89,2.89,0,1,1,3.885-4.279l4.87,4.421a2.89,2.89,0,0,1-1.944,5.029Z" fill="#ffaf9c"/>
          </g>
          <path d="M320.874,200.865a2.877,2.877,0,0,1-1.791-.624l-5.159-4.079a2.89,2.89,0,1,1,3.585-4.533l5.159,4.079a2.89,2.89,0,0,1-1.794,5.157Z" fill="#eaa48f"/>
          <path d="M555.324,128.079h22.154A12.522,12.522,0,0,1,590,140.6v0a12.522,12.522,0,0,1-12.522,12.522H555.324A1.926,1.926,0,0,1,553.4,151.2V130.006a1.926,1.926,0,0,1,1.926-1.926Z" transform="translate(75.672 457.723) rotate(-46.409)" fill="#ea5334"/>
          <rect x="594.065" y="237.81" width="16.155" height="56.868" transform="translate(1204.285 532.488) rotate(-180)" fill="#ffaf9c"/>
          <rect x="572.151" y="237.81" width="16.155" height="36.823" transform="translate(1160.456 512.444) rotate(-180)" fill="#064cbc"/>
          <rect x="594.065" y="237.81" width="16.155" height="36.823" transform="translate(1204.286 512.444) rotate(-180)" fill="#064cbc"/>
          <path d="M578.534,302.619h29.76a1.926,1.926,0,0,0,1.926-1.926V290.277H585.9a9.29,9.29,0,0,0-9.29,9.29v1.126A1.926,1.926,0,0,0,578.534,302.619Z" fill="#ffaf9c"/>
          <path d="M575.837,123.575H605.4a12.05,12.05,0,0,1,12.05,12.05L615.057,185.1l2.391,59.6a1.927,1.927,0,0,1-1.927,1.927H565.714a1.927,1.927,0,0,1-1.927-1.927l2.9-59.6-2.9-49.473A12.05,12.05,0,0,1,575.837,123.575Z" fill="#ea5334"/>
          <rect x="575.065" y="163.126" width="29.808" height="2.89" fill="#d31818"/>
          <path d="M602.143,298.355a8.078,8.078,0,0,1-8.078-8.078H585.9a9.29,9.29,0,0,0-9.29,9.29v1.126a1.926,1.926,0,0,0,1.927,1.926h29.76a1.926,1.926,0,0,0,1.926-1.926V290.277A8.078,8.078,0,0,1,602.143,298.355Z" fill="#e553a3"/>
          <g>
            <path d="M617.18,216.793a7.31,7.31,0,0,1-1.251-.109,7.224,7.224,0,0,1-5.874-8.358c8.853-50.749-8.07-59.227-8.242-59.306a1.843,1.843,0,0,0,.28.109l4.877-13.6c2.933,1.051,28.341,12.1,17.318,75.28A7.226,7.226,0,0,1,617.18,216.793Z" fill="#ffaf9c"/>
            <path d="M607.3,205.923a2.89,2.89,0,0,1-1.29-5.477l5.889-2.93a2.889,2.889,0,0,1,2.574,5.174l-5.889,2.93A2.87,2.87,0,0,1,607.3,205.923Z" fill="#ffaf9c"/>
          </g>
          <path d="M592.066,128.913h22.154a12.522,12.522,0,0,1,12.522,12.522v0a12.522,12.522,0,0,1-12.522,12.522H592.066a1.926,1.926,0,0,1-1.926-1.926V130.839A1.926,1.926,0,0,1,592.066,128.913Z" transform="translate(782.925 741.234) rotate(-119.306)" fill="#ea5334"/>
          <circle cx="616.738" cy="100.815" r="12.141" fill="#fff"/>
          <circle cx="569.441" cy="100.815" r="12.141" fill="#fff"/>
          <circle cx="604.597" cy="108.418" r="12.141" fill="#fff"/>
          <circle cx="581.881" cy="108.418" r="12.141" fill="#fff"/>
          <circle cx="621.92" cy="87.255" r="12.141" fill="#fff"/>
          <circle cx="565.843" cy="88.895" r="15.253" fill="#fff"/>
          <circle cx="569.85" cy="69.098" r="15.253" fill="#fff"/>
          <rect x="576.401" y="123.668" width="27.323" height="11.463" rx="5.732" ry="5.732" transform="translate(1180.126 258.799) rotate(180)" fill="#fc9a86"/>
          <path d="M590.063,115.659h0a5.8,5.8,0,0,1,5.8,5.8V130.8a0,0,0,0,1,0,0H584.259a0,0,0,0,1,0,0v-9.336A5.8,5.8,0,0,1,590.063,115.659Z" transform="translate(1180.126 246.457) rotate(-180)" fill="#fc9a86"/>
          <circle cx="615.057" cy="91.824" r="7.98" fill="#fc9a86"/>
          <circle cx="565.068" cy="91.824" r="7.98" fill="#fc9a86"/>
          <rect x="565.068" y="58.621" width="49.989" height="62.283" rx="24.994" ry="24.994" fill="#ffaf9c"/>
          <circle cx="572.693" cy="89.411" r="2.536" fill="#303030"/>
          <circle cx="596.974" cy="89.411" r="2.536" fill="#303030"/>
          <path d="M573.945,97.5a6.454,6.454,0,0,1-5.565-3.215A1.226,1.226,0,1,1,570.5,93.06a3.972,3.972,0,0,0,6.886,0,1.226,1.226,0,1,1,2.122,1.229A6.454,6.454,0,0,1,573.945,97.5Z" fill="#f98f80"/>
          <path d="M598.226,97.5a6.456,6.456,0,0,1-5.565-3.215,1.227,1.227,0,1,1,2.123-1.229,3.972,3.972,0,0,0,6.885,0,1.226,1.226,0,1,1,2.122,1.229A6.454,6.454,0,0,1,598.226,97.5Z" fill="#f98f80"/>
          <g>
            <path d="M568.652,85.9a1.229,1.229,0,0,1-1.151-1.652,6.084,6.084,0,0,1,7.8-3.593,1.227,1.227,0,0,1-.851,2.3A3.624,3.624,0,0,0,569.8,85.1,1.228,1.228,0,0,1,568.652,85.9Z" fill="#303030"/>
            <path d="M601.312,85.9a1.228,1.228,0,0,1-1.151-.8,3.622,3.622,0,0,0-4.652-2.142,1.226,1.226,0,0,1-.85-2.3,6.082,6.082,0,0,1,7.8,3.593,1.228,1.228,0,0,1-1.15,1.652Z" fill="#303030"/>
          </g>
          <circle cx="590.59" cy="63.632" r="12.141" fill="#fff"/>
          <circle cx="573.049" cy="60.368" r="12.141" fill="#fff"/>
          <circle cx="609.781" cy="57.028" r="14.697" fill="#fff"/>
          <circle cx="587.935" cy="54.141" r="14.823" fill="#fff"/>
          <circle cx="620.921" cy="72.508" r="12.141" fill="#fff"/>
          <circle cx="606.845" cy="66.941" r="8.832" fill="#fff"/>
          <circle cx="617.448" cy="78.422" r="8.832" fill="#fff"/>
          <path d="M586.239,103.029h-2.846a2.377,2.377,0,0,1-2.375-2.375V95.712a1.262,1.262,0,1,1,2.523,0v4.794h2.7a1.262,1.262,0,1,1,0,2.523Z" fill="#dd816f"/>
          <path d="M587.637,111.947a14.551,14.551,0,0,1-8.151-2.482,1.262,1.262,0,1,1,1.408-2.094,12.1,12.1,0,0,0,13.486,0,1.262,1.262,0,0,1,1.408,2.094A14.548,14.548,0,0,1,587.637,111.947Z" fill="#dd816f"/>
          <circle cx="331.072" cy="47.424" r="24.097" fill="#512720"/>
          <circle cx="341.475" cy="57.056" r="14.767" fill="#ff69ad"/>
          <rect x="352.113" y="236.745" width="16.155" height="56.868" fill="#d88e7d"/>
          <path d="M383.8,301.554H354.04a1.926,1.926,0,0,1-1.927-1.926V289.212h24.324a9.289,9.289,0,0,1,9.289,9.29v1.126A1.926,1.926,0,0,1,383.8,301.554Z" fill="#d88e7d"/>
          <rect x="347.005" y="297.656" width="40.273" height="3.898" rx="1.949" ry="1.949" fill="#db2882"/>
          <path d="M383.986,205.249a7.2,7.2,0,0,1-4.771-1.8l-3.771-3.321a15.454,15.454,0,0,1-3.864-18.136l9.532-20.832a.767.767,0,0,0-.094-.794l-18.19-23.244a7.224,7.224,0,1,1,11.378-8.905L392.4,151.46a15.161,15.161,0,0,1,1.854,15.71L384.719,188a1.091,1.091,0,0,0,.273,1.28l3.771,3.321a7.224,7.224,0,0,1-4.777,12.646Z" fill="#d88e7d"/>
          <path d="M352.634,126.726h22.154a12.522,12.522,0,0,1,12.522,12.522v0a12.522,12.522,0,0,1-12.522,12.522H352.634a1.926,1.926,0,0,1-1.926-1.926V128.652a1.926,1.926,0,0,1,1.926-1.926Z" transform="translate(522.591 502.524) rotate(-133.591)" fill="#a63fef"/>
          <rect x="330.198" y="236.745" width="16.155" height="56.868" fill="#eaa48f"/>
          <path d="M361.885,301.554h-29.76a1.926,1.926,0,0,1-1.927-1.926V289.212h24.324a9.289,9.289,0,0,1,9.289,9.29v1.126A1.926,1.926,0,0,1,361.885,301.554Z" fill="#eaa48f"/>
          <path d="M364.581,122.51H335.02a12.05,12.05,0,0,0-12.05,12.05l2.391,49.474-2.391,59.6a1.927,1.927,0,0,0,1.927,1.927h49.808a1.926,1.926,0,0,0,1.926-1.927l-2.9-59.6,2.9-49.474A12.05,12.05,0,0,0,364.581,122.51Z" fill="#a63fef"/>
          <path d="M344.552,114.594h11.607a0,0,0,0,1,0,0v9.336a5.8,5.8,0,0,1-5.8,5.8h0a5.8,5.8,0,0,1-5.8-5.8v-9.336A0,0,0,0,1,344.552,114.594Z" fill="#d88e7d"/>
          <g>
            <path d="M350.645,45.313h0A29.246,29.246,0,0,1,379.891,74.56v16.2a0,0,0,0,1,0,0H321.4a0,0,0,0,1,0,0V74.56a29.246,29.246,0,0,1,29.246-29.246Z" fill="#704035"/>
            <circle cx="325.361" cy="90.759" r="7.98" fill="#d88e7d"/>
            <circle cx="375.35" cy="90.759" r="7.98" fill="#d88e7d"/>
            <path d="M325.361,68.036V94.845a25,25,0,0,0,25,24.994h0A24.994,24.994,0,0,0,375.35,94.845V68.036Z" fill="#eaa48f"/>
            <path d="M348.646,66.863H325.361A29.789,29.789,0,0,0,352.7,84.809V73.587A29.726,29.726,0,0,0,375.98,84.809V66.863Z" fill="#704035"/>
            <g>
              <path d="M334.919,84.761a1.262,1.262,0,0,1-.4-2.459l6.056-2.019a1.262,1.262,0,0,1,.8,2.394L335.318,84.7A1.262,1.262,0,0,1,334.919,84.761Z" fill="#704035"/>
              <path d="M365.792,84.652a1.262,1.262,0,0,1-.4-.065l-6.056-2.019a1.262,1.262,0,0,1,.8-2.394l6.056,2.019a1.262,1.262,0,0,1-.4,2.459Z" fill="#704035"/>
              <path d="M351.59,101.337h-2.847a1.262,1.262,0,0,1,0-2.523h2.7V94.02a1.262,1.262,0,0,1,2.523,0v4.942A2.377,2.377,0,0,1,351.59,101.337Z" fill="#bc695b"/>
              <path d="M344.835,92.282a1.261,1.261,0,0,1-1.23-.985,3.212,3.212,0,0,0-6.267,0,1.262,1.262,0,0,1-2.462-.553,5.735,5.735,0,0,1,11.19,0,1.262,1.262,0,0,1-1.231,1.538Z" fill="#bc695b"/>
              <path d="M364.567,92.282a1.263,1.263,0,0,1-1.23-.985,3.212,3.212,0,0,0-6.267,0,1.262,1.262,0,0,1-2.462-.553,5.735,5.735,0,0,1,11.191,0,1.262,1.262,0,0,1-1.232,1.538Z" fill="#bc695b"/>
            </g>
            <g>
              <g>
                <path d="M357.8,105.015a1.41,1.41,0,0,1,1.414,1.619,9.007,9.007,0,0,1-17.719,0,1.41,1.41,0,0,1,1.414-1.619Z" fill="#1a1a1a"/>
                <path d="M352.02,110.442c-2.021.622-3.428,2.033-3.525,3.377a8.939,8.939,0,0,0,8.343-2.563C356.005,110.2,354.043,109.818,352.02,110.442Z" fill="#f76c66"/>
              </g>
              <path d="M357.8,104.971H342.91a1.4,1.4,0,0,0-1.414,1.6,8.712,8.712,0,0,0,.416,1.492H358.8a8.712,8.712,0,0,0,.416-1.492A1.4,1.4,0,0,0,357.8,104.971Z" fill="#e6e7e8"/>
            </g>
          </g>
          <rect x="325.879" y="297.656" width="40.273" height="3.898" rx="1.949" ry="1.949" fill="#ff69ad"/>
          <path d="M354.015,300.525a1.928,1.928,0,0,1-1.742-2.747,12.222,12.222,0,0,1,10.024-6.971,1.926,1.926,0,0,1,.325,3.839,8.374,8.374,0,0,0-6.863,4.772A1.926,1.926,0,0,1,354.015,300.525Z" fill="#ff69ad"/>
          <path d="M375.687,300.525a1.928,1.928,0,0,1-1.741-2.747,12.223,12.223,0,0,1,10.023-6.971,1.926,1.926,0,1,1,.326,3.839,8.371,8.371,0,0,0-6.863,4.772A1.926,1.926,0,0,1,375.687,300.525Z" fill="#db2882"/>
          <rect x="332.908" y="162.061" width="34.926" height="2.89" fill="#760dd3"/>
          <path d="M370.8,239.175a4.335,4.335,0,0,1-1.368-8.448c.756-.26,17.193-6.2,21.426-31.321a4.335,4.335,0,0,1,8.549,1.44c-5.151,30.571-26.362,37.821-27.262,38.114A4.32,4.32,0,0,1,370.8,239.175Z" fill="#c17956"/>
          <g>
            <path d="M510.426,188.359a7.255,7.255,0,0,1-1.441-.145c-62.86-12.731-63.9-40.418-63.813-43.533l14.443.409a2.087,2.087,0,0,0,0-.3c.011.189,1.747,19.038,52.238,29.264a7.225,7.225,0,0,1-1.427,14.306Z" fill="#aa5d52"/>
            <path d="M503.053,176.871a2.89,2.89,0,0,1-1.942-5.03l4.872-4.418a2.89,2.89,0,1,1,3.883,4.281l-4.872,4.418A2.88,2.88,0,0,1,503.053,176.871Z" fill="#aa5d52"/>
          </g>
          <path d="M393.114,206.944c-.085,0-.17,0-.255,0a7.224,7.224,0,0,1-6.97-7.47c2.226-64.1,29.365-69.676,32.452-70.1l1.97,14.313a2,2,0,0,0,.3-.05c-.185.043-18.491,4.854-20.279,56.338A7.224,7.224,0,0,1,393.114,206.944Z" fill="#aa5d52"/>
          <path d="M418.81,123.025h29.561a12.05,12.05,0,0,1,12.05,12.05V199.93a1.926,1.926,0,0,1-1.926,1.926H408.687a1.926,1.926,0,0,1-1.926-1.926V135.075A12.05,12.05,0,0,1,418.81,123.025Z" fill="#333"/>
          <g>
            <rect x="408.826" y="201.856" width="49.713" height="85.436" fill="#d8bf8b"/>
            <g>
              <path d="M408.907,216.748v-2.814a12.091,12.091,0,0,0,12.077-12.078H423.8A14.909,14.909,0,0,1,408.907,216.748Z" fill="#b59661"/>
              <path d="M458.459,216.748a14.909,14.909,0,0,1-14.893-14.892h2.815a12.091,12.091,0,0,0,12.078,12.078Z" fill="#b59661"/>
            </g>
            <rect x="432.276" y="218.231" width="2.814" height="69.062" fill="#b59661"/>
            <rect x="428.867" y="216.342" width="9.632" height="2.814" fill="#b59661"/>
          </g>
          <g>
            <path d="M402.458,287.3h29.8V300.4a1.975,1.975,0,0,1-1.975,1.975H402.18V287.309C402.273,287.308,402.363,287.3,402.458,287.3Z" fill="#75d353"/>
            <path d="M389.534,298.7c1.164-4.412,4.314-11.24,12.646-11.391v15.062h-9.794A2.936,2.936,0,0,1,389.534,298.7Z" fill="#eaeaea"/>
            <rect x="387.513" y="299.113" width="46.29" height="3.898" rx="1.949" ry="1.949" transform="translate(821.315 602.125) rotate(180)" fill="#d8d8d8"/>
            <path d="M410.073,287.3h9.648a1.657,1.657,0,0,1,1.657,1.657v4.5a0,0,0,0,1,0,0H408.417a0,0,0,0,1,0,0v-4.5A1.657,1.657,0,0,1,410.073,287.3Z" transform="translate(829.795 580.762) rotate(-180)" fill="#f2f2f2"/>
          </g>
          <g>
            <path d="M464.9,287.3H435.092V300.4a1.975,1.975,0,0,0,1.975,1.975h28.108V287.309C465.082,287.308,464.992,287.3,464.9,287.3Z" fill="#75d353"/>
            <path d="M477.821,298.7c-1.164-4.412-4.314-11.24-12.646-11.391v15.062h9.794A2.936,2.936,0,0,0,477.821,298.7Z" fill="#eaeaea"/>
            <rect x="433.552" y="299.113" width="46.29" height="3.898" rx="1.949" ry="1.949" fill="#d8d8d8"/>
            <path d="M445.977,287.3h12.961a0,0,0,0,1,0,0v4.5a1.657,1.657,0,0,1-1.657,1.657h-9.648a1.657,1.657,0,0,1-1.657-1.657v-4.5A0,0,0,0,1,445.977,287.3Z" fill="#f2f2f2"/>
          </g>
          <rect x="362.677" y="278.676" width="6.039" height="20.774" transform="translate(-23.88 33.091) rotate(-5.017)" fill="#ffc9c0"/>
          <path d="M381.772,300.77a4.491,4.491,0,0,0-2.992-4.2l-8.024-2.839-.179-.443a1.006,1.006,0,0,0-1.866.754l.217.537a3.026,3.026,0,0,1-2.77,4.16h0a4.431,4.431,0,0,1-2.254-.594.846.846,0,0,0-1.267.744l.021,2.959a.944.944,0,0,0,.949.936l16.3-.118a1.881,1.881,0,0,0,1.868-1.9Z" fill="#333"/>
          <rect x="339.553" y="286.175" width="20.774" height="6.038" transform="matrix(0.073, -0.997, 0.997, 0.073, 35.951, 617.07)" fill="#c17956"/>
          <path d="M361.7,291.183l8.773-.611a1.83,1.83,0,0,0,1.7-1.954l-1.248-17.9-.007-1.052-26.16.188.007,1.053-.99,17.916a1.832,1.832,0,0,0,1.728,1.93l8.781.485a1.83,1.83,0,0,0,1.929-1.728l.541-9.776,2.311-.016.681,9.767A1.831,1.831,0,0,0,361.7,291.183Z" fill="#009345"/>
          <path d="M353.237,298.964a.846.846,0,0,0-1.277-.726,4.432,4.432,0,0,1-2.246.627h0a3.026,3.026,0,0,1-2.829-4.12l.209-.54a1.006,1.006,0,1,0-1.877-.727l-.172.445-7.982,2.954a4.493,4.493,0,0,0-2.932,4.244h0a1.882,1.882,0,0,0,1.9,1.868l16.3-.117a.943.943,0,0,0,.936-.95Z" fill="#333"/>
          <path d="M355.317,229.414h4.762a12.05,12.05,0,0,1,12.05,12.05v28.059a.98.98,0,0,1-.98.98h-26.9a.98.98,0,0,1-.98-.98V241.464a12.05,12.05,0,0,1,12.05-12.05Z" transform="translate(-1.791 2.583) rotate(-0.413)" fill="#ffc338"/>
          <path d="M334.891,256.2a4.334,4.334,0,0,1-3.228-7.226l6.051-6.758A4.334,4.334,0,1,1,344.172,248l-6.051,6.758A4.324,4.324,0,0,1,334.891,256.2Z" fill="#c17956"/>
          <path d="M337.766,232.312h11.079a6.541,6.541,0,0,1,6.541,6.541v0a6.541,6.541,0,0,1-6.541,6.541H337.766a1.533,1.533,0,0,1-1.533-1.533V233.845A1.533,1.533,0,0,1,337.766,232.312Z" transform="translate(-64.639 329.227) rotate(-47.05)" fill="#ffc338"/>
          <path d="M353.247,256.675h-.114L334.78,256.2a4.334,4.334,0,1,1,.224-8.666l18.352.474a4.334,4.334,0,0,1-.109,8.667Z" fill="#c17956"/>
          <rect x="347.835" y="244.304" width="3.459" height="6.918" rx="1.729" ry="1.729" transform="translate(558.262 621.966) rotate(-154.477)" fill="#c17956"/>
          <path d="M364.537,227.523h11.079a6.541,6.541,0,0,1,6.541,6.541v0a6.541,6.541,0,0,1-6.541,6.541H364.537A1.533,1.533,0,0,1,363,239.072V229.056a1.533,1.533,0,0,1,1.533-1.533Z" transform="translate(812.276 250.48) rotate(150)" fill="#ffc338"/>
          <g>
            <path d="M352.71,222.51H362.4a0,0,0,0,1,0,0v9.982a4.844,4.844,0,0,1-4.844,4.844h0a4.844,4.844,0,0,1-4.844-4.844V222.51A0,0,0,0,1,352.71,222.51Z" transform="translate(-1.647 2.582) rotate(-0.413)" fill="#a86145"/>
            <circle cx="359.598" cy="198.512" r="22.513" fill="#492420"/>
            <circle cx="348.665" cy="200.724" r="16.829" fill="#492420"/>
            <circle cx="336.376" cy="213.929" r="6.955" fill="#a86145"/>
            <circle cx="378.493" cy="212.893" r="6.955" fill="#a86145"/>
            <circle cx="357.212" cy="210.429" r="22.662" fill="#c17956"/>
            <path d="M357.892,219.99a13.37,13.37,0,0,1-5.6-1.23,1.351,1.351,0,0,1,1.13-2.454,10.68,10.68,0,0,0,5.982.875,1.351,1.351,0,1,1,.384,2.674A13.313,13.313,0,0,1,357.892,219.99Z" fill="#93523b"/>
            <g>
              <circle cx="349.355" cy="206.572" r="2.364" fill="#492420"/>
              <circle cx="369.84" cy="206.424" r="2.364" fill="#492420"/>
            </g>
            <ellipse cx="362.127" cy="192.349" rx="7.727" ry="19.322" transform="translate(64.271 474.158) rotate(-71.39)" fill="#492420"/>
            <path d="M344.678,204.363a1.536,1.536,0,0,1-1.446-2.059,4.478,4.478,0,0,1,5.727-2.688,1.537,1.537,0,1,1-1.044,2.891,1.4,1.4,0,0,0-1.792.841A1.538,1.538,0,0,1,344.678,204.363Z" fill="#492420"/>
            <path d="M373.5,204.1a1.538,1.538,0,0,1-1.439-.994,1.4,1.4,0,0,0-1.8-.815,1.537,1.537,0,0,1-1.085-2.876,4.478,4.478,0,0,1,5.765,2.6,1.539,1.539,0,0,1-1.437,2.08Z" fill="#492420"/>
            <ellipse cx="360.068" cy="211.314" rx="6.359" ry="2.378" fill="#a86145"/>
          </g>
          <path d="M398.487,127.326h22.154a12.522,12.522,0,0,1,12.522,12.522v0a12.522,12.522,0,0,1-12.522,12.522H398.487a1.926,1.926,0,0,1-1.926-1.926V129.253a1.926,1.926,0,0,1,1.926-1.926Z" transform="translate(36.405 359.935) rotate(-48.808)" fill="#333"/>
          <path d="M433.646,128.629H455.8a12.522,12.522,0,0,1,12.522,12.522v0A12.522,12.522,0,0,1,455.8,153.672H433.646a1.926,1.926,0,0,1-1.926-1.926V130.555a1.926,1.926,0,0,1,1.926-1.926Z" transform="translate(475.729 612.087) rotate(-110.539)" fill="#333"/>
          <g>
            <path d="M427.724,118.156h12.5a0,0,0,0,1,0,0v10.052a6.249,6.249,0,0,1-6.249,6.249h0a6.249,6.249,0,0,1-6.249-6.249V118.156a0,0,0,0,1,0,0Z" fill="#9e5447"/>
            <path d="M426.319,120.366l-5.2,14.009a1.927,1.927,0,0,0,2.224,2.551l10.678-2.373Z" fill="#f2f2f2"/>
            <path d="M441.648,120.366l5.112,14.024a1.927,1.927,0,0,1-2.228,2.541l-10.7-2.378Z" fill="#f2f2f2"/>
            <path d="M404.555,85.712V73.565a29.525,29.525,0,0,1,29.524-29.524h0A29.525,29.525,0,0,1,463.6,73.565V85.712" fill="#303030"/>
            <circle cx="460.153" cy="92.745" r="8.07" fill="#9e5447"/>
            <circle cx="408.704" cy="92.745" r="8.07" fill="#9e5447"/>
            <path d="M433.955,125.005h0a25,25,0,0,1-25-24.995V73.667a2.548,2.548,0,0,1,3.106-2.486h0a99.887,99.887,0,0,0,43.777,0h0a2.547,2.547,0,0,1,3.106,2.486V100.01A25,25,0,0,1,433.955,125.005Z" fill="#aa5d52"/>
            <path d="M437.942,102.919h-8.756a1.359,1.359,0,0,1,0-2.717h8.756a1.359,1.359,0,0,1,0,2.717Z" fill="#683631"/>
            <circle cx="423.783" cy="89.411" r="2.536" fill="#303030"/>
            <circle cx="448.065" cy="89.411" r="2.536" fill="#303030"/>
            <g>
              <g>
                <path d="M440.883,108.923a1.312,1.312,0,0,1,1.316,1.506,8.381,8.381,0,0,1-16.488,0,1.311,1.311,0,0,1,1.315-1.506Z" fill="#41352e"/>
                <path d="M435.5,113.972c-1.88.579-3.19,1.893-3.28,3.144a8.446,8.446,0,0,0,1.732.186,8.348,8.348,0,0,0,6.032-2.572C439.211,113.743,437.386,113.392,435.5,113.972Z" fill="#f76c66"/>
              </g>
              <path d="M440.883,108.882H427.026a1.3,1.3,0,0,0-1.315,1.486,8.079,8.079,0,0,0,.386,1.389h15.715a8.082,8.082,0,0,0,.387-1.389A1.3,1.3,0,0,0,440.883,108.882Z" fill="#e6e7e8"/>
            </g>
          </g>
          <g>
            <path d="M417.716,85.9a1.228,1.228,0,0,1-1.15-1.652,6.075,6.075,0,0,1,7.8-3.593,1.226,1.226,0,1,1-.85,2.3,3.619,3.619,0,0,0-4.651,2.142A1.228,1.228,0,0,1,417.716,85.9Z" fill="#303030"/>
            <path d="M450.376,85.9a1.228,1.228,0,0,1-1.151-.8,3.622,3.622,0,0,0-4.652-2.142,1.226,1.226,0,0,1-.85-2.3,6.083,6.083,0,0,1,7.8,3.593,1.228,1.228,0,0,1-1.15,1.652Z" fill="#303030"/>
          </g>
          <path d="M404.111,198.247a2.882,2.882,0,0,1-1.791-.623l-5.159-4.08a2.889,2.889,0,0,1,3.584-4.533l5.16,4.08a2.89,2.89,0,0,1-1.794,5.156Z" fill="#aa5d52"/>
          <circle cx="434.08" cy="143.727" r="2.219" fill="#ffe9e9"/>
          <circle cx="434.08" cy="154.392" r="2.219" fill="#ffe9e9"/>
          <path d="M342.582,184.862a4.672,4.672,0,0,0-2.619-1.664,1.027,1.027,0,0,0-1.017,1.635,5.009,5.009,0,0,1,.853,2.024,4.713,4.713,0,0,1-.354,3.1,4.533,4.533,0,0,1-2.353,2.133,4.688,4.688,0,0,0,5.49-7.23Z" fill="#492420"/>
          <g>
            <circle cx="583.1" cy="124.998" r="2.004" fill="#fff"/>
            <circle cx="587.429" cy="127.709" r="2.004" fill="#fff"/>
            <circle cx="592.669" cy="127.709" r="2.004" fill="#fff"/>
            <circle cx="596.943" cy="124.998" r="2.004" fill="#fff"/>
          </g>
          <path d="M299.542,191.469H321.81a.513.513,0,0,1,.513.513v33.613a.513.513,0,0,1-.513.513H299.542a3.226,3.226,0,0,1-3.226-3.226V194.7A3.226,3.226,0,0,1,299.542,191.469Z" transform="translate(518.108 -100.531) rotate(90)" fill="#1e140c"/>
          <rect x="314.736" y="202.405" width="3.56" height="12.766" rx="1.78" ry="1.78" fill="#4d4d4d"/>
          <path d="M309.324,206.429c-.085,0-.171,0-.256,0a7.224,7.224,0,0,1-6.969-7.47c2.226-64.1,29.365-69.676,32.452-70.1l1.971,14.313a2,2,0,0,0,.3-.05c-.184.043-18.491,4.854-20.279,56.338A7.225,7.225,0,0,1,309.324,206.429Z" fill="#eaa48f"/>
          <path d="M314.7,126.811h22.154a12.522,12.522,0,0,1,12.522,12.522v0a12.522,12.522,0,0,1-12.522,12.522H314.7a1.926,1.926,0,0,1-1.926-1.926V128.738a1.926,1.926,0,0,1,1.926-1.926Z" transform="translate(8.185 296.706) rotate(-48.808)" fill="#a63fef"/>
          <rect x="336.694" y="122.603" width="27.323" height="11.463" rx="5.732" ry="5.732" fill="#d88e7d"/>
          <path d="M593.623,133.231h-2.236v-2.237a.7.7,0,0,0-.7-.7h-1.254a.7.7,0,0,0-.7.7v2.237H586.5a.7.7,0,0,0-.7.7v1.255a.7.7,0,0,0,.7.7h2.237v4.458a.7.7,0,0,0,.7.7h1.254a.7.7,0,0,0,.7-.7v-4.458h2.236a.7.7,0,0,0,.7-.7v-1.255A.7.7,0,0,0,593.623,133.231Z" fill="#603813"/>
        </g>
      </g>
      <g clip-path="url(#clip-path-2)">
        <g>
          <rect x="-32.861" y="284.22" width="590.833" height="299.891" fill="#45a7ff"/>
          <g>
            <rect x="50.428" y="344.051" width="337.348" height="159.797" rx="11.31" ry="11.31" fill="#383838" opacity="0.2"/>
            <path d="M110.235,470.206H289.655a0,0,0,0,1,0,0v99.948a39.29,39.29,0,0,1-39.29,39.29H149.524a39.29,39.29,0,0,1-39.29-39.29V470.206A0,0,0,0,1,110.235,470.206Z" fill="#383838" opacity="0.2"/>
            <path d="M143.876,473.01H323.3a0,0,0,0,1,0,0v99.948a39.29,39.29,0,0,1-39.29,39.29H183.166a39.29,39.29,0,0,1-39.29-39.29V473.01A0,0,0,0,1,143.876,473.01Z" fill="#383838"/>
            <path d="M188.789,452.79h35.62a0,0,0,0,1,0,0v64.085a17.81,17.81,0,0,1-17.81,17.81h0a17.81,17.81,0,0,1-17.81-17.81V452.79a0,0,0,0,1,0,0Z" transform="translate(498.76 942.182) rotate(169.622)" fill="#64bdff"/>
            <path d="M258.106,452.79h0a17.81,17.81,0,0,1,17.81,17.81v64.085a0,0,0,0,1,0,0H240.3a0,0,0,0,1,0,0V470.6a17.81,17.81,0,0,1,17.81-17.81Z" transform="translate(93.164 -38.418) rotate(10.378)" fill="#64bdff"/>
            <rect x="66.314" y="334.485" width="337.348" height="174.969" rx="11.31" ry="11.31" fill="#d5dbde"/>
            <rect x="159.762" y="441.237" width="128.024" height="59.807" rx="6.436" ry="6.436" opacity="0.15"/>
            <path d="M163.5,602.466a110.773,110.773,0,0,0,138.3,0" fill="none" stroke="#515151" stroke-linecap="round" stroke-miterlimit="10" stroke-width="23.081"/>
            <path d="M179.386,525.615h105.6a0,0,0,0,1,0,0v30.263a37.02,37.02,0,0,1-37.02,37.02H216.406a37.02,37.02,0,0,1-37.02-37.02V525.615A0,0,0,0,1,179.386,525.615Z" transform="translate(464.369 1118.514) rotate(180)" fill="#ea5334"/>
            <rect x="167.238" y="435.631" width="128.024" height="59.807" rx="6.436" ry="6.436" fill="#edf6fd"/>
            <rect x="175.648" y="444.041" width="9.345" height="9.345" rx="0.946" ry="0.946" fill="#dfe8ef"/>
            <rect x="190.2" y="444.041" width="9.345" height="9.345" rx="0.946" ry="0.946" fill="#dfe8ef"/>
            <rect x="204.751" y="444.041" width="9.345" height="9.345" rx="0.946" ry="0.946" fill="#dfe8ef"/>
            <rect x="219.302" y="444.041" width="9.345" height="9.345" rx="0.946" ry="0.946" fill="#dfe8ef"/>
            <rect x="233.853" y="444.041" width="9.345" height="9.345" rx="0.946" ry="0.946" fill="#dfe8ef"/>
            <rect x="248.405" y="444.041" width="9.345" height="9.345" rx="0.946" ry="0.946" fill="#dfe8ef"/>
            <rect x="262.956" y="444.041" width="9.345" height="9.345" rx="0.946" ry="0.946" fill="#dfe8ef"/>
            <rect x="277.507" y="444.041" width="9.345" height="9.345" rx="0.946" ry="0.946" fill="#dfe8ef"/>
            <rect x="175.648" y="460.862" width="9.345" height="9.345" rx="0.946" ry="0.946" fill="#dfe8ef"/>
            <rect x="190.2" y="460.862" width="9.345" height="9.345" rx="0.946" ry="0.946" fill="#dfe8ef"/>
            <rect x="204.751" y="460.862" width="9.345" height="9.345" rx="0.946" ry="0.946" fill="#dfe8ef"/>
            <rect x="219.302" y="460.862" width="9.345" height="9.345" rx="0.946" ry="0.946" fill="#dfe8ef"/>
            <rect x="233.853" y="460.862" width="9.345" height="9.345" rx="0.946" ry="0.946" fill="#dfe8ef"/>
            <rect x="248.405" y="460.862" width="9.345" height="9.345" rx="0.946" ry="0.946" fill="#dfe8ef"/>
            <rect x="262.956" y="460.862" width="9.345" height="9.345" rx="0.946" ry="0.946" fill="#dfe8ef"/>
            <rect x="277.507" y="460.862" width="9.345" height="9.345" rx="0.946" ry="0.946" fill="#dfe8ef"/>
            <g>
              <rect x="175.648" y="477.682" width="9.345" height="9.345" rx="0.946" ry="0.946" fill="#dfe8ef"/>
              <rect x="190.2" y="477.682" width="9.345" height="9.345" rx="0.946" ry="0.946" fill="#dfe8ef"/>
              <rect x="204.617" y="477.682" width="53.266" height="9.345" rx="0.946" ry="0.946" fill="#dfe8ef"/>
              <rect x="262.956" y="477.682" width="9.345" height="9.345" rx="0.946" ry="0.946" fill="#dfe8ef"/>
              <rect x="277.507" y="477.682" width="9.345" height="9.345" rx="0.946" ry="0.946" fill="#dfe8ef"/>
            </g>
            <rect x="167.238" y="369.282" width="126.155" height="66.348" rx="4.924" ry="4.924" fill="#383838"/>
            <rect x="175.648" y="377.693" width="110.269" height="48.593" fill="#fff"/>
            <rect x="175.648" y="377.693" width="24.297" height="48.593" fill="#efefef"/>
            <rect x="264.628" y="379.907" width="21.242" height="46.301" fill="#c7e0ff"/>
            <rect x="175.648" y="377.693" width="110.269" height="8.41" fill="#2e83ff"/>
            <path d="M273.769,454.595h23.362a0,0,0,0,1,0,0v87.374A11.681,11.681,0,0,1,285.45,553.65h0a11.681,11.681,0,0,1-11.681-11.681V454.595A0,0,0,0,1,273.769,454.595Z" transform="translate(570.9 1008.245) rotate(180)" fill="#ffc1b0"/>
            <path d="M165.369,454.595h23.362a0,0,0,0,1,0,0v87.374A11.681,11.681,0,0,1,177.05,553.65h0a11.681,11.681,0,0,1-11.681-11.681V454.595a0,0,0,0,1,0,0Z" transform="translate(354.1 1008.245) rotate(180)" fill="#ffc1b0"/>
            <path d="M281.245,533.091h0A20.559,20.559,0,0,1,301.8,553.65V592.9a0,0,0,0,1,0,0H260.686a0,0,0,0,1,0,0V553.65A20.559,20.559,0,0,1,281.245,533.091Z" transform="translate(562.49 1125.989) rotate(180)" fill="#ea5334"/>
            <path d="M179.386,533.091h0a20.559,20.559,0,0,1,20.559,20.559V592.9a0,0,0,0,1,0,0H158.828a0,0,0,0,1,0,0V553.65A20.559,20.559,0,0,1,179.386,533.091Z" transform="translate(358.773 1125.989) rotate(180)" fill="#ea5334"/>
            <circle cx="232.652" cy="539.633" r="6.541" fill="#ffc1b0"/>
            <g>
              <path d="M273.3,575.006h7.009a0,0,0,0,1,0,0v14.017a0,0,0,0,1,0,0H273.3a7.009,7.009,0,0,1-7.009-7.009v0A7.009,7.009,0,0,1,273.3,575.006Z" transform="translate(546.604 1164.029) rotate(180)" fill="#ffc1b0"/>
              <path d="M192,575.006h7.009a0,0,0,0,1,0,0v14.017a0,0,0,0,1,0,0H192a7.009,7.009,0,0,1-7.009-7.009v0A7.009,7.009,0,0,1,192,575.006Z" fill="#ffc1b0"/>
            </g>
            <path d="M208.963,621.414h0a95.584,95.584,0,0,0,47.378,0h0a21.929,21.929,0,0,0,16.494-21.244V579.815a40.183,40.183,0,0,0-40.183-40.182h0a40.183,40.183,0,0,0-40.183,40.182V600.17A21.929,21.929,0,0,0,208.963,621.414Z" fill="#8c423b"/>
            <path d="M257.076,547.916a39.994,39.994,0,0,1,8.283,24.423v20.355a21.928,21.928,0,0,1-16.494,21.244h0a95.584,95.584,0,0,1-47.378,0h0a21.837,21.837,0,0,1-5.862-2.469,21.889,21.889,0,0,0,13.338,9.945h0a95.584,95.584,0,0,0,47.378,0h0a21.929,21.929,0,0,0,16.494-21.244V579.815A40.107,40.107,0,0,0,257.076,547.916Z" fill="#a3514d"/>
            <line x1="182.657" y1="482.822" x2="192.936" y2="473.477" fill="none" stroke="#ffc1b0" stroke-linecap="round" stroke-miterlimit="10" stroke-width="7.476"/>
            <line x1="279.843" y1="482.822" x2="269.564" y2="473.477" fill="none" stroke="#ffc1b0" stroke-linecap="round" stroke-miterlimit="10" stroke-width="7.476"/>
            <g>
              <rect x="342.921" y="382.365" width="44.855" height="58.872" rx="2.364" ry="2.364" opacity="0.2"/>
              <rect x="349.462" y="376.758" width="44.855" height="58.872" rx="2.364" ry="2.364" fill="#816056"/>
              <rect x="362.545" y="395.448" width="18.69" height="6.541" fill="#a0776d"/>
            </g>
            <circle cx="121.557" cy="459.22" r="15.755" fill="#383838" opacity="0.2"/>
            <g>
              <path d="M140.952,445.45h8.928a2.626,2.626,0,0,1,2.626,2.626v0a2.626,2.626,0,0,1-2.626,2.626h-8.928a0,0,0,0,1,0,0V445.45a0,0,0,0,1,0,0Z" transform="translate(-153.994 84.941) rotate(-21.497)" fill="#dfe8ef"/>
              <circle cx="127.48" cy="455.092" r="15.755" fill="#edf6fd"/>
              <circle cx="127.48" cy="455.092" r="11.553" fill="#816056"/>
            </g>
            <rect x="212.566" y="393.579" width="39.924" height="10.279" fill="#efefef"/>
            <rect x="212.566" y="414.677" width="30.156" height="3.738" fill="#efefef"/>
            <rect x="212.566" y="407.596" width="30.156" height="3.738" fill="#efefef"/>
            <g>
              <circle cx="187.752" cy="398.115" r="7.081" fill="#2e83ff"/>
              <g>
                <path d="M187.752,398.636h0a2.508,2.508,0,0,1,2.508,2.508v.965a0,0,0,0,1,0,0h-5.015a0,0,0,0,1,0,0v-.965A2.508,2.508,0,0,1,187.752,398.636Z" fill="#fff"/>
                <circle cx="187.752" cy="395.89" r="1.77" fill="#fff"/>
              </g>
            </g>
            <circle cx="98.118" cy="380.625" r="23.273" fill="#383838" opacity="0.2"/>
            <g>
              <circle cx="103.795" cy="375.861" r="24.277" fill="#edf6fd"/>
              <circle cx="103.795" cy="375.861" r="18.207" fill="#816056"/>
              <g>
                <path d="M104.893,375.059c-4.443-16-21.328-9.776-21.328-9.776s2.666-.889,6.22,6.221,11.553,6.221,11.553,6.221Z" fill="#75d85d"/>
                <path d="M101.547,372.368s-4.506.486-6.059-7.41-2.981-6.515-2.981-6.515,11.02-3.468,13.907,8.667S101.547,372.368,101.547,372.368Z" fill="#54c634"/>
                <path d="M107.152,379.064s4.483-.66,6.339,7.171,3.231,6.395,3.231,6.395-10.879,3.89-14.231-8.125S107.152,379.064,107.152,379.064Z" fill="#54c634"/>
                <path d="M108.491,370.953s1.681-4.209,9.385-1.882,7.153.418,7.153.418-2.1,11.361-14.172,8.227S108.491,370.953,108.491,370.953Z" fill="#54c634"/>
                <path d="M97.827,378.868s-.155,3.812-6.924,4.124-5.8,1.673-5.8,1.673-1.518-9.607,8.945-10.5S97.827,378.868,97.827,378.868Z" fill="#54c634"/>
                <path d="M101.338,372.393s0-7.11,6.221-9.776,5.332-8,5.332-8,6.221,3.555,5.332,10.664-8.886,8.887-11.553,9.776S101.338,372.393,101.338,372.393Z" fill="#75d85d"/>
                <path d="M100.731,378.167a9.4,9.4,0,0,0,8.728,6.914c7.157.331,9.181,4.287,9.181,4.287s3.018-17.515-12.625-15.7S100.731,378.167,100.731,378.167Z" fill="#75d85d"/>
                <path d="M98.406,371.5s-9.216,9.216-4.608,17.28,2.3,13.824,2.3,13.824,14.976-6.912,9.216-16.128-2.3-12.672-2.3-12.672Z" fill="#75d85d"/>
              </g>
            </g>
          </g>
        </g>
      </g>
      <g>
        <path d="M46.822,2.607H21.758A16.081,16.081,0,0,0,5.677,18.688V329.739A16.081,16.081,0,0,0,25.816,345.3l258.16-67.6a16.081,16.081,0,0,0,7.681-26.55L67.282,11.48A28.024,28.024,0,0,0,46.822,2.607Z" fill="#45a7ff"/>
        <g clip-path="url(#clip-path-3)">
          <g>
            <g>
              <path d="M18.459,185.921H30.05c.244-.453.51-.893.776-1.331a21.789,21.789,0,0,1,36.632-21.227,23.448,23.448,0,0,1,30.128-15.479,28.274,28.274,0,0,1,51.606,23.026,42.855,42.855,0,0,1,13.154,10.8,24.09,24.09,0,0,1,24.233,4.211H196.99a7.174,7.174,0,0,1,0,14.347H18.459a7.174,7.174,0,1,1,0-14.347Z" fill="#fff"/>
              <path d="M-25.477,84.553h8.5c.179-.332.374-.654.569-.976a15.973,15.973,0,0,1-.651-4.492A15.984,15.984,0,0,1-1.079,63.1a15.924,15.924,0,0,1,11.517,4.918A17.187,17.187,0,0,1,32.521,56.673,20.724,20.724,0,0,1,70.346,73.55a31.417,31.417,0,0,1,9.642,7.917A17.659,17.659,0,0,1,97.75,84.553h7.631a5.258,5.258,0,0,1,0,10.516H-25.477a5.258,5.258,0,0,1-5.258-5.258A5.258,5.258,0,0,1-25.477,84.553Z" fill="#fff"/>
              <g>
                <path d="M100.926,198.946H45.2a2.477,2.477,0,0,1-2.476-2.477V135.122a2.481,2.481,0,0,1,.536-1.54l27.521-17.318a2.477,2.477,0,0,1,3.862-.023l28.208,17.335a2.475,2.475,0,0,1,.555,1.562v61.331A2.477,2.477,0,0,1,100.926,198.946Z" fill="#ddb797"/>
                <path d="M39,138.4,70.461,116.11a2.833,2.833,0,0,1,4.416-.026l32.25,22.307" fill="none" stroke="#7f605e" stroke-linecap="round" stroke-miterlimit="10" stroke-width="9.909"/>
                <path d="M146.539,210.854l-73-43.706a1.651,1.651,0,0,0-1.7,0L-1.149,210.854a1.651,1.651,0,0,0-.8,1.417v46.393A1.651,1.651,0,0,0-.3,260.315H145.69a1.652,1.652,0,0,0,1.652-1.651V212.271A1.651,1.651,0,0,0,146.539,210.854Z" fill="#ddb797"/>
                <polygon points="72.695 169.235 -1.952 213.93 -1.952 222.367 72.695 177.672 147.342 222.367 147.342 213.93 72.695 169.235" fill="#ce9772"/>
                <path d="M156.4,213.457,73.656,163.918a1.869,1.869,0,0,0-1.923,0L-11,213.457" fill="none" stroke="#7f605e" stroke-linecap="round" stroke-miterlimit="10" stroke-width="9.909"/>
                <path d="M107.406,221.075,74.258,201.521a1.65,1.65,0,0,0-1.652-.015l-34.6,19.574a1.654,1.654,0,0,0-.838,1.438v36.146a1.652,1.652,0,0,0,1.652,1.651h67.744a1.652,1.652,0,0,0,1.652-1.651V222.5A1.651,1.651,0,0,0,107.406,221.075Z" fill="#edd0b4"/>
                <path d="M72.695,240.745h0a6.606,6.606,0,0,1,6.606,6.606v13.2a0,0,0,0,1,0,0H66.089a0,0,0,0,1,0,0v-13.2A6.606,6.606,0,0,1,72.695,240.745Z" fill="#333"/>
                <polygon points="73.543 203.299 37.171 223.879 37.171 230.485 73.543 209.905 108.218 230.361 108.218 223.755 73.543 203.299" fill="#c4a183"/>
                <g>
                  <rect x="70.264" y="215.144" width="4.862" height="17.237" rx="1.377" ry="1.377" fill="#fff"/>
                  <rect x="70.264" y="215.144" width="4.862" height="14.206" rx="1.377" ry="1.377" transform="translate(-149.553 294.942) rotate(-90)" fill="#fff"/>
                </g>
                <path d="M115.138,223.145,74.591,199.226a2.021,2.021,0,0,0-2.021-.019L30.252,223.151" fill="none" stroke="#7f605e" stroke-linecap="round" stroke-miterlimit="10" stroke-width="9.909"/>
                <rect x="116.816" y="241.049" width="7.621" height="4.993" rx="1.867" ry="1.867" fill="#c99b79"/>
                <rect x="6.146" y="246.548" width="7.621" height="4.993" rx="1.867" ry="1.867" fill="#c99b79"/>
                <rect x="128.55" y="246.548" width="7.621" height="4.993" rx="1.867" ry="1.867" fill="#f2c8ad"/>
                <rect x="13.767" y="238.553" width="7.621" height="4.993" rx="1.867" ry="1.867" fill="#f2c8ad"/>
                <rect x="63.095" y="133.345" width="19.161" height="19.161" rx="2.477" ry="2.477" fill="#489bff"/>
                <path d="M77.307,145.158h-.155v-3.313a4.451,4.451,0,0,0-8.9,0v3.313H68.1a1.65,1.65,0,0,0,0,3.3h9.211a1.65,1.65,0,0,0,0-3.3Z" fill="#f9cc3d"/>
              </g>
            </g>
            <rect x="-13.542" y="259.535" width="319.643" height="96.095" fill="#49557a"/>
            <path d="M198.486,260.547l1.23-1.436a6.193,6.193,0,0,0-6.094-5.092,6.288,6.288,0,0,0-.987.085,15.671,15.671,0,0,0-27.58-3.424,11.889,11.889,0,0,0-10.917-.12,11.888,11.888,0,0,0-18.008-7.053,6.189,6.189,0,1,0-10.8,6.053,10.308,10.308,0,0,0-6.68,5.049,6.182,6.182,0,0,0-8.809,5.93l.009.008Z" fill="#42991d"/>
            <g>
              <g>
                <rect x="203.915" y="236.236" width="5.69" height="3.929" rx="1.658" ry="1.658" fill="#f9a819"/>
                <rect x="165.98" y="236.236" width="5.69" height="3.929" rx="1.658" ry="1.658" fill="#f9a819"/>
                <rect x="175.48" y="252.893" width="24.891" height="2.785" rx="1.393" ry="1.393" fill="#494949"/>
                <path d="M169.623,251.842h6.806a0,0,0,0,1,0,0v7.837a.877.877,0,0,1-.877.877H170.5a.877.877,0,0,1-.877-.877v-7.837A0,0,0,0,1,169.623,251.842Z" fill="#303030"/>
                <path d="M199.656,251.842h6.806a0,0,0,0,1,0,0v7.837a.877.877,0,0,1-.877.877h-5.053a.877.877,0,0,1-.877-.877v-7.837A0,0,0,0,1,199.656,251.842Z" fill="#303030"/>
                <g>
                  <path d="M200.451,242.341h-25.5a2.476,2.476,0,0,1-2.42-3l2.06-9.491a2.476,2.476,0,0,1,2.42-1.951h21.381a2.476,2.476,0,0,1,2.42,1.951l2.06,9.491A2.476,2.476,0,0,1,200.451,242.341Z" opacity="0.5" fill="url(#linear-gradient)" style="mix-blend-mode: overlay"/>
                  <path d="M204.675,238.818l-2.06-9.492a4.322,4.322,0,0,0-4.2-3.386h-21.38a4.322,4.322,0,0,0-4.2,3.386l-2.06,9.492a4.3,4.3,0,0,0,4.2,5.209h25.5a4.3,4.3,0,0,0,4.2-5.209Zm-4.2,3.388h-25.5a2.477,2.477,0,0,1-2.421-3l2.061-9.491a2.476,2.476,0,0,1,2.42-1.952h21.38a2.476,2.476,0,0,1,2.42,1.952L202.9,239.2A2.477,2.477,0,0,1,200.475,242.206Z" fill="#ffd066"/>
                  <path d="M173.373,238.771h29.469a4.569,4.569,0,0,1,4.569,4.569v5.317a2.29,2.29,0,0,1-2.29,2.29H171.094a2.29,2.29,0,0,1-2.29-2.29V243.34A4.569,4.569,0,0,1,173.373,238.771Z" fill="#fcc846"/>
                  <g>
                    <circle cx="175.969" cy="245.055" r="3.607" fill="#f9a819"/>
                    <circle cx="175.969" cy="245.055" r="2.269" fill="#fff9f0"/>
                  </g>
                  <g>
                    <circle cx="200.371" cy="245.055" r="3.607" fill="#f9a819"/>
                    <circle cx="200.371" cy="245.055" r="2.269" fill="#fff9f0"/>
                  </g>
                  <path d="M185.881,250.752c0,.066,0,.13,0,.195h4.462c0-.065,0-.129,0-.195a11.9,11.9,0,0,1,10.4-11.8v-.426a1.765,1.765,0,0,0-1.765-1.764H177.244a1.764,1.764,0,0,0-1.764,1.764v.426A11.9,11.9,0,0,1,185.881,250.752Z" fill="#ffdc78"/>
                  <rect x="180.524" y="244.731" width="15.323" height="6.916" rx="1.4" ry="1.4" fill="#4d545e"/>
                  <g>
                    <circle cx="188.185" cy="247.324" r="1.655" fill="#fff9f0"/>
                    <g>
                      <path d="M183.3,246.552h2.653a0,0,0,0,1,0,0V248.1a0,0,0,0,1,0,0h-1.171a1.482,1.482,0,0,1-1.482-1.482v-.062A0,0,0,0,1,183.3,246.552Z" fill="#fff9f0"/>
                      <path d="M191.9,246.552h1.171a0,0,0,0,1,0,0V248.1a0,0,0,0,1,0,0h-2.653a0,0,0,0,1,0,0v-.062A1.482,1.482,0,0,1,191.9,246.552Z" transform="translate(383.482 494.648) rotate(-180)" fill="#fff9f0"/>
                    </g>
                  </g>
                  <rect x="167.893" y="249.478" width="40.307" height="4.728" rx="1.027" ry="1.027" fill="#b7b7b7"/>
                </g>
                <rect x="175.48" y="252.893" width="24.891" height="2.785" rx="1.393" ry="1.393" fill="#494949"/>
                <path d="M169.623,251.842h6.806a0,0,0,0,1,0,0v7.837a.877.877,0,0,1-.877.877H170.5a.877.877,0,0,1-.877-.877v-7.837A0,0,0,0,1,169.623,251.842Z" fill="#303030"/>
                <path d="M199.656,251.842h6.806a0,0,0,0,1,0,0v7.837a.877.877,0,0,1-.877.877h-5.053a.877.877,0,0,1-.877-.877v-7.837A0,0,0,0,1,199.656,251.842Z" fill="#303030"/>
                <g>
                  <path d="M200.045,252.773h-25.5a2.476,2.476,0,0,1-2.42-3l2.06-9.491a2.476,2.476,0,0,1,2.42-1.951h21.381a2.477,2.477,0,0,1,2.42,1.951l2.06,9.491A2.476,2.476,0,0,1,200.045,252.773Z" opacity="0.5" fill="url(#linear-gradient-2)" style="mix-blend-mode: overlay"/>
                  <path d="M204.675,238.818l-2.06-9.492a4.322,4.322,0,0,0-4.2-3.386h-21.38a4.322,4.322,0,0,0-4.2,3.386l-2.06,9.492a4.3,4.3,0,0,0,4.2,5.209h25.5a4.3,4.3,0,0,0,4.2-5.209Zm-4.2,3.388h-25.5a2.477,2.477,0,0,1-2.421-3l2.061-9.491a2.476,2.476,0,0,1,2.42-1.952h21.38a2.476,2.476,0,0,1,2.42,1.952L202.9,239.2A2.477,2.477,0,0,1,200.475,242.206Z" fill="#ffd066"/>
                  <path d="M173.373,238.771h29.469a4.569,4.569,0,0,1,4.569,4.569v5.317a2.29,2.29,0,0,1-2.29,2.29H171.094a2.29,2.29,0,0,1-2.29-2.29V243.34A4.569,4.569,0,0,1,173.373,238.771Z" fill="#fcc846"/>
                  <g>
                    <circle cx="175.969" cy="245.055" r="3.607" fill="#f9a819"/>
                    <circle cx="175.969" cy="245.055" r="2.269" fill="#fff9f0"/>
                  </g>
                  <g>
                    <circle cx="200.371" cy="245.055" r="3.607" fill="#f9a819"/>
                    <circle cx="200.371" cy="245.055" r="2.269" fill="#fff9f0"/>
                  </g>
                  <path d="M185.881,250.752c0,.066,0,.13,0,.195h4.462c0-.065,0-.129,0-.195a11.9,11.9,0,0,1,10.4-11.8v-.426a1.765,1.765,0,0,0-1.765-1.764H177.244a1.764,1.764,0,0,0-1.764,1.764v.426A11.9,11.9,0,0,1,185.881,250.752Z" fill="#ffdc78"/>
                  <rect x="180.524" y="244.731" width="15.323" height="6.916" rx="1.4" ry="1.4" fill="#4d545e"/>
                  <g>
                    <circle cx="188.185" cy="247.324" r="1.655" fill="#fff9f0"/>
                    <g>
                      <path d="M183.3,246.552h2.653a0,0,0,0,1,0,0V248.1a0,0,0,0,1,0,0h-1.171a1.482,1.482,0,0,1-1.482-1.482v-.062A0,0,0,0,1,183.3,246.552Z" fill="#fff9f0"/>
                      <path d="M191.9,246.552h1.171a0,0,0,0,1,0,0V248.1a0,0,0,0,1,0,0h-2.653a0,0,0,0,1,0,0v-.062A1.482,1.482,0,0,1,191.9,246.552Z" transform="translate(383.482 494.648) rotate(-180)" fill="#fff9f0"/>
                    </g>
                  </g>
                  <rect x="167.893" y="249.478" width="40.307" height="4.728" rx="1.027" ry="1.027" fill="#b7b7b7"/>
                </g>
              </g>
              <rect x="255.398" y="236.236" width="5.69" height="3.929" rx="1.658" ry="1.658" fill="#f42f2f"/>
              <rect x="214.076" y="236.236" width="5.69" height="3.929" rx="1.658" ry="1.658" fill="#f42f2f"/>
              <rect x="223.576" y="252.893" width="28.279" height="2.785" rx="1.393" ry="1.393" fill="#494949"/>
              <path d="M217.719,251.842h6.806a0,0,0,0,1,0,0v7.837a.877.877,0,0,1-.877.877H218.6a.877.877,0,0,1-.877-.877v-7.837A0,0,0,0,1,217.719,251.842Z" fill="#303030"/>
              <path d="M251.139,251.842h6.806a0,0,0,0,1,0,0v7.837a.877.877,0,0,1-.877.877h-5.053a.877.877,0,0,1-.877-.877v-7.837A0,0,0,0,1,251.139,251.842Z" fill="#303030"/>
              <path d="M251.934,242.341H223.046a2.476,2.476,0,0,1-2.42-3l2.06-9.491a2.476,2.476,0,0,1,2.42-1.951h24.768a2.476,2.476,0,0,1,2.42,1.951l2.06,9.491A2.476,2.476,0,0,1,251.934,242.341Z" opacity="0.5" fill="url(#linear-gradient-3)" style="mix-blend-mode: overlay"/>
              <path d="M256.158,238.818l-2.06-9.492a4.322,4.322,0,0,0-4.2-3.386H225.131a4.322,4.322,0,0,0-4.2,3.386l-2.06,9.492a4.3,4.3,0,0,0,4.2,5.209h28.888a4.3,4.3,0,0,0,4.2-5.209Zm-4.2,3.388H223.07a2.477,2.477,0,0,1-2.42-3l2.06-9.491a2.478,2.478,0,0,1,2.42-1.952H249.9a2.477,2.477,0,0,1,2.42,1.952l2.06,9.491A2.476,2.476,0,0,1,251.958,242.206Z" fill="#ffd066"/>
              <path d="M221.469,238.771h32.856a4.569,4.569,0,0,1,4.569,4.569v5.317a2.29,2.29,0,0,1-2.29,2.29H219.19a2.29,2.29,0,0,1-2.29-2.29V243.34A4.569,4.569,0,0,1,221.469,238.771Z" fill="#fcc846"/>
              <g>
                <circle cx="224.065" cy="245.055" r="3.607" fill="#f9a819"/>
                <circle cx="224.065" cy="245.055" r="2.269" fill="#fff9f0"/>
              </g>
              <g>
                <circle cx="251.854" cy="245.055" r="3.607" fill="#f9a819"/>
                <circle cx="251.854" cy="245.055" r="2.269" fill="#fff9f0"/>
              </g>
              <path d="M233.977,250.752c0,.066,0,.13,0,.195h7.849c0-.065,0-.129,0-.195a11.9,11.9,0,0,1,10.4-11.8v-.426a1.764,1.764,0,0,0-1.764-1.764H225.34a1.764,1.764,0,0,0-1.764,1.764v.426A11.9,11.9,0,0,1,233.977,250.752Z" fill="#ffdc78"/>
              <rect x="228.619" y="244.731" width="18.71" height="6.916" rx="1.4" ry="1.4" fill="#4d545e"/>
              <g>
                <path d="M241.323,247.324c0-.914-4.128-1.654-5.042-1.654a1.655,1.655,0,1,0,0,3.309C237.2,248.979,241.323,248.238,241.323,247.324Z" fill="#fff9f0"/>
                <g>
                  <path d="M231.4,246.552h2.653a0,0,0,0,1,0,0V248.1a0,0,0,0,1,0,0H232.88a1.482,1.482,0,0,1-1.482-1.482v-.062A0,0,0,0,1,231.4,246.552Z" fill="#fff9f0"/>
                  <path d="M243.379,246.552h1.171a0,0,0,0,1,0,0V248.1a0,0,0,0,1,0,0H241.9a0,0,0,0,1,0,0v-.062A1.482,1.482,0,0,1,243.379,246.552Z" transform="translate(486.448 494.648) rotate(-180)" fill="#fff9f0"/>
                </g>
              </g>
              <rect x="215.989" y="249.478" width="43.694" height="4.728" rx="1.027" ry="1.027" fill="#b7b7b7"/>
              <rect x="223.576" y="252.893" width="28.279" height="2.785" rx="1.393" ry="1.393" fill="#494949"/>
              <path d="M217.719,251.842h6.806a0,0,0,0,1,0,0v7.837a.877.877,0,0,1-.877.877H218.6a.877.877,0,0,1-.877-.877v-7.837A0,0,0,0,1,217.719,251.842Z" fill="#303030"/>
              <path d="M251.139,251.842h6.806a0,0,0,0,1,0,0v7.837a.877.877,0,0,1-.877.877h-5.053a.877.877,0,0,1-.877-.877v-7.837A0,0,0,0,1,251.139,251.842Z" fill="#303030"/>
              <path d="M251.528,252.773H222.64a2.477,2.477,0,0,1-2.421-3l2.061-9.491a2.475,2.475,0,0,1,2.42-1.951h24.767a2.475,2.475,0,0,1,2.42,1.951l2.061,9.491A2.476,2.476,0,0,1,251.528,252.773Z" opacity="0.5" fill="url(#linear-gradient-4)" style="mix-blend-mode: overlay"/>
              <path d="M256.158,238.818l-2.06-9.492a4.322,4.322,0,0,0-4.2-3.386H225.131a4.322,4.322,0,0,0-4.2,3.386l-2.06,9.492a4.3,4.3,0,0,0,4.2,5.209h28.888a4.3,4.3,0,0,0,4.2-5.209Zm-4.2,3.388H223.07a2.477,2.477,0,0,1-2.42-3l2.06-9.491a2.478,2.478,0,0,1,2.42-1.952H249.9a2.477,2.477,0,0,1,2.42,1.952l2.06,9.491A2.476,2.476,0,0,1,251.958,242.206Z" fill="#ff6161"/>
              <path d="M221.469,238.771h32.856a4.569,4.569,0,0,1,4.569,4.569v5.317a2.29,2.29,0,0,1-2.29,2.29H219.19a2.29,2.29,0,0,1-2.29-2.29V243.34A4.569,4.569,0,0,1,221.469,238.771Z" fill="#f42f2f"/>
              <g>
                <circle cx="224.065" cy="245.055" r="3.607" fill="#d31e1e"/>
                <circle cx="224.065" cy="245.055" r="2.269" fill="#fff9f0"/>
              </g>
              <g>
                <circle cx="251.854" cy="245.055" r="3.607" fill="#d31e1e"/>
                <circle cx="251.854" cy="245.055" r="2.269" fill="#fff9f0"/>
              </g>
              <path d="M233.977,250.752c0,.066,0,.13,0,.195h7.849c0-.065,0-.129,0-.195a11.9,11.9,0,0,1,10.4-11.8v-.426a1.764,1.764,0,0,0-1.764-1.764H225.34a1.764,1.764,0,0,0-1.764,1.764v.426A11.9,11.9,0,0,1,233.977,250.752Z" fill="#ff6161"/>
              <rect x="228.619" y="244.731" width="18.71" height="6.916" rx="1.4" ry="1.4" fill="#4d545e"/>
              <rect x="215.989" y="249.478" width="43.694" height="4.728" rx="1.027" ry="1.027" fill="#d31e1e"/>
              <line x1="230.334" y1="248.023" x2="245.643" y2="248.023" fill="none" stroke="#303030" stroke-linecap="round" stroke-miterlimit="10" stroke-width="0.813"/>
              <line x1="230.334" y1="246.397" x2="245.643" y2="246.397" fill="none" stroke="#303030" stroke-linecap="round" stroke-miterlimit="10" stroke-width="0.813"/>
            </g>
          </g>
        </g>
      </g>
      <path d="M716.606,200.437,377.334,288.925a17.083,17.083,0,0,0-8.159,28.2L588.866,551.8a44.944,44.944,0,0,0,32.811,14.229h99.24A17.083,17.083,0,0,0,738,548.945V216.967A17.083,17.083,0,0,0,716.606,200.437Z" fill="#45a7ff"/>
      <g>
        <g>
          <path d="M673.316,238.505a31.211,31.211,0,0,0-32.032,17.242h-4.315a16.106,16.106,0,0,0-16.105,16.1V282.9h20.288a31.207,31.207,0,1,0,32.164-44.393Z" fill="#704035"/>
          <path d="M581.238,481.317c.091.093.184.184.28.275a11.105,11.105,0,0,0,15.7-.431c67.778-71.6,44.6-107.332,41.736-111.17l-17.8,13.286a2.936,2.936,0,0,1-.266-.378c.153.248,14.638,25.483-39.8,82.993A11.106,11.106,0,0,0,581.238,481.317Z" fill="#eaafa9"/>
          <path d="M636.4,357.791h45.442a18.524,18.524,0,0,1,18.524,18.524v82.7a2.961,2.961,0,0,1-2.961,2.961H620.838a2.961,2.961,0,0,1-2.961-2.961v-82.7A18.524,18.524,0,0,1,636.4,357.791Z" fill="#ea5334"/>
          <g>
            <rect x="621.052" y="461.972" width="76.42" height="125.336" fill="#d8bf8b"/>
            <g>
              <path d="M621.176,484.865v-4.326a18.588,18.588,0,0,0,18.566-18.567h4.327A22.919,22.919,0,0,1,621.176,484.865Z" fill="#b59661"/>
              <path d="M697.349,484.865a22.919,22.919,0,0,1-22.893-22.893h4.326a18.588,18.588,0,0,0,18.567,18.567Z" fill="#b59661"/>
            </g>
            <rect x="657.099" y="487.144" width="4.326" height="100.164" fill="#b59661"/>
            <rect x="651.859" y="484.24" width="14.807" height="4.326" fill="#b59661"/>
          </g>
          <g>
            <path d="M611.262,587.323h45.819V607.45a3.037,3.037,0,0,1-3.037,3.037H610.835V587.334C610.978,587.331,611.117,587.323,611.262,587.323Z" fill="#75d353"/>
            <path d="M591.4,604.843c1.79-6.781,6.633-17.278,19.44-17.509v23.153H595.78A4.516,4.516,0,0,1,591.4,604.843Z" fill="#eaeaea"/>
            <rect x="588.288" y="605.479" width="71.159" height="5.992" rx="2.996" ry="2.996" transform="translate(1247.735 1216.95) rotate(180)" fill="#d8d8d8"/>
            <path d="M622.97,587.323H637.8a2.547,2.547,0,0,1,2.547,2.547v6.918a0,0,0,0,1,0,0H620.423a0,0,0,0,1,0,0v-6.918a2.547,2.547,0,0,1,2.547-2.547Z" transform="translate(1260.77 1184.11) rotate(-180)" fill="#f2f2f2"/>
          </g>
          <g>
            <path d="M707.247,587.323H661.429V607.45a3.036,3.036,0,0,0,3.036,3.037h43.209V587.334C707.531,587.331,707.392,587.323,707.247,587.323Z" fill="#75d353"/>
            <path d="M727.114,604.843c-1.79-6.781-6.632-17.278-19.44-17.509v23.153h15.055A4.516,4.516,0,0,0,727.114,604.843Z" fill="#eaeaea"/>
            <rect x="659.062" y="605.479" width="71.159" height="5.992" rx="2.996" ry="2.996" fill="#d8d8d8"/>
            <path d="M678.162,587.323h19.925a0,0,0,0,1,0,0v6.918a2.547,2.547,0,0,1-2.547,2.547H680.708a2.547,2.547,0,0,1-2.547-2.547v-6.918A0,0,0,0,1,678.162,587.323Z" fill="#f2f2f2"/>
          </g>
          <path d="M609.139,366.337H643.2a19.249,19.249,0,0,1,19.249,19.249v0A19.249,19.249,0,0,1,643.2,404.836H609.139a2.961,2.961,0,0,1-2.961-2.961V369.3A2.961,2.961,0,0,1,609.139,366.337Z" transform="translate(148.108 946.509) rotate(-80.376)" fill="#ea5334"/>
          <path d="M666.122,364.4h34.056a19.249,19.249,0,0,1,19.249,19.249v0A19.249,19.249,0,0,1,700.178,402.9H666.122a2.961,2.961,0,0,1-2.961-2.961V367.364a2.961,2.961,0,0,1,2.961-2.961Z" transform="translate(857.864 1156.523) rotate(-131.192)" fill="#ea5334"/>
          <path d="M650.1,350.305h19.211a0,0,0,0,1,0,0v15.452a9.606,9.606,0,0,1-9.606,9.606h0a9.606,9.606,0,0,1-9.606-9.606V350.305A0,0,0,0,1,650.1,350.305Z" fill="#eaafa9"/>
          <path d="M647.943,353.7l-7.992,21.534a2.962,2.962,0,0,0,3.419,3.922l16.414-3.648Z" fill="#f2f2f2"/>
          <path d="M671.507,353.7l7.859,21.559a2.962,2.962,0,0,1-3.425,3.9l-16.45-3.656Z" fill="#f2f2f2"/>
          <circle cx="699.954" cy="311.244" r="12.405" fill="#eaafa9"/>
          <circle cx="620.864" cy="311.244" r="12.405" fill="#eaafa9"/>
          <circle cx="659.872" cy="389.614" r="3.411" fill="#ffe9e9"/>
          <circle cx="659.872" cy="406.009" r="3.411" fill="#ffe9e9"/>
          <circle cx="659.872" cy="389.614" r="3.411" fill="#ffe9e9"/>
          <path d="M621.45,281.117v43.589a38.423,38.423,0,0,0,38.422,38.423h0A38.424,38.424,0,0,0,698.3,324.706V281.117Z" fill="#ffc1b0"/>
          <path d="M634.65,300.656a1.886,1.886,0,0,1-1.769-2.538,9.338,9.338,0,0,1,12-5.524,1.885,1.885,0,1,1-1.307,3.537,5.566,5.566,0,0,0-7.151,3.293A1.886,1.886,0,0,1,634.65,300.656Z" fill="#704035"/>
          <path d="M684.855,300.656a1.888,1.888,0,0,1-1.769-1.232,5.569,5.569,0,0,0-7.151-3.293,1.885,1.885,0,0,1-1.307-3.537,9.35,9.35,0,0,1,12,5.523,1.885,1.885,0,0,1-1.768,2.539Z" fill="#704035"/>
          <path d="M680.819,326.218h0a2.584,2.584,0,0,0-2.6-2.57H642.387a2.583,2.583,0,0,0-2.6,2.57h0a2.583,2.583,0,0,1-2.6,2.569h-16.33v2.063a38.517,38.517,0,0,0,38.716,38.315h0A38.517,38.517,0,0,0,698.3,330.85v-2.063h-14.88A2.582,2.582,0,0,1,680.819,326.218Z" fill="#704035"/>
          <g>
            <path d="M648.9,332.2h25.052a0,0,0,0,1,0,0v5.955a10.792,10.792,0,0,1-10.792,10.792H652.335a3.435,3.435,0,0,1-3.435-3.435V332.2A0,0,0,0,1,648.9,332.2Z" fill="#41352e"/>
            <rect x="648.396" y="332.075" width="26.06" height="6.448" fill="#e6e7e8"/>
            <path d="M672.541,343.537a7.065,7.065,0,0,0-12.14,4.919c0,.175.014.347.026.52h2.752A10.778,10.778,0,0,0,672.541,343.537Z" fill="#f76c66"/>
          </g>
          <path d="M664.818,321.067H656a2.088,2.088,0,1,1,0-4.176h8.818a2.088,2.088,0,0,1,0,4.176Z" fill="#dd8783"/>
          <rect x="620.934" y="276.696" width="6.386" height="55.38" fill="#704035"/>
          <rect x="691.909" y="276.696" width="6.386" height="55.38" fill="#704035"/>
          <g>
            <line x1="714.697" y1="427.027" x2="714.697" y2="373.012" fill="none" stroke="#eaafa9" stroke-linecap="round" stroke-miterlimit="10" stroke-width="20.655"/>
            <rect x="700.642" y="349.958" width="28.362" height="28.362" rx="5.971" ry="5.971" fill="#eaafa9"/>
            <line x1="709.953" y1="358.396" x2="709.953" y2="341.52" fill="none" stroke="#eaafa9" stroke-linecap="round" stroke-miterlimit="10" stroke-width="10.327"/>
            <line x1="729.528" y1="355.11" x2="712.652" y2="355.11" fill="none" stroke="#fccac8" stroke-linecap="round" stroke-miterlimit="10" stroke-width="10.327"/>
            <line x1="729.528" y1="365.42" x2="712.652" y2="365.42" fill="none" stroke="#fccac8" stroke-linecap="round" stroke-miterlimit="10" stroke-width="10.327"/>
            <line x1="729.528" y1="375.758" x2="712.652" y2="375.758" fill="none" stroke="#fccac8" stroke-linecap="round" stroke-miterlimit="10" stroke-width="10.327"/>
            <line x1="714.697" y1="427.027" x2="714.697" y2="373.012" fill="none" stroke="#eaafa9" stroke-linecap="round" stroke-miterlimit="10" stroke-width="20.655"/>
            <rect x="700.642" y="349.958" width="28.362" height="28.362" rx="5.971" ry="5.971" fill="#eaafa9"/>
            <line x1="709.953" y1="358.396" x2="709.953" y2="341.52" fill="none" stroke="#eaafa9" stroke-linecap="round" stroke-miterlimit="10" stroke-width="10.327"/>
            <line x1="729.528" y1="355.11" x2="712.652" y2="355.11" fill="none" stroke="#fccac8" stroke-linecap="round" stroke-miterlimit="10" stroke-width="10.327"/>
            <line x1="729.528" y1="365.42" x2="712.652" y2="365.42" fill="none" stroke="#fccac8" stroke-linecap="round" stroke-miterlimit="10" stroke-width="10.327"/>
            <line x1="729.528" y1="375.758" x2="712.652" y2="375.758" fill="none" stroke="#fccac8" stroke-linecap="round" stroke-miterlimit="10" stroke-width="10.327"/>
          </g>
          <path d="M580.724,456.745a4.416,4.416,0,0,0,2.614,1.288l10.034,1.247a4.442,4.442,0,0,0,1.1-8.816l-10.034-1.247a4.442,4.442,0,0,0-3.709,7.528Z" fill="#eaafa9"/>
        </g>
        <path d="M648.243,308.027a1.527,1.527,0,0,1-1.488-1.193,3.889,3.889,0,0,0-7.588,0,1.527,1.527,0,1,1-2.98-.671,6.943,6.943,0,0,1,13.548,0,1.528,1.528,0,0,1-1.156,1.825A1.544,1.544,0,0,1,648.243,308.027Z" fill="#dd8783"/>
        <path d="M681.614,308.027a1.529,1.529,0,0,1-1.489-1.193,3.888,3.888,0,0,0-7.587,0,1.527,1.527,0,1,1-2.98-.671,6.943,6.943,0,0,1,13.548,0,1.528,1.528,0,0,1-1.156,1.825A1.551,1.551,0,0,1,681.614,308.027Z" fill="#dd8783"/>
        <g>
          <path d="M565.309,332.049A34.042,34.042,0,0,0,586,387.054l.082.014a3.591,3.591,0,0,1,1.6,6.437,34.047,34.047,0,1,1-22.378-61.456Z" fill="#303030"/>
          <rect x="511.736" y="487.459" width="16.393" height="103.696" transform="translate(1039.962 1078.521) rotate(179.99)" fill="#d88e7d"/>
          <g>
            <path d="M493.274,590.573l38.752-.007v.21l0,16.813a2.569,2.569,0,0,1-2.568,2.569l-36.544.007,0-19.583C493.034,590.58,493.152,590.573,493.274,590.573Z" fill="#d31818"/>
            <path d="M476.474,605.394c1.513-5.736,5.607-14.614,16.439-14.812l0,19.583-12.734,0A3.819,3.819,0,0,1,476.474,605.394Z" fill="#eaeaea"/>
            <rect x="473.847" y="605.927" width="60.184" height="5.068" rx="2.534" ry="2.534" transform="translate(1007.988 1216.831) rotate(179.99)" fill="#bababa"/>
            <path d="M500.841,590.571h8.752a2.154,2.154,0,0,1,2.154,2.154v5.851a0,0,0,0,1,0,0h-13.06a0,0,0,0,1,0,0v-5.851A2.154,2.154,0,0,1,500.841,590.571Z" transform="translate(1010.542 1189.055) rotate(179.99)" fill="#d8d8d8"/>
          </g>
          <rect x="540.049" y="487.454" width="15.451" height="103.696" transform="translate(1095.648 1078.506) rotate(179.99)" fill="#eaa48f"/>
          <rect x="508.426" y="487.459" width="23.009" height="88.338" transform="translate(1039.957 1063.163) rotate(179.99)" fill="#156ece"/>
          <rect x="536.269" y="487.454" width="23.009" height="88.338" transform="translate(1095.643 1063.148) rotate(179.99)" fill="#156ece"/>
          <g>
            <path d="M520.513,590.568l36.356-.007a2.748,2.748,0,0,1,2.748,2.747v14.276a2.567,2.567,0,0,1-2.567,2.569l-36.545.007,0-19.583Z" fill="#f42f2f"/>
            <path d="M504.065,605.389c1.513-5.736,5.607-14.614,16.439-14.812l0,19.583-12.733,0A3.819,3.819,0,0,1,504.065,605.389Z" fill="#eaeaea"/>
            <rect x="501.438" y="605.922" width="60.184" height="5.068" rx="2.534" ry="2.534" transform="translate(1063.169 1216.815) rotate(179.99)" fill="#d8d8d8"/>
            <path d="M529.155,590.566h8.752a2.154,2.154,0,0,1,2.154,2.154v5.851a0,0,0,0,1,0,0H527a0,0,0,0,1,0,0V592.72A2.154,2.154,0,0,1,529.155,590.566Z" transform="matrix(-1, 0, 0, -1, 1067.17, 1189.039)" fill="#f2f2f2"/>
          </g>
          <rect x="508.418" y="487.457" width="50.852" height="14.616" transform="translate(1067.778 989.433) rotate(179.99)" fill="#156ece"/>
          <path d="M517.775,386.78l32.466-.006A16.433,16.433,0,0,1,566.676,403.2l-2.769,27.487c-2.129,21.138-1.331,33.469,2.371,54.389l.414,2.342a2.626,2.626,0,0,1-2.626,2.628l-60.076.011a2.627,2.627,0,0,1-2.627-2.627h0c4.272-22.459,5.186-36.427,2.712-59.154l-2.729-25.064A16.432,16.432,0,0,1,517.775,386.78Z" fill="#fec337"/>
          <path d="M534.008,375.37h0a8.266,8.266,0,0,1,8.266,8.266v13.3a0,0,0,0,1,0,0H525.742a0,0,0,0,1,0,0v-13.3A8.266,8.266,0,0,1,534.008,375.37Z" transform="translate(1068.086 772.207) rotate(179.99)" fill="#d88e7d"/>
          <g>
            <path d="M491.927,276.7h83.31a0,0,0,0,1,0,0v23.073a41.655,41.655,0,0,1-41.655,41.655h0a41.655,41.655,0,0,1-41.655-41.655V276.7a0,0,0,0,1,0,0Z" transform="translate(1067.22 618.022) rotate(179.99)" fill="#303030"/>
            <circle cx="569.599" cy="341.417" r="11.366" fill="#d88e7d"/>
            <circle cx="498.401" cy="341.43" r="11.366" fill="#d88e7d"/>
            <path d="M569.6,320.663l0,26.573a35.6,35.6,0,0,1-35.593,35.605h0a35.6,35.6,0,0,1-35.6-35.592l0-26.573,18.411-17.294Z" fill="#eaa48f"/>
            <g>
              <path d="M555.984,332.876a1.8,1.8,0,0,0,.567-3.5l-8.626-2.873a1.8,1.8,0,0,0-1.135,3.41l8.626,2.873A1.783,1.783,0,0,0,555.984,332.876Z" fill="#303030"/>
              <path d="M512.012,332.728a1.782,1.782,0,0,0,.568-.092l8.625-2.877a1.8,1.8,0,0,0-1.136-3.41l-8.625,2.877a1.8,1.8,0,0,0,.568,3.5Z" fill="#303030"/>
              <path d="M532.244,356.49H536.3a1.8,1.8,0,1,0,0-3.593h-3.844v-6.828a1.8,1.8,0,0,0-3.594,0l0,7.039A3.387,3.387,0,0,0,532.244,356.49Z" fill="#bc695b"/>
              <path d="M541.863,343.591a1.8,1.8,0,0,0,1.752-1.4,4.574,4.574,0,0,1,8.926,0,1.8,1.8,0,0,0,3.506-.788,8.168,8.168,0,0,0-15.938,0,1.8,1.8,0,0,0,1.754,2.191Z" fill="#bc695b"/>
              <path d="M513.759,343.6a1.8,1.8,0,0,0,1.751-1.4,4.574,4.574,0,0,1,8.926,0,1.8,1.8,0,0,0,3.506-.789,8.168,8.168,0,0,0-15.938,0,1.8,1.8,0,0,0,1.755,2.191Z" fill="#bc695b"/>
            </g>
            <g>
              <g>
                <path d="M523.4,361.729a2.008,2.008,0,0,0-2.013,2.306,12.827,12.827,0,0,0,25.236-.005,2.008,2.008,0,0,0-2.015-2.3Z" fill="#1a1a1a"/>
                <path d="M531.635,369.457c2.877.885,4.883,2.895,5.02,4.81a12.733,12.733,0,0,1-11.883-3.649C525.959,369.107,528.752,368.57,531.635,369.457Z" fill="#f76c66"/>
              </g>
              <path d="M523.4,361.667l21.208,0a1.99,1.99,0,0,1,2.015,2.275,12.471,12.471,0,0,1-.591,2.126l-24.053,0a12.425,12.425,0,0,1-.593-2.126A1.991,1.991,0,0,1,523.4,361.667Z" fill="#e6e7e8"/>
            </g>
          </g>
          <g>
            <path d="M576.712,476.6a3.509,3.509,0,0,0,2.108-.958l5.818-5.537A3.529,3.529,0,1,0,579.772,465l-5.818,5.538a3.528,3.528,0,0,0,2.758,6.069Z" fill="#eaa48f"/>
            <path d="M591.381,486.092c.1-.01.206-.021.31-.034a8.822,8.822,0,0,0,7.639-9.864c-9.872-77.7-43.5-81.445-47.3-81.616l-.8,17.625a2.379,2.379,0,0,1-.366-.027c.229.031,23.029,3.835,30.959,66.242A8.823,8.823,0,0,0,591.381,486.092Z" fill="#eaa48f"/>
            <path d="M537.437,391.641h27.054a15.291,15.291,0,0,1,15.291,15.291v0a15.291,15.291,0,0,1-15.291,15.291H537.437a2.353,2.353,0,0,1-2.353-2.353V393.993A2.353,2.353,0,0,1,537.437,391.641Z" transform="translate(681.009 1085.942) rotate(-136.444)" fill="#fec337"/>
          </g>
          <g>
            <path d="M452.967,326.571c-.1.032-.2.065-.295.1a8.822,8.822,0,0,0-5.283,11.3c26.724,73.621,60.35,69.881,64.1,69.212l-3.1-17.369a2.346,2.346,0,0,1,.363-.054c-.23.02-23.309,1.325-44.773-57.809A8.823,8.823,0,0,0,452.967,326.571Z" fill="#eaa48f"/>
            <path d="M483.5,381.031h27.054a15.291,15.291,0,0,1,15.291,15.291v0a15.291,15.291,0,0,1-15.291,15.291H483.5a2.353,2.353,0,0,1-2.353-2.353V383.383A2.353,2.353,0,0,1,483.5,381.031Z" transform="translate(274.437 -202.103) rotate(30.847)" fill="#fec337"/>
          </g>
          <rect x="514.551" y="386.777" width="38.916" height="16.327" rx="8.163" ry="8.163" transform="matrix(-1, 0, 0, -1, 1068.09, 789.784)" fill="#d88e7d"/>
          <path d="M516.784,291.056l58.077,22.525c-.087.385-.186.768-.312,1.147-3.377,10.209-19.519,14.05-36.054,8.581s-27.2-18.18-23.824-28.39A12.481,12.481,0,0,1,516.784,291.056Z" fill="#303030"/>
          <path d="M492.169,320.416l26.289-21.289c.158.145.311.3.456.456,3.9,4.347,1.353,12.991-5.687,19.306s-15.908,7.913-19.808,3.566A6.775,6.775,0,0,1,492.169,320.416Z" fill="#303030"/>
          <path d="M572.436,326.592h0a2.781,2.781,0,0,1,2.781,2.781v32.05a0,0,0,0,1,0,0h-5.562a0,0,0,0,1,0,0v-32.05A2.781,2.781,0,0,1,572.436,326.592Z" transform="translate(1144.935 687.911) rotate(179.99)" fill="#303030"/>
          <path d="M495.147,326.606h0a3.24,3.24,0,0,1,3.24,3.24v31.591a0,0,0,0,1,0,0h-6.48a0,0,0,0,1,0,0V329.846A3.24,3.24,0,0,1,495.147,326.606Z" transform="translate(990.357 687.954) rotate(179.99)" fill="#303030"/>
        </g>
        <path d="M464.821,343.273a3.509,3.509,0,0,0,2.108-.958l5.818-5.537a3.529,3.529,0,1,0-4.866-5.112l-5.818,5.538a3.528,3.528,0,0,0,2.758,6.069Z" fill="#eaa48f"/>
      </g>
    </g>
  </g>
</svg>
