<svg id="Layer_1" data-name="Layer 1" xmlns="http://www.w3.org/2000/svg" xmlns:xlink="http://www.w3.org/1999/xlink" viewBox="0 0 745 572">
  <defs>
    <clipPath id="clip-path">
      <rect x="444.433" y="-409.481" width="303.567" height="303.567" rx="24.72" ry="24.72" fill="none"/>
    </clipPath>
    <clipPath id="clip-path-2">
      <rect x="86" y="-307.5" width="335" height="202" rx="24.72" ry="24.72" fill="none"/>
    </clipPath>
    <clipPath id="clip-path-3">
      <rect x="42.792" y="5.162" width="333.734" height="328.734" rx="27.177" ry="27.177" fill="none"/>
    </clipPath>
    <clipPath id="clip-path-4">
      <rect x="399.933" y="261.019" width="303.567" height="303.567" rx="24.72" ry="24.72" fill="none"/>
    </clipPath>
    <clipPath id="clip-path-7">
      <rect x="43" y="362.5" width="335" height="202" rx="24.72" ry="24.72" fill="none"/>
    </clipPath>
    <clipPath id="clip-path-8">
      <rect x="401" y="6.5" width="303" height="229" rx="24.72" ry="24.72" fill="none"/>
    </clipPath>
  </defs>
  <title>groups</title>
  <g clip-path="url(#clip-path)">
    <g>
      <rect x="604.735" y="-77.121" width="20.506" height="149.73" fill="#aa5d52"/>
      <path d="M648.334,71.88l-48.474-.009v.264l0,21.031a3.212,3.212,0,0,0,3.212,3.213l45.714.009,0-24.5C648.635,71.889,648.488,71.88,648.334,71.88Z" fill="#d31818"/>
      <path d="M669.35,90.42c-1.893-7.175-7.014-18.281-20.564-18.528l0,24.5,15.928,0A4.778,4.778,0,0,0,669.35,90.42Z" fill="#eaeaea"/>
      <rect x="597.352" y="91.087" width="75.285" height="6.34" rx="3.17" ry="3.17" fill="#bababa"/>
      <path d="M625.226,71.877h16.337a0,0,0,0,1,0,0V79.2a2.694,2.694,0,0,1-2.694,2.694H627.921a2.694,2.694,0,0,1-2.694-2.694V71.877a0,0,0,0,1,0,0Z" fill="#d8d8d8"/>
      <rect x="570.495" y="-77.127" width="19.328" height="149.73" fill="#aa5d52"/>
      <rect x="600.599" y="-77.121" width="28.782" height="128.016" fill="#115fea"/>
      <rect x="565.77" y="-77.127" width="28.782" height="128.016" fill="#115fea"/>
      <path d="M614.261,71.874l-45.478-.008a3.436,3.436,0,0,0-3.437,3.435l0,6.577,0,11.282a3.213,3.213,0,0,0,3.212,3.213l45.714.008,0-24.5Z" fill="#f42f2f"/>
      <path d="M634.836,90.414c-1.892-7.175-7.013-18.281-20.563-18.528l0,24.5,15.928,0A4.777,4.777,0,0,0,634.836,90.414Z" fill="#eaeaea"/>
      <rect x="562.838" y="91.08" width="75.285" height="6.34" rx="3.17" ry="3.17" fill="#d8d8d8"/>
      <path d="M589.809,71.871h16.337a0,0,0,0,1,0,0V79.19a2.694,2.694,0,0,1-2.694,2.694H592.5a2.694,2.694,0,0,1-2.694-2.694V71.871A0,0,0,0,1,589.809,71.871Z" fill="#f2f2f2"/>
      <rect x="604.735" y="-77.121" width="20.506" height="149.73" fill="#aa5d52"/>
      <g>
        <path d="M648.334,71.88l-48.474-.009v.264l0,21.031a3.212,3.212,0,0,0,3.212,3.213l45.714.009,0-24.5C648.635,71.889,648.488,71.88,648.334,71.88Z" fill="#d31818"/>
        <path d="M669.35,90.42c-1.893-7.175-7.014-18.281-20.564-18.528l0,24.5,15.928,0A4.778,4.778,0,0,0,669.35,90.42Z" fill="#eaeaea"/>
        <rect x="597.352" y="91.087" width="75.285" height="6.34" rx="3.17" ry="3.17" fill="#bababa"/>
        <path d="M625.226,71.877h16.337a0,0,0,0,1,0,0V79.2a2.694,2.694,0,0,1-2.694,2.694H627.921a2.694,2.694,0,0,1-2.694-2.694V71.877a0,0,0,0,1,0,0Z" fill="#d8d8d8"/>
      </g>
      <rect x="570.495" y="-77.127" width="19.328" height="149.73" fill="#aa5d52"/>
      <rect x="600.599" y="-77.121" width="28.782" height="128.016" fill="#64bdff"/>
      <rect x="565.77" y="-77.127" width="28.782" height="128.016" fill="#64bdff"/>
      <g>
        <path d="M614.261,71.874l-45.478-.008a3.436,3.436,0,0,0-3.437,3.435l0,6.577,0,11.282a3.213,3.213,0,0,0,3.212,3.213l45.714.008,0-24.5Z" fill="#f42f2f"/>
        <path d="M634.836,90.414c-1.892-7.175-7.013-18.281-20.563-18.528l0,24.5,15.928,0A4.777,4.777,0,0,0,634.836,90.414Z" fill="#eaeaea"/>
        <rect x="562.838" y="91.08" width="75.285" height="6.34" rx="3.17" ry="3.17" fill="#d8d8d8"/>
        <path d="M589.809,71.871h16.337a0,0,0,0,1,0,0V79.19a2.694,2.694,0,0,1-2.694,2.694H592.5a2.694,2.694,0,0,1-2.694-2.694V71.871A0,0,0,0,1,589.809,71.871Z" fill="#f2f2f2"/>
      </g>
    </g>
  </g>
  <g clip-path="url(#clip-path-2)">
    <g>
      <rect x="40.361" y="-185.749" width="303.786" height="143.899" rx="10.185" ry="10.185" transform="translate(306.053 78.455) rotate(-90)" fill="#383838" opacity="0.2"/>
      <rect x="38.578" y="-206.886" width="303.786" height="157.562" rx="10.185" ry="10.185" transform="translate(318.577 62.367) rotate(-90)" fill="#816056"/>
    </g>
  </g>
  <g clip-path="url(#clip-path-3)">
    <rect x="41.063" y="2.568" width="462.559" height="350.932" fill="#ffab57"/>
  </g>
  <g clip-path="url(#clip-path-4)">
    <rect x="379.65" y="258.488" width="342.304" height="311.66" fill="#ffab57"/>
  </g>
  <rect x="401" y="6.5" width="303" height="229" rx="24.72" ry="24.72" fill="#ffab57"/>
  <rect x="42.667" y="362.5" width="335" height="202" rx="24.72" ry="24.72" fill="#ffab57"/>
  <g clip-path="url(#clip-path-3)">
    <g>
      <path d="M72.439,219.612H212.272a9.673,9.673,0,0,1,9.673,9.673v79a34.857,34.857,0,0,1-34.857,34.857H97.623a34.857,34.857,0,0,1-34.857-34.857v-79A9.673,9.673,0,0,1,72.439,219.612Z" fill="#383838" opacity="0.2"/>
      <path d="M261.769,101.986H401.6a9.673,9.673,0,0,1,9.673,9.673v79a34.857,34.857,0,0,1-34.857,34.857H286.953A34.857,34.857,0,0,1,252.1,190.658v-79A9.673,9.673,0,0,1,261.769,101.986Z" transform="translate(167.935 495.436) rotate(-90)" fill="#383838" opacity="0.2"/>
      <path d="M27.07,26.842H148.421A10.777,10.777,0,0,1,159.2,37.619v68.83A31.293,31.293,0,0,1,127.9,137.742H47.587a31.293,31.293,0,0,1-31.293-31.293V37.619A10.777,10.777,0,0,1,27.07,26.842Z" transform="translate(207.981 78.436) rotate(135)" fill="#383838" opacity="0.2"/>
      <path d="M126.444,198.665h0a15.308,15.308,0,0,1,15.308,15.308v25.781a0,0,0,0,1,0,0H111.136a0,0,0,0,1,0,0V213.973A15.308,15.308,0,0,1,126.444,198.665Z" transform="translate(-49.191 37.02) rotate(-13.973)" fill="#6b6b6b"/>
      <path d="M175.606,198.665h30.615a0,0,0,0,1,0,0v25.781a15.308,15.308,0,0,1-15.308,15.308h0a15.308,15.308,0,0,1-15.308-15.308V198.665A0,0,0,0,1,175.606,198.665Z" transform="translate(323.245 478.032) rotate(-166.027)" fill="#6b6b6b"/>
      <path d="M89.358,230.892H229.191a9.673,9.673,0,0,1,9.673,9.673v79a34.857,34.857,0,0,1-34.857,34.857H114.542a34.857,34.857,0,0,1-34.857-34.857v-79A9.673,9.673,0,0,1,89.358,230.892Z" fill="#383838"/>
      <path d="M119.531,212.953h31.6a0,0,0,0,1,0,0v56.855a15.8,15.8,0,0,1-15.8,15.8h0a15.8,15.8,0,0,1-15.8-15.8V212.953a0,0,0,0,1,0,0Z" transform="translate(313.354 470.106) rotate(169.622)" fill="#64bdff"/>
      <path d="M181.027,212.953h0a15.8,15.8,0,0,1,15.8,15.8v56.855a0,0,0,0,1,0,0h-31.6a0,0,0,0,1,0,0V228.754A15.8,15.8,0,0,1,181.027,212.953Z" transform="translate(47.867 -28.532) rotate(10.378)" fill="#64bdff"/>
      <path d="M97.1,345.743a98.277,98.277,0,0,0,122.7,0" fill="none" stroke="#515151" stroke-linecap="round" stroke-miterlimit="10" stroke-width="20.477"/>
      <path d="M111.189,277.562h93.683a0,0,0,0,1,0,0v26.849a32.843,32.843,0,0,1-32.843,32.843h-28a32.843,32.843,0,0,1-32.843-32.843V277.562A0,0,0,0,1,111.189,277.562Z" transform="translate(316.061 614.817) rotate(180)" fill="#ea5334"/>
      <path d="M194.924,214.554H215.65a0,0,0,0,1,0,0v77.517a10.363,10.363,0,0,1-10.363,10.363h0a10.363,10.363,0,0,1-10.363-10.363V214.554a0,0,0,0,1,0,0Z" transform="translate(410.574 516.988) rotate(180)" fill="#ffc1b0"/>
      <path d="M201.556,284.195h0A18.239,18.239,0,0,1,219.8,302.434v34.82a0,0,0,0,1,0,0H183.317a0,0,0,0,1,0,0v-34.82A18.239,18.239,0,0,1,201.556,284.195Z" transform="translate(403.112 621.449) rotate(180)" fill="#ea5334"/>
      <path d="M107.511,317.5V262.955a5.994,5.994,0,0,1,3-5.192l31.24-18.009" fill="none" stroke="#ffc1b0" stroke-linecap="round" stroke-miterlimit="10" stroke-width="20.141"/>
      <circle cx="158.445" cy="289.998" r="5.803" fill="#ffc1b0"/>
      <path d="M111.189,284.195h0a18.239,18.239,0,0,1,18.239,18.239v34.82a0,0,0,0,1,0,0H92.95a0,0,0,0,1,0,0v-34.82A18.239,18.239,0,0,1,111.189,284.195Z" transform="translate(222.378 621.449) rotate(180)" fill="#ea5334"/>
      <g>
        <path d="M194.509,321.38h6.218a0,0,0,0,1,0,0v12.436a0,0,0,0,1,0,0h-6.218a6.218,6.218,0,0,1-6.218-6.218v0A6.218,6.218,0,0,1,194.509,321.38Z" transform="translate(389.018 655.197) rotate(180)" fill="#ffc1b0"/>
        <path d="M122.381,321.38H128.6a0,0,0,0,1,0,0v12.436a0,0,0,0,1,0,0h-6.218a6.218,6.218,0,0,1-6.218-6.218v0a6.218,6.218,0,0,1,6.218-6.218Z" fill="#ffc1b0"/>
      </g>
      <path d="M137.429,362.553h0a84.811,84.811,0,0,0,42.033,0h0A19.455,19.455,0,0,0,194.1,343.706V325.647A35.65,35.65,0,0,0,158.445,290h0A35.65,35.65,0,0,0,122.8,325.647v18.059A19.455,19.455,0,0,0,137.429,362.553Z" fill="#8c423b"/>
      <path d="M180.114,297.347a35.486,35.486,0,0,1,7.348,21.668v18.058a19.454,19.454,0,0,1-14.633,18.847h0a84.811,84.811,0,0,1-42.033,0h0a19.373,19.373,0,0,1-5.2-2.19,19.421,19.421,0,0,0,11.833,8.823h0a84.811,84.811,0,0,0,42.033,0h0A19.455,19.455,0,0,0,194.1,343.706V325.647A35.584,35.584,0,0,0,180.114,297.347Z" fill="#a3514d"/>
      <line x1="132.127" y1="251.267" x2="143.846" y2="255.085" fill="none" stroke="#ffc1b0" stroke-linecap="round" stroke-miterlimit="10" stroke-width="6.632"/>
      <rect x="163.001" y="162.41" width="79.76" height="70.898" rx="5.41" ry="5.41" fill="#8c423b"/>
      <g>
        <g>
          <rect x="168.164" y="168.856" width="69.433" height="58.007" rx="1.577" ry="1.577" fill="#ffedd7"/>
          <path d="M202,168.856h34.3a1.295,1.295,0,0,1,1.295,1.295v55.418a1.295,1.295,0,0,1-1.295,1.295H202a0,0,0,0,1,0,0V168.856A0,0,0,0,1,202,168.856Z" fill="#f4d8ba"/>
        </g>
        <g>
          <rect x="207.715" y="177.718" width="17.578" height="3.516" rx="1.758" ry="1.758" fill="#b2937f"/>
          <rect x="207.715" y="184.749" width="17.578" height="3.516" rx="1.758" ry="1.758" fill="#b2937f"/>
          <rect x="207.715" y="191.78" width="17.578" height="3.516" rx="1.758" ry="1.758" fill="#b2937f"/>
          <rect x="207.715" y="200.569" width="23.73" height="3.516" rx="1.758" ry="1.758" fill="#b2937f"/>
          <rect x="207.715" y="207.601" width="23.73" height="3.516" rx="1.758" ry="1.758" fill="#b2937f"/>
          <rect x="207.715" y="214.632" width="19.336" height="3.516" rx="1.758" ry="1.758" fill="#b2937f"/>
          <rect x="174.317" y="177.718" width="17.578" height="3.516" rx="1.758" ry="1.758" fill="#b2937f"/>
          <rect x="174.317" y="184.749" width="17.578" height="3.516" rx="1.758" ry="1.758" fill="#b2937f"/>
          <rect x="174.317" y="191.78" width="17.578" height="3.516" rx="1.758" ry="1.758" fill="#b2937f"/>
          <rect x="174.317" y="200.569" width="23.73" height="3.516" rx="1.758" ry="1.758" fill="#b2937f"/>
          <rect x="174.317" y="207.601" width="23.73" height="3.516" rx="1.758" ry="1.758" fill="#b2937f"/>
          <rect x="174.317" y="214.632" width="19.336" height="3.516" rx="1.758" ry="1.758" fill="#b2937f"/>
        </g>
      </g>
      <line x1="208.112" y1="239.597" x2="217.231" y2="231.306" fill="none" stroke="#ffc1b0" stroke-linecap="round" stroke-miterlimit="10" stroke-width="6.632"/>
      <g>
        <path d="M273.074,154.354h0a15.308,15.308,0,0,1,15.308,15.308v25.781a0,0,0,0,1,0,0H257.766a0,0,0,0,1,0,0V169.661a15.308,15.308,0,0,1,15.308-15.308Z" transform="translate(169.291 482.124) rotate(-103.973)" fill="#303030"/>
        <path d="M257.766,112.442h30.615a0,0,0,0,1,0,0v25.781a15.308,15.308,0,0,1-15.308,15.308h0a15.308,15.308,0,0,1-15.308-15.308V112.442A0,0,0,0,1,257.766,112.442Z" transform="translate(468.065 -99.894) rotate(103.973)" fill="#303030"/>
        <path d="M274.567,97.358H395.918a10.777,10.777,0,0,1,10.777,10.777v68.83A31.293,31.293,0,0,1,375.4,208.258H295.083a31.293,31.293,0,0,1-31.293-31.293v-68.83A10.777,10.777,0,0,1,274.567,97.358Z" transform="translate(182.434 488.05) rotate(-90)" fill="#5b4bbc"/>
        <path d="M282.117,141.689h28.371a0,0,0,0,1,0,0v51.042A14.185,14.185,0,0,1,296.3,206.917h0a14.185,14.185,0,0,1-14.185-14.185V141.689a0,0,0,0,1,0,0Z" transform="translate(414.378 -148.551) rotate(79.622)" fill="#fec337"/>
        <path d="M296.3,100.665h0a14.185,14.185,0,0,1,14.185,14.185v51.042a0,0,0,0,1,0,0H282.117a0,0,0,0,1,0,0V114.85A14.185,14.185,0,0,1,296.3,100.665Z" transform="translate(111.828 400.725) rotate(-79.622)" fill="#fec337"/>
        <g>
          <path d="M360.488,201.485H305.943a5.994,5.994,0,0,1-5.192-3l-18.009-31.241" fill="none" stroke="#aa5d52" stroke-linecap="round" stroke-miterlimit="10" stroke-width="20.141"/>
          <line x1="294.255" y1="176.868" x2="298.073" y2="165.15" fill="none" stroke="#aa5d52" stroke-linecap="round" stroke-miterlimit="10" stroke-width="6.632"/>
        </g>
        <g>
          <path d="M360.488,108.834H305.943a5.994,5.994,0,0,0-5.192,3l-18.009,31.241" fill="none" stroke="#aa5d52" stroke-linecap="round" stroke-miterlimit="10" stroke-width="20.141"/>
          <line x1="294.255" y1="133.451" x2="298.073" y2="145.169" fill="none" stroke="#aa5d52" stroke-linecap="round" stroke-miterlimit="10" stroke-width="6.632"/>
        </g>
        <path d="M382.9,208.63a88.233,88.233,0,0,0,0-110.156" fill="none" stroke="#413991" stroke-linecap="round" stroke-miterlimit="10" stroke-width="18.384"/>
        <path d="M306.433,127.13h84.105a0,0,0,0,1,0,0v24.1a29.485,29.485,0,0,1-29.485,29.485H335.919a29.485,29.485,0,0,1-29.485-29.485v-24.1A0,0,0,0,1,306.433,127.13Z" transform="translate(502.41 -194.562) rotate(90)" fill="#947bff"/>
        <path d="M351.463,91.031h0a16.374,16.374,0,0,1,16.374,16.374v31.26a0,0,0,0,1,0,0H335.089a0,0,0,0,1,0,0v-31.26A16.374,16.374,0,0,1,351.463,91.031Z" transform="translate(466.312 -236.614) rotate(90)" fill="#947bff"/>
        <path d="M351.463,172.16h0a16.374,16.374,0,0,1,16.374,16.374v31.26a0,0,0,0,1,0,0H335.089a0,0,0,0,1,0,0v-31.26a16.374,16.374,0,0,1,16.374-16.374Z" transform="translate(547.44 -155.486) rotate(90)" fill="#947bff"/>
        <circle cx="332.856" cy="153.552" r="5.21" fill="#aa5d52"/>
        <g>
          <path d="M366.612,115.593h5.582a0,0,0,0,1,0,0v11.164a0,0,0,0,1,0,0h-5.582a5.582,5.582,0,0,1-5.582-5.582v0A5.582,5.582,0,0,1,366.612,115.593Z" transform="translate(487.787 -245.437) rotate(90)" fill="#8c463f"/>
          <path d="M366.612,180.347h5.582a0,0,0,0,1,0,0v11.164a0,0,0,0,1,0,0h-5.582a5.582,5.582,0,0,1-5.582-5.582v0A5.582,5.582,0,0,1,366.612,180.347Z" transform="translate(180.683 552.541) rotate(-90)" fill="#8c463f"/>
        </g>
        <circle cx="406.247" cy="153.059" r="21.753" fill="#303030"/>
        <path d="M397.993,172.42h0a76.127,76.127,0,0,0,0-37.736h0a17.466,17.466,0,0,0-16.92-13.137H364.861a32,32,0,0,0-32,32h0a32,32,0,0,0,32,32h16.212A17.465,17.465,0,0,0,397.993,172.42Z" fill="#303030"/>
        <path d="M339.453,134.1a31.855,31.855,0,0,1,19.453-6.6h16.212a17.466,17.466,0,0,1,16.921,13.137h0a76.147,76.147,0,0,1,0,37.735h0a17.408,17.408,0,0,1-1.967,4.669,17.439,17.439,0,0,0,7.921-10.623h0a76.127,76.127,0,0,0,0-37.736h0a17.466,17.466,0,0,0-16.92-13.137H364.861A31.947,31.947,0,0,0,339.453,134.1Z" fill="#383838"/>
      </g>
      <path d="M148.937,74.78h0a15.308,15.308,0,0,1,15.308,15.308v25.781a0,0,0,0,1,0,0H133.629a0,0,0,0,1,0,0V90.087A15.308,15.308,0,0,1,148.937,74.78Z" transform="translate(307.39 16.829) rotate(121.027)" fill="#5b4bbc"/>
      <path d="M103.994,104.416h30.615a0,0,0,0,1,0,0V130.2A15.308,15.308,0,0,1,119.3,145.5h0A15.308,15.308,0,0,1,103.994,130.2V104.416a0,0,0,0,1,0,0Z" transform="translate(-47.34 79.37) rotate(-31.027)" fill="#5b4bbc"/>
      <path d="M28.681,11.535H150.033a10.777,10.777,0,0,1,10.777,10.777v68.83a31.293,31.293,0,0,1-31.293,31.293H49.2A31.293,31.293,0,0,1,17.9,91.141V22.311A10.777,10.777,0,0,1,28.681,11.535Z" transform="translate(199.907 51.165) rotate(135)" fill="#ededed"/>
      <path d="M117.906,46.706h28.371a0,0,0,0,1,0,0V97.749a14.185,14.185,0,0,1-14.185,14.185h0a14.185,14.185,0,0,1-14.185-14.185V46.706a0,0,0,0,1,0,0Z" transform="translate(-8.232 142.954) rotate(-55.378)" fill="#383838"/>
      <path d="M103.083,75.715h0A14.185,14.185,0,0,1,117.268,89.9v51.042a0,0,0,0,1,0,0H88.9a0,0,0,0,1,0,0V89.9A14.185,14.185,0,0,1,103.083,75.715Z" transform="translate(249.46 138.907) rotate(145.378)" fill="#383838"/>
      <g>
        <path d="M105.926,14.713,144.5,53.282a5.993,5.993,0,0,1,1.55,5.793L136.689,93.9" fill="none" stroke="#ffc1b0" stroke-linecap="round" stroke-miterlimit="10" stroke-width="20.141"/>
        <line x1="135.353" y1="78.954" x2="124.367" y2="84.54" fill="none" stroke="#ffc1b0" stroke-linecap="round" stroke-miterlimit="10" stroke-width="6.632"/>
      </g>
      <g>
        <path d="M40.412,80.227,78.981,118.8a5.992,5.992,0,0,0,5.792,1.55l34.825-9.355" fill="none" stroke="#ffc1b0" stroke-linecap="round" stroke-miterlimit="10" stroke-width="20.141"/>
        <line x1="104.652" y1="109.655" x2="110.238" y2="98.669" fill="none" stroke="#ffc1b0" stroke-linecap="round" stroke-miterlimit="10" stroke-width="6.632"/>
      </g>
      <path d="M95.129-6.188A88.231,88.231,0,0,0,17.237,71.7" fill="none" stroke="#fff" stroke-linecap="round" stroke-miterlimit="10" stroke-width="18.384"/>
      <path d="M38.729,30.036h84.105a0,0,0,0,1,0,0v24.1A29.485,29.485,0,0,1,93.349,83.625H68.214A29.485,29.485,0,0,1,38.729,54.14v-24.1a0,0,0,0,1,0,0Z" transform="translate(-16.525 73.767) rotate(-45)" fill="#64bdff"/>
      <path d="M51.046,58.538h0A16.374,16.374,0,0,1,67.42,74.913v31.26a0,0,0,0,1,0,0H34.672a0,0,0,0,1,0,0V74.913A16.374,16.374,0,0,1,51.046,58.538Z" transform="translate(-43.283 60.216) rotate(-45)" fill="#64bdff"/>
      <path d="M108.412,1.172h0a16.374,16.374,0,0,1,16.374,16.374v31.26a0,0,0,0,1,0,0H92.038a0,0,0,0,1,0,0V17.547A16.374,16.374,0,0,1,108.412,1.172Z" transform="translate(14.083 83.978) rotate(-45)" fill="#64bdff"/>
      <circle cx="91.571" cy="68.146" r="5.21" fill="#ffc1b0"/>
      <g>
        <path d="M44.808,61.588H50.39a0,0,0,0,1,0,0V72.753a0,0,0,0,1,0,0H44.808a5.582,5.582,0,0,1-5.582-5.582v0a5.582,5.582,0,0,1,5.582-5.582Z" transform="translate(-34.373 51.358) rotate(-45)" fill="#ffc1b0"/>
        <path d="M90.6,15.8h5.582a0,0,0,0,1,0,0V26.965a0,0,0,0,1,0,0H90.6a5.582,5.582,0,0,1-5.582-5.582v0A5.582,5.582,0,0,1,90.6,15.8Z" transform="translate(169.776 -27.558) rotate(135)" fill="#ffc1b0"/>
      </g>
      <path d="M106.376,13.289A21.642,21.642,0,0,0,96.227,7.555,21.755,21.755,0,0,0,59.5-3.629,21.9,21.9,0,0,0,58.018-1.99,21.749,21.749,0,0,0,28.17,18.876a21.751,21.751,0,0,0-4.635,21.212A21.746,21.746,0,0,0,44.154,70.549c.272.3.552.6.844.9a21.752,21.752,0,0,0,22.278,5.249,21.661,21.661,0,0,0,6.758-2.348A21.774,21.774,0,0,0,95.419,64.88,21.775,21.775,0,0,0,107,43.4,21.751,21.751,0,0,0,106.376,13.289Z" fill="#606060"/>
      <path d="M106.376,13.289c-.273-.273-.556-.528-.84-.784a21.761,21.761,0,0,1-2.568,26.062A21.78,21.78,0,0,1,91.391,60.046a21.774,21.774,0,0,1-21.385,9.466,21.658,21.658,0,0,1-6.759,2.348A21.75,21.75,0,0,1,40.97,66.611c-.292-.292-.572-.592-.844-.9a21.691,21.691,0,0,1-15.22-5.544A21.758,21.758,0,0,0,44.154,70.549c.272.3.552.6.844.9a21.752,21.752,0,0,0,22.278,5.249,21.661,21.661,0,0,0,6.758-2.348A21.774,21.774,0,0,0,95.419,64.88,21.775,21.775,0,0,0,107,43.4,21.751,21.751,0,0,0,106.376,13.289Z" fill="#8c8c8c"/>
    </g>
  </g>
  <g clip-path="url(#clip-path-4)">
    <g>
      <g>
        <path d="M404.553,540.419a4,4,0,0,1-2.49-.867l-7.175-5.673a4.018,4.018,0,0,1,4.985-6.3l7.175,5.674a4.018,4.018,0,0,1-2.5,7.17Z" fill="#eaa48f"/>
        <circle cx="472.941" cy="409.195" r="18.467" fill="#704035"/>
        <circle cx="417.52" cy="409.195" r="18.467" fill="#704035"/>
        <path d="M492.32,546.516a10.007,10.007,0,0,1-6.635-2.506l-5.244-4.618a21.49,21.49,0,0,1-5.373-25.22l13.255-28.97a1.064,1.064,0,0,0-.13-1.1l-25.3-32.326a10.046,10.046,0,1,1,15.823-12.382l25.3,32.324a21.087,21.087,0,0,1,2.578,21.848l-13.255,28.969a1.519,1.519,0,0,0,.38,1.781l5.245,4.618a10.046,10.046,0,0,1-6.644,17.586Z" fill="#d88e7d"/>
        <path d="M448.72,437.318h30.809a17.414,17.414,0,0,1,17.414,17.414v0a17.414,17.414,0,0,1-17.414,17.414H448.72a2.679,2.679,0,0,1-2.679-2.679V440a2.679,2.679,0,0,1,2.679-2.679Z" transform="translate(467.24 1109.764) rotate(-133.591)" fill="#a63fef"/>
        <path d="M465.335,431.456H424.226a16.757,16.757,0,0,0-16.757,16.757l3.324,68.8-3.324,82.878a2.678,2.678,0,0,0,2.679,2.679h69.265a2.678,2.678,0,0,0,2.679-2.679l-4.031-82.878,4.031-68.8A16.757,16.757,0,0,0,465.335,431.456Z" fill="#a63fef"/>
        <path d="M437.481,420.447h16.141a0,0,0,0,1,0,0V433.43a8.071,8.071,0,0,1-8.071,8.071h0a8.071,8.071,0,0,1-8.071-8.071V420.447A0,0,0,0,1,437.481,420.447Z" fill="#d88e7d"/>
        <g>
          <path d="M445.954,324.1h0a40.672,40.672,0,0,1,40.672,40.672V387.3a0,0,0,0,1,0,0H405.282a0,0,0,0,1,0,0V364.774A40.672,40.672,0,0,1,445.954,324.1Z" fill="#704035"/>
          <circle cx="410.793" cy="387.301" r="11.098" fill="#d88e7d"/>
          <circle cx="480.31" cy="387.301" r="11.098" fill="#d88e7d"/>
          <path d="M410.793,355.7v37.281a34.759,34.759,0,0,0,34.759,34.758h0a34.758,34.758,0,0,0,34.758-34.758V355.7Z" fill="#eaa48f"/>
          <path d="M442.085,353.084H408c6.7,16.223,22.089,27.575,40.007,27.575V363.415a42.781,42.781,0,0,0,34.081,17.244V353.084Z" fill="#704035"/>
          <g>
            <path d="M424.085,378.959a1.754,1.754,0,0,1-.554-3.419l8.421-2.807a1.755,1.755,0,1,1,1.11,3.329l-8.422,2.807A1.733,1.733,0,0,1,424.085,378.959Z" fill="#704035"/>
            <path d="M467.018,378.808a1.724,1.724,0,0,1-.554-.091l-8.422-2.807a1.754,1.754,0,1,1,1.109-3.329l8.422,2.807a1.755,1.755,0,0,1-.555,3.42Z" fill="#704035"/>
            <path d="M447.268,402.012H443.31a1.755,1.755,0,0,1,0-3.509h3.753v-6.667a1.754,1.754,0,0,1,3.508,0v6.873A3.306,3.306,0,0,1,447.268,402.012Z" fill="#bc695b"/>
            <path d="M436.094,388.54a1.385,1.385,0,0,1-1.35-1.082,3.527,3.527,0,0,0-6.883,0,1.386,1.386,0,0,1-2.7-.608,6.3,6.3,0,0,1,12.29,0,1.387,1.387,0,0,1-1.353,1.69Z" fill="#bc695b"/>
            <path d="M465.553,388.54a1.385,1.385,0,0,1-1.35-1.082,3.527,3.527,0,0,0-6.883,0,1.386,1.386,0,0,1-2.7-.608,6.3,6.3,0,0,1,12.29,0,1.387,1.387,0,0,1-1.353,1.69Z" fill="#bc695b"/>
          </g>
          <g>
            <g>
              <path d="M455.906,407.126a1.96,1.96,0,0,1,1.966,2.251,12.524,12.524,0,0,1-24.64,0,1.959,1.959,0,0,1,1.966-2.251Z" fill="#1a1a1a"/>
              <path d="M447.866,414.672c-2.81.866-4.767,2.828-4.9,4.7a12.433,12.433,0,0,0,11.6-3.565C453.408,414.33,450.68,413.806,447.866,414.672Z" fill="#f76c66"/>
            </g>
            <path d="M455.906,407.065H435.2a1.942,1.942,0,0,0-1.966,2.221,12.045,12.045,0,0,0,.577,2.076h23.485a12.138,12.138,0,0,0,.578-2.076A1.943,1.943,0,0,0,455.906,407.065Z" fill="#e6e7e8"/>
          </g>
        </g>
        <rect x="421.289" y="486.457" width="48.57" height="4.019" fill="#760dd3"/>
        <path d="M374.888,527.353h30.967a.713.713,0,0,1,.713.713V574.81a.713.713,0,0,1-.713.713H374.888a4.486,4.486,0,0,1-4.486-4.486v-39.2A4.486,4.486,0,0,1,374.888,527.353Z" transform="translate(939.923 162.954) rotate(90)" fill="#1e140c"/>
        <rect x="396.017" y="542.561" width="4.951" height="17.754" rx="2.476" ry="2.476" fill="#4d4d4d"/>
        <path d="M388.491,548.157c-.118,0-.237,0-.355-.006a10.047,10.047,0,0,1-9.692-10.389c3.1-89.137,40.836-96.894,45.129-97.485l2.741,19.9a2.646,2.646,0,0,0,.412-.068c-.257.059-25.715,6.75-28.2,78.346A10.048,10.048,0,0,1,388.491,548.157Z" fill="#eaa48f"/>
        <path d="M395.963,437.437h30.809a17.414,17.414,0,0,1,17.414,17.414v0a17.414,17.414,0,0,1-17.414,17.414H395.963a2.679,2.679,0,0,1-2.679-2.679V440.116A2.679,2.679,0,0,1,395.963,437.437Z" transform="translate(-199.316 470.397) rotate(-48.808)" fill="#a63fef"/>
        <rect x="426.553" y="431.584" width="37.997" height="15.941" rx="7.971" ry="7.971" fill="#d88e7d"/>
        <circle cx="431.176" cy="387.112" r="11.255" fill="none" stroke="#ddd" stroke-miterlimit="10" stroke-width="3.779"/>
        <circle cx="460.761" cy="387.112" r="11.255" fill="none" stroke="#ddd" stroke-miterlimit="10" stroke-width="3.779"/>
        <line x1="442.432" y1="387.112" x2="449.506" y2="387.112" fill="none" stroke="#ddd" stroke-miterlimit="10" stroke-width="3.779"/>
      </g>
      <g>
        <circle cx="521.017" cy="426.513" r="17.89" fill="#303030"/>
        <g>
          <path d="M587.815,461.221l27.371,28.742a8.255,8.255,0,0,1,.192,11.177l-19.012,21.387a7.288,7.288,0,0,0-.793,8.606l2.845,4.716" fill="none" stroke="#aa5d52" stroke-linecap="round" stroke-miterlimit="10" stroke-width="19.329"/>
          <path d="M553.513,442.035h33.943a19.185,19.185,0,0,1,19.185,19.185v0a19.185,19.185,0,0,1-19.185,19.185H553.513a2.952,2.952,0,0,1-2.952-2.952V444.987a2.952,2.952,0,0,1,2.952-2.952Z" transform="translate(696.844 1191.648) rotate(-137.755)" fill="#f42f2f"/>
        </g>
        <path d="M592.255,616.467H505.028a6.443,6.443,0,0,1-6.444-6.443L504.2,534.88l-5.618-59.495a50.057,50.057,0,0,1,50.057-50.057h0A50.057,50.057,0,0,1,598.7,475.385l-4.449,59.5,4.449,75.144A6.442,6.442,0,0,1,592.255,616.467Z" fill="#f42f2f"/>
        <line x1="516.353" y1="492.759" x2="580.136" y2="492.759" fill="none" stroke="#c61414" stroke-miterlimit="10" stroke-width="5.155"/>
        <line x1="513.028" y1="566.533" x2="513.028" y2="601.326" fill="none" stroke="#c61414" stroke-miterlimit="10" stroke-width="4.457"/>
        <line x1="531.061" y1="566.533" x2="531.061" y2="601.326" fill="none" stroke="#c61414" stroke-miterlimit="10" stroke-width="4.457"/>
        <line x1="549.095" y1="566.533" x2="549.095" y2="601.326" fill="none" stroke="#c61414" stroke-miterlimit="10" stroke-width="4.457"/>
        <line x1="567.129" y1="566.533" x2="567.129" y2="601.326" fill="none" stroke="#c61414" stroke-miterlimit="10" stroke-width="4.457"/>
        <line x1="585.162" y1="566.533" x2="585.162" y2="601.326" fill="none" stroke="#c61414" stroke-miterlimit="10" stroke-width="4.457"/>
        <path d="M493.312,441.066h33.943a19.185,19.185,0,0,1,19.185,19.185v0a19.185,19.185,0,0,1-19.185,19.185H493.312a2.952,2.952,0,0,1-2.952-2.952V444.017a2.952,2.952,0,0,1,2.952-2.952Z" transform="translate(-174.787 468.063) rotate(-42.245)" fill="#f42f2f"/>
        <path d="M548.641,461.005c16.2,0,29.919-9.037,34.586-21.509-8.033-8.744-20.533-14.371-34.586-14.371h0c-14.052,0-26.552,5.627-34.585,14.371C518.723,451.968,532.44,461.005,548.641,461.005Z" fill="#aa5d52"/>
        <path d="M507.211,385.607v-17.03a41.4,41.4,0,0,1,41.395-41.395h0A41.4,41.4,0,0,1,590,368.577v17.03" fill="#303030"/>
        <circle cx="585.162" cy="389.212" r="11.314" fill="#9e5447"/>
        <circle cx="513.028" cy="389.212" r="11.314" fill="#9e5447"/>
        <path d="M509.107,395.589a4.905,4.905,0,1,0,4.9,4.905" fill="none" stroke="#fcc846" stroke-miterlimit="10" stroke-width="3.222"/>
        <path d="M587.735,395.589a4.905,4.905,0,1,1-4.9,4.905" fill="none" stroke="#fcc846" stroke-miterlimit="10" stroke-width="3.222"/>
        <path d="M532.007,407.387h32.9a0,0,0,0,1,0,0v26.461A16.449,16.449,0,0,1,548.456,450.3h0a16.449,16.449,0,0,1-16.449-16.449V407.387A0,0,0,0,1,532.007,407.387Z" fill="#9e5447"/>
        <path d="M519.83,363.495h57.2a6.443,6.443,0,0,1,6.443,6.443V399.4a35.043,35.043,0,0,1-35.043,35.043h0A35.043,35.043,0,0,1,513.387,399.4v-29.46A6.443,6.443,0,0,1,519.83,363.495Z" fill="#aa5d52"/>
        <path d="M554.021,403.476H541.745a1.9,1.9,0,0,1,0-3.809h12.276a1.9,1.9,0,0,1,0,3.809Z" fill="#683631"/>
        <circle cx="530.861" cy="388.092" r="3.555" fill="#303030"/>
        <circle cx="564.905" cy="388.092" r="3.555" fill="#303030"/>
        <path d="M521.869,380.409s3.837-3.46,10.875-1.963" fill="none" stroke="#303030" stroke-linecap="round" stroke-miterlimit="10" stroke-width="3.866"/>
        <path d="M570.757,380.073s-4.043-3.217-10.975-1.291" fill="none" stroke="#303030" stroke-linecap="round" stroke-miterlimit="10" stroke-width="3.866"/>
        <path d="M531.061,413.387a20.034,20.034,0,0,0,14.851,6.572" fill="none" stroke="#683631" stroke-linecap="round" stroke-miterlimit="10" stroke-width="3.866"/>
      </g>
      <rect x="663.073" y="542.883" width="16.198" height="118.276" fill="#d88e7d"/>
      <rect x="636.026" y="542.878" width="15.268" height="118.276" fill="#eaa48f"/>
      <rect x="659.806" y="542.883" width="22.736" height="101.124" fill="#115fea"/>
      <rect x="632.293" y="542.878" width="22.736" height="101.124" fill="#115fea"/>
      <line x1="682.549" y1="557.328" x2="632.3" y2="557.319" fill="#115fea"/>
      <rect x="632.3" y="542.885" width="50.251" height="16.899" fill="#115fea"/>
      <path d="M658.036,434.028h0a29.813,29.813,0,0,0-29.812,29.813l1.136,9.317a228.574,228.574,0,0,1,.742,48.335l-1.878,20.667a2.664,2.664,0,0,0,2.664,2.664h54.3a2.664,2.664,0,0,0,2.664-2.664l-1.887-21.838a228.55,228.55,0,0,1,.672-46l1.215-10.476A29.813,29.813,0,0,0,658.036,434.028Z" fill="#bcdd6b"/>
      <line x1="640.968" y1="480.719" x2="676.75" y2="480.719" fill="none" stroke="#79c43d" stroke-miterlimit="10" stroke-width="5.155"/>
      <g>
        <path d="M630.806,525.554a3.425,3.425,0,0,1-2.19-.546l-6.555-4.283a3.44,3.44,0,1,1,3.763-5.759l6.555,4.282a3.44,3.44,0,0,1-1.573,6.306Z" fill="#eaa48f"/>
        <g>
          <path d="M618.418,537.239c-.1.009-.2.017-.3.023a8.6,8.6,0,0,1-9.066-8.108c-4.251-76.234,27.326-85.765,30.94-86.6l3.875,16.758a2.363,2.363,0,0,0,.347-.091c-.215.07-21.4,7.743-17.988,68.975A8.6,8.6,0,0,1,618.418,537.239Z" fill="#eaa48f"/>
          <path d="M617.5,440.446h26.374a14.907,14.907,0,0,1,14.907,14.907v0a14.907,14.907,0,0,1-14.907,14.907H617.5a2.293,2.293,0,0,1-2.293-2.293V442.739A2.293,2.293,0,0,1,617.5,440.446Z" transform="translate(-105.861 702.891) rotate(-53.989)" fill="#bcdd6b"/>
        </g>
      </g>
      <path d="M618.574,381.71h5.29a0,0,0,0,1,0,0v30.48a2.645,2.645,0,0,1-2.645,2.645h0a2.645,2.645,0,0,1-2.645-2.645V381.71a0,0,0,0,1,0,0Z" fill="#303030"/>
      <path d="M691.642,381.724h6.163a0,0,0,0,1,0,0v30.044a3.082,3.082,0,0,1-3.082,3.082h0a3.082,3.082,0,0,1-3.082-3.082V381.724A0,0,0,0,1,691.642,381.724Z" fill="#303030"/>
      <path d="M683.126,383.575a32.375,32.375,0,0,0,30.023,47.143l.078,0a3.415,3.415,0,0,1,2.753,5.677,32.38,32.38,0,1,1-32.854-52.817Z" fill="#303030"/>
      <path d="M649.905,428.1h15.722a0,0,0,0,1,0,0v12.646a7.861,7.861,0,0,1-7.861,7.861h0a7.861,7.861,0,0,1-7.861-7.861V428.1A0,0,0,0,1,649.905,428.1Z" fill="#d88e7d"/>
      <g>
        <path d="M658.171,334.257h0a39.616,39.616,0,0,1,39.616,39.616v21.943a0,0,0,0,1,0,0H618.555a0,0,0,0,1,0,0V373.872A39.616,39.616,0,0,1,658.171,334.257Z" fill="#303030"/>
        <circle cx="623.918" cy="395.809" r="10.81" fill="#d88e7d"/>
        <circle cx="691.63" cy="395.821" r="10.81" fill="#d88e7d"/>
        <path d="M623.921,376.072l0,25.271a33.856,33.856,0,0,0,33.85,33.862h0a33.855,33.855,0,0,0,33.862-33.849l0-25.272-17.51-16.448Z" fill="#eaa48f"/>
        <g>
          <path d="M636.866,387.686a1.709,1.709,0,0,1-.539-3.331l8.2-2.732a1.709,1.709,0,0,1,1.08,3.243l-8.2,2.732A1.7,1.7,0,0,1,636.866,387.686Z" fill="#303030"/>
          <path d="M679.494,385.943a1.68,1.68,0,0,1-.537.1l-8.643.26a1.709,1.709,0,1,1-.1-3.416l8.643-.26a1.709,1.709,0,0,1,.64,3.312Z" fill="#303030"/>
          <path d="M659.443,408.3h-3.855a1.709,1.709,0,1,1,0-3.418h3.656v-6.494a1.709,1.709,0,1,1,3.417,0v6.695A3.219,3.219,0,0,1,659.443,408.3Z" fill="#bc695b"/>
        </g>
        <g>
          <g>
            <path d="M668.946,413.2a2.117,2.117,0,0,1,2.122,2.43,13.518,13.518,0,0,1-26.6,0A2.115,2.115,0,0,1,646.6,413.2Z" fill="#1a1a1a"/>
            <path d="M660.267,421.348c-3.033.933-5.146,3.051-5.291,5.069a13.413,13.413,0,0,0,12.523-3.845C666.248,420.979,663.3,420.413,660.267,421.348Z" fill="#f76c66"/>
          </g>
          <path d="M669.479,413.028l-23.417,0a2.2,2.2,0,0,0-2.224,2.511,13.725,13.725,0,0,0,.653,2.348l26.557,0a13.727,13.727,0,0,0,.654-2.348A2.2,2.2,0,0,0,669.479,413.028Z" fill="#e6e7e8"/>
        </g>
      </g>
      <path d="M674.146,347.914l-55.233,21.423c.082.366.177.73.3,1.09,3.212,9.709,18.564,13.363,34.289,8.161s25.87-17.29,22.658-27A11.86,11.86,0,0,0,674.146,347.914Z" fill="#303030"/>
      <path d="M697.556,375.837l-25-20.247c-.15.138-.3.281-.434.434-3.709,4.134-1.287,12.354,5.408,18.361s15.13,7.525,18.838,3.391A6.435,6.435,0,0,0,697.556,375.837Z" fill="#303030"/>
      <circle cx="619.547" cy="403.645" r="3.141" fill="#e8e8e8"/>
      <circle cx="696.462" cy="403.645" r="3.141" fill="#e8e8e8"/>
      <circle cx="676.75" cy="393.125" r="3.555" fill="#303030"/>
      <circle cx="647.436" cy="393.125" r="3.555" fill="#303030"/>
      <g>
        <path d="M404.553,540.419a4,4,0,0,1-2.49-.867l-7.175-5.673a4.018,4.018,0,0,1,4.985-6.3l7.175,5.674a4.018,4.018,0,0,1-2.5,7.17Z" fill="#eaa48f"/>
        <circle cx="472.941" cy="409.195" r="18.467" fill="#704035"/>
        <circle cx="417.52" cy="409.195" r="18.467" fill="#704035"/>
        <path d="M492.32,546.516a10.007,10.007,0,0,1-6.635-2.506l-5.244-4.618a21.49,21.49,0,0,1-5.373-25.22l13.255-28.97a1.064,1.064,0,0,0-.13-1.1l-25.3-32.326a10.046,10.046,0,1,1,15.823-12.382l25.3,32.324a21.087,21.087,0,0,1,2.578,21.848l-13.255,28.969a1.519,1.519,0,0,0,.38,1.781l5.245,4.618a10.046,10.046,0,0,1-6.644,17.586Z" fill="#d88e7d"/>
        <path d="M448.72,437.318h30.809a17.414,17.414,0,0,1,17.414,17.414v0a17.414,17.414,0,0,1-17.414,17.414H448.72a2.679,2.679,0,0,1-2.679-2.679V440a2.679,2.679,0,0,1,2.679-2.679Z" transform="translate(467.24 1109.764) rotate(-133.591)" fill="#a63fef"/>
        <path d="M465.335,431.456H424.226a16.757,16.757,0,0,0-16.757,16.757l3.324,68.8-3.324,82.878a2.678,2.678,0,0,0,2.679,2.679h69.265a2.678,2.678,0,0,0,2.679-2.679l-4.031-82.878,4.031-68.8A16.757,16.757,0,0,0,465.335,431.456Z" fill="#a63fef"/>
        <path d="M437.481,420.447h16.141a0,0,0,0,1,0,0V433.43a8.071,8.071,0,0,1-8.071,8.071h0a8.071,8.071,0,0,1-8.071-8.071V420.447A0,0,0,0,1,437.481,420.447Z" fill="#d88e7d"/>
        <g>
          <path d="M445.954,324.1h0a40.672,40.672,0,0,1,40.672,40.672V387.3a0,0,0,0,1,0,0H405.282a0,0,0,0,1,0,0V364.774A40.672,40.672,0,0,1,445.954,324.1Z" fill="#704035"/>
          <circle cx="410.793" cy="387.301" r="11.098" fill="#d88e7d"/>
          <circle cx="480.31" cy="387.301" r="11.098" fill="#d88e7d"/>
          <path d="M410.793,355.7v37.281a34.759,34.759,0,0,0,34.759,34.758h0a34.758,34.758,0,0,0,34.758-34.758V355.7Z" fill="#eaa48f"/>
          <path d="M442.085,353.084H408c6.7,16.223,22.089,27.575,40.007,27.575V363.415a42.781,42.781,0,0,0,34.081,17.244V353.084Z" fill="#704035"/>
          <g>
            <path d="M424.085,378.959a1.754,1.754,0,0,1-.554-3.419l8.421-2.807a1.755,1.755,0,1,1,1.11,3.329l-8.422,2.807A1.733,1.733,0,0,1,424.085,378.959Z" fill="#704035"/>
            <path d="M467.018,378.808a1.724,1.724,0,0,1-.554-.091l-8.422-2.807a1.754,1.754,0,1,1,1.109-3.329l8.422,2.807a1.755,1.755,0,0,1-.555,3.42Z" fill="#704035"/>
            <path d="M447.268,402.012H443.31a1.755,1.755,0,0,1,0-3.509h3.753v-6.667a1.754,1.754,0,0,1,3.508,0v6.873A3.306,3.306,0,0,1,447.268,402.012Z" fill="#bc695b"/>
            <path d="M436.094,388.54a1.385,1.385,0,0,1-1.35-1.082,3.527,3.527,0,0,0-6.883,0,1.386,1.386,0,0,1-2.7-.608,6.3,6.3,0,0,1,12.29,0,1.387,1.387,0,0,1-1.353,1.69Z" fill="#bc695b"/>
            <path d="M465.553,388.54a1.385,1.385,0,0,1-1.35-1.082,3.527,3.527,0,0,0-6.883,0,1.386,1.386,0,0,1-2.7-.608,6.3,6.3,0,0,1,12.29,0,1.387,1.387,0,0,1-1.353,1.69Z" fill="#bc695b"/>
          </g>
          <g>
            <g>
              <path d="M455.906,407.126a1.96,1.96,0,0,1,1.966,2.251,12.524,12.524,0,0,1-24.64,0,1.959,1.959,0,0,1,1.966-2.251Z" fill="#1a1a1a"/>
              <path d="M447.866,414.672c-2.81.866-4.767,2.828-4.9,4.7a12.433,12.433,0,0,0,11.6-3.565C453.408,414.33,450.68,413.806,447.866,414.672Z" fill="#f76c66"/>
            </g>
            <path d="M455.906,407.065H435.2a1.942,1.942,0,0,0-1.966,2.221,12.045,12.045,0,0,0,.577,2.076h23.485a12.138,12.138,0,0,0,.578-2.076A1.943,1.943,0,0,0,455.906,407.065Z" fill="#e6e7e8"/>
          </g>
        </g>
        <rect x="421.289" y="486.457" width="48.57" height="4.019" fill="#760dd3"/>
        <path d="M374.888,527.353h30.967a.713.713,0,0,1,.713.713V574.81a.713.713,0,0,1-.713.713H374.888a4.486,4.486,0,0,1-4.486-4.486v-39.2A4.486,4.486,0,0,1,374.888,527.353Z" transform="translate(939.923 162.954) rotate(90)" fill="#1e140c"/>
        <rect x="396.017" y="542.561" width="4.951" height="17.754" rx="2.476" ry="2.476" fill="#4d4d4d"/>
        <path d="M388.491,548.157c-.118,0-.237,0-.355-.006a10.047,10.047,0,0,1-9.692-10.389c3.1-89.137,40.836-96.894,45.129-97.485l2.741,19.9a2.646,2.646,0,0,0,.412-.068c-.257.059-25.715,6.75-28.2,78.346A10.048,10.048,0,0,1,388.491,548.157Z" fill="#eaa48f"/>
        <path d="M395.963,437.437h30.809a17.414,17.414,0,0,1,17.414,17.414v0a17.414,17.414,0,0,1-17.414,17.414H395.963a2.679,2.679,0,0,1-2.679-2.679V440.116A2.679,2.679,0,0,1,395.963,437.437Z" transform="translate(-199.316 470.397) rotate(-48.808)" fill="#a63fef"/>
        <rect x="426.553" y="431.584" width="37.997" height="15.941" rx="7.971" ry="7.971" fill="#d88e7d"/>
        <circle cx="431.176" cy="387.112" r="11.255" fill="none" stroke="#ddd" stroke-miterlimit="10" stroke-width="3.779"/>
        <circle cx="460.761" cy="387.112" r="11.255" fill="none" stroke="#ddd" stroke-miterlimit="10" stroke-width="3.779"/>
        <line x1="442.432" y1="387.112" x2="449.506" y2="387.112" fill="none" stroke="#ddd" stroke-miterlimit="10" stroke-width="3.779"/>
      </g>
      <rect x="663.073" y="542.883" width="16.198" height="118.276" fill="#d88e7d"/>
      <rect x="636.026" y="542.878" width="15.268" height="118.276" fill="#eaa48f"/>
      <rect x="659.806" y="542.883" width="22.736" height="101.124" fill="#115fea"/>
      <rect x="632.293" y="542.878" width="22.736" height="101.124" fill="#115fea"/>
      <line x1="682.549" y1="557.328" x2="632.3" y2="557.319" fill="#115fea"/>
      <rect x="632.3" y="542.885" width="50.251" height="16.899" fill="#115fea"/>
      <path d="M658.036,434.028h0a29.813,29.813,0,0,0-29.812,29.813l1.136,9.317a228.574,228.574,0,0,1,.742,48.335l-1.878,20.667a2.664,2.664,0,0,0,2.664,2.664h54.3a2.664,2.664,0,0,0,2.664-2.664l-1.887-21.838a228.55,228.55,0,0,1,.672-46l1.215-10.476A29.813,29.813,0,0,0,658.036,434.028Z" fill="#bcdd6b"/>
      <line x1="640.968" y1="480.719" x2="676.75" y2="480.719" fill="none" stroke="#79c43d" stroke-miterlimit="10" stroke-width="5.155"/>
      <g>
        <path d="M630.806,525.554a3.425,3.425,0,0,1-2.19-.546l-6.555-4.283a3.44,3.44,0,1,1,3.763-5.759l6.555,4.282a3.44,3.44,0,0,1-1.573,6.306Z" fill="#eaa48f"/>
        <g>
          <path d="M618.418,537.239c-.1.009-.2.017-.3.023a8.6,8.6,0,0,1-9.066-8.108c-4.251-76.234,27.326-85.765,30.94-86.6l3.875,16.758a2.363,2.363,0,0,0,.347-.091c-.215.07-21.4,7.743-17.988,68.975A8.6,8.6,0,0,1,618.418,537.239Z" fill="#eaa48f"/>
          <path d="M617.5,440.446h26.374a14.907,14.907,0,0,1,14.907,14.907v0a14.907,14.907,0,0,1-14.907,14.907H617.5a2.293,2.293,0,0,1-2.293-2.293V442.739A2.293,2.293,0,0,1,617.5,440.446Z" transform="translate(-105.861 702.891) rotate(-53.989)" fill="#bcdd6b"/>
        </g>
      </g>
      <g>
        <path d="M685.315,525.554a3.425,3.425,0,0,0,2.19-.546l6.555-4.283a3.44,3.44,0,1,0-3.763-5.759l-6.555,4.282a3.44,3.44,0,0,0,1.573,6.306Z" fill="#eaa48f"/>
        <g>
          <path d="M697.7,537.239c.1.009.2.017.3.023a8.6,8.6,0,0,0,9.065-8.108c4.251-76.234-27.326-85.765-30.94-86.6l-3.875,16.758a2.363,2.363,0,0,1-.347-.091c.215.07,21.4,7.743,17.988,68.975A8.6,8.6,0,0,0,697.7,537.239Z" fill="#eaa48f"/>
          <path d="M659.637,440.446h26.374a14.907,14.907,0,0,1,14.907,14.907v0a14.907,14.907,0,0,1-14.907,14.907H659.637a2.293,2.293,0,0,1-2.293-2.293V442.739a2.293,2.293,0,0,1,2.293-2.293Z" transform="translate(710.089 1272.424) rotate(-126.011)" fill="#bcdd6b"/>
        </g>
      </g>
      <path d="M618.574,381.71h5.29a0,0,0,0,1,0,0v30.48a2.645,2.645,0,0,1-2.645,2.645h0a2.645,2.645,0,0,1-2.645-2.645V381.71a0,0,0,0,1,0,0Z" fill="#303030"/>
      <path d="M691.642,381.724h6.163a0,0,0,0,1,0,0v30.044a3.082,3.082,0,0,1-3.082,3.082h0a3.082,3.082,0,0,1-3.082-3.082V381.724A0,0,0,0,1,691.642,381.724Z" fill="#303030"/>
      <path d="M649.905,428.1h15.722a0,0,0,0,1,0,0v12.646a7.861,7.861,0,0,1-7.861,7.861h0a7.861,7.861,0,0,1-7.861-7.861V428.1A0,0,0,0,1,649.905,428.1Z" fill="#d88e7d"/>
      <g>
        <path d="M658.171,334.257h0a39.616,39.616,0,0,1,39.616,39.616v21.943a0,0,0,0,1,0,0H618.555a0,0,0,0,1,0,0V373.872A39.616,39.616,0,0,1,658.171,334.257Z" fill="#303030"/>
        <circle cx="623.918" cy="395.809" r="10.81" fill="#d88e7d"/>
        <circle cx="691.63" cy="395.821" r="10.81" fill="#d88e7d"/>
        <path d="M623.921,376.072l0,25.271a33.856,33.856,0,0,0,33.85,33.862h0a33.855,33.855,0,0,0,33.862-33.849l0-25.272-17.51-16.448Z" fill="#eaa48f"/>
        <g>
          <path d="M633.452,386.4a1.709,1.709,0,0,1,.425-3.347l8.641-.3a1.709,1.709,0,1,1,.118,3.416l-8.641.3A1.684,1.684,0,0,1,633.452,386.4Z" fill="#303030"/>
          <path d="M675.513,386.62a1.709,1.709,0,0,0-.27-3.364l-8.618-.7a1.709,1.709,0,0,0-.276,3.407l8.619.7A1.7,1.7,0,0,0,675.513,386.62Z" fill="#303030"/>
          <path d="M659.443,408.3h-3.855a1.709,1.709,0,1,1,0-3.418h3.656v-6.494a1.709,1.709,0,1,1,3.417,0v6.695A3.219,3.219,0,0,1,659.443,408.3Z" fill="#bc695b"/>
        </g>
        <g>
          <g>
            <path d="M668.946,413.2a2.117,2.117,0,0,1,2.122,2.43,13.518,13.518,0,0,1-26.6,0A2.115,2.115,0,0,1,646.6,413.2Z" fill="#1a1a1a"/>
            <path d="M660.267,421.348c-3.033.933-5.146,3.051-5.291,5.069a13.413,13.413,0,0,0,12.523-3.845C666.248,420.979,663.3,420.413,660.267,421.348Z" fill="#f76c66"/>
          </g>
          <path d="M669.479,413.028l-23.417,0a2.2,2.2,0,0,0-2.224,2.511,13.725,13.725,0,0,0,.653,2.348l26.557,0a13.727,13.727,0,0,0,.654-2.348A2.2,2.2,0,0,0,669.479,413.028Z" fill="#e6e7e8"/>
        </g>
      </g>
      <path d="M674.146,347.914l-55.233,21.423c.082.366.177.73.3,1.09,3.212,9.709,18.564,13.363,34.289,8.161s25.87-17.29,22.658-27A11.86,11.86,0,0,0,674.146,347.914Z" fill="#303030"/>
      <path d="M697.556,375.837l-25-20.247c-.15.138-.3.281-.434.434-3.709,4.134-1.287,12.354,5.408,18.361s15.13,7.525,18.838,3.391A6.435,6.435,0,0,0,697.556,375.837Z" fill="#303030"/>
      <circle cx="619.547" cy="403.645" r="3.141" fill="#e8e8e8"/>
      <circle cx="696.462" cy="403.645" r="3.141" fill="#e8e8e8"/>
      <circle cx="667.711" cy="393.125" r="3.555" fill="#303030"/>
      <circle cx="638.397" cy="393.125" r="3.555" fill="#303030"/>
    </g>
  </g>
  <g clip-path="url(#clip-path-7)">
    <g>
      <g>
        <g>
          <g>
            <path d="M36.09,525.966a6.963,6.963,0,0,0,1.384-.183c60.179-14.136,60.358-40.839,60.181-43.838l-13.9.824a1.96,1.96,0,0,1-.009-.29c0,.183-1.117,18.393-49.454,29.748a6.963,6.963,0,0,0,1.8,13.739Z" fill="#af795f"/>
            <path d="M42.851,514.68a2.785,2.785,0,0,0,1.721-4.9l-4.825-4.112a2.785,2.785,0,0,0-3.613,4.24l4.825,4.112A2.779,2.779,0,0,0,42.851,514.68Z" fill="#af795f"/>
          </g>
          <path d="M86.634,460.514h43.429a1.857,1.857,0,0,1,1.857,1.857V524.88a11.614,11.614,0,0,1-11.614,11.614H96.392A11.614,11.614,0,0,1,84.777,524.88V462.371a1.857,1.857,0,0,1,1.857-1.857Z" transform="translate(216.606 997.028) rotate(-179.99)" fill="#f2f2f2"/>
          <rect x="87.848" y="536.495" width="40.916" height="82.347" transform="translate(216.507 1155.356) rotate(-179.99)" fill="#115fea"/>
          <rect x="106.948" y="552.277" width="2.713" height="66.564" fill="#0a408e"/>
          <rect x="103.668" y="550.457" width="9.284" height="2.713" fill="#0a408e"/>
          <path d="M77.1,466.619H98.449a12.069,12.069,0,0,1,12.069,12.069v0a12.069,12.069,0,0,1-12.069,12.069H77.1a1.857,1.857,0,0,1-1.857-1.857V468.476A1.857,1.857,0,0,1,77.1,466.619Z" transform="translate(-390.238 412.605) rotate(-71.231)" fill="#f2f2f2"/>
          <g>
            <path d="M125.826,544.235c.079.022.158.043.238.062a6.962,6.962,0,0,0,8.419-5.107c14.7-60.045-9.02-72.316-11.773-73.518l-5.571,12.763a1.814,1.814,0,0,1-.262-.124c.16.088,15.885,9.339,4.079,57.568A6.964,6.964,0,0,0,125.826,544.235Z" fill="#af795f"/>
            <path d="M107.415,465.064h21.353a12.069,12.069,0,0,1,12.069,12.069v0A12.069,12.069,0,0,1,128.768,489.2H107.415a1.857,1.857,0,0,1-1.857-1.857V466.921A1.857,1.857,0,0,1,107.415,465.064Z" transform="translate(-254.702 793.402) rotate(-115.449)" fill="#f2f2f2"/>
            <path d="M119.746,534.412a2.771,2.771,0,0,0,1.824-.11l5.854-2.435a2.785,2.785,0,0,0-2.141-5.143l-5.853,2.436a2.785,2.785,0,0,0,.316,5.252Z" fill="#af795f"/>
          </g>
          <path d="M128.741,547.318v-2.8a11.681,11.681,0,0,1-7.773-7.979h-2.8A14.381,14.381,0,0,0,128.741,547.318Z" fill="#0a408e"/>
          <path d="M98.443,536.58h-2.8a11.679,11.679,0,0,1-7.777,7.975v2.8A14.384,14.384,0,0,0,98.443,536.58Z" fill="#0a408e"/>
          <circle cx="83.979" cy="431.325" r="7.778" fill="#af795f"/>
          <circle cx="132.161" cy="431.333" r="7.778" fill="#af795f"/>
          <path d="M108.047,455.821h0a6.023,6.023,0,0,1,6.023,6.023v9.689a0,0,0,0,1,0,0H102.024a0,0,0,0,1,0,0v-9.689a6.023,6.023,0,0,1,6.023-6.023Z" transform="matrix(-1, 0, 0, -1, 216.009, 927.372)" fill="#af795f"/>
          <path d="M83.984,406.563l0,8.325v6.55l0,14.894a24.09,24.09,0,0,0,24.086,24.1h0a24.092,24.092,0,0,0,24.1-24.086l0-14.894,0-6.551v-8.324Z" fill="#c6886f"/>
          <g>
            <line x1="115.48" y1="437.322" x2="106.273" y2="437.321" fill="#eaafa9"/>
            <path d="M103.273,438.63h9.206a1.309,1.309,0,1,0,0-2.618h-9.207a1.309,1.309,0,1,0,0,2.618Z" fill="#895946"/>
          </g>
          <circle cx="121.874" cy="428.116" r="2.444" fill="#303030"/>
          <circle cx="98.471" cy="428.112" r="2.444" fill="#303030"/>
          <g>
            <g>
              <path d="M101.389,442.89a1.264,1.264,0,0,0-1.268,1.452,8.078,8.078,0,0,0,15.892,0,1.264,1.264,0,0,0-1.268-1.452Z" fill="#41352e"/>
              <path d="M106.574,447.758c1.812.559,3.074,1.825,3.16,3.031a8.016,8.016,0,0,1-7.482-2.3C103,447.537,104.759,447.2,106.574,447.758Z" fill="#f76c66"/>
            </g>
            <path d="M101.389,442.851l13.356,0a1.253,1.253,0,0,1,1.268,1.432,7.8,7.8,0,0,1-.373,1.339l-15.146,0a7.811,7.811,0,0,1-.373-1.338A1.253,1.253,0,0,1,101.389,442.851Z" fill="#e6e7e8"/>
          </g>
          <g>
            <path d="M123.723,424.736a1.182,1.182,0,0,0,1.109-1.591,5.854,5.854,0,0,0-7.52-3.465,1.182,1.182,0,1,0,.819,2.218,3.49,3.49,0,0,1,4.483,2.065A1.181,1.181,0,0,0,123.723,424.736Z" fill="#333"/>
            <path d="M92.244,424.731a1.183,1.183,0,0,0,1.109-.773,3.493,3.493,0,0,1,4.484-2.064,1.182,1.182,0,1,0,.82-2.217,5.861,5.861,0,0,0-7.521,3.461,1.183,1.183,0,0,0,1.108,1.593Z" fill="#333"/>
          </g>
          <ellipse cx="106.98" cy="396.924" rx="14.109" ry="24.327" transform="translate(-301.716 441.201) rotate(-81.099)" fill="#333"/>
          <circle cx="125.834" cy="403.401" r="9.644" fill="#333"/>
          <circle cx="87.894" cy="403.394" r="9.644" fill="#333"/>
          <path d="M81.781,400.262h4.993a0,0,0,0,1,0,0v27.8a2.5,2.5,0,0,1-2.5,2.5h0a2.5,2.5,0,0,1-2.5-2.5v-27.8a0,0,0,0,1,0,0Z" fill="#333"/>
          <path d="M128.593,399.6h4.993a0,0,0,0,1,0,0v28.465a2.5,2.5,0,0,1-2.5,2.5h0a2.5,2.5,0,0,1-2.5-2.5V399.6A0,0,0,0,1,128.593,399.6Z" fill="#333"/>
        </g>
        <path d="M359.408,538.081a6.966,6.966,0,0,1-1.233-.655c-51.453-34.278-42.289-59.365-41.075-62.112l12.739,5.63a1.849,1.849,0,0,0,.11-.268c-.059.173-5.381,17.626,35.947,45.159a6.964,6.964,0,0,1-6.488,12.246Z" fill="#eaafa9"/>
        <path d="M304.029,464.485h21.356a12.071,12.071,0,0,1,12.071,12.071v0a12.071,12.071,0,0,1-12.071,12.071H304.029a1.857,1.857,0,0,1-1.857-1.857V466.342A1.857,1.857,0,0,1,304.029,464.485Z" transform="translate(-28.495 932.699) rotate(-108.769)" fill="#fd7700"/>
        <path d="M304.029,464.485h21.356a12.071,12.071,0,0,1,12.071,12.071v0a12.071,12.071,0,0,1-12.071,12.071H304.029a1.857,1.857,0,0,1-1.857-1.857V466.342A1.857,1.857,0,0,1,304.029,464.485Z" transform="translate(-28.495 932.699) rotate(-108.769)" fill="#303030"/>
        <g>
          <g>
            <path d="M212.944,370.686a20.793,20.793,0,0,0-21.338,11.486h-2.874A10.729,10.729,0,0,0,178,392.9v7.357h13.515a20.788,20.788,0,1,0,21.426-29.572Z" fill="#704035"/>
            <path d="M151.606,532.435c.061.062.123.122.187.183a7.4,7.4,0,0,0,10.458-.287c45.15-47.7,29.711-71.5,27.8-74.056L178.2,467.126a1.983,1.983,0,0,1-.177-.252c.1.165,9.751,16.975-26.514,55.286A7.4,7.4,0,0,0,151.606,532.435Z" fill="#eaafa9"/>
            <path d="M188.353,450.148h30.271a12.339,12.339,0,0,1,12.339,12.339V528.9a1.973,1.973,0,0,1-1.973,1.973h-51a1.973,1.973,0,0,1-1.973-1.973V462.488A12.339,12.339,0,0,1,188.353,450.148Z" fill="#f42f2f"/>
            <g>
              <rect x="178.129" y="530.873" width="50.907" height="87.489" fill="#d8bf8b"/>
              <g>
                <path d="M178.211,546.123V543.24a12.382,12.382,0,0,0,12.368-12.368h2.882A15.267,15.267,0,0,1,178.211,546.123Z" fill="#b59661"/>
                <path d="M228.953,546.123a15.267,15.267,0,0,1-15.25-15.251h2.882a12.382,12.382,0,0,0,12.368,12.368Z" fill="#b59661"/>
              </g>
              <rect x="202.141" y="547.641" width="2.882" height="70.72" fill="#b59661"/>
              <rect x="198.65" y="545.706" width="9.864" height="2.882" fill="#b59661"/>
            </g>
            <path d="M170.193,455.841h22.686A12.823,12.823,0,0,1,205.7,468.664v0a12.823,12.823,0,0,1-12.823,12.823H170.193a1.973,1.973,0,0,1-1.973-1.973v-21.7a1.973,1.973,0,0,1,1.973-1.973Z" transform="translate(-306.363 574.643) rotate(-80.376)" fill="#f42f2f"/>
            <path d="M208.151,454.553h22.686a12.823,12.823,0,0,1,12.823,12.823v0A12.823,12.823,0,0,1,230.838,480.2H208.151a1.973,1.973,0,0,1-1.973-1.973v-21.7a1.973,1.973,0,0,1,1.973-1.973Z" transform="translate(21.342 944.434) rotate(-131.192)" fill="#f42f2f"/>
            <path d="M197.481,445.162h12.8a0,0,0,0,1,0,0v10.294a6.4,6.4,0,0,1-6.4,6.4h0a6.4,6.4,0,0,1-6.4-6.4V445.162A0,0,0,0,1,197.481,445.162Z" fill="#eaafa9"/>
            <path d="M196.042,447.425l-5.324,14.345A1.972,1.972,0,0,0,193,464.382l10.934-2.43Z" fill="#f2f2f2"/>
            <path d="M211.739,447.425l5.235,14.361a1.973,1.973,0,0,1-2.281,2.6l-10.959-2.436Z" fill="#f2f2f2"/>
            <circle cx="230.688" cy="419.141" r="8.263" fill="#eaafa9"/>
            <circle cx="178.003" cy="419.141" r="8.263" fill="#eaafa9"/>
            <circle cx="203.989" cy="471.347" r="2.272" fill="#ffe9e9"/>
            <circle cx="203.989" cy="482.268" r="2.272" fill="#ffe9e9"/>
            <circle cx="203.989" cy="471.347" r="2.272" fill="#ffe9e9"/>
            <path d="M178.394,399.072v29.037a25.6,25.6,0,0,0,25.6,25.6h0a25.594,25.594,0,0,0,25.594-25.6V399.072Z" fill="#ffc1b0"/>
            <path d="M187.187,412.088a1.256,1.256,0,0,1-1.178-1.691,6.219,6.219,0,0,1,7.99-3.679,1.256,1.256,0,0,1-.871,2.356,3.707,3.707,0,0,0-4.763,2.193A1.258,1.258,0,0,1,187.187,412.088Z" fill="#704035"/>
            <path d="M220.63,412.088a1.258,1.258,0,0,1-1.178-.82,3.709,3.709,0,0,0-4.763-2.194,1.256,1.256,0,1,1-.871-2.356,6.228,6.228,0,0,1,7.991,3.679,1.256,1.256,0,0,1-1.179,1.691Z" fill="#704035"/>
            <path d="M217.942,429.116h0a1.722,1.722,0,0,0-1.73-1.712H192.34a1.721,1.721,0,0,0-1.729,1.712h0a1.72,1.72,0,0,1-1.729,1.711H178V432.2a25.658,25.658,0,0,0,25.79,25.523h0a25.657,25.657,0,0,0,25.79-25.523v-1.375h-9.912A1.72,1.72,0,0,1,217.942,429.116Z" fill="#704035"/>
            <g>
              <path d="M196.679,433.1h16.689a0,0,0,0,1,0,0v3.967a7.189,7.189,0,0,1-7.189,7.189h-7.211a2.288,2.288,0,0,1-2.288-2.288V433.1A0,0,0,0,1,196.679,433.1Z" fill="#41352e"/>
              <rect x="196.343" y="433.018" width="17.36" height="4.296" fill="#e6e7e8"/>
              <path d="M212.428,440.653a4.706,4.706,0,0,0-8.087,3.277c0,.117.009.231.017.346h1.833A7.182,7.182,0,0,0,212.428,440.653Z" fill="#f76c66"/>
            </g>
            <path d="M207.283,425.684h-5.874a1.391,1.391,0,1,1,0-2.781h5.874a1.391,1.391,0,1,1,0,2.781Z" fill="#dd8783"/>
            <rect x="178.05" y="396.127" width="4.254" height="36.891" fill="#704035"/>
            <rect x="225.329" y="396.127" width="4.254" height="36.891" fill="#704035"/>
            <g>
              <line x1="240.51" y1="496.269" x2="240.51" y2="460.288" fill="none" stroke="#eaafa9" stroke-linecap="round" stroke-miterlimit="10" stroke-width="13.759"/>
              <rect x="231.147" y="444.93" width="18.893" height="18.893" rx="3.977" ry="3.977" fill="#eaafa9"/>
              <line x1="237.35" y1="450.551" x2="237.35" y2="439.309" fill="none" stroke="#eaafa9" stroke-linecap="round" stroke-miterlimit="10" stroke-width="6.879"/>
              <line x1="250.389" y1="448.362" x2="239.147" y2="448.362" fill="none" stroke="#fccac8" stroke-linecap="round" stroke-miterlimit="10" stroke-width="6.879"/>
              <line x1="250.389" y1="455.231" x2="239.147" y2="455.231" fill="none" stroke="#fccac8" stroke-linecap="round" stroke-miterlimit="10" stroke-width="6.879"/>
              <line x1="250.389" y1="462.117" x2="239.147" y2="462.117" fill="none" stroke="#fccac8" stroke-linecap="round" stroke-miterlimit="10" stroke-width="6.879"/>
              <line x1="240.51" y1="496.269" x2="240.51" y2="460.288" fill="none" stroke="#eaafa9" stroke-linecap="round" stroke-miterlimit="10" stroke-width="13.759"/>
              <rect x="231.147" y="444.93" width="18.893" height="18.893" rx="3.977" ry="3.977" fill="#eaafa9"/>
              <line x1="237.35" y1="450.551" x2="237.35" y2="439.309" fill="none" stroke="#eaafa9" stroke-linecap="round" stroke-miterlimit="10" stroke-width="6.879"/>
              <line x1="250.389" y1="448.362" x2="239.147" y2="448.362" fill="none" stroke="#fccac8" stroke-linecap="round" stroke-miterlimit="10" stroke-width="6.879"/>
              <line x1="250.389" y1="455.231" x2="239.147" y2="455.231" fill="none" stroke="#fccac8" stroke-linecap="round" stroke-miterlimit="10" stroke-width="6.879"/>
              <line x1="250.389" y1="462.117" x2="239.147" y2="462.117" fill="none" stroke="#fccac8" stroke-linecap="round" stroke-miterlimit="10" stroke-width="6.879"/>
            </g>
            <path d="M151.264,516.066a2.943,2.943,0,0,0,1.741.858l6.684.831a2.959,2.959,0,0,0,.73-5.873l-6.684-.831a2.959,2.959,0,0,0-2.471,5.015Z" fill="#eaafa9"/>
          </g>
          <path d="M196.242,417a1.018,1.018,0,0,1-.992-.8,2.59,2.59,0,0,0-5.054,0,1.018,1.018,0,0,1-1.986-.446,4.625,4.625,0,0,1,9.025,0,1.018,1.018,0,0,1-.993,1.24Z" fill="#dd8783"/>
          <path d="M218.472,417a1.018,1.018,0,0,1-.992-.8,2.591,2.591,0,0,0-5.055,0,1.017,1.017,0,1,1-1.985-.446,4.625,4.625,0,0,1,9.025,0,1.019,1.019,0,0,1-.993,1.24Z" fill="#dd8783"/>
        </g>
        <g>
          <path d="M271.6,547.439a6.986,6.986,0,0,0,.867-1.095c33.377-52.041,14.918-71.343,12.7-73.373l-9.41,10.269a1.9,1.9,0,0,1-.208-.2c.123.134,12,13.986-14.809,55.787a6.965,6.965,0,0,0,10.857,8.614Z" fill="#eaafa9"/>
          <path d="M273.637,464.485h21.356a12.071,12.071,0,0,1,12.071,12.071v0a12.071,12.071,0,0,1-12.071,12.071H273.637a1.857,1.857,0,0,1-1.857-1.857V466.342a1.857,1.857,0,0,1,1.857-1.857Z" transform="translate(-254.915 597.249) rotate(-71.231)" fill="#fd7700"/>
          <path d="M291.25,459.03l27.239,0A11.616,11.616,0,0,1,330.1,470.652l-.011,59.792a4.583,4.583,0,0,1-4.584,4.582l-41.3-.007a4.583,4.583,0,0,1-4.583-4.583l.011-59.793A11.616,11.616,0,0,1,291.25,459.03Z" fill="#fd7700"/>
          <rect x="284.777" y="535.023" width="40.922" height="82.359" transform="translate(610.371 1152.46) rotate(-179.99)" fill="#bcdd6b"/>
          <rect x="303.88" y="550.808" width="2.713" height="66.574" fill="#79c43d"/>
          <rect x="300.6" y="548.987" width="9.285" height="2.713" fill="#79c43d"/>
          <path d="M325.676,545.847v-2.8a11.681,11.681,0,0,1-7.774-7.98h-2.8A14.385,14.385,0,0,0,325.676,545.847Z" fill="#79c43d"/>
          <path d="M295.373,535.108h-2.8a11.683,11.683,0,0,1-7.777,7.977v2.8A14.385,14.385,0,0,0,295.373,535.108Z" fill="#79c43d"/>
          <circle cx="281.458" cy="429.838" r="7.779" fill="#eaafa9"/>
          <circle cx="329.646" cy="429.847" r="7.779" fill="#eaafa9"/>
          <path d="M305.528,454.338h0a6.023,6.023,0,0,1,6.023,6.023v9.69a0,0,0,0,1,0,0H299.5a0,0,0,0,1,0,0v-9.69a6.023,6.023,0,0,1,6.023-6.023Z" transform="translate(610.973 924.444) rotate(-179.99)" fill="#eaafa9"/>
          <path d="M281.462,405.073v14.878l0,14.895a24.1,24.1,0,0,0,24.09,24.1h0a24.094,24.094,0,0,0,24.1-24.09l0-14.9V405.082Z" fill="#ffc1b0"/>
          <g>
            <line x1="307.962" y1="435.837" x2="302.754" y2="435.836" fill="#eaafa9"/>
            <path d="M302.754,437.145h5.208a1.31,1.31,0,0,0,0-2.619h-5.207a1.31,1.31,0,1,0,0,2.619Z" fill="#dd8783"/>
          </g>
          <g>
            <path d="M321.27,421.207a1.182,1.182,0,0,0,1.109-1.591,5.855,5.855,0,0,0-7.521-3.466,1.183,1.183,0,0,0,.819,2.219,3.489,3.489,0,0,1,4.484,2.065A1.183,1.183,0,0,0,321.27,421.207Z" fill="#8c423b"/>
            <path d="M289.787,421.2a1.184,1.184,0,0,0,1.109-.773,3.493,3.493,0,0,1,4.485-2.064,1.182,1.182,0,1,0,.82-2.218,5.864,5.864,0,0,0-7.523,3.462,1.184,1.184,0,0,0,1.109,1.593Z" fill="#8c423b"/>
          </g>
          <circle cx="292.082" cy="391.954" r="18.402" fill="#8c423b"/>
          <path d="M279.259,398.771h4.994a0,0,0,0,1,0,0v27.8a2.5,2.5,0,0,1-2.5,2.5h0a2.5,2.5,0,0,1-2.5-2.5v-27.8A0,0,0,0,1,279.259,398.771Z" fill="#8c423b"/>
          <path d="M326.077,398.111h4.994a0,0,0,0,1,0,0v28.468a2.5,2.5,0,0,1-2.5,2.5h0a2.5,2.5,0,0,1-2.5-2.5V398.111A0,0,0,0,1,326.077,398.111Z" fill="#8c423b"/>
          <g>
            <path d="M303.8,440.435h15.813a0,0,0,0,1,0,0v3.759a6.812,6.812,0,0,1-6.812,6.812h-6.832a2.168,2.168,0,0,1-2.168-2.168v-8.4A0,0,0,0,1,303.8,440.435Z" fill="#41352e"/>
            <rect x="303.482" y="440.356" width="16.449" height="4.07" fill="#e6e7e8"/>
            <path d="M318.723,447.591a4.46,4.46,0,0,0-7.663,3.105c0,.11.009.219.017.328h1.736A6.807,6.807,0,0,0,318.723,447.591Z" fill="#f76c66"/>
          </g>
          <path d="M298.658,429.076a1.053,1.053,0,0,1-1.026-.822,2.679,2.679,0,0,0-5.227,0,1.052,1.052,0,1,1-2.053-.462,4.783,4.783,0,0,1,9.333,0,1.052,1.052,0,0,1-.8,1.257A1.023,1.023,0,0,1,298.658,429.076Z" fill="#dd8783"/>
          <path d="M318,429.079a1.053,1.053,0,0,1-1.026-.822,2.678,2.678,0,0,0-5.226,0,1.052,1.052,0,1,1-2.053-.462,4.782,4.782,0,0,1,9.332,0,1.051,1.051,0,0,1-.8,1.257A1.017,1.017,0,0,1,318,429.079Z" fill="#dd8783"/>
          <path d="M320.863,385.282l-23.808-3.692v24.443h34.019V397.2A12.059,12.059,0,0,0,320.863,385.282Z" fill="#8c423b"/>
          <g>
            <rect x="249.282" y="531.168" width="25.435" height="31.74" rx="2.291" ry="2.291" transform="translate(-343.718 578.669) rotate(-67.398)" fill="#8c423b"/>
            <g>
              <rect x="259.65" y="537.516" width="4.698" height="19.044" rx="2.349" ry="2.349" transform="translate(-343.718 578.669) rotate(-67.398)" fill="#ffba31"/>
              <rect x="257.548" y="539.575" width="4.698" height="13.176" rx="2.349" ry="2.349" transform="translate(289.924 1150.265) rotate(-157.398)" fill="#ffba31"/>
            </g>
          </g>
          <path d="M271.155,531.26a2.785,2.785,0,0,0-5.052-1.222l-3.609,5.214a2.786,2.786,0,0,0,4.582,3.171l3.608-5.214A2.783,2.783,0,0,0,271.155,531.26Z" fill="#eaafa9"/>
          <path d="M271.6,547.439a6.986,6.986,0,0,0,.867-1.095c33.377-52.041,14.918-71.343,12.7-73.373l-9.41,10.269a1.9,1.9,0,0,1-.208-.2c.123.134,12,13.986-14.809,55.787a6.965,6.965,0,0,0,10.857,8.614Z" fill="#eaafa9"/>
          <path d="M273.637,464.485h21.356a12.071,12.071,0,0,1,12.071,12.071v0a12.071,12.071,0,0,1-12.071,12.071H273.637a1.857,1.857,0,0,1-1.857-1.857V466.342a1.857,1.857,0,0,1,1.857-1.857Z" transform="translate(-254.915 597.249) rotate(-71.231)" fill="#303030"/>
          <path d="M291.25,459.03l27.239,0A11.616,11.616,0,0,1,330.1,470.652l-.011,59.792a4.583,4.583,0,0,1-4.584,4.582l-41.3-.007a4.583,4.583,0,0,1-4.583-4.583l.011-59.793A11.616,11.616,0,0,1,291.25,459.03Z" fill="#303030"/>
          <rect x="284.777" y="535.023" width="40.922" height="82.359" transform="translate(610.371 1152.46) rotate(-179.99)" fill="#64bdff"/>
          <rect x="303.88" y="550.808" width="2.713" height="66.574" fill="#156ece"/>
          <rect x="300.6" y="548.987" width="9.285" height="2.713" fill="#156ece"/>
          <path d="M325.676,545.847v-2.8a11.681,11.681,0,0,1-7.774-7.98h-2.8A14.385,14.385,0,0,0,325.676,545.847Z" fill="#156ece"/>
          <path d="M295.373,535.108h-2.8a11.683,11.683,0,0,1-7.777,7.977v2.8A14.385,14.385,0,0,0,295.373,535.108Z" fill="#156ece"/>
          <circle cx="281.458" cy="429.838" r="7.779" fill="#eaafa9"/>
          <circle cx="329.646" cy="429.847" r="7.779" fill="#eaafa9"/>
          <path d="M305.528,454.338h0a6.023,6.023,0,0,1,6.023,6.023v9.69a0,0,0,0,1,0,0H299.5a0,0,0,0,1,0,0v-9.69a6.023,6.023,0,0,1,6.023-6.023Z" transform="translate(610.973 924.444) rotate(-179.99)" fill="#eaafa9"/>
          <path d="M281.462,405.073v14.878l0,14.895a24.1,24.1,0,0,0,24.09,24.1h0a24.094,24.094,0,0,0,24.1-24.09l0-14.9V405.082Z" fill="#ffc1b0"/>
          <g>
            <line x1="307.962" y1="435.837" x2="302.754" y2="435.836" fill="#eaafa9"/>
            <path d="M302.754,437.145h5.208a1.31,1.31,0,0,0,0-2.619h-5.207a1.31,1.31,0,1,0,0,2.619Z" fill="#dd8783"/>
          </g>
          <g>
            <path d="M321.27,421.207a1.182,1.182,0,0,0,1.109-1.591,5.855,5.855,0,0,0-7.521-3.466,1.183,1.183,0,0,0,.819,2.219,3.489,3.489,0,0,1,4.484,2.065A1.183,1.183,0,0,0,321.27,421.207Z" fill="#8c423b"/>
            <path d="M289.787,421.2a1.184,1.184,0,0,0,1.109-.773,3.493,3.493,0,0,1,4.485-2.064,1.182,1.182,0,1,0,.82-2.218,5.864,5.864,0,0,0-7.523,3.462,1.184,1.184,0,0,0,1.109,1.593Z" fill="#8c423b"/>
          </g>
          <circle cx="292.082" cy="391.954" r="18.402" fill="#8c423b"/>
          <path d="M279.259,398.771h4.994a0,0,0,0,1,0,0v27.8a2.5,2.5,0,0,1-2.5,2.5h0a2.5,2.5,0,0,1-2.5-2.5v-27.8A0,0,0,0,1,279.259,398.771Z" fill="#8c423b"/>
          <path d="M326.077,398.111h4.994a0,0,0,0,1,0,0v28.468a2.5,2.5,0,0,1-2.5,2.5h0a2.5,2.5,0,0,1-2.5-2.5V398.111A0,0,0,0,1,326.077,398.111Z" fill="#8c423b"/>
          <g>
            <path d="M303.8,440.435h15.813a0,0,0,0,1,0,0v3.759a6.812,6.812,0,0,1-6.812,6.812h-6.832a2.168,2.168,0,0,1-2.168-2.168v-8.4A0,0,0,0,1,303.8,440.435Z" fill="#41352e"/>
            <rect x="303.482" y="440.356" width="16.449" height="4.07" fill="#e6e7e8"/>
            <path d="M318.723,447.591a4.46,4.46,0,0,0-7.663,3.105c0,.11.009.219.017.328h1.736A6.807,6.807,0,0,0,318.723,447.591Z" fill="#f76c66"/>
          </g>
          <path d="M298.658,429.076a1.053,1.053,0,0,1-1.026-.822,2.679,2.679,0,0,0-5.227,0,1.052,1.052,0,1,1-2.053-.462,4.783,4.783,0,0,1,9.333,0,1.052,1.052,0,0,1-.8,1.257A1.023,1.023,0,0,1,298.658,429.076Z" fill="#dd8783"/>
          <path d="M318,429.079a1.053,1.053,0,0,1-1.026-.822,2.678,2.678,0,0,0-5.226,0,1.052,1.052,0,1,1-2.053-.462,4.782,4.782,0,0,1,9.332,0,1.051,1.051,0,0,1-.8,1.257A1.017,1.017,0,0,1,318,429.079Z" fill="#dd8783"/>
          <path d="M320.863,385.282l-23.808-3.692v24.443h34.019V397.2A12.059,12.059,0,0,0,320.863,385.282Z" fill="#8c423b"/>
          <g>
            <rect x="249.282" y="531.168" width="25.435" height="31.74" rx="2.291" ry="2.291" transform="translate(-343.718 578.669) rotate(-67.398)" fill="#8c423b"/>
            <g>
              <rect x="259.65" y="537.516" width="4.698" height="19.044" rx="2.349" ry="2.349" transform="translate(-343.718 578.669) rotate(-67.398)" fill="#ffba31"/>
              <rect x="257.548" y="539.575" width="4.698" height="13.176" rx="2.349" ry="2.349" transform="translate(289.924 1150.265) rotate(-157.398)" fill="#ffba31"/>
            </g>
          </g>
          <path d="M271.155,531.26a2.785,2.785,0,0,0-5.052-1.222l-3.609,5.214a2.786,2.786,0,0,0,4.582,3.171l3.608-5.214A2.783,2.783,0,0,0,271.155,531.26Z" fill="#eaafa9"/>
        </g>
      </g>
      <path d="M353.548,522.621a2.945,2.945,0,0,0,1.934.166l6.529-1.654a2.959,2.959,0,1,0-1.454-5.736l-6.529,1.654a2.959,2.959,0,0,0-.48,5.57Z" fill="#eaafa9"/>
    </g>
  </g>
  <g clip-path="url(#clip-path-8)">
    <g>
      <rect x="443.058" y="55.375" width="261.529" height="123.882" rx="8.768" ry="8.768" fill="#383838" opacity="0.2"/>
      <path d="M489.424,153.177h139.1a0,0,0,0,1,0,0v77.485a30.459,30.459,0,0,1-30.459,30.459H519.883a30.459,30.459,0,0,1-30.459-30.459V153.177A0,0,0,0,1,489.424,153.177Z" fill="#383838" opacity="0.2"/>
      <path d="M515.5,155.35H654.6a0,0,0,0,1,0,0v77.485a30.459,30.459,0,0,1-30.459,30.459H545.964A30.459,30.459,0,0,1,515.5,232.835V155.35A0,0,0,0,1,515.5,155.35Z" fill="#383838"/>
      <path d="M550.323,139.675h27.615a0,0,0,0,1,0,0v49.682a13.807,13.807,0,0,1-13.807,13.807h0a13.807,13.807,0,0,1-13.807-13.807V139.675a0,0,0,0,1,0,0Z" transform="translate(1149.911 238.413) rotate(169.622)" fill="#64bdff"/>
      <path d="M604.061,139.675h0a13.807,13.807,0,0,1,13.807,13.807v49.682a0,0,0,0,1,0,0H590.253a0,0,0,0,1,0,0V153.483a13.807,13.807,0,0,1,13.807-13.807Z" transform="translate(40.761 -106.011) rotate(10.378)" fill="#64bdff"/>
      <rect x="455.374" y="47.959" width="261.529" height="135.645" rx="8.768" ry="8.768" fill="#d5dbde"/>
      <rect x="527.82" y="130.719" width="99.251" height="46.365" rx="4.989" ry="4.989" opacity="0.15"/>
      <path d="M530.718,255.712a85.88,85.88,0,0,0,107.22,0" fill="none" stroke="#515151" stroke-linecap="round" stroke-miterlimit="10" stroke-width="17.894"/>
      <path d="M543.034,196.133H624.9a0,0,0,0,1,0,0v23.461a28.7,28.7,0,0,1-28.7,28.7H571.733a28.7,28.7,0,0,1-28.7-28.7V196.133A0,0,0,0,1,543.034,196.133Z" transform="translate(1167.931 444.427) rotate(180)" fill="#ea5334"/>
      <rect x="533.616" y="126.372" width="99.251" height="46.365" rx="4.989" ry="4.989" fill="#edf6fd"/>
      <rect x="540.136" y="132.892" width="7.245" height="7.245" rx="0.733" ry="0.733" fill="#dfe8ef"/>
      <rect x="551.417" y="132.892" width="7.245" height="7.245" rx="0.733" ry="0.733" fill="#dfe8ef"/>
      <rect x="562.697" y="132.892" width="7.245" height="7.245" rx="0.733" ry="0.733" fill="#dfe8ef"/>
      <rect x="573.978" y="132.892" width="7.245" height="7.245" rx="0.733" ry="0.733" fill="#dfe8ef"/>
      <rect x="585.259" y="132.892" width="7.245" height="7.245" rx="0.733" ry="0.733" fill="#dfe8ef"/>
      <rect x="596.54" y="132.892" width="7.245" height="7.245" rx="0.733" ry="0.733" fill="#dfe8ef"/>
      <rect x="607.821" y="132.892" width="7.245" height="7.245" rx="0.733" ry="0.733" fill="#dfe8ef"/>
      <rect x="619.102" y="132.892" width="7.245" height="7.245" rx="0.733" ry="0.733" fill="#dfe8ef"/>
      <rect x="540.136" y="145.932" width="7.245" height="7.245" rx="0.733" ry="0.733" fill="#dfe8ef"/>
      <rect x="551.417" y="145.932" width="7.245" height="7.245" rx="0.733" ry="0.733" fill="#dfe8ef"/>
      <rect x="562.697" y="145.932" width="7.245" height="7.245" rx="0.733" ry="0.733" fill="#dfe8ef"/>
      <rect x="573.978" y="145.932" width="7.245" height="7.245" rx="0.733" ry="0.733" fill="#dfe8ef"/>
      <rect x="585.259" y="145.932" width="7.245" height="7.245" rx="0.733" ry="0.733" fill="#dfe8ef"/>
      <rect x="596.54" y="145.932" width="7.245" height="7.245" rx="0.733" ry="0.733" fill="#dfe8ef"/>
      <rect x="607.821" y="145.932" width="7.245" height="7.245" rx="0.733" ry="0.733" fill="#dfe8ef"/>
      <rect x="619.102" y="145.932" width="7.245" height="7.245" rx="0.733" ry="0.733" fill="#dfe8ef"/>
      <g>
        <rect x="540.136" y="158.973" width="7.245" height="7.245" rx="0.733" ry="0.733" fill="#dfe8ef"/>
        <rect x="551.417" y="158.973" width="7.245" height="7.245" rx="0.733" ry="0.733" fill="#dfe8ef"/>
        <rect x="562.594" y="158.973" width="41.294" height="7.245" rx="0.733" ry="0.733" fill="#dfe8ef"/>
        <rect x="607.821" y="158.973" width="7.245" height="7.245" rx="0.733" ry="0.733" fill="#dfe8ef"/>
        <rect x="619.102" y="158.973" width="7.245" height="7.245" rx="0.733" ry="0.733" fill="#dfe8ef"/>
      </g>
      <rect x="533.616" y="74.935" width="97.802" height="51.437" rx="3.818" ry="3.818" fill="#383838"/>
      <rect x="540.136" y="81.456" width="85.486" height="37.672" fill="#fff"/>
      <rect x="540.136" y="81.456" width="16.228" height="37.672" fill="#efefef"/>
      <rect x="609.117" y="83.172" width="16.468" height="35.895" fill="#efefef"/>
      <rect x="540.136" y="81.456" width="85.486" height="6.52" fill="#fc8738"/>
      <path d="M616.2,141.074h18.111a0,0,0,0,1,0,0v67.737a9.056,9.056,0,0,1-9.056,9.056h0a9.056,9.056,0,0,1-9.056-9.056V141.074a0,0,0,0,1,0,0Z" transform="translate(1250.519 358.941) rotate(180)" fill="#ffc1b0"/>
      <path d="M532.167,141.074h18.111a0,0,0,0,1,0,0v67.737a9.056,9.056,0,0,1-9.056,9.056h0a9.056,9.056,0,0,1-9.056-9.056V141.074a0,0,0,0,1,0,0Z" transform="translate(1082.445 358.941) rotate(-180)" fill="#ffc1b0"/>
      <path d="M622,201.929h0a15.938,15.938,0,0,1,15.938,15.938v30.427a0,0,0,0,1,0,0H606.061a0,0,0,0,1,0,0V217.867A15.938,15.938,0,0,1,622,201.929Z" transform="translate(1243.999 450.222) rotate(180)" fill="#ea5334"/>
      <path d="M543.034,201.929h0a15.938,15.938,0,0,1,15.938,15.938v30.427a0,0,0,0,1,0,0H527.1a0,0,0,0,1,0,0V217.867a15.938,15.938,0,0,1,15.938-15.938Z" transform="translate(1086.067 450.222) rotate(180)" fill="#ea5334"/>
      <circle cx="584.328" cy="207" r="5.071" fill="#ffc1b0"/>
      <g>
        <path d="M615.842,234.423h5.433a0,0,0,0,1,0,0V245.29a0,0,0,0,1,0,0h-5.433a5.433,5.433,0,0,1-5.433-5.433v0A5.433,5.433,0,0,1,615.842,234.423Z" transform="translate(1231.683 479.712) rotate(180)" fill="#ffc1b0"/>
        <path d="M552.814,234.423h5.433a0,0,0,0,1,0,0V245.29a0,0,0,0,1,0,0h-5.433a5.433,5.433,0,0,1-5.433-5.433v0A5.433,5.433,0,0,1,552.814,234.423Z" fill="#ffc1b0"/>
      </g>
      <path d="M565.963,270.4h0a74.111,74.111,0,0,0,36.73,0h0a17,17,0,0,0,12.786-16.47v-15.78A31.151,31.151,0,0,0,584.328,207h0a31.151,31.151,0,0,0-31.152,31.151v15.78A17,17,0,0,0,565.963,270.4Z" fill="#8c423b"/>
      <path d="M603.262,213.421a31,31,0,0,1,6.422,18.935v15.78A17,17,0,0,1,596.9,264.605h0a74.088,74.088,0,0,1-36.73,0h0a16.948,16.948,0,0,1-4.545-1.914,16.976,16.976,0,0,0,10.341,7.71h0a74.111,74.111,0,0,0,36.73,0h0a17,17,0,0,0,12.786-16.47v-15.78A31.092,31.092,0,0,0,603.262,213.421Z" fill="#a3514d"/>
      <line x1="545.569" y1="162.957" x2="553.538" y2="155.713" fill="none" stroke="#ffc1b0" stroke-linecap="round" stroke-miterlimit="10" stroke-width="5.796"/>
      <line x1="620.913" y1="162.957" x2="612.944" y2="155.713" fill="none" stroke="#ffc1b0" stroke-linecap="round" stroke-miterlimit="10" stroke-width="5.796"/>
      <g>
        <rect x="669.814" y="85.078" width="34.774" height="45.641" rx="1.832" ry="1.832" opacity="0.2"/>
        <rect x="674.885" y="80.731" width="34.774" height="45.641" rx="1.832" ry="1.832" fill="#816056"/>
        <rect x="685.027" y="95.22" width="14.489" height="5.071" fill="#a0776d"/>
      </g>
      <circle cx="498.201" cy="144.66" r="12.214" fill="#383838" opacity="0.2"/>
      <g>
        <path d="M513.237,133.984h6.921a2.036,2.036,0,0,1,2.036,2.036v0a2.036,2.036,0,0,1-2.036,2.036h-6.921a0,0,0,0,1,0,0v-4.071A0,0,0,0,1,513.237,133.984Z" transform="translate(-13.83 199.184) rotate(-21.497)" fill="#dfe8ef"/>
        <circle cx="502.793" cy="141.46" r="12.214" fill="#edf6fd"/>
        <circle cx="502.793" cy="141.46" r="8.957" fill="#816056"/>
      </g>
      <g>
        <circle cx="568.527" cy="99.4" r="5.489" fill="#fc8738"/>
        <g>
          <path d="M568.527,99.8h0a1.944,1.944,0,0,1,1.944,1.944v.748a0,0,0,0,1,0,0h-3.888a0,0,0,0,1,0,0v-.748A1.944,1.944,0,0,1,568.527,99.8Z" fill="#fff"/>
          <circle cx="568.527" cy="97.676" r="1.372" fill="#fff"/>
        </g>
      </g>
      <g>
        <circle cx="583.312" cy="99.4" r="5.489" fill="#fc8738"/>
        <g>
          <path d="M583.312,99.8h0a1.944,1.944,0,0,1,1.944,1.944v.748a0,0,0,0,1,0,0h-3.888a0,0,0,0,1,0,0v-.748A1.944,1.944,0,0,1,583.312,99.8Z" fill="#fff"/>
          <circle cx="583.312" cy="97.676" r="1.372" fill="#fff"/>
        </g>
      </g>
      <g>
        <circle cx="598.096" cy="99.4" r="5.489" fill="#fc8738"/>
        <g>
          <path d="M598.1,99.8h0a1.944,1.944,0,0,1,1.944,1.944v.748a0,0,0,0,1,0,0h-3.888a0,0,0,0,1,0,0v-.748A1.944,1.944,0,0,1,598.1,99.8Z" fill="#fff"/>
          <circle cx="598.096" cy="97.676" r="1.372" fill="#fff"/>
        </g>
      </g>
      <g>
        <circle cx="568.527" cy="114.888" r="5.489" fill="#fc8738"/>
        <g>
          <path d="M568.527,115.293h0a1.944,1.944,0,0,1,1.944,1.944v.748a0,0,0,0,1,0,0h-3.888a0,0,0,0,1,0,0v-.748A1.944,1.944,0,0,1,568.527,115.293Z" fill="#fff"/>
          <circle cx="568.527" cy="113.164" r="1.372" fill="#fff"/>
        </g>
      </g>
      <g>
        <circle cx="583.312" cy="114.888" r="5.489" fill="#fc8738"/>
        <g>
          <path d="M583.312,115.293h0a1.944,1.944,0,0,1,1.944,1.944v.748a0,0,0,0,1,0,0h-3.888a0,0,0,0,1,0,0v-.748A1.944,1.944,0,0,1,583.312,115.293Z" fill="#fff"/>
          <circle cx="583.312" cy="113.164" r="1.372" fill="#fff"/>
        </g>
      </g>
      <g>
        <circle cx="598.096" cy="114.888" r="5.489" fill="#fc8738"/>
        <g>
          <path d="M598.1,115.293h0a1.944,1.944,0,0,1,1.944,1.944v.748a0,0,0,0,1,0,0h-3.888a0,0,0,0,1,0,0v-.748A1.944,1.944,0,0,1,598.1,115.293Z" fill="#fff"/>
          <circle cx="598.096" cy="113.164" r="1.372" fill="#fff"/>
        </g>
      </g>
      <circle cx="480.03" cy="83.729" r="18.042" fill="#383838" opacity="0.2"/>
      <g>
        <circle cx="484.431" cy="80.036" r="18.821" fill="#edf6fd"/>
        <circle cx="484.431" cy="80.036" r="14.115" fill="#816056"/>
        <g>
          <path d="M485.283,79.414c-3.445-12.4-16.535-7.579-16.535-7.579s2.066-.689,4.822,4.823,8.957,4.822,8.957,4.822Z" fill="#75d85d"/>
          <path d="M482.688,77.328s-3.493.376-4.7-5.745-2.312-5.051-2.312-5.051,8.544-2.688,10.781,6.72S482.688,77.328,482.688,77.328Z" fill="#54c634"/>
          <path d="M487.034,82.518s3.475-.511,4.914,5.56,2.5,4.958,2.5,4.958-8.434,3.015-11.033-6.3S487.034,82.518,487.034,82.518Z" fill="#54c634"/>
          <path d="M488.072,76.23s1.3-3.262,7.276-1.458,5.545.324,5.545.324-1.627,8.807-10.987,6.377S488.072,76.23,488.072,76.23Z" fill="#54c634"/>
          <path d="M479.8,82.367s-.12,2.955-5.367,3.2-4.493,1.3-4.493,1.3-1.177-7.448,6.935-8.143S479.8,82.367,479.8,82.367Z" fill="#54c634"/>
          <path d="M482.527,77.347s0-5.512,4.822-7.579,4.134-6.2,4.134-6.2,4.823,2.755,4.134,8.267-6.89,6.89-8.957,7.579S482.527,77.347,482.527,77.347Z" fill="#75d85d"/>
          <path d="M482.056,81.823a7.289,7.289,0,0,0,6.766,5.361c5.549.256,7.118,3.323,7.118,3.323s2.339-13.579-9.788-12.173S482.056,81.823,482.056,81.823Z" fill="#75d85d"/>
          <path d="M480.253,76.658s-7.145,7.144-3.572,13.4,1.786,10.717,1.786,10.717,11.61-5.358,7.145-12.5-1.786-9.824-1.786-9.824Z" fill="#75d85d"/>
        </g>
      </g>
      <rect x="537.355" y="118.741" width="90.114" height="4.224" fill="#383838"/>
    </g>
  </g>
</svg>
