<?xml version="1.0" encoding="UTF-8"?>
<svg width="460px" height="426px" viewBox="0 0 460 426" version="1.1" xmlns="http://www.w3.org/2000/svg" xmlns:xlink="http://www.w3.org/1999/xlink">
    <!-- Generator: Sketch 50.2 (55047) - http://www.bohemiancoding.com/sketch -->
    <title>Hero Illy</title>
    <desc>Created with Sketch.</desc>
    <defs>
        <path d="M0.224458978,59.5103392 C0.224458978,92.2648201 26.7776081,118.817099 59.5312191,118.817099 C92.28657,118.817099 118.838849,92.2648201 118.838849,59.5103392 C118.838849,26.7549882 92.28657,0.202709077 59.5312191,0.202709077 C26.7776081,0.202709077 0.224458978,26.7549882 0.224458978,59.5103392" id="path-1"></path>
        <path d="M0.224458978,59.5103392 C0.224458978,92.2648201 26.7776081,118.817099 59.5312191,118.817099 C92.28657,118.817099 118.838849,92.2648201 118.838849,59.5103392 C118.838849,26.7549882 92.28657,0.202709077 59.5312191,0.202709077 C26.7776081,0.202709077 0.224458978,26.7549882 0.224458978,59.5103392" id="path-3"></path>
        <path d="M0.224458978,59.5103392 C0.224458978,92.2648201 26.7776081,118.817099 59.5312191,118.817099 C92.28657,118.817099 118.838849,92.2648201 118.838849,59.5103392 C118.838849,26.7549882 92.28657,0.202709077 59.5312191,0.202709077 C26.7776081,0.202709077 0.224458978,26.7549882 0.224458978,59.5103392" id="path-5"></path>
        <path d="M0.224458978,59.5103392 C0.224458978,92.2648201 26.7776081,118.817099 59.5312191,118.817099 C92.28657,118.817099 118.838849,92.2648201 118.838849,59.5103392 C118.838849,26.7549882 92.28657,0.202709077 59.5312191,0.202709077 C26.7776081,0.202709077 0.224458978,26.7549882 0.224458978,59.5103392" id="path-7"></path>
        <path d="M0.224458978,59.5103392 C0.224458978,92.2648201 26.7776081,118.817099 59.5312191,118.817099 C92.28657,118.817099 118.838849,92.2648201 118.838849,59.5103392 C118.838849,26.7549882 92.28657,0.202709077 59.5312191,0.202709077 C26.7776081,0.202709077 0.224458978,26.7549882 0.224458978,59.5103392 Z" id="path-9"></path>
        <path d="M0.520257632,53.0697585 C0.520257632,82.3790551 24.2798495,106.139517 53.5900161,106.139517 C82.8984427,106.139517 106.658905,82.3790551 106.658905,53.0697585 C106.658905,23.7604619 82.8984427,0 53.5900161,0 C24.2798495,0 0.520257632,23.7604619 0.520257632,53.0697585 Z" id="path-11"></path>
    </defs>
    <g id="Page-1" stroke="none" stroke-width="1" fill="none" fill-rule="evenodd">
        <g id="Home-Page" transform="translate(-853.000000, -159.000000)">
            <g id="Section---Hero" transform="translate(0.000000, -251.000000)">
                <g id="Hero" transform="translate(0.000000, 251.000000)">
                    <g id="Hero-Illy" transform="translate(853.230405, 158.414887)">
                        <g id="Group-53" transform="translate(10.439952, 54.040674)">
                            <path d="M427.687705,356.698377 C427.687705,365.347007 332.06296,372.358305 214.103677,372.358305 C96.1443934,372.358305 0.519648635,365.347007 0.519648635,356.698377 C0.519648635,348.049746 96.1443934,341.038448 214.103677,341.038448 C332.06296,341.038448 427.687705,348.049746 427.687705,356.698377" id="Fill-1" fill-opacity="0.0700000003" fill="#5475BF"></path>
                            <path d="M69.8330162,69.426815 L13.7469814,69.426815 C10.2861372,69.426815 7.47952996,66.6202078 7.47952996,63.1593635 L7.47952996,7.07332881 C7.47952996,3.61161456 10.2861372,0.805877332 13.7469814,0.805877332 L69.8330162,0.805877332 C73.2947304,0.805877332 76.1004677,3.61161456 76.1004677,7.07332881 L76.1004677,63.1593635 C76.1004677,66.6202078 73.2947304,69.426815 69.8330162,69.426815" id="Fill-3" fill="#75D85D"></path>
                            <path d="M52.5622028,25.5166359 L42.851307,20.647268 L43.1375357,39.4618024 C41.7655519,38.5604865 39.9481302,38.0280489 37.9297394,38.0593688 C35.9557184,38.0889486 34.0930568,38.667496 32.6819233,39.6862614 C31.1385503,40.8033363 30.3016141,42.3136494 30.325974,43.938802 C30.3764338,47.1699673 33.7929082,49.649456 38.1046086,49.5842063 C39.0433343,49.5694164 39.9350802,49.436307 40.7572265,49.2031481 C43.7099931,48.3636019 45.7466538,46.2329816 45.708374,43.7047731 L45.4204053,24.7379894 L51.4399079,27.7568757 C52.0593451,28.0674643 52.8110216,27.8169054 53.1216102,27.1983382 C53.4313288,26.579771 53.18077,25.8263545 52.5622028,25.5166359" id="Fill-5" fill="#FFFFFF"></path>
                            <polygon id="Fill-7" fill="#1C1C1C" points="201.720762 325.318489 223.776032 325.318489 223.776032 249.192096 201.720762 249.192096"></polygon>
                            <path d="M255.796323,275.516436 L169.701515,275.516436 C165.970972,275.516436 162.945995,272.49233 162.945995,268.761787 L162.945995,262.710094 L262.550972,262.710094 L262.550972,268.761787 C262.550972,272.49233 259.526866,275.516436 255.796323,275.516436" id="Fill-9" fill="#383838"></path>
                            <path d="M268.598228,266.267247 L156.898566,266.267247 C149.630619,266.267247 143.737266,260.374764 143.737266,253.105947 C143.737266,245.83626 149.630619,239.943777 156.898566,239.943777 L268.598228,239.943777 C275.867044,239.943777 281.760398,245.83626 281.760398,253.105947 C281.760398,260.374764 275.867044,266.267247 268.598228,266.267247" id="Fill-10" fill="#515151"></path>
                            <path d="M246.528864,314.64677 L178.968451,314.64677 C172.870649,314.64677 167.926462,319.590087 167.926462,325.68789 L167.926462,329.587212 L257.569984,329.587212 L257.569984,325.68789 C257.569984,319.590087 252.627536,314.64677 246.528864,314.64677" id="Fill-11" fill="#383838"></path>
                            <path d="M178.509442,329.587038 C178.509442,323.693685 173.732293,318.914797 167.8372,318.914797 C161.943847,318.914797 157.165829,323.693685 157.165829,329.587038 C157.165829,335.481261 161.943847,340.259279 167.8372,340.259279 C173.732293,340.259279 178.509442,335.481261 178.509442,329.587038" id="Fill-12" fill="#383838"></path>
                            <path d="M223.332073,329.587038 C223.332073,323.693685 218.554054,318.914797 212.659831,318.914797 C206.765608,318.914797 201.98846,323.693685 201.98846,329.587038 C201.98846,335.481261 206.765608,340.259279 212.659831,340.259279 C218.554054,340.259279 223.332073,335.481261 223.332073,329.587038" id="Fill-13" fill="#383838"></path>
                            <path d="M268.153834,329.587038 C268.153834,323.693685 263.375815,318.914797 257.481592,318.914797 C251.587369,318.914797 246.810221,323.693685 246.810221,329.587038 C246.810221,335.481261 251.587369,340.259279 257.481592,340.259279 C263.375815,340.259279 268.153834,335.481261 268.153834,329.587038" id="Fill-14" fill="#383838"></path>
                            <polygon id="Fill-15" fill="#5DABF9" points="187.773855 252.378891 239.174961 252.378891 239.174961 229.994763 187.773855 229.994763"></polygon>
                            <path d="M187.918797,116.818631 L238.355077,116.823851 C246.719219,116.825591 253.498228,123.60721 253.496488,131.971352 L253.482568,209.926478 C253.481698,213.226373 250.806461,215.90161 247.506566,215.90074 L178.731639,215.89204 C175.431744,215.89117 172.757376,213.215933 172.757376,209.916038 L172.772166,131.960042 C172.773906,123.59677 179.555525,116.816891 187.918797,116.818631" id="Fill-16" fill="#FEC337"></path>
                            <path d="M176.580834,147.503827 L158.034259,176.924483 C155.64699,180.708966 158.367467,185.640103 162.841857,185.640103 L210.57245,185.640103 L226.324598,190.61474" id="Stroke-17" stroke="#EAAFA9" stroke-width="23.824" stroke-linecap="round"></path>
                            <path d="M249.521998,147.172532 L268.069444,176.593188 C270.455843,180.378541 267.736235,185.308809 263.260976,185.308809 L215.530383,185.308809 L199.778235,190.283446" id="Stroke-18" stroke="#EAAFA9" stroke-width="23.824" stroke-linecap="round"></path>
                            <path d="M172.81958,125.270904 L156.230496,150.743518 C155.43358,151.967602 155.778968,153.604935 157.002182,154.400981 L181.368162,170.269709 C182.591376,171.066625 184.228709,170.720367 185.025625,169.497153 L201.615579,144.023669 C206.793796,136.072775 204.545726,125.428373 196.593962,120.250157 L196.593092,120.250157 C188.642198,115.07107 177.997797,117.31914 172.81958,125.270904" id="Fill-19" fill="#FEC337"></path>
                            <path d="M213.113882,131.76699 C219.036815,131.76786 223.838323,126.968092 223.839193,121.045159 L223.842673,103.794878 L202.395531,103.790528 L202.392921,121.041679 C202.392051,126.963742 207.190949,131.76612 213.113882,131.76699" id="Fill-20" fill="#EAAFA9"></path>
                            <path d="M168.381296,80.0617336 C168.155967,74.1544605 172.761726,69.1841731 178.668999,68.9579742 C184.575402,68.7335152 189.546559,73.3384042 189.771888,79.2456773 C189.997217,85.1529505 185.391458,90.1232378 179.485055,90.3485668 C173.578652,90.5738958 168.606625,85.9681367 168.381296,80.0617336" id="Fill-21" fill="#EAAFA9"></path>
                            <path d="M234.635235,77.5341341 C234.409906,71.627731 239.015665,66.6565736 244.922938,66.4312447 C250.829341,66.2059157 255.800499,70.8116747 256.025828,76.7189478 C256.251157,82.625351 251.645398,87.5956383 245.738995,87.8218373 C239.832591,88.0462963 234.861434,83.4414072 234.635235,77.5341341" id="Fill-22" fill="#EAAFA9"></path>
                            <path d="M177.777949,45.6038874 L178.214687,57.0512953 L178.557465,66.0592344 L179.339592,86.5389411 C180.037329,104.834958 195.434519,119.100283 213.729665,118.402546 C232.025682,117.704809 246.291007,102.307619 245.59327,84.0116026 L244.812884,63.5318959 L244.468365,54.5239569 L244.031627,43.0765489 L177.777949,45.6038874 Z" id="Fill-23" fill="#FFC1B0"></path>
                            <path d="M215.939629,89.2888246 L208.780432,89.5620034" id="Fill-24" fill="#EAAFA9"></path>
                            <path d="M208.848813,91.3619382 L216.008011,91.0887594 C217.002416,91.0513496 217.778453,90.2144134 217.740173,89.2200079 C217.702763,88.2256025 216.865827,87.450436 215.870552,87.4887158 L208.711354,87.7618946 C207.716949,87.7993044 206.941782,88.6362406 206.980062,89.6306461 C207.018342,90.6250515 207.853538,91.400218 208.848813,91.3619382" id="Fill-25" fill="#DD8783"></path>
                            <path d="M233.501804,69.4017591 C233.688853,69.3947992 233.877643,69.3547794 234.061212,69.2790897 C234.891188,68.9363113 235.285296,67.9854056 234.942518,67.1545594 C234.121241,65.1657484 232.573519,63.6162855 230.585578,62.7915292 C228.598507,61.966773 226.410467,61.964163 224.419916,62.7871792 C223.589069,63.1308277 223.194091,64.0817334 223.53774,64.9117096 C223.880518,65.7408158 224.832294,66.137534 225.66227,65.7938856 C226.848945,65.3023378 228.154809,65.3049478 229.338873,65.7956256 C230.523808,66.2871733 231.446874,67.2111091 231.935811,68.3969137 C232.20377,69.0441908 232.840607,69.426989 233.501804,69.4017591" id="Fill-26" fill="#8C423B"></path>
                            <path d="M190.215325,71.0529246 C190.876522,71.0276947 191.48204,70.5979167 191.699539,69.9323697 C192.522555,67.4137312 195.239552,66.0321775 197.757321,66.8578037 C198.613397,67.1353325 199.530373,66.6698846 199.807902,65.8172885 C200.08804,64.9629523 199.621722,64.0451065 198.767386,63.7658378 C194.547036,62.3868941 189.986516,64.6993435 188.606703,68.9214343 C188.328304,69.7757704 188.794622,70.6936163 189.648088,70.973755 C189.836007,71.0346547 190.028276,71.0598846 190.215325,71.0529246" id="Fill-27" fill="#8C423B"></path>
                            <path d="M166.384742,27.9715907 C166.918049,41.9454671 178.678656,52.8412975 192.651662,52.3079899 C206.625539,51.7746824 217.521369,40.0149459 216.988931,26.0410695 C216.455624,12.0671931 204.695017,1.17136267 190.722011,1.70467024 C176.748135,2.23710782 165.852304,13.9977143 166.384742,27.9715907" id="Fill-28" fill="#8C423B"></path>
                            <path d="M179.442338,78.5787384 C177.545747,78.650948 175.950174,77.1728248 175.877965,75.2771034 L174.420721,37.0546974 L181.28673,36.7928285 L182.744843,75.0143646 C182.817053,76.910956 181.33893,78.5065287 179.442338,78.5787384" id="Fill-29" fill="#8C423B"></path>
                            <path d="M243.812649,76.1233485 C241.916928,76.1955582 240.320485,74.7174349 240.248276,72.8217136 L238.756232,33.6797217 L245.622241,33.4178529 L247.115154,72.5589748 C247.187364,74.4555661 245.709241,76.0511389 243.812649,76.1233485" id="Fill-30" fill="#8C423B"></path>
                            <path d="M230.907128,16.3162537 L197.978648,12.4952311 L199.267112,46.1014382 L246.039839,44.3083763 L245.573521,32.1614916 C245.260323,23.9861388 239.033761,17.2593294 230.907128,16.3162537" id="Fill-31" fill="#8C423B"></path>
                            <path d="M200.733403,79.9342792 C200.664674,78.1394774 199.154361,76.7413937 197.359559,76.8101234 C195.565627,76.8788531 194.166673,78.3891662 194.235403,80.1830981 C194.304133,81.9778999 195.814446,83.3768535 197.608378,83.3072539 C199.403179,83.2385242 200.801263,81.729081 200.733403,79.9342792" id="Fill-32" fill="#41352E"></path>
                            <path d="M227.651429,79.9342792 C227.582699,78.1394774 226.072386,76.7413937 224.277584,76.8101234 C222.483652,76.8788531 221.084699,78.3891662 221.153428,80.1830981 C221.222158,81.9778999 222.733341,83.3768535 224.526403,83.3072539 C226.321205,83.2385242 227.720159,81.729081 227.651429,79.9342792" id="Fill-33" fill="#41352E"></path>
                            <path d="M207.901562,102.048274 C207.901562,102.048274 218.217975,104.441633 227.252014,97.5886739" id="Stroke-34" stroke="#DD8783" stroke-width="4.271" stroke-linecap="round"></path>
                            <path d="M83.063916,232.921082 L61.6011136,227.365287 L28.557794,355.013716 C28.2071856,356.36569 29.221601,357.684604 30.6179447,357.695914 L49.0427208,357.836853 C50.0249463,357.844683 50.8888524,357.181746 51.1350613,356.229101 L83.063916,232.921082 Z" id="Fill-35" fill="#204A8C"></path>
                            <path d="M345.997251,233.074375 L367.460054,227.518581 L400.503373,355.16701 C400.853982,356.518113 399.839566,357.838767 398.443223,357.849207 L380.018446,357.991017 C379.036221,357.997977 378.172315,357.33591 377.926106,356.383264 L345.997251,233.074375 Z" id="Fill-36" fill="#204A8C"></path>
                            <path d="M417.316569,208.200492 L13.5009466,208.200492 C8.25400043,208.200492 3.9997198,203.946212 3.9997198,198.699266 C3.9997198,193.45145 8.25400043,189.197169 13.5009466,189.197169 L417.316569,189.197169 C422.563515,189.197169 426.817795,193.45145 426.817795,198.699266 C426.817795,203.946212 422.563515,208.200492 417.316569,208.200492" id="Fill-37" fill="#4580E2"></path>
                            <path d="M396.729765,240.66396 L34.0875759,240.66396 C31.9012758,240.66396 30.1290939,238.891778 30.1290939,236.705478 L30.1290939,208.200927 L400.688247,208.200927 L400.688247,236.705478 C400.688247,238.891778 398.916065,240.66396 396.729765,240.66396" id="Fill-38" fill="#2E58AA"></path>
                            <polygon id="Fill-39" fill="#204A8C" points="30.1288329 219.285982 400.687986 219.285982 400.687986 208.200492 30.1288329 208.200492"></polygon>
                            <polygon id="Fill-40" fill="#2E58AA" points="181.970112 343.575356 197.72226 343.575356 197.72226 322.020334 181.970112 322.020334"></polygon>
                            <path d="M166.330367,339.548232 C182.485323,339.551712 204.573653,339.556062 204.573653,339.556062 L204.573653,339.763121 L204.571043,356.355685 C204.570173,357.756379 203.434828,358.889984 202.035874,358.889984 L165.970189,358.883894 L165.973669,339.557802 C166.093728,339.555192 166.208568,339.548232 166.330367,339.548232" id="Fill-41" fill="#303030"></path>
                            <path d="M149.745197,354.169124 C151.239851,348.50893 155.282722,339.74894 165.973234,339.557541 L165.969754,358.883633 L153.403531,358.881023 C150.937962,358.881023 149.11532,356.552913 149.745197,354.169124" id="Fill-42" fill="#D8D8D8"></path>
                            <path d="M149.652543,354.700083 L204.045565,354.710523 C205.426249,354.710523 206.546804,355.830208 206.546804,357.211761 C206.545934,358.593315 205.425379,359.71213 204.044695,359.71213 L149.650803,359.70169 C148.270119,359.70169 147.150434,358.582005 147.150434,357.200451 C147.151304,355.819768 148.270989,354.700083 149.652543,354.700083" id="Fill-43" fill="#B7B7B7"></path>
                            <path d="M176.100771,347.450406 L188.479944,347.453016 C189.653569,347.453016 190.605345,346.50124 190.606215,345.327615 L190.607085,339.553452 L173.97624,339.549972 L173.97537,345.324135 C173.97537,346.49776 174.926276,347.450406 176.100771,347.450406" id="Fill-44" fill="#D8D8D8"></path>
                            <path d="M204.354414,331.060637 L171.192775,331.060637 L171.192775,246.576192 C171.192775,237.418613 178.615581,229.994937 187.773159,229.994937 C196.930738,229.994937 204.354414,237.418613 204.354414,246.576192 L204.354414,331.060637 Z" id="Fill-45" fill="#64BDFF"></path>
                            <polygon id="Fill-46" fill="#2E58AA" points="226.444309 343.575356 242.196458 343.575356 242.196458 322.020334 226.444309 322.020334"></polygon>
                            <path d="M257.836203,339.548232 C241.681246,339.551712 219.592917,339.556062 219.592917,339.556062 L219.592917,339.763121 L219.595527,356.355685 C219.596397,357.756379 220.731741,358.889984 222.130695,358.889984 L258.196381,358.883894 L258.192901,339.557802 C258.072841,339.555192 257.958002,339.548232 257.836203,339.548232" id="Fill-47" fill="#303030"></path>
                            <path d="M274.421372,354.169124 C272.926719,348.50893 268.883847,339.74894 258.193336,339.557541 L258.196816,358.883633 L270.763039,358.881023 C273.228607,358.881023 275.051249,356.552913 274.421372,354.169124" id="Fill-48" fill="#D8D8D8"></path>
                            <path d="M274.514027,354.700083 L220.121004,354.710523 C218.74032,354.710523 217.619766,355.830208 217.619766,357.211761 C217.620636,358.593315 218.74119,359.71213 220.121874,359.71213 L274.515767,359.70169 C275.89645,359.70169 277.016135,358.582005 277.016135,357.200451 C277.015265,355.819768 275.89558,354.700083 274.514027,354.700083" id="Fill-49" fill="#B7B7B7"></path>
                            <path d="M248.065799,347.450406 L235.686625,347.453016 C234.513001,347.453016 233.561225,346.50124 233.560355,345.327615 L233.559485,339.553452 L250.190329,339.549972 L250.191199,345.324135 C250.191199,346.49776 249.240294,347.450406 248.065799,347.450406" id="Fill-50" fill="#D8D8D8"></path>
                            <path d="M219.812156,331.060637 L252.973795,331.060637 L252.973795,246.576192 C252.973795,237.418613 245.550988,229.994937 236.39341,229.994937 C227.235832,229.994937 219.812156,237.418613 219.812156,246.576192 L219.812156,331.060637 Z" id="Fill-51" fill="#64BDFF"></path>
                            <path d="M156.24894,102.139971 C156.24894,69.3854902 129.695791,42.8323411 96.9413098,42.8323411 C64.1876989,42.8323411 37.6345497,69.3854902 37.6345497,102.139971 C37.6345497,134.894452 64.1876989,161.446731 96.9413098,161.446731 C129.695791,161.446731 156.24894,134.894452 156.24894,102.139971" id="Fill-52" fill="#64BDFF"></path>
                        </g>
                        <g id="Group-114" transform="translate(47.849782, 96.670480)">
                            <g id="Group-56">
                                <mask id="mask-2" fill="white">
                                    <use xlink:href="#path-1"></use>
                                </mask>
                                <g id="Clip-55"></g>
                                <path d="M25.4131063,129.948003 C25.3487266,129.944523 25.2852169,129.940173 25.2199672,129.934083 C22.2141309,129.664384 19.996511,127.010026 20.2662098,124.00419 C24.60227,75.6924395 45.3281857,72.6039536 47.676305,72.4108144 L48.5715309,83.3014249 C48.5715309,83.3014249 48.6507006,83.3014249 48.7977299,83.276195 C48.6567906,83.3005549 34.6333244,86.1758918 31.1507302,124.981195 C30.8862514,127.921782 28.338033,130.108952 25.4131063,129.948003" id="Fill-54" fill="#EAAFA9" mask="url(#mask-2)"></path>
                            </g>
                            <g id="Group-59">
                                <mask id="mask-4" fill="white">
                                    <use xlink:href="#path-3"></use>
                                </mask>
                                <g id="Clip-58"></g>
                                <path d="M34.6423723,122.136308 C34.1682245,122.110208 33.6992966,121.930119 33.3164984,121.591691 L29.5885653,118.297016 C28.6846395,117.497489 28.5993798,116.116806 29.3989062,115.21288 C30.1975626,114.308084 31.5791163,114.223694 32.4839122,115.022351 L36.2109752,118.317026 C37.1149011,119.115682 37.2001607,120.497236 36.4006343,121.402031 C35.9404064,121.922289 35.2861694,122.171978 34.6423723,122.136308" id="Fill-57" fill="#EAAFA9" mask="url(#mask-4)"></path>
                            </g>
                            <g id="Group-62">
                                <mask id="mask-6" fill="white">
                                    <use xlink:href="#path-5"></use>
                                </mask>
                                <g id="Clip-61"></g>
                                <path d="M66.2816053,9.08267166 C59.4068966,8.22746556 53.2856045,11.9249487 50.5224971,17.5660031 L48.3997067,17.5660031 C44.0236266,17.5660031 40.4766528,21.1138469 40.4766528,25.489057 L40.4766528,30.9230523 L50.4581174,30.9230523 C52.9280361,36.0908287 58.2036921,39.6604225 64.3128043,39.6604225 C73.3668531,39.6604225 80.5895602,31.8226282 79.5664449,22.5615203 C78.7964984,15.593722 73.2389637,9.94831772 66.2816053,9.08267166" id="Fill-60" fill="#606060" mask="url(#mask-6)"></path>
                            </g>
                            <g id="Group-65">
                                <mask id="mask-8" fill="white">
                                    <use xlink:href="#path-7"></use>
                                </mask>
                                <g id="Clip-64"></g>
                                <path d="M70.4769872,67.7700816 L48.119829,67.7700816 C43.0869019,67.7700816 39.0066205,71.850363 39.0066205,76.8832901 L39.0066205,125.932797 C39.0066205,126.737543 39.6582475,127.39004 40.4629938,127.39004 L78.1329524,127.39004 C78.9376987,127.39004 79.5901958,126.737543 79.5901958,125.932797 L79.5901958,76.8832901 C79.5901958,71.850363 75.5099143,67.7700816 70.4769872,67.7700816" id="Fill-63" fill="#333333" mask="url(#mask-8)"></path>
                            </g>
                            <mask id="mask-10" fill="white">
                                <use xlink:href="#path-9"></use>
                            </mask>
                            <g id="Clip-67"></g>
                            <polygon id="Fill-66" fill="#D8BF8B" mask="url(#mask-10)" points="40.5687854 192.005516 78.1665342 192.005516 78.1665342 127.39004 40.5687854 127.39004"></polygon>
                            <path d="M40.6295111,138.653096 L40.6295111,136.524216 C45.6659182,136.524216 49.7635995,132.426534 49.7635995,127.390127 L51.8924798,127.390127 C51.8924798,133.600159 46.8404128,138.653096 40.6295111,138.653096" id="Fill-68" fill="#B59661" mask="url(#mask-10)"></path>
                            <path d="M78.1056345,138.653096 C71.8947328,138.653096 66.8426658,133.600159 66.8426658,127.390127 L68.9715461,127.390127 C68.9715461,132.426534 73.0692274,136.524216 78.1056345,136.524216 L78.1056345,138.653096 Z" id="Fill-69" fill="#B59661" mask="url(#mask-10)"></path>
                            <polygon id="Fill-70" fill="#B59661" mask="url(#mask-10)" points="58.3045246 192.005516 60.432535 192.005516 60.432535 139.774434 58.3045246 139.774434"></polygon>
                            <polygon id="Fill-71" fill="#B59661" mask="url(#mask-10)" points="55.7249864 140.473911 63.0094632 140.473911 63.0094632 138.34503 55.7249864 138.34503"></polygon>
                            <path d="M35.7518783,192.012998 L58.2943457,192.012998 L58.2943457,192.135668 L58.2943457,201.915293 C58.2943457,202.740919 57.6253187,203.409946 56.7996925,203.409946 L35.5422092,203.409946 L35.5422092,192.018218 C35.6126789,192.016478 35.6805386,192.012998 35.7518783,192.012998" id="Fill-72" fill="#75D353" mask="url(#mask-10)"></path>
                            <path d="M25.9780818,200.632658 C26.8585178,197.296223 29.2405669,192.131927 35.5419482,192.017957 L35.5419482,203.409685 L28.134802,203.409685 C26.6819086,203.409685 25.6065935,202.037701 25.9780818,200.632658" id="Fill-73" fill="#EAEAEA" mask="url(#mask-10)"></path>
                            <path d="M25.922837,200.945682 L57.9848011,200.945682 C58.7982474,200.945682 59.4585744,201.605139 59.4585744,202.419456 C59.4585744,203.233772 58.7982474,203.894099 57.9848011,203.894099 L25.922837,203.894099 C25.1085207,203.894099 24.4490637,203.233772 24.4490637,202.419456 C24.4490637,201.605139 25.1085207,200.945682 25.922837,200.945682" id="Fill-74" fill="#D8D8D8" mask="url(#mask-10)"></path>
                            <path d="M41.5122091,196.669217 L48.8088659,196.669217 C49.5013827,196.669217 50.0616602,196.108069 50.0616602,195.416423 L50.0616602,192.012998 L40.2594148,192.012998 L40.2594148,195.416423 C40.2594148,196.108069 40.8196922,196.669217 41.5122091,196.669217" id="Fill-75" fill="#F2F2F2" mask="url(#mask-10)"></path>
                            <path d="M82.9755244,192.012998 L60.433057,192.012998 L60.433057,192.135668 L60.433057,201.915293 C60.433057,202.740919 61.1020839,203.409946 61.9277102,203.409946 L83.1851934,203.409946 L83.1851934,192.018218 C83.1147237,192.016478 83.046864,192.012998 82.9755244,192.012998" id="Fill-76" fill="#75D353" mask="url(#mask-10)"></path>
                            <path d="M92.7494079,200.632658 C91.8689719,197.296223 89.4869227,192.131927 83.1855414,192.017957 L83.1855414,203.409685 L90.5926877,203.409685 C92.0455811,203.409685 93.1208962,202.037701 92.7494079,200.632658" id="Fill-77" fill="#EAEAEA" mask="url(#mask-10)"></path>
                            <path d="M92.8046526,200.945682 L60.7426885,200.945682 C59.9292422,200.945682 59.2689153,201.605139 59.2689153,202.419456 C59.2689153,203.233772 59.9292422,203.894099 60.7426885,203.894099 L92.8046526,203.894099 C93.6189689,203.894099 94.2784259,203.233772 94.2784259,202.419456 C94.2784259,201.605139 93.6189689,200.945682 92.8046526,200.945682" id="Fill-78" fill="#D8D8D8" mask="url(#mask-10)"></path>
                            <path d="M77.2151936,196.669217 L69.9185368,196.669217 C69.2268899,196.669217 68.6657425,196.108069 68.6657425,195.416423 L68.6657425,192.012998 L78.4679879,192.012998 L78.4679879,195.416423 C78.4679879,196.108069 77.9077104,196.669217 77.2151936,196.669217" id="Fill-79" fill="#F2F2F2" mask="url(#mask-10)"></path>
                            <path d="M53.6233369,83.4410592 L42.5883072,96.0499119 C42.0584796,96.6554291 41.1380238,96.7163288 40.5325065,96.1865012 L28.4726214,85.6317093 C27.8671042,85.1018817 27.8053345,84.1814259 28.336032,83.5759086 L39.3701918,70.967056 C42.8145061,67.0311939 48.7974689,66.6327357 52.734201,70.0779201 C56.6691931,73.5222344 57.0676513,79.5051972 53.6233369,83.4410592" id="Fill-80" fill="#333333" mask="url(#mask-10)"></path>
                            <path d="M65.1211176,83.4410592 L76.1561474,96.0499119 C76.685975,96.6554291 77.6073008,96.7163288 78.211948,96.1865012 L90.2718332,85.6317093 C90.8773504,85.1018817 90.9391201,84.1814259 90.4092925,83.5759086 L79.3751327,70.967056 C75.9299484,67.0311939 69.9469857,66.6327357 66.0111236,70.0779201 C62.0752615,73.5222344 61.6768033,79.5051972 65.1211176,83.4410592" id="Fill-81" fill="#333333" mask="url(#mask-10)"></path>
                            <path d="M59.5875948,76.4156672 C56.9776067,76.4156672 54.8609063,74.2998368 54.8609063,71.6898487 L54.8609063,64.0878233 L64.3134133,64.0878233 L64.3134133,71.6898487 C64.3134133,74.2998368 62.1975829,76.4156672 59.5875948,76.4156672" id="Fill-82" fill="#EAAFA9" mask="url(#mask-10)"></path>
                            <path d="M53.7983802,65.7589987 L49.865998,76.3538105 C49.4649299,77.4360856 50.4219255,78.5331506 51.5485704,78.2825917 L59.6238736,76.4886599 L53.7983802,65.7589987 Z" id="Fill-83" fill="#F2F2F2" mask="url(#mask-10)"></path>
                            <path d="M65.3921214,65.7589987 L69.2583838,76.3651204 C69.651622,77.4465255 68.6963663,78.5366306 67.5732015,78.2869417 L59.4796283,76.4886599 L65.3921214,65.7589987 Z" id="Fill-84" fill="#F2F2F2" mask="url(#mask-10)"></path>
                            <path d="M85.4903349,44.8693498 C85.4903349,41.4989851 82.7576774,38.7663276 79.3873127,38.7663276 C76.016078,38.7663276 73.2842905,41.4989851 73.2842905,44.8693498 C73.2842905,48.2405844 76.016078,50.972372 79.3873127,50.972372 C82.7576774,50.972372 85.4903349,48.2405844 85.4903349,44.8693498" id="Fill-85" fill="#EAAFA9" mask="url(#mask-10)"></path>
                            <path d="M46.579327,44.8693498 C46.579327,41.4989851 43.8466694,38.7663276 40.4763048,38.7663276 C37.1050701,38.7663276 34.3732826,41.4989851 34.3732826,44.8693498 C34.3732826,48.2405844 37.1050701,50.972372 40.4763048,50.972372 C43.8466694,50.972372 46.579327,48.2405844 46.579327,44.8693498" id="Fill-86" fill="#EAAFA9" mask="url(#mask-10)"></path>
                            <path d="M61.3462918,83.4266173 C61.3462918,82.5000715 60.5946152,81.7483949 59.6671994,81.7483949 C58.7415237,81.7483949 57.9898471,82.5000715 57.9898471,83.4266173 C57.9898471,84.3531631 58.7415237,85.1048397 59.6671994,85.1048397 C60.5946152,85.1048397 61.3462918,84.3531631 61.3462918,83.4266173" id="Fill-87" fill="#FFE9E9" mask="url(#mask-10)"></path>
                            <path d="M61.3462918,91.4927856 C61.3462918,90.5662398 60.5946152,89.8145632 59.6671994,89.8145632 C58.7415237,89.8145632 57.9898471,90.5662398 57.9898471,91.4927856 C57.9898471,92.4193314 58.7415237,93.171008 59.6671994,93.171008 C60.5946152,93.171008 61.3462918,92.4193314 61.3462918,91.4927856" id="Fill-88" fill="#FFE9E9" mask="url(#mask-10)"></path>
                            <path d="M61.3462918,83.4266173 C61.3462918,82.5000715 60.5946152,81.7483949 59.6671994,81.7483949 C58.7415237,81.7483949 57.9898471,82.5000715 57.9898471,83.4266173 C57.9898471,84.3531631 58.7415237,85.1048397 59.6671994,85.1048397 C60.5946152,85.1048397 61.3462918,84.3531631 61.3462918,83.4266173" id="Fill-89" fill="#FFE9E9" mask="url(#mask-10)"></path>
                            <path d="M40.7646215,30.0471402 L40.7646215,32.7502179 L40.7646215,32.528369 L40.7646215,51.4925426 C40.7646215,61.9324951 49.227943,70.3958166 59.6678954,70.3958166 C70.1078479,70.3958166 78.5711694,61.9324951 78.5711694,51.4925426 L78.5711694,32.528369 L78.5711694,32.7502179 L78.5711694,30.0471402 L40.7646215,30.0471402 Z" id="Fill-90" fill="#FFC1B0" mask="url(#mask-10)"></path>
                            <path d="M47.2589679,39.6604225 C47.1519584,39.6604225 47.0432089,39.6421526 46.9370694,39.6030028 C46.4568316,39.4255236 46.2114927,38.892216 46.3881019,38.4111082 C46.8135299,37.2609734 47.6617761,36.3439976 48.776241,35.8306999 C49.8898359,35.3174023 51.1374103,35.2686825 52.289285,35.6941105 C52.7695228,35.8724597 53.0157317,36.4048973 52.8382525,36.8860051 C52.6607733,37.3653729 52.1274658,37.6124518 51.6463579,37.4341026 C50.9608011,37.1800638 50.2160845,37.2096437 49.5522775,37.5150123 C48.8876005,37.8212509 48.3821328,38.3676084 48.128964,39.0540353 C47.9906346,39.4281336 47.6356762,39.6604225 47.2589679,39.6604225" id="Fill-91" fill="#606060" mask="url(#mask-10)"></path>
                            <path d="M71.9586775,39.6604225 C71.5810992,39.6604225 71.2270108,39.4281336 71.0886815,39.0540353 C70.5649438,37.6368117 68.986771,36.908625 67.5704175,37.4341026 C67.0884397,37.6115818 66.5560021,37.3662429 66.3785229,36.8860051 C66.2019137,36.4048973 66.4472526,35.8724597 66.9274904,35.6941105 C69.3025796,34.8171545 71.9508475,36.035149 72.8286735,38.4111082 C73.0061527,38.892216 72.7608139,39.4246536 72.280576,39.6030028 C72.1744365,39.6421526 72.065687,39.6604225 71.9586775,39.6604225" id="Fill-92" fill="#606060" mask="url(#mask-10)"></path>
                            <path d="M69.9731725,52.2363023 C69.9731725,51.5385654 69.4015851,50.972198 68.6960184,50.972198 L51.0655486,50.972198 C50.3591118,50.972198 49.7875244,51.5385654 49.7875244,52.2363023 C49.7875244,52.9349091 49.215937,53.5004065 48.5103702,53.5004065 L40.4768268,53.5004065 L40.4768268,54.5156919 C40.4768268,64.9260645 49.003658,73.3658961 59.5236501,73.3658961 C70.0427722,73.3658961 78.5713434,64.9260645 78.5713434,54.5156919 L78.5713434,53.5004065 L71.2503267,53.5004065 C70.5447599,53.5004065 69.9731725,52.9349091 69.9731725,52.2363023" id="Fill-93" fill="#606060" mask="url(#mask-10)"></path>
                            <path d="M61.2851311,63.4192314 L55.9598853,63.4192314 C55.0263796,63.4192314 54.269483,62.6623348 54.269483,61.7288291 L54.269483,55.1794989 L66.5955869,55.1794989 L66.5955869,58.1096455 C66.5955869,61.0424022 64.2178877,63.4192314 61.2851311,63.4192314" id="Fill-94" fill="#41352E" mask="url(#mask-10)"></path>
                            <polygon id="Fill-95" fill="#E6E7E8" mask="url(#mask-10)" points="54.0224041 58.2906047 66.8426658 58.2906047 66.8426658 55.1185991 54.0224041 55.1185991"></polygon>
                            <path d="M65.9009821,60.7573915 C65.2684949,60.1057644 64.385449,59.6994763 63.4058334,59.6994763 C61.4848822,59.6994763 59.9275893,61.2567692 59.9275893,63.1777205 C59.9275893,63.2638501 59.9345492,63.3482397 59.9406392,63.4334993 L61.294353,63.4334993 C63.2675041,63.4334993 64.9848762,62.3547042 65.9009821,60.7573915" id="Fill-96" fill="#F76C66" mask="url(#mask-10)"></path>
                            <path d="M62.1007524,49.7023518 L57.7629521,49.7023518 C57.1948447,49.7023518 56.7354868,49.2421239 56.7354868,48.6748865 C56.7354868,48.1076491 57.1948447,47.6474211 57.7629521,47.6474211 L62.1007524,47.6474211 C62.6679898,47.6474211 63.1282177,48.1076491 63.1282177,48.6748865 C63.1282177,49.2421239 62.6679898,49.7023518 62.1007524,49.7023518" id="Fill-97" fill="#DD8783" mask="url(#mask-10)"></path>
                            <polygon id="Fill-98" fill="#606060" mask="url(#mask-10)" points="40.5104956 55.1177291 43.6520513 55.1177291 43.6520513 27.8720631 40.5104956 27.8720631"></polygon>
                            <polygon id="Fill-99" fill="#606060" mask="url(#mask-10)" points="75.4295267 55.1177291 78.5710824 55.1177291 78.5710824 27.8720631 75.4295267 27.8720631"></polygon>
                            <path d="M86.1590139,101.833298 L86.1590139,75.2592685" id="Stroke-100" stroke="#EAAFA9" stroke-width="11.68" stroke-linecap="round" mask="url(#mask-10)"></path>
                            <path d="M90.2600882,77.8697786 L82.181305,77.8697786 C80.5596324,77.8697786 79.2441983,76.5543446 79.2441983,74.932672 L79.2441983,66.8538887 C79.2441983,65.2313461 80.5596324,63.9159121 82.181305,63.9159121 L90.2600882,63.9159121 C91.8826308,63.9159121 93.1971948,65.2313461 93.1971948,66.8538887 L93.1971948,74.932672 C93.1971948,76.5543446 91.8826308,77.8697786 90.2600882,77.8697786" id="Fill-101" fill="#EAAFA9" mask="url(#mask-10)"></path>
                            <path d="M83.8251625,68.0678812 L83.8251625,59.765509" id="Stroke-102" stroke="#EAAFA9" stroke-width="5.84" stroke-linecap="round" mask="url(#mask-10)"></path>
                            <path d="M93.4554097,66.4510806 L85.1521675,66.4510806" id="Stroke-103" stroke="#FCCAC8" stroke-width="5.84" stroke-linecap="round" mask="url(#mask-10)"></path>
                            <path d="M93.4554097,71.5235925 L85.1521675,71.5235925" id="Stroke-104" stroke="#FCCAC8" stroke-width="5.84" stroke-linecap="round" mask="url(#mask-10)"></path>
                            <path d="M93.4554097,76.6097633 L85.1521675,76.6097633" id="Stroke-105" stroke="#FCCAC8" stroke-width="5.84" stroke-linecap="round" mask="url(#mask-10)"></path>
                            <path d="M86.1590139,101.833298 L86.1590139,75.2592685" id="Stroke-106" stroke="#EAAFA9" stroke-width="11.68" stroke-linecap="round" mask="url(#mask-10)"></path>
                            <path d="M90.2600882,77.8697786 L82.181305,77.8697786 C80.5596324,77.8697786 79.2441983,76.5543446 79.2441983,74.932672 L79.2441983,66.8538887 C79.2441983,65.2313461 80.5596324,63.9159121 82.181305,63.9159121 L90.2600882,63.9159121 C91.8826308,63.9159121 93.1971948,65.2313461 93.1971948,66.8538887 L93.1971948,74.932672 C93.1971948,76.5543446 91.8826308,77.8697786 90.2600882,77.8697786" id="Fill-107" fill="#EAAFA9" mask="url(#mask-10)"></path>
                            <path d="M83.8251625,68.0678812 L83.8251625,59.765509" id="Stroke-108" stroke="#EAAFA9" stroke-width="5.84" stroke-linecap="round" mask="url(#mask-10)"></path>
                            <path d="M93.4554097,66.4510806 L85.1521675,66.4510806" id="Stroke-109" stroke="#FCCAC8" stroke-width="5.84" stroke-linecap="round" mask="url(#mask-10)"></path>
                            <path d="M93.4554097,71.5235925 L85.1521675,71.5235925" id="Stroke-110" stroke="#FCCAC8" stroke-width="5.84" stroke-linecap="round" mask="url(#mask-10)"></path>
                            <path d="M93.4554097,76.6097633 L85.1521675,76.6097633" id="Stroke-111" stroke="#FCCAC8" stroke-width="5.84" stroke-linecap="round" mask="url(#mask-10)"></path>
                            <path d="M53.9461925,43.287001 C53.601674,43.287001 53.2919555,43.0494921 53.2136558,42.6997537 C53.0196467,41.8349776 52.2349103,41.2059705 51.3475143,41.2059705 C50.4601183,41.2059705 49.6753819,41.8341076 49.4805028,42.6988837 C49.3908932,43.1043018 48.990695,43.3609507 48.5826669,43.2678611 C48.1781187,43.1765115 47.9232099,42.7745733 48.0154295,42.3691552 C48.3677779,40.7996823 49.7380216,39.7026173 51.3483843,39.7034873 C52.957007,39.7034873 54.3281207,40.8005523 54.6804691,42.3708952 C54.7709487,42.7763133 54.5160399,43.1782515 54.1114917,43.2687311 C54.055812,43.280911 54.0001322,43.287001 53.9461925,43.287001" id="Fill-112" fill="#DD8783" mask="url(#mask-10)"></path>
                            <path d="M70.3639748,43.287001 C70.0203263,43.287001 69.7106077,43.0494921 69.6314381,42.6997537 C69.438299,41.8349776 68.6526925,41.2059705 67.7661666,41.2059705 C66.8787706,41.2059705 66.0940342,41.8341076 65.8991551,42.6988837 C65.8086755,43.1043018 65.4093473,43.3609507 65.0013192,43.2678611 C64.595901,43.1765115 64.3418622,42.7745733 64.4332118,42.3691552 C64.7855601,40.7996823 66.1558039,39.7026173 67.7661666,39.7034873 C69.3756593,39.7034873 70.745903,40.8005523 71.0982514,42.3708952 C71.188731,42.7763133 70.9346922,43.1782515 70.529274,43.2687311 C70.4744643,43.280911 70.4179145,43.287001 70.3639748,43.287001" id="Fill-113" fill="#DD8783" mask="url(#mask-10)"></path>
                        </g>
                        <g id="Group-127" transform="translate(174.869204, 170.620143)">
                            <path d="M105.826492,33.1584201 L84.1783809,51.4466069 C82.8020472,52.6089216 80.7445065,52.4366624 79.5821918,51.0603286 L61.3549048,29.4844268 C55.141393,22.1303503 56.0670688,11.1327303 63.4211454,4.92008861 C70.7752219,-1.29342311 81.7737118,-0.367747326 87.9854836,6.9863292 L106.212771,28.562231 C107.375955,29.9376947 107.202826,31.9961054 105.826492,33.1584201" id="Fill-115" fill="#FEC337"></path>
                            <path d="M91.8326931,72.9946688 L6.09284327,72.9946688 C2.80164825,72.9946688 0.133370393,70.3263909 0.133370393,67.0343259 L0.133370393,10.3097141 C0.133370393,7.01851906 2.80164825,4.3502412 6.09284327,4.3502412 L91.8326931,4.3502412 C95.1247581,4.3502412 97.7930359,7.01851906 97.7930359,10.3097141 L97.7930359,67.0343259 C97.7930359,70.3263909 95.1247581,72.9946688 91.8326931,72.9946688" id="Fill-117" fill="#D9DDDD"></path>
                            <path d="M53.7312165,35.5755301 L50.1155129,36.6534552 C49.3881962,36.8953141 48.5991098,36.904014 47.8309033,36.6743351 L44.1908399,35.58597 C44.1838799,35.58423 44.1760499,35.5824901 44.16909,35.5824901 C44.1490801,35.5824901 44.1316801,35.58858 44.1177602,35.59902 C44.1038403,35.6103299 44.0855704,35.6312098 44.0855704,35.6668797 L44.0733904,40.2761187 C44.0733904,40.3370184 44.1160202,40.3892182 44.1864899,40.4127081 L48.6295597,41.745542 C48.8392287,41.8038317 49.0593377,41.8003518 49.2594368,41.7351021 L53.7538364,40.3770382 C53.8103861,40.3631183 53.8504059,40.3039586 53.8504059,40.2430588 L53.8504059,35.6668797 C53.8504059,35.6268599 53.831266,35.6025 53.8147361,35.59119 C53.7895062,35.5737901 53.7564463,35.5677001 53.7312165,35.5755301" id="Fill-119" fill="#4580E2"></path>
                            <path d="M61.9137902,25.1326196 L51.7035167,22.0963334 C49.9148048,21.5638959 48.0112535,21.5638959 46.2234116,22.0963334 L36.0122681,25.1326196 C33.7180885,25.8538463 32.1564456,27.9809867 32.1564456,30.3865257 L32.1564456,46.9582103 C32.1564456,49.3646193 33.7180885,51.4908897 36.0122681,52.2121164 L46.2234116,55.2492725 C48.0112535,55.7808401 49.9148048,55.7808401 51.7035167,55.2492725 L61.9137902,52.2121164 C64.2088398,51.4908897 65.7696127,49.3646193 65.7696127,46.9582103 L65.7696127,30.3865257 C65.7696127,27.9809867 64.2088398,25.8538463 61.9137902,25.1326196 M43.4420343,47.7003169 C43.3532947,47.7003169 43.2662951,47.688137 43.1827755,47.6602971 L41.0686851,47.0373799 C40.6963268,46.9225404 40.438808,46.577152 40.438808,46.1987037 L40.4501179,33.5881111 C40.4501179,32.9156042 40.7589665,32.299647 41.2957541,31.8959688 C41.6689824,31.6149601 42.1092004,31.4670608 42.5685583,31.4670608 C42.7695273,31.4670608 42.9713664,31.4949007 43.1671155,31.5540604 L48.77859,33.2114028 C48.8551497,33.2174928 48.9125694,33.2201028 48.9569392,33.2201028 C49.0308889,33.2201028 49.0726487,33.2131428 49.1170185,33.2000929 L54.6667232,31.5453604 C54.8790022,31.4766307 55.1025912,31.4418309 55.3253102,31.4418309 C55.7811881,31.4418309 56.2196661,31.5871202 56.5937644,31.860299 C57.1592619,32.2744171 57.4837704,32.9156042 57.4837704,33.620301 L57.4837704,41.7086542 C57.4837704,42.4846906 56.9809127,43.1554576 56.2327161,43.3764366 L49.9017549,45.3139178 C49.6016063,45.4052674 49.2884077,45.4522471 48.9734691,45.4522471 C48.6611405,45.4522471 48.347942,45.4070073 48.0443133,45.3147878 L44.3033304,44.1977128 L44.3033304,46.8338008 C44.3033304,47.1139396 44.173701,47.3688484 43.950112,47.5341477 C43.7996027,47.6428972 43.6247335,47.7003169 43.4420343,47.7003169" id="Fill-121" fill="#4580E2"></path>
                            <path d="M243.806733,67.5674595 C243.806733,87.7287477 227.462988,104.072493 207.3017,104.072493 C187.140411,104.072493 170.795796,87.7287477 170.795796,67.5674595 C170.795796,47.4061712 187.140411,31.0624256 207.3017,31.0624256 C227.462988,31.0624256 243.806733,47.4061712 243.806733,67.5674595" id="Fill-123" fill="#FEC337"></path>
                            <path d="M217.456206,61.1558497 C215.088077,58.7877204 211.248785,58.7877204 208.881525,61.1558497 L207.301613,62.7348925 L205.72257,61.1558497 C203.35444,58.7877204 199.515148,58.7877204 197.146149,61.1558497 C194.77889,63.5239789 194.77889,67.3632714 197.146149,69.7305306 L198.726932,71.3104435 L206.794405,79.3779167 C207.074544,79.6589255 207.528681,79.6589255 207.80882,79.3779167 L215.877163,71.3104435 L217.456206,69.7305306 C219.825206,67.3632714 219.825206,63.5239789 217.456206,61.1558497" id="Fill-125" fill="#FFFFFF"></path>
                        </g>
                        <g id="Group-201" transform="translate(282.748713, 62.740634)">
                            <mask id="mask-12" fill="white">
                                <use xlink:href="#path-11"></use>
                            </mask>
                            <g id="Clip-129"></g>
                            <polygon id="Fill-128" fill="#75D85D" mask="url(#mask-12)" points="-41.2560822 165.695966 148.435244 165.695966 148.435244 -49.5314846 -41.2560822 -49.5314846"></polygon>
                            <path d="M36.0119201,75.5010404 C35.7352614,75.4758105 35.4638226,75.360101 35.2471936,75.153912 L33.1365832,73.1450911 C32.6250255,72.6578933 32.6050156,71.847927 33.0930834,71.3354993 C33.5794112,70.8248117 34.3902475,70.8048018 34.9018052,71.2911295 L37.0115456,73.2999504 C37.5231032,73.7871482 37.5439831,74.5971145 37.0559154,75.1086722 C36.7757766,75.4036008 36.3877584,75.5358402 36.0119201,75.5010404" id="Fill-130" fill="#AA5D52" mask="url(#mask-12)"></path>
                            <polygon id="Fill-131" fill="#B7B7B7" mask="url(#mask-12)" points="49.5810743 114.25745 52.6939202 114.25745 52.6939202 99.975595 49.5810743 99.975595"></polygon>
                            <path d="M42.8758409,123.817662 L41.4786272,122.420449 C41.2567782,122.1986 41.2567782,121.838421 41.4786272,121.616572 L51.1756031,111.919597 L53.3758231,114.120687 L43.6797172,123.817662 C43.4578682,124.039511 43.0976899,124.039511 42.8758409,123.817662" id="Fill-132" fill="#B7B7B7" mask="url(#mask-12)"></path>
                            <path d="M59.4779753,123.875865 L60.8751889,122.478652 C61.0970379,122.256803 61.0970379,121.897494 60.8751889,121.675645 L51.1782131,111.978669 L48.9779931,114.178889 L58.674099,123.875865 C58.8968179,124.097714 59.2561263,124.097714 59.4779753,123.875865" id="Fill-133" fill="#B7B7B7" mask="url(#mask-12)"></path>
                            <path d="M54.8484654,100.356218 C54.8484654,98.3065076 53.1867729,96.6448151 51.1370623,96.6448151 C49.0882216,96.6448151 47.4265292,98.3065076 47.4265292,100.356218 C47.4265292,102.405929 49.0882216,104.067621 51.1370623,104.067621 C53.1867729,104.067621 54.8484654,102.405929 54.8484654,100.356218" id="Fill-134" fill="#B7B7B7" mask="url(#mask-12)"></path>
                            <path d="M112.605502,68.6952354 C112.605502,66.6455247 110.943809,64.9838322 108.894098,64.9838322 C106.844388,64.9838322 105.183565,66.6455247 105.183565,68.6952354 C105.183565,70.744076 106.844388,72.4066385 108.894098,72.4066385 C110.943809,72.4066385 112.605502,70.744076 112.605502,68.6952354" id="Fill-135" fill="#B7B7B7" mask="url(#mask-12)"></path>
                            <path d="M12.5653528,91.6877517 C12.5653528,89.638041 10.9045304,87.9763486 8.8539497,87.9763486 C6.80510903,87.9763486 5.14341659,89.638041 5.14341659,91.6877517 C5.14341659,93.7374624 6.80510903,95.3991548 8.8539497,95.3991548 C10.9045304,95.3991548 12.5653528,93.7374624 12.5653528,91.6877517" id="Fill-136" fill="#B7B7B7" mask="url(#mask-12)"></path>
                            <path d="M63.3683366,90.518651 L38.9066579,90.518651 C37.6782235,90.518651 36.682948,91.5147965 36.682948,92.7423609 L36.682948,98.1319864 C36.682948,99.3604208 37.6782235,100.356566 38.9066579,100.356566 L63.3683366,100.356566 C64.595901,100.356566 65.5920465,99.3604208 65.5920465,98.1319864 L65.5920465,92.7423609 C65.5920465,91.5147965 64.595901,90.518651 63.3683366,90.518651" id="Fill-137" fill="#303030" mask="url(#mask-12)"></path>
                            <polygon id="Fill-138" fill="#AA5D52" mask="url(#mask-12)" points="38.1061746 122.508405 32.5034001 122.507535 32.5060101 100.943814 38.1105246 100.944684"></polygon>
                            <path d="M35.3067013,116.819066 L35.3067013,92.5531368 C35.3067013,89.7395696 37.5869609,87.45844 40.4005281,87.45844 L57.4515805,87.45844" id="Stroke-139" stroke="#64BDFF" stroke-width="8.755" mask="url(#mask-12)"></path>
                            <path d="M25.5183759,122.420101 L38.7031659,122.417491 C39.2530034,122.417491 39.6993113,122.863799 39.6993113,123.413636 L39.7001813,125.320668 L39.7010513,128.590983 C39.7010513,129.10602 39.2834532,129.522749 38.7684156,129.522749 L25.5157659,129.525359 L25.5148959,122.423581 C25.5157659,122.421841 25.5166359,122.420971 25.5183759,122.420101" id="Fill-140" fill="#F42F2F" mask="url(#mask-12)"></path>
                            <path d="M19.553335,127.79511 C20.1014325,125.71495 21.5865158,122.495095 25.5154179,122.423755 L25.5162879,129.525533 L20.8983489,129.526402 C19.991813,129.526402 19.3219161,128.671196 19.553335,127.79511" id="Fill-141" fill="#EAEAEA" mask="url(#mask-12)"></path>
                            <path d="M19.5193182,127.990076 L39.5074772,127.986597 C40.0155549,127.986597 40.426193,128.398105 40.426193,128.905312 C40.426193,129.41252 40.0155549,129.824028 39.5083472,129.824028 L19.5193182,129.828378 C19.0121105,129.828378 18.5997323,129.41687 18.5997323,128.909662 C18.5997323,128.401585 19.0112405,127.990076 19.5193182,127.990076" id="Fill-142" fill="#D8D8D8" mask="url(#mask-12)"></path>
                            <path d="M28.6526236,125.322321 L31.8263692,125.322321 C32.2578872,125.322321 32.6076256,124.971712 32.6076256,124.541064 L32.6067556,122.419144 L27.8713672,122.420014 L27.8713672,124.541934 C27.8713672,124.972582 28.2211056,125.322321 28.6526236,125.322321" id="Fill-143" fill="#F2F2F2" mask="url(#mask-12)"></path>
                            <polygon id="Fill-144" fill="#AA5D52" mask="url(#mask-12)" points="65.0259401 122.534331 70.6295846 122.533461 70.6261046 100.969739 65.0224601 100.970609"></polygon>
                            <path d="M67.8261963,116.844992 L67.8261963,92.5790627 C67.8261963,89.7654955 65.5450667,87.4843658 62.7323695,87.4843658 L45.6813171,87.4843658" id="Stroke-145" stroke="#64BDFF" stroke-width="8.755" mask="url(#mask-12)"></path>
                            <path d="M77.6145218,122.446027 L64.4297318,122.443417 C63.8798943,122.443417 63.4327163,122.889725 63.4327163,123.439562 L63.4327163,125.346594 L63.4318463,128.616909 C63.4318463,129.131946 63.8494444,129.548674 64.3636121,129.548674 L77.6171317,129.551284 L77.6180017,122.449507 C77.6171317,122.447767 77.6162618,122.446897 77.6145218,122.446027" id="Fill-146" fill="#F42F2F" mask="url(#mask-12)"></path>
                            <path d="M83.5795626,127.821036 C83.0305951,125.740876 81.5463819,122.52102 77.6174797,122.449681 L77.6166098,129.550588 L82.2345487,129.551458 C83.1402146,129.552328 83.8109816,128.697122 83.5795626,127.821036" id="Fill-147" fill="#EAEAEA" mask="url(#mask-12)"></path>
                            <path d="M83.6135795,128.016002 L63.6254204,128.012522 C63.1173427,128.012522 62.7067046,128.424031 62.7067046,128.931238 C62.7067046,129.438446 63.1173427,129.849954 63.6245504,129.849954 L83.6135795,129.854304 C84.1207871,129.854304 84.5331653,129.442796 84.5331653,128.935588 C84.5331653,128.427511 84.1216571,128.016002 83.6135795,128.016002" id="Fill-148" fill="#D8D8D8" mask="url(#mask-12)"></path>
                            <path d="M74.480361,125.348247 L71.3066155,125.348247 C70.8742274,125.348247 70.525359,124.997638 70.525359,124.56699 L70.525359,122.44507 L75.2616175,122.44594 L75.2616175,124.56786 C75.2607475,124.998508 74.9118791,125.348247 74.480361,125.348247" id="Fill-149" fill="#F2F2F2" mask="url(#mask-12)"></path>
                            <path d="M40.1469243,23.076123 C41.4379984,24.6664757 42.3558442,26.595257 42.7273325,28.7580671 C43.8818173,35.4822665 39.3674078,41.8697774 32.6432084,43.0242622 C32.6327685,43.0260022 32.6231985,43.0277422 32.6136286,43.0294822 C31.4661038,43.2234913 31.0928755,44.6781247 32.0316012,45.3645515 C34.7816587,47.3742424 38.3521225,48.2511984 41.9843559,47.451672 C47.9855886,46.1292781 52.1589596,40.4638638 51.6204321,34.3425717 C51.0705946,28.0681603 46.0385375,23.4728412 40.1469243,23.076123" id="Fill-150" fill="#303030" mask="url(#mask-12)"></path>
                            <path d="M57.3853738,42.9250826 L45.6117174,42.9233426 C42.3205224,42.9224727 39.6513745,45.5898805 39.6513745,48.8810755 L40.65622,58.8494902 C41.4270365,66.5158953 41.1381978,74.2510301 39.7957939,81.8382655 L39.6452846,82.6882517 C39.6444146,83.2145993 40.0715826,83.6408973 40.5979302,83.6408973 L62.3852411,83.6443773 C62.9115887,83.6452473 63.3378867,83.2180793 63.3378867,82.6917317 C61.7884238,74.5476987 61.4569553,66.2174866 62.3547912,57.9751441 L63.3439767,48.8854255 C63.3448467,45.5942305 60.6765688,42.9259526 57.3853738,42.9250826" id="Fill-151" fill="#9E69B7" mask="url(#mask-12)"></path>
                            <path d="M51.4984586,46.6072539 C49.8428562,46.6072539 48.5004523,45.26485 48.5013223,43.6092475 L48.5021923,38.7868595 L54.497335,38.7877295 L54.496465,43.6101175 C54.495595,45.26572 53.1531911,46.6072539 51.4984586,46.6072539" id="Fill-152" fill="#AA5D52" mask="url(#mask-12)"></path>
                            <path d="M51.6556669,3.00166034 C43.3124049,2.99992035 36.5473157,9.76239957 36.5464457,18.1056616 L36.5447057,26.4732835 L66.7579282,26.4785035 L66.7587982,18.1108816 C66.7605382,9.76761955 59.9989289,3.00253033 51.6556669,3.00166034" id="Fill-153" fill="#303030" mask="url(#mask-12)"></path>
                            <path d="M42.7135866,26.4741535 C42.7135866,24.1973739 40.868325,22.3521123 38.5924154,22.3512423 C36.3156357,22.3512423 34.4695041,24.1965039 34.4686341,26.4732835 C34.4686341,28.7491932 36.3147657,30.5953248 38.5906754,30.5953248 C40.867455,30.5961948 42.7127166,28.7509331 42.7135866,26.4741535" id="Fill-154" fill="#8C463F" mask="url(#mask-12)"></path>
                            <path d="M68.5339381,26.4787645 C68.5348081,24.2019849 66.6895465,22.3567233 64.4127668,22.3558533 C62.1359872,22.3558533 60.2898556,24.2011149 60.2898556,26.4778945 C60.2889856,28.7538041 62.1351172,30.5999357 64.4118968,30.5999357 C66.6878065,30.6008057 68.5339381,28.7555441 68.5339381,26.4787645" id="Fill-155" fill="#8C463F" mask="url(#mask-12)"></path>
                            <path d="M38.5930244,18.9470348 L38.5912844,28.5839809 C38.5895444,35.7135985 44.3689281,41.4947221 51.4994156,41.4964621 C58.6290332,41.4973321 64.4110269,35.7188184 64.4118968,28.5883309 L64.4136368,18.9513847 L57.7364172,12.6795833 L38.5930244,18.9470348 Z" id="Fill-156" fill="#AA5D52" mask="url(#mask-12)"></path>
                            <path d="M43.5292079,23.3760106 C43.2560291,23.3760106 43.0019903,23.2028814 42.9106407,22.9297026 C42.7966712,22.5886642 42.9811104,22.2197859 43.3238888,22.1058164 L46.4515246,21.0635611 C46.792563,20.9495917 47.1623114,21.1349008 47.2762808,21.4759393 C47.3893803,21.8169777 47.2049412,22.186726 46.8630327,22.3006955 L43.734527,23.3420808 C43.6666673,23.3655707 43.5970676,23.3760106 43.5292079,23.3760106" id="Fill-157" fill="#303030" mask="url(#mask-12)"></path>
                            <path d="M59.4754523,23.3225059 C59.4075926,23.3225059 59.3379929,23.3120659 59.2701332,23.288576 L56.1416275,22.2454508 C55.799719,22.1314813 55.6152799,21.762603 55.7292494,21.4215645 C55.8432188,21.0796561 56.2129672,20.8943469 56.5540056,21.0091864 L59.6816414,22.0523116 C60.0235498,22.1662811 60.207989,22.5351594 60.0940195,22.8770679 C60.0026699,23.1502466 59.7477611,23.3225059 59.4754523,23.3225059" id="Fill-158" fill="#303030" mask="url(#mask-12)"></path>
                            <path d="M48.6497436,27.2621089 C48.3513349,27.2621089 48.0825062,27.0559199 48.0146465,26.7531612 C47.8458672,26.0023547 47.1655303,25.4577371 46.3964538,25.4577371 C45.6265073,25.4577371 44.9461704,26.0014847 44.7773912,26.7522912 C44.6990916,27.1028996 44.3528331,27.3256186 43.9987448,27.244709 C43.6481363,27.1664094 43.4271574,26.8175409 43.506327,26.4660625 C43.8116956,25.1053887 45.0009802,24.1544831 46.3964538,24.1544831 C47.7927975,24.1544831 48.9812121,25.1053887 49.2857107,26.4669325 C49.3648803,26.8184109 49.1439013,27.1672794 48.7932929,27.245579 C48.7445732,27.2568889 48.6975934,27.2621089 48.6497436,27.2621089" id="Fill-159" fill="#683631" mask="url(#mask-12)"></path>
                            <path d="M58.8424432,27.2638489 C58.5440346,27.2638489 58.2752058,27.0576599 58.2073461,26.7549012 C58.0385669,26.0040947 57.35823,25.4594771 56.5882835,25.4594771 C55.819207,25.4594771 55.1388701,26.0040947 54.9700908,26.7540312 C54.8917912,27.1046396 54.5455328,27.3282286 54.1905744,27.246449 C53.839966,27.1681494 53.618987,26.8192809 53.6981566,26.4678025 C54.0035252,25.1071287 55.1928098,24.1562231 56.5891535,24.1562231 C57.9854971,24.1562231 59.1730417,25.1071287 59.4784103,26.4695425 C59.5575799,26.8210209 59.3366009,27.1690193 58.9859925,27.247319 C58.9372728,27.2586289 58.889423,27.2638489 58.8424432,27.2638489" id="Fill-160" fill="#683631" mask="url(#mask-12)"></path>
                            <path d="M55.3463641,33.840236 C55.7926721,33.840236 56.1563304,34.2369542 56.0762908,34.6763022 C55.6821826,36.8460723 53.7829812,38.4912348 51.4992416,38.4903648 C49.216372,38.4903648 47.3171706,36.8443323 46.9239324,34.6745622 C46.8447628,34.2352142 47.2084211,33.838496 47.6547291,33.839366 L55.3463641,33.840236 Z" id="Fill-161" fill="#1A1A1A" mask="url(#mask-12)"></path>
                            <path d="M52.3591457,36.6426672 C51.3160205,36.9636958 50.5887038,37.6927525 50.538244,38.3870093 C50.8497026,38.452259 51.1698611,38.4905388 51.4995896,38.4905388 C52.8150236,38.4905388 54.0025682,37.9424413 54.8482044,37.0637453 C54.4175563,36.5156478 53.4048809,36.3207687 52.3591457,36.6426672" id="Fill-162" fill="#F76C66" mask="url(#mask-12)"></path>
                            <path d="M55.3463641,33.8177031 L47.6547291,33.8168331 C47.2084211,33.8159631 46.8447628,34.2074613 46.9239324,34.6407193 C46.9726522,34.9069381 47.0457319,35.164457 47.1379515,35.4124058 L55.8614018,35.4132758 C55.9544913,35.166197 56.027571,34.9078081 56.0762908,34.6424593 C56.1563304,34.2092013 55.7926721,33.8177031 55.3463641,33.8177031" id="Fill-163" fill="#E6E7E8" mask="url(#mask-12)"></path>
                            <path d="M80.8889259,21.089313 C80.9254657,21.101493 80.9611355,21.1128029 80.9959354,21.1258529 C82.6567578,21.7287601 83.5154439,23.5644518 82.9116667,25.2252742 C73.2207808,51.9245827 61.0251763,50.5682589 59.6662424,50.32553 L60.7911473,44.0267586 C60.7911473,44.0267586 60.7467775,44.0145787 60.6597779,44.0067487 C60.7432975,44.0145787 69.1126595,44.4878565 76.897384,23.0415841 C77.4872413,21.4164315 79.2576833,20.5603554 80.8889259,21.089313" id="Fill-164" fill="#AA5D52" mask="url(#mask-12)"></path>
                            <path d="M57.5230072,42.9369146 L65.9463089,37.9057275 C66.350857,37.6647386 66.8745946,37.796978 67.1155835,38.2015261 L71.9284016,46.2585595 C72.1702605,46.6631076 72.0380211,47.1868452 71.633473,47.4287041 L63.2093013,52.4590212 C60.5801733,54.0293641 57.1758788,53.171548 55.6055359,50.54155 C54.0343231,47.9124219 54.8938792,44.5072574 57.5230072,42.9369146" id="Fill-165" fill="#9E69B7" mask="url(#mask-12)"></path>
                            <path d="M57.7447692,8.20971764 L36.683035,16.3789805 C36.7143549,16.5181798 36.7500247,16.6565092 36.7961345,16.7948386 C38.020219,20.4966717 43.8752923,21.8904054 49.871305,19.9059444 C55.8681877,17.9232234 59.7361901,13.3131144 58.5121057,9.61041126 C58.3424565,9.09798359 58.0805877,8.63079572 57.7447692,8.20971764" id="Fill-166" fill="#303030" mask="url(#mask-12)"></path>
                            <path d="M66.6724076,18.8574252 L57.138121,11.1362103 C57.0815712,11.1892801 57.0250215,11.2440898 56.9728217,11.3015096 C55.5590781,12.8779424 56.4821439,16.0134081 59.0355823,18.3041077 C61.5881507,20.5948073 64.8045261,21.1733546 66.2191396,19.5969218 C66.4148887,19.3785528 66.5636581,19.1288639 66.6724076,18.8574252" id="Fill-167" fill="#303030" mask="url(#mask-12)"></path>
                            <path d="M37.5606871,33.7288765 C37.0038896,33.7288765 36.5523616,33.2773485 36.5523616,32.7196811 L36.5549716,21.096534 L38.5716225,21.097404 L38.5698825,32.7205511 C38.5698825,33.2773485 38.1183545,33.7288765 37.5606871,33.7288765" id="Fill-168" fill="#303030" mask="url(#mask-12)"></path>
                            <path d="M65.5909155,33.7340095 C64.9418984,33.7340095 64.4155508,33.2076619 64.4155508,32.5586448 L64.4172908,21.101667 L66.7688901,21.102537 L66.7662801,32.5586448 C66.7662801,33.2085319 66.2399325,33.7340095 65.5909155,33.7340095" id="Fill-169" fill="#303030" mask="url(#mask-12)"></path>
                            <path d="M46.0534144,64.1031353 L57.3285631,64.1048752 C58.1550593,64.1048752 58.8258263,63.4349783 58.8258263,62.6084821 C58.8258263,61.7819858 58.1550593,61.1120889 57.3285631,61.1120889 L46.0542844,61.1094789 C45.2277882,61.1094789 44.5570212,61.7793758 44.5570212,62.6058721 C44.5570212,63.4323683 45.2269182,64.1031353 46.0534144,64.1031353" id="Fill-170" fill="#7C489B" mask="url(#mask-12)"></path>
                            <path d="M49.2818827,30.6002837 L54.1007908,30.6002837" id="Fill-171" fill="#FFFFFF" mask="url(#mask-12)"></path>
                            <path d="M54.1008778,31.3478713 L49.2819697,31.3478713 C48.8687216,31.3478713 48.5346431,31.0129229 48.5346431,30.6005447 C48.5346431,30.1872966 48.8687216,29.8523481 49.2819697,29.8523481 L54.1008778,29.8523481 C54.5141259,29.8523481 54.8482044,30.1872966 54.8482044,30.6005447 C54.8482044,31.0129229 54.5141259,31.3478713 54.1008778,31.3478713" id="Fill-172" fill="#683631" mask="url(#mask-12)"></path>
                            <polygon id="Fill-173" fill="#B7B7B7" mask="url(#mask-12)" points="76.022864 125.971077 79.1348398 125.971077 79.1348398 104.865843 76.022864 104.865843"></polygon>
                            <path d="M69.3172825,135.388001 L67.9200689,133.990787 C67.6982199,133.768938 67.6982199,133.40963 67.9200689,133.187781 L77.6161748,123.490805 L79.8172647,125.691025 L70.1202889,135.388001 C69.8984399,135.60985 69.5391315,135.60985 69.3172825,135.388001" id="Fill-174" fill="#B7B7B7" mask="url(#mask-12)"></path>
                            <path d="M85.919417,135.446639 L87.3157606,134.049425 C87.5376096,133.827576 87.5376096,133.468268 87.3157606,133.246419 L77.6196547,123.549443 L75.4194348,125.749663 L85.1155406,135.446639 C85.3373896,135.668488 85.696698,135.668488 85.919417,135.446639" id="Fill-175" fill="#B7B7B7" mask="url(#mask-12)"></path>
                            <path d="M81.289907,105.246988 C81.289907,103.197277 79.6282146,101.535585 77.5785039,101.535585 C75.5287933,101.535585 73.8671008,103.197277 73.8671008,105.246988 C73.8671008,107.295829 75.5287933,108.958391 77.5785039,108.958391 C79.6282146,108.958391 81.289907,107.295829 81.289907,105.246988" id="Fill-176" fill="#B7B7B7" mask="url(#mask-12)"></path>
                            <polygon id="Fill-177" fill="#F42F2F" mask="url(#mask-12)" points="94.0569249 103.436526 60.9909854 107.511588 58.9934745 91.3035615 92.059414 87.2285"></polygon>
                            <path d="M92.492846,88.7957109 L58.9536287,92.9290621 C58.0314329,93.0430315 57.1910167,92.3870545 57.0770472,91.4639887 C56.9630777,90.5409229 57.6190548,89.7013768 58.5421206,89.5874073 L92.0804679,85.4540561 C93.0044037,85.3400866 93.8448199,85.9960636 93.9587894,86.9191294 C94.0710189,87.8413252 93.4159118,88.6826114 92.492846,88.7957109" id="Fill-178" fill="#B7B7B7" mask="url(#mask-12)"></path>
                            <path d="M68.3759468,95.1528589 L69.1258834,101.240221 C69.2398529,102.163287 68.5838759,103.003703 67.6616801,103.116803 C66.7386143,103.230772 65.8981981,102.574795 65.7842286,101.652599 L65.034292,95.5643671 C64.9203225,94.6421713 65.5762995,93.8017551 66.4993653,93.6877856 C67.4224311,93.5738161 68.2628473,94.2297931 68.3759468,95.1528589" id="Fill-179" fill="#D31818" mask="url(#mask-12)"></path>
                            <path d="M77.8047899,93.9905442 L78.5547265,100.078777 C78.668696,101.000972 78.0127189,101.841388 77.0905231,101.955358 C76.1674573,102.069327 75.3270412,101.41335 75.2130717,100.490285 L74.4631351,94.4029224 C74.3491656,93.4798566 75.0051426,92.6394404 75.9282084,92.5254709 C76.8512742,92.4123714 77.6916904,93.0674784 77.8047899,93.9905442" id="Fill-180" fill="#D31818" mask="url(#mask-12)"></path>
                            <path d="M87.8998759,92.8941752 L88.6498125,98.9824075 C88.763782,99.9046033 88.107805,100.745019 87.1856092,100.858989 C86.2616734,100.972088 85.4212572,100.316111 85.3081577,99.3939156 L84.5582212,93.3056833 C84.4442517,92.3834875 85.1002287,91.5430714 86.0232945,91.4291019 C86.9454903,91.3160024 87.7859065,91.9711094 87.8998759,92.8941752" id="Fill-181" fill="#D31818" mask="url(#mask-12)"></path>
                            <path d="M94.476611,104.893596 L60.9373937,109.026947 C60.0151979,109.140916 59.1747817,108.484939 59.0608122,107.561873 C58.9468427,106.638808 59.6028197,105.799261 60.5258855,105.685292 L94.0642329,101.551941 C94.9881687,101.437971 95.8285849,102.093948 95.9425543,103.017014 C96.0547838,103.93921 95.3996768,104.779626 94.476611,104.893596" id="Fill-182" fill="#B7B7B7" mask="url(#mask-12)"></path>
                            <path d="M72.076823,91.3117394 L58.9538027,92.9290621 C58.0307369,93.0430315 57.1911907,92.3870545 57.0772212,91.4639887 C56.9632517,90.5409229 57.6192288,89.7005068 58.5414246,89.5874073 L71.6644448,87.9700846 C72.5875106,87.8561151 73.4279268,88.5120922 73.5418963,89.435158 C73.6549958,90.3573538 72.9998888,91.1986399 72.076823,91.3117394" id="Fill-183" fill="#E8E8E8" mask="url(#mask-12)"></path>
                            <path d="M77.6926474,28.7680721 L72.0428931,9.31844059 C71.9071737,8.85125272 72.1751325,8.36405493 72.6414504,8.22833555 C73.0868884,8.09870614 73.5532062,8.34056504 73.7124155,8.76860309 L80.7245836,27.7693166 C81.0308222,28.5966829 80.6080041,29.5153987 79.7788979,29.8207673 C78.9515317,30.1270059 78.0336859,29.7033178 77.7274472,28.8759516 C77.7143973,28.8411517 77.7030874,28.8028719 77.6926474,28.7680721" id="Fill-184" fill="#FCC846" mask="url(#mask-12)"></path>
                            <path d="M73.4039149,6.66643166 C73.6753537,7.4929279 73.3508452,8.34204403 72.6792082,8.56302303 C72.0075713,8.78487202 71.2419748,8.29419425 70.969666,7.46856801 C70.6973572,6.64294177 71.0218658,5.79382563 71.6943727,5.57197664 C72.3668796,5.35012765 73.1324762,5.84080542 73.4039149,6.66643166" id="Fill-185" fill="#FCC846" mask="url(#mask-12)"></path>
                            <path d="M30.5072812,71.6965477 L48.2543304,81.4552933 C48.6806284,81.6893222 48.8354877,82.2234998 48.6023288,82.6489278 C48.3787398,83.056086 47.8784921,83.2144253 47.463504,83.0247661 L29.0691777,74.5475247 C28.2670414,74.1786464 27.9164329,73.2294807 28.2861813,72.4282144 C28.6550596,71.626948 29.6042253,71.2763396 30.4063616,71.6452179 C30.4394215,71.6608779 30.4750913,71.6791478 30.5072812,71.6965477" id="Fill-186" fill="#FCC846" mask="url(#mask-12)"></path>
                            <path d="M49.1672172,84.2923504 C48.3903108,83.9008522 48.0205624,83.0708759 48.338981,82.4392588 C48.6573996,81.8076417 49.5456655,81.6118926 50.321702,82.0042608 C51.0986084,82.395759 51.4692268,83.2257352 51.1499382,83.8573523 C50.8315197,84.4898395 49.9441237,84.6838486 49.1672172,84.2923504" id="Fill-187" fill="#FCC846" mask="url(#mask-12)"></path>
                            <path d="M78.7784895,24.8161151 C78.8489591,25.0858138 78.8324292,25.3790025 78.7123698,25.6530512 L77.5430951,28.3213291 C77.2594764,28.9686062 76.5051898,29.2635348 75.8579128,28.9799161 C75.2097657,28.6954274 74.915707,27.9411408 75.1993258,27.2938638 L76.3677304,24.6255859 C76.6522191,23.9783089 77.4065057,23.6833802 78.0537828,23.9669989 C78.4270111,24.1305582 78.6827899,24.4507167 78.7784895,24.8161151" id="Fill-188" fill="#AA5D52" mask="url(#mask-12)"></path>
                            <path d="M30.6916333,78.9415267 C30.6542235,78.9380467 30.6168137,78.9345668 30.5794038,78.9293468 C28.8263618,78.7066278 27.5866174,77.1049651 27.8093364,75.3527931 C31.3893701,47.1744913 43.5832346,45.8146875 44.9621784,45.7529178 L45.2510171,52.1447787 C45.2510171,52.1447787 45.2979968,52.1473887 45.3841264,52.1352087 C45.3014768,52.1465187 37.0321645,53.5263324 34.1559575,76.1584094 C33.9384585,77.8740416 32.4003055,79.098996 30.6916333,78.9415267" id="Fill-189" fill="#AA5D52" mask="url(#mask-12)"></path>
                            <path d="M48.6794974,52.4886011 L41.5690198,59.2493403 C41.2279814,59.5747189 40.6868438,59.5607989 40.3623353,59.2188905 L33.8965247,52.4172614 C33.5720162,52.076223 33.5850661,51.5359554 33.9269746,51.2114469 L41.0374522,44.4507077 C43.2568121,42.3400973 46.7672462,42.4288369 48.8778565,44.6481968 C50.9875969,46.8684267 50.8988573,50.3779907 48.6794974,52.4886011" id="Fill-190" fill="#9E69B7" mask="url(#mask-12)"></path>
                            <path d="M55.593617,48.8459277 L47.4017343,48.8450577 C45.7661417,48.8441877 44.4411377,47.5183137 44.4420077,45.8835912 C44.4420077,44.2479986 45.7678817,42.9229946 47.4026043,42.9229946 L55.595357,42.9247346 C57.2300795,42.9247346 58.5550835,44.2506086 58.5550835,45.8862012 C58.5542135,47.5209237 57.2292095,48.8459277 55.593617,48.8459277" id="Fill-191" fill="#AA5D52" mask="url(#mask-12)"></path>
                            <path d="M9.01733496,72.9726579 L9.01733496,126.423475" id="Stroke-192" stroke="#B7B7B7" stroke-width="4.041" stroke-linecap="round" mask="url(#mask-12)"></path>
                            <path d="M0.716702738,136.534569 L-0.680510903,135.137355 C-0.902359893,134.915506 -0.902359893,134.555328 -0.680510903,134.333479 L9.01646496,124.636503 L11.216685,126.837593 L1.51970908,136.534569 C1.29786009,136.756418 0.938551728,136.756418 0.716702738,136.534569" id="Fill-193" fill="#B7B7B7" mask="url(#mask-12)"></path>
                            <path d="M17.3188372,136.592771 L18.7160508,135.195558 C18.9378998,134.973709 18.9378998,134.6144 18.7160508,134.392551 L9.01907495,124.695575 L6.81885497,126.895795 L16.5149608,136.592771 C16.7368098,136.81462 17.0969882,136.81462 17.3188372,136.592771" id="Fill-194" fill="#B7B7B7" mask="url(#mask-12)"></path>
                            <path d="M7.43542116,79.7375731 L-9.26241284,83.5672957 C-10.3960177,83.8265545 -10.2072285,85.4943369 -9.04491383,85.4943369 L27.0799318,85.4943369 C28.2431165,85.4943369 28.4319056,83.8265545 27.2983008,83.5672957 L10.6004668,79.7375731 C9.5582115,79.4983242 8.47680642,79.4983242 7.43542116,79.7375731" id="Fill-195" fill="#FCC846" mask="url(#mask-12)"></path>
                            <path d="M10.6002058,91.2905115 L27.2980398,87.4607889 C28.4316446,87.2006601 28.2428555,85.5328777 27.0796708,85.5328777 L-9.04517483,85.5328777 C-10.2074895,85.5328777 -10.3962787,87.2006601 -9.26267384,87.4607889 L7.43516016,91.2905115 C8.47741542,91.5288904 9.5588205,91.5288904 10.6002058,91.2905115" id="Fill-196" fill="#F9974E" mask="url(#mask-12)"></path>
                            <path d="M108.894446,58.1062525 L108.894446,124.847999" id="Stroke-197" stroke="#B7B7B7" stroke-width="4.041" stroke-linecap="round" mask="url(#mask-12)"></path>
                            <path d="M100.592944,134.959006 L99.1966005,133.561792 C98.9738815,133.339943 98.9738815,132.979765 99.1966005,132.757916 L108.892706,123.06094 L111.092926,125.26203 L101.396821,134.959006 C101.174972,135.180855 100.814793,135.180855 100.592944,134.959006" id="Fill-198" fill="#B7B7B7" mask="url(#mask-12)"></path>
                            <path d="M117.195079,135.017644 L118.592292,133.62043 C118.814141,133.398581 118.814141,133.038403 118.592292,132.816554 L108.896186,123.119578 L106.695096,125.320668 L116.392072,135.017644 C116.613921,135.239492 116.97323,135.239492 117.195079,135.017644" id="Fill-199" fill="#B7B7B7" mask="url(#mask-12)"></path>
                            <path d="M106.552069,61.8542825 L85.689564,71.3668192 C84.2732105,72.0114863 84.9692073,74.1473265 86.4934404,73.834998 L133.856895,64.1188822 C135.381128,63.8065536 135.180159,61.5689238 133.624606,61.5332539 L110.70195,61.0025564 C109.271677,60.9703665 107.852713,61.2609452 106.552069,61.8542825" id="Fill-200" fill="#FCC846" mask="url(#mask-12)"></path>
                        </g>
                        <g id="Group-244" transform="translate(0.000000, 0.100920)">
                            <path d="M278.407694,35.3894379 C278.407694,16.269535 293.907543,0.769685497 313.028316,0.769685497 C332.148219,0.769685497 347.648069,16.269535 347.648069,35.3894379 C347.648069,54.5102109 332.148219,70.0091904 313.028316,70.0091904 C293.907543,70.0091904 278.407694,54.5102109 278.407694,35.3894379" id="Fill-202" fill="#947BFF"></path>
                            <path d="M323.146283,28.782079 L310.083293,41.8450696 C309.880584,42.0477786 309.552595,42.0477786 309.349886,41.8450696 L302.909305,35.4053589" id="Stroke-204" stroke="#FFFFFF" stroke-width="7.67" stroke-linecap="round"></path>
                            <path d="M97.3491639,283.618709 L46.3221562,283.618709 C43.5825386,283.618709 41.3614388,281.398479 41.3614388,278.658862 L41.3614388,227.630984 C41.3614388,224.892236 43.5825386,222.671137 46.3221562,222.671137 L97.3491639,222.671137 C100.087911,222.671137 102.309011,224.892236 102.309011,227.630984 L102.309011,278.658862 C102.309011,281.398479 100.087911,283.618709 97.3491639,283.618709" id="Fill-206" fill="#EA5334"></path>
                            <path d="M67.9179809,251.115309 L60.5177946,251.115309 C59.6799884,251.115309 59.0013915,250.436712 59.0013915,249.598906 L59.0013915,242.19872 C59.0013915,241.361784 59.6799884,240.682317 60.5177946,240.682317 L67.9179809,240.682317 C68.7557871,240.682317 69.434384,241.361784 69.434384,242.19872 L69.434384,249.598906 C69.434384,250.436712 68.7557871,251.115309 67.9179809,251.115309" id="Fill-208" fill="#FFFFFF"></path>
                            <path d="M83.1530906,251.115309 L75.7529042,251.115309 C74.915098,251.115309 74.2365011,250.436712 74.2365011,249.598906 L74.2365011,242.19872 C74.2365011,241.361784 74.915098,240.682317 75.7529042,240.682317 L83.1530906,240.682317 C83.9908967,240.682317 84.6694937,241.361784 84.6694937,242.19872 L84.6694937,249.598906 C84.6694937,250.436712 83.9908967,251.115309 83.1530906,251.115309" id="Fill-210" fill="#FFFFFF"></path>
                            <path d="M67.9179809,265.607529 L60.5177946,265.607529 C59.6799884,265.607529 59.0013915,264.928932 59.0013915,264.091126 L59.0013915,256.69094 C59.0013915,255.853134 59.6799884,255.174537 60.5177946,255.174537 L67.9179809,255.174537 C68.7557871,255.174537 69.434384,255.853134 69.434384,256.69094 L69.434384,264.091126 C69.434384,264.928932 68.7557871,265.607529 67.9179809,265.607529" id="Fill-212" fill="#FFFFFF"></path>
                            <path d="M83.1530906,265.607529 L75.7529042,265.607529 C74.915098,265.607529 74.2365011,264.928932 74.2365011,264.091126 L74.2365011,256.69094 C74.2365011,255.853134 74.915098,255.174537 75.7529042,255.174537 L83.1530906,255.174537 C83.9908967,255.174537 84.6694937,255.853134 84.6694937,256.69094 L84.6694937,264.091126 C84.6694937,264.928932 83.9908967,265.607529 83.1530906,265.607529" id="Fill-214" fill="#FFFFFF"></path>
                            <path d="M459.605684,152.684305 C459.605684,133.224234 443.830046,117.449465 424.370845,117.449465 C404.911643,117.449465 389.136005,133.224234 389.136005,152.684305 C389.136005,172.144377 404.911643,187.919145 424.370845,187.919145 C443.830046,187.919145 459.605684,172.144377 459.605684,152.684305" id="Fill-216" fill="#FC8738"></path>
                            <path d="M421.299498,143.412148 C421.299498,139.826895 418.392841,136.921108 414.808457,136.921108 C411.224073,136.921108 408.318287,139.826895 408.318287,143.412148 C408.318287,146.996532 411.224073,149.902319 414.808457,149.902319 C418.392841,149.902319 421.299498,146.996532 421.299498,143.412148" id="Fill-218" fill="#FFFFFF"></path>
                            <path d="M421.299498,161.956462 C421.299498,158.372078 418.392841,155.466291 414.808457,155.466291 C411.224073,155.466291 408.318287,158.372078 408.318287,161.956462 C408.318287,165.541716 411.224073,168.447502 414.808457,168.447502 C418.392841,168.447502 421.299498,165.541716 421.299498,161.956462" id="Fill-220" fill="#FFFFFF"></path>
                            <path d="M440.423229,143.412148 C440.423229,139.826895 437.517442,136.921108 433.933058,136.921108 C430.348674,136.921108 427.442018,139.826895 427.442018,143.412148 C427.442018,146.996532 430.348674,149.902319 433.933058,149.902319 C437.517442,149.902319 440.423229,146.996532 440.423229,143.412148" id="Fill-222" fill="#FFFFFF"></path>
                            <path d="M440.423229,161.956462 C440.423229,158.372078 437.517442,155.466291 433.933058,155.466291 C430.348674,155.466291 427.442018,158.372078 427.442018,161.956462 C427.442018,165.541716 430.348674,168.447502 433.933058,168.447502 C437.517442,168.447502 440.423229,165.541716 440.423229,161.956462" id="Fill-224" fill="#FFFFFF"></path>
                            <path d="M414.837428,142.774528 L414.837428,162.710487" id="Stroke-226" stroke="#FFFFFF" stroke-width="4.263"></path>
                            <path d="M433.962029,143.006469 L433.962029,162.942428" id="Stroke-228" stroke="#FFFFFF" stroke-width="4.263"></path>
                            <path d="M414.432097,162.362141 L434.367186,162.362141" id="Stroke-230" stroke="#FFFFFF" stroke-width="4.263"></path>
                            <path d="M414.432097,143.353946 L434.367186,143.353946" id="Stroke-232" stroke="#FFFFFF" stroke-width="4.263"></path>
                            <path d="M59.4873713,176.355592 C60.6766558,159.950947 48.341852,145.687362 31.9372066,144.497207 C15.5325613,143.307923 1.26897622,155.641857 0.0796916373,172.047372 C-1.11046295,188.452017 11.2234709,202.715602 27.6289863,203.905757 C44.0345016,205.095042 58.2980867,192.760238 59.4873713,176.355592" id="Fill-234" fill="#22D1AF"></path>
                            <path d="M42.1511342,184.283692 L27.7309498,184.283692 L32.3845586,179.081986 L42.1511342,179.081986 L42.1511342,184.283692 Z M23.3305098,182.799479 L18.5533616,183.851304 C18.3349926,183.900024 18.1357635,183.715585 18.1653433,183.494606 L18.8213203,178.637418 C18.8944,178.09715 19.2554484,177.324594 19.6225867,176.922656 L28.794085,166.806342 L34.0975808,171.71051 L24.9704524,181.848573 C24.602444,182.253992 23.8638174,182.68203 23.3305098,182.799479 Z M33.0309657,162.287582 C33.9009617,161.337547 35.374735,161.268817 36.3291207,162.134463 L38.2013521,163.830085 C39.1609578,164.699211 39.2331674,166.183425 38.3614314,167.14129 L36.3491306,169.35021 L31.0499847,164.449523 L33.0309657,162.287582 Z" id="Fill-236" fill="#FFFFFF"></path>
                            <path d="M106.861353,40.2521938 C106.861353,23.3064109 120.59859,9.57004344 137.544373,9.57004344 C154.489286,9.57004344 168.226523,23.3064109 168.226523,40.2521938 C168.226523,57.1979767 154.489286,70.9352142 137.544373,70.9352142 C120.59859,70.9352142 106.861353,57.1979767 106.861353,40.2521938" id="Fill-238" fill="#4580E2"></path>
                            <path d="M144.243169,32.5041831 C144.243169,36.3469556 141.127713,39.4615414 137.28581,39.4615414 C133.443908,39.4615414 130.328452,36.3469556 130.328452,32.5041831 C130.328452,28.6614106 133.443908,25.5468247 137.28581,25.5468247 C141.127713,25.5468247 144.243169,28.6614106 144.243169,32.5041831" id="Fill-240" fill="#FFFFFF"></path>
                            <path d="M126.742154,52.1767945 L126.742154,48.6115508 C126.742154,45.1072067 129.583561,42.2657996 133.087905,42.2657996 L141.548617,42.2657996 C145.052961,42.2657996 147.893498,45.1072067 147.893498,48.6115508 L147.893498,52.1767945 C147.893498,53.7123375 146.648534,54.9573019 145.112991,54.9573019 L129.521792,54.9573019 C127.987119,54.9573019 126.742154,53.7123375 126.742154,52.1767945" id="Fill-242" fill="#FFFFFF"></path>
                        </g>
                    </g>
                </g>
            </g>
        </g>
    </g>
</svg>