<svg id="Layer_1" data-name="Layer 1" xmlns="http://www.w3.org/2000/svg" xmlns:xlink="http://www.w3.org/1999/xlink" viewBox="0 0 745 572">
  <defs>
    <clipPath id="clip-path">
      <path d="M68-269.369v132.611A31.258,31.258,0,0,0,99.258-105.5h448.4c27.354,0,41.513-32.651,22.819-52.62L382.691-358.7a31.256,31.256,0,0,0-30.707-8.883L91.369-299.615A31.258,31.258,0,0,0,68-269.369Z" fill="none"/>
    </clipPath>
    <clipPath id="clip-path-2">
      <path d="M745,304.646V27.148A22.309,22.309,0,0,0,722.69,4.839H607.213A22.312,22.312,0,0,0,589.336,13.8L415.355,246.811a22.309,22.309,0,0,0,14.487,35.4L719.3,326.7A22.31,22.31,0,0,0,745,304.646Z" fill="none"/>
    </clipPath>
    <clipPath id="clip-path-3">
      <path d="M509.436,5.3H27.055a22.31,22.31,0,0,0-22.31,22.31V204.66a22.309,22.309,0,0,0,18.921,22.05L337.8,274.99a22.309,22.309,0,0,0,21.265-8.7L527.313,40.953A22.31,22.31,0,0,0,509.436,5.3Z" fill="none"/>
    </clipPath>
    <clipPath id="clip-path-4">
      <path d="M725.164,365.712l-319.7-49.134a22.309,22.309,0,0,0-21.265,8.7L230.936,530.549a22.309,22.309,0,0,0,17.876,35.657H721.775a22.309,22.309,0,0,0,22.31-22.309V387.763A22.31,22.31,0,0,0,725.164,365.712Z" fill="none"/>
    </clipPath>
    <clipPath id="clip-path-5">
      <path d="M2,288.234V544.812a22.309,22.309,0,0,0,22.31,22.309h124.9a22.309,22.309,0,0,0,17.876-8.962l159-212.945a22.31,22.31,0,0,0-14.487-35.4L27.7,266.183A22.31,22.31,0,0,0,2,288.234Z" fill="none"/>
    </clipPath>
  </defs>
  <title>resources</title>
  <g clip-path="url(#clip-path)">
    <g>
      <rect x="330.924" y="-67.524" width="19.507" height="142.434" fill="#aa5d52"/>
      <path d="M372.4,74.217l-46.113-.009v.251l0,20.007a3.055,3.055,0,0,0,3.055,3.056l43.487.008,0-23.3C372.685,74.225,372.545,74.217,372.4,74.217Z" fill="#d31818"/>
      <path d="M392.39,91.853c-1.8-6.825-6.671-17.39-19.561-17.625l0,23.3,15.152,0A4.545,4.545,0,0,0,392.39,91.853Z" fill="#eaeaea"/>
      <rect x="323.901" y="92.487" width="71.616" height="6.031" rx="3.015" ry="3.015" fill="#bababa"/>
      <path d="M350.417,74.214h15.541a0,0,0,0,1,0,0v6.962a2.563,2.563,0,0,1-2.563,2.563H352.98a2.563,2.563,0,0,1-2.563-2.563V74.214A0,0,0,0,1,350.417,74.214Z" fill="#d8d8d8"/>
      <rect x="298.352" y="-67.53" width="18.386" height="142.434" fill="#aa5d52"/>
      <rect x="326.989" y="-67.524" width="27.38" height="121.779" fill="#115fea"/>
      <rect x="293.857" y="-67.53" width="27.38" height="121.779" fill="#115fea"/>
      <path d="M339.986,74.211,296.723,74.2a3.269,3.269,0,0,0-3.269,3.268v6.257l0,10.732a3.055,3.055,0,0,0,3.055,3.056l43.487.008,0-23.3Z" fill="#f42f2f"/>
      <path d="M359.558,91.847c-1.8-6.825-6.671-17.39-19.561-17.625l0,23.3,15.152,0A4.545,4.545,0,0,0,359.558,91.847Z" fill="#eaeaea"/>
      <rect x="291.069" y="92.482" width="71.616" height="6.031" rx="3.015" ry="3.015" fill="#d8d8d8"/>
      <path d="M316.725,74.208h15.541a0,0,0,0,1,0,0V81.17a2.563,2.563,0,0,1-2.563,2.563H319.288a2.563,2.563,0,0,1-2.563-2.563V74.208A0,0,0,0,1,316.725,74.208Z" fill="#f2f2f2"/>
      <rect x="330.924" y="-67.524" width="19.507" height="142.434" fill="#aa5d52"/>
      <g>
        <path d="M372.4,74.217l-46.113-.009v.251l0,20.007a3.055,3.055,0,0,0,3.055,3.056l43.487.008,0-23.3C372.685,74.225,372.545,74.217,372.4,74.217Z" fill="#d31818"/>
        <path d="M392.39,91.853c-1.8-6.825-6.671-17.39-19.561-17.625l0,23.3,15.152,0A4.545,4.545,0,0,0,392.39,91.853Z" fill="#eaeaea"/>
        <rect x="323.901" y="92.487" width="71.616" height="6.031" rx="3.015" ry="3.015" fill="#bababa"/>
        <path d="M350.417,74.214h15.541a0,0,0,0,1,0,0v6.962a2.563,2.563,0,0,1-2.563,2.563H352.98a2.563,2.563,0,0,1-2.563-2.563V74.214A0,0,0,0,1,350.417,74.214Z" fill="#d8d8d8"/>
      </g>
      <rect x="298.352" y="-67.53" width="18.386" height="142.434" fill="#aa5d52"/>
      <rect x="326.989" y="-67.524" width="27.38" height="121.779" fill="#64bdff"/>
      <rect x="293.857" y="-67.53" width="27.38" height="121.779" fill="#64bdff"/>
      <g>
        <path d="M339.986,74.211,296.723,74.2a3.269,3.269,0,0,0-3.269,3.268v6.257l0,10.732a3.055,3.055,0,0,0,3.055,3.056l43.487.008,0-23.3Z" fill="#f42f2f"/>
        <path d="M359.558,91.847c-1.8-6.825-6.671-17.39-19.561-17.625l0,23.3,15.152,0A4.545,4.545,0,0,0,359.558,91.847Z" fill="#eaeaea"/>
        <rect x="291.069" y="92.482" width="71.616" height="6.031" rx="3.015" ry="3.015" fill="#d8d8d8"/>
        <path d="M316.725,74.208h15.541a0,0,0,0,1,0,0V81.17a2.563,2.563,0,0,1-2.563,2.563H319.288a2.563,2.563,0,0,1-2.563-2.563V74.208A0,0,0,0,1,316.725,74.208Z" fill="#f2f2f2"/>
      </g>
    </g>
  </g>
  <path d="M745,304.646V27.148A22.309,22.309,0,0,0,722.69,4.839H607.213A22.312,22.312,0,0,0,589.336,13.8L415.355,246.811a22.309,22.309,0,0,0,14.487,35.4L719.3,326.7A22.31,22.31,0,0,0,745,304.646Z" fill="#ff7364"/>
  <path d="M509.436,5.3H27.055a22.31,22.31,0,0,0-22.31,22.31V204.66a22.309,22.309,0,0,0,18.921,22.05L337.8,274.99a22.309,22.309,0,0,0,21.265-8.7L527.313,40.953A22.31,22.31,0,0,0,509.436,5.3Z" fill="#ff7364"/>
  <path d="M725.164,365.712l-319.7-49.134a22.309,22.309,0,0,0-21.265,8.7L230.936,530.549a22.309,22.309,0,0,0,17.876,35.657H721.775a22.309,22.309,0,0,0,22.31-22.309V387.763A22.31,22.31,0,0,0,725.164,365.712Z" fill="#ff7364"/>
  <path d="M2,287.319V543.9a22.309,22.309,0,0,0,22.31,22.309h124.9a22.309,22.309,0,0,0,17.876-8.962l159-212.945A22.31,22.31,0,0,0,311.6,308.9L27.7,265.268A22.31,22.31,0,0,0,2,287.319Z" fill="#ff7364"/>
  <g clip-path="url(#clip-path-2)">
    <g>
      <path d="M689.487,101.841h0a14.186,14.186,0,0,1,14.186,14.186V178.9a0,0,0,0,1,0,0H675.3a0,0,0,0,1,0,0v-62.87A14.186,14.186,0,0,1,689.487,101.841Z" transform="translate(276.317 -429.18) rotate(42.534)" fill="#ffc1b0"/>
      <path d="M679.65,122.985h0A21.115,21.115,0,0,1,700.765,144.1v55.942a0,0,0,0,1,0,0H672.393a0,0,0,0,1,0,0v-69.8A7.258,7.258,0,0,1,679.65,122.985Z" transform="translate(1231.237 -286.622) rotate(127.315)" fill="#ffc1b0"/>
      <path d="M665.023,180.59l28.408-.362,8.035,14.636a12.736,12.736,0,0,1,1.57,5.964l.464,36.338a5.934,5.934,0,0,1-5.857,6.009h0a17.262,17.262,0,0,1-17.481-17.04l-.314-24.59Z" fill="#ffc1b0"/>
      <rect x="572.103" y="53.332" width="125.696" height="203.121" rx="14.177" ry="14.177" transform="translate(24.89 -79.587) rotate(7.315)" fill="#383838"/>
      <path d="M547.568,100.431H722.334a5.79,5.79,0,0,1,5.79,5.79v97.343a5.79,5.79,0,0,1-5.79,5.79H547.567a5.79,5.79,0,0,1-5.79-5.79V106.222a5.791,5.791,0,0,1,5.791-5.791Z" transform="translate(869.43 -455.168) rotate(97.315)" fill="#f3f5f9"/>
      <rect x="565.86" y="228.874" width="116.943" height="21.163" transform="translate(35.571 -77.546) rotate(7.315)" fill="#383838"/>
      <path d="M571.9,195.916s28.742,5.063,35.385,61.981-43.7,22.288-43.7,22.288L552.1,252.98Z" fill="#ffc1b0"/>
      <path d="M697.082,98.631,700.1,75.155a5.8,5.8,0,0,0-5.006-6.481L598.539,56.28a5.8,5.8,0,0,0-6.481,5.006l-3.013,23.476Z" fill="#d33d24"/>
      <g>
        <g>
          <rect x="637.655" y="68.151" width="6.484" height="6.484" rx="0.942" ry="0.942" transform="translate(14.307 -81.024) rotate(7.315)" fill="#fff"/>
          <rect x="647.046" y="69.357" width="6.484" height="6.484" rx="0.942" ry="0.942" transform="translate(14.537 -82.21) rotate(7.315)" fill="#fff"/>
        </g>
        <g>
          <rect x="636.508" y="77.085" width="6.484" height="6.484" rx="0.942" ry="0.942" transform="translate(15.435 -80.805) rotate(7.315)" fill="#fff"/>
          <rect x="645.9" y="78.291" width="6.484" height="6.484" rx="0.942" ry="0.942" transform="translate(15.665 -81.991) rotate(7.315)" fill="#fff"/>
        </g>
      </g>
      <path d="M568.746,248.761l4.779-37.228,5.7-11.176c-.107-.094-.208-.192-.316-.286l15.032-27.87a21.67,21.67,0,0,0-8.786-29.361l-2.776-1.5a3.06,3.06,0,0,0-4.145,1.241l-32.355,59.988a32.429,32.429,0,0,0-3.747,18.407s4.66,49.914,4.661,49.934c.274,4.822-9.077,15.245-11.456,19.639-3.46,6.39-6.954,13.416-7.614,20.779-1.428,15.918,7.566,33.324,16.5,45.931a20.6,20.6,0,0,0,5.99,6.158c4.7,2.766,10.877,1.779,15.544-1.044,19.742-11.942,24.937-39.605,35.131-58.511q.4-.742.851-1.456l.27-.427a24.78,24.78,0,0,1,12.232-9.886A76.352,76.352,0,0,0,640.4,274.867a81.32,81.32,0,0,0,12.227-15.338Z" fill="#ffc1b0"/>
    </g>
  </g>
  <g clip-path="url(#clip-path-3)">
    <g>
      <g>
        <path d="M79.392,167.256H4.742a16.76,16.76,0,0,1-16.673-18.465l8.925-87.264A16.76,16.76,0,0,1,13.667,46.472H71.129a16.76,16.76,0,0,1,16.685,15.18l8.263,87.264A16.759,16.759,0,0,1,79.392,167.256Z" fill="#d13828"/>
        <path d="M-11.931,265l9.968-67.262a5.411,5.411,0,0,1,5.383-4.861H81.453a5.411,5.411,0,0,1,5.387,4.9l9.237,67.347" fill="none" stroke="#383838" stroke-linecap="round" stroke-miterlimit="10" stroke-width="13.725"/>
        <rect x="-22.9" y="163.595" width="129.933" height="24.706" rx="7.475" ry="7.475" fill="#992317"/>
      </g>
      <g>
        <path d="M224.881,167.256h-74.65a16.76,16.76,0,0,1-16.673-18.465l8.925-87.264a16.76,16.76,0,0,1,16.673-15.055h57.462A16.76,16.76,0,0,1,233.3,61.652l8.263,87.264A16.759,16.759,0,0,1,224.881,167.256Z" fill="#d13828"/>
        <path d="M133.558,265l9.968-67.262a5.411,5.411,0,0,1,5.383-4.861h78.033a5.411,5.411,0,0,1,5.387,4.9l9.237,67.347" fill="none" stroke="#383838" stroke-linecap="round" stroke-miterlimit="10" stroke-width="13.725"/>
        <rect x="122.589" y="163.595" width="129.933" height="24.706" rx="7.475" ry="7.475" fill="#992317"/>
      </g>
      <g>
        <path d="M371.285,167.256h-74.65a16.76,16.76,0,0,1-16.673-18.465l8.925-87.264A16.76,16.76,0,0,1,305.56,46.472h57.462a16.76,16.76,0,0,1,16.685,15.18l8.263,87.264A16.759,16.759,0,0,1,371.285,167.256Z" fill="#d13828"/>
        <path d="M279.962,265l9.968-67.262a5.411,5.411,0,0,1,5.383-4.861h78.033a5.411,5.411,0,0,1,5.387,4.9l9.237,67.347" fill="none" stroke="#383838" stroke-linecap="round" stroke-miterlimit="10" stroke-width="13.725"/>
        <rect x="268.993" y="163.595" width="129.933" height="24.706" rx="7.475" ry="7.475" fill="#992317"/>
      </g>
    </g>
  </g>
  <g clip-path="url(#clip-path-4)">
    <g>
      <g>
        <g>
          <rect x="523.387" y="517.357" width="9.556" height="43.851" fill="#ededed"/>
          <g>
            <path d="M511.379,550.988h9.556a0,0,0,0,1,0,0v42.107a1.744,1.744,0,0,1-1.744,1.744h-6.068a1.744,1.744,0,0,1-1.744-1.744V550.988a0,0,0,0,1,0,0Z" transform="translate(556.29 -197.176) rotate(45)" fill="#ededed"/>
            <path d="M537.382,551.168h6.068a1.744,1.744,0,0,1,1.744,1.744v42.107a0,0,0,0,1,0,0h-9.556a0,0,0,0,1,0,0V552.912A1.744,1.744,0,0,1,537.382,551.168Z" transform="translate(1327.787 596.199) rotate(135)" fill="#ededed"/>
          </g>
          <circle cx="528.165" cy="518.526" r="11.395" fill="#ededed"/>
          <rect x="483.783" y="488.321" width="88.764" height="30.205" rx="6.828" ry="6.828" fill="#303030"/>
        </g>
        <g>
          <g>
            <rect x="604.352" y="496.846" width="9.556" height="64.802" fill="#ededed"/>
            <g>
              <path d="M592.345,550.988H601.9a0,0,0,0,1,0,0v42.107a1.744,1.744,0,0,1-1.744,1.744h-6.068a1.744,1.744,0,0,1-1.744-1.744V550.988a0,0,0,0,1,0,0Z" transform="translate(580.004 -254.427) rotate(45)" fill="#ededed"/>
              <path d="M618.348,551.168h6.068a1.744,1.744,0,0,1,1.744,1.744v42.107a0,0,0,0,1,0,0H616.6a0,0,0,0,1,0,0V552.912A1.744,1.744,0,0,1,618.348,551.168Z" transform="translate(1466.003 538.948) rotate(135)" fill="#ededed"/>
            </g>
            <circle cx="609.131" cy="498.015" r="11.395" fill="#b7b7b7"/>
          </g>
          <g>
            <rect x="554.751" y="448.759" width="102.292" height="50.142" transform="translate(-53.406 77.667) rotate(-7.026)" fill="#606060"/>
            <rect x="545.754" y="443.549" width="114.097" height="10.338" rx="5.169" ry="5.169" transform="translate(-50.358 77.1) rotate(-7.026)" fill="#ededed"/>
            <rect x="562.312" y="471.831" width="29.172" height="10.338" rx="5.169" ry="5.169" transform="translate(174.042 1107.909) rotate(-97.026)" fill="#303030"/>
            <rect x="591.262" y="468.263" width="29.172" height="10.338" rx="5.169" ry="5.169" transform="translate(210.074 1132.639) rotate(-97.026)" fill="#303030"/>
            <rect x="622.257" y="464.896" width="29.172" height="10.338" rx="5.169" ry="5.169" transform="translate(248.202 1159.622) rotate(-97.026)" fill="#303030"/>
            <rect x="551.845" y="492.976" width="114.097" height="10.338" rx="5.169" ry="5.169" transform="translate(-56.358 78.216) rotate(-7.026)" fill="#ededed"/>
            <rect x="545.991" y="447.412" width="50.936" height="10.338" rx="5.169" ry="5.169" transform="translate(-51.066 73.296) rotate(-7.026)" fill="#fff"/>
          </g>
        </g>
        <g>
          <circle cx="452.105" cy="452.864" r="11.395" fill="#ededed"/>
          <g>
            <line x1="452.605" y1="395.401" x2="452.605" y2="559.518" fill="none" stroke="#ededed" stroke-linecap="round" stroke-miterlimit="10" stroke-width="10.794"/>
            <g>
              <path d="M435.7,550.988h9.556a0,0,0,0,1,0,0v42.107a1.744,1.744,0,0,1-1.744,1.744h-6.068a1.744,1.744,0,0,1-1.744-1.744V550.988A0,0,0,0,1,435.7,550.988Z" transform="translate(534.123 -143.661) rotate(45)" fill="#ededed"/>
              <path d="M461.7,551.168h6.068a1.744,1.744,0,0,1,1.744,1.744v42.107a0,0,0,0,1,0,0h-9.556a0,0,0,0,1,0,0V552.912a1.744,1.744,0,0,1,1.744-1.744Z" transform="translate(1198.59 649.714) rotate(135)" fill="#ededed"/>
            </g>
            <path d="M447.746,416.171l-51.27,11.759a3,3,0,0,0,.67,5.919H508.065a3,3,0,0,0,.67-5.919l-51.27-11.759A21.753,21.753,0,0,0,447.746,416.171Z" fill="#fcc846"/>
            <path d="M457.465,451.644l51.27-11.758a3,3,0,0,0-.67-5.919H397.146a3,3,0,0,0-.67,5.919l51.27,11.758A21.724,21.724,0,0,0,457.465,451.644Z" fill="#f9974e"/>
          </g>
        </g>
        <g>
          <circle cx="686.159" cy="387.104" r="11.395" fill="#ededed"/>
          <line x1="686.159" y1="354.592" x2="686.159" y2="559.518" fill="none" stroke="#ededed" stroke-linecap="round" stroke-miterlimit="10" stroke-width="10.794"/>
          <g>
            <path d="M669.251,550.988h9.556a0,0,0,0,1,0,0v42.107a1.744,1.744,0,0,1-1.744,1.744H671a1.744,1.744,0,0,1-1.744-1.744V550.988A0,0,0,0,1,669.251,550.988Z" transform="translate(602.53 -308.808) rotate(45)" fill="#ededed"/>
            <path d="M695.254,551.168h6.068a1.744,1.744,0,0,1,1.744,1.744v42.107a0,0,0,0,1,0,0H693.51a0,0,0,0,1,0,0V552.912A1.744,1.744,0,0,1,695.254,551.168Z" transform="translate(1597.291 484.567) rotate(135)" fill="#ededed"/>
          </g>
          <path d="M678.967,366.1l-64.058,29.206a4.012,4.012,0,0,0,2.47,7.58l145.426-29.832a4.011,4.011,0,0,0-.713-7.94l-70.383-1.628A29.11,29.11,0,0,0,678.967,366.1Z" fill="#fcc846"/>
        </g>
      </g>
      <g>
        <path d="M388.115,510.375a21.836,21.836,0,0,0-28.97-32.679l-6.059,5.371a17.808,17.808,0,0,1-26.8-3.7,12.11,12.11,0,1,0-20.379,13.089l.477.743a18.418,18.418,0,0,1-2.357,22.616c-13.045,13.871-21.637,31.554-14.791,50.6,5.59,15.552,20.308,26.079,35.939,30,23.884,5.993,54.689-.639,64.317-25.9,5.317-13.952,1.629-29.783-4.8-42.747A14.592,14.592,0,0,1,388.115,510.375Z" fill="#606060"/>
        <rect x="325.839" y="509.67" width="37.692" height="13.108" rx="6.554" ry="6.554" transform="translate(73.121 -41.941) rotate(7.787)" fill="#fff"/>
        <rect x="319.195" y="562.54" width="37.692" height="4.545" rx="2.272" ry="2.272" transform="matrix(0.991, 0.135, -0.135, 0.991, 79.643, -40.593)" fill="#fff"/>
        <rect x="322.396" y="533.37" width="37.692" height="16.068" rx="4.448" ry="4.448" transform="translate(76.501 -41.242) rotate(7.787)" fill="#dfe8ef"/>
        <path d="M378.294,338.156l-18.176-2.486a5.363,5.363,0,0,0-6.04,4.587l-4.148,30.33a9.7,9.7,0,0,0,1.066,5.9l2.188,4.072a9.692,9.692,0,0,1,1.066,5.9L337.544,508.632l15.953,2.182,16.7-122.123a9.693,9.693,0,0,1,2.665-5.457l3.212-3.294a9.7,9.7,0,0,0,2.665-5.456l4.142-30.288A5.364,5.364,0,0,0,378.294,338.156Z" fill="#303030"/>
        <g>
          <rect x="380.722" y="368.636" width="4.696" height="7.044" rx="2.348" ry="2.348" transform="matrix(0.991, 0.135, -0.135, 0.991, 53.954, -48.469)" fill="#fff"/>
          <rect x="382.346" y="356.754" width="4.696" height="7.044" rx="2.348" ry="2.348" transform="translate(52.361 -48.8) rotate(7.787)" fill="#fff"/>
          <rect x="383.971" y="344.872" width="4.696" height="7.044" rx="2.348" ry="2.348" transform="translate(50.766 -49.129) rotate(7.787)" fill="#fff"/>
        </g>
        <g>
          <rect x="343.709" y="363.574" width="4.696" height="7.044" rx="2.348" ry="2.348" transform="translate(52.928 -43.501) rotate(7.787)" fill="#c1c1c1"/>
          <rect x="345.334" y="351.693" width="4.696" height="7.044" rx="2.348" ry="2.348" transform="translate(51.334 -43.832) rotate(7.787)" fill="#c1c1c1"/>
          <rect x="346.959" y="339.811" width="4.696" height="7.044" rx="2.348" ry="2.348" transform="translate(49.739 -44.161) rotate(7.787)" fill="#c1c1c1"/>
        </g>
      </g>
    </g>
  </g>
  <g clip-path="url(#clip-path-5)">
    <g>
      <g>
        <path d="M174.106,295.409a29.14,29.14,0,0,0-29.907,16.1h-4.028a15.036,15.036,0,0,0-15.037,15.036v10.313h18.942a29.136,29.136,0,1,0,30.03-41.447Z" fill="#606060"/>
        <path d="M42.086,481.137c.028.119.057.237.089.356a10.369,10.369,0,0,0,12.7,7.331c88.913-23.829,87.942-63.582,87.538-68.037l-20.652,1.871a2.673,2.673,0,0,1-.027-.431c0,.272-.811,27.426-72.227,46.566A10.37,10.37,0,0,0,42.086,481.137Z" fill="#eaafa9"/>
        <path d="M139.639,406.78h42.427a17.295,17.295,0,0,1,17.295,17.295v93.082a2.765,2.765,0,0,1-2.765,2.765H125.11a2.765,2.765,0,0,1-2.765-2.765V424.075A17.295,17.295,0,0,1,139.639,406.78Z" fill="#333"/>
        <g>
          <rect x="125.31" y="519.921" width="71.349" height="122.622" fill="#d8bf8b"/>
          <g>
            <path d="M125.425,541.295v-4.039a17.355,17.355,0,0,0,17.335-17.335H146.8A21.4,21.4,0,0,1,125.425,541.295Z" fill="#b59661"/>
            <path d="M196.544,541.295a21.4,21.4,0,0,1-21.374-21.374h4.039a17.355,17.355,0,0,0,17.335,17.335Z" fill="#b59661"/>
          </g>
          <rect x="158.965" y="543.423" width="4.039" height="99.12" fill="#b59661"/>
          <rect x="154.073" y="540.712" width="13.825" height="4.039" fill="#b59661"/>
        </g>
        <path d="M107.595,412.953h31.8a17.972,17.972,0,0,1,17.972,17.972v0A17.972,17.972,0,0,1,139.391,448.9h-31.8a2.765,2.765,0,0,1-2.765-2.765V415.718A2.765,2.765,0,0,1,107.595,412.953Z" transform="translate(-279.517 245.778) rotate(-48.808)" fill="#333"/>
        <path d="M167.389,412.953h31.8a17.972,17.972,0,0,1,17.972,17.972v0A17.972,17.972,0,0,1,199.185,448.9h-31.8a2.765,2.765,0,0,1-2.765-2.765V415.718A2.765,2.765,0,0,1,167.389,412.953Z" transform="translate(-7.668 858.371) rotate(-131.192)" fill="#333"/>
        <path d="M152.433,399.791H170.37a0,0,0,0,1,0,0v14.427a8.968,8.968,0,0,1-8.968,8.968h0a8.968,8.968,0,0,1-8.968-8.968V399.791A0,0,0,0,1,152.433,399.791Z" fill="#eaafa9"/>
        <path d="M150.416,402.964l-7.461,20.105a2.764,2.764,0,0,0,3.191,3.661l15.325-3.405Z" fill="#f2f2f2"/>
        <path d="M172.417,402.964l7.337,20.128a2.765,2.765,0,0,1-3.2,3.646L161.2,423.325Z" fill="#f2f2f2"/>
        <circle cx="198.976" cy="363.321" r="11.582" fill="#eaafa9"/>
        <circle cx="125.134" cy="363.321" r="11.582" fill="#eaafa9"/>
        <circle cx="161.554" cy="436.492" r="3.184" fill="#ffe9e9"/>
        <circle cx="161.554" cy="451.799" r="3.184" fill="#ffe9e9"/>
        <circle cx="161.554" cy="436.492" r="3.184" fill="#ffe9e9"/>
        <path d="M125.681,335.193v40.7a35.873,35.873,0,0,0,35.873,35.873h0a35.873,35.873,0,0,0,35.873-35.873v-40.7Z" fill="#ffc1b0"/>
        <circle cx="143.428" cy="359.977" r="3.639" fill="#303030"/>
        <circle cx="178.278" cy="359.977" r="3.639" fill="#303030"/>
        <path d="M138.005,353.436a1.761,1.761,0,0,1-1.651-2.37,8.717,8.717,0,0,1,11.2-5.157,1.76,1.76,0,1,1-1.221,3.3,5.2,5.2,0,0,0-6.676,3.074A1.76,1.76,0,0,1,138.005,353.436Z" fill="#606060"/>
        <path d="M184.879,353.436a1.762,1.762,0,0,1-1.651-1.15,5.2,5.2,0,0,0-6.677-3.075,1.76,1.76,0,1,1-1.22-3.3,8.729,8.729,0,0,1,11.2,5.157,1.76,1.76,0,0,1-1.651,2.37Z" fill="#606060"/>
        <path d="M181.111,377.3h0a2.411,2.411,0,0,0-2.424-2.4H145.229a2.411,2.411,0,0,0-2.424,2.4h0a2.411,2.411,0,0,1-2.424,2.4H125.134v1.927A35.961,35.961,0,0,0,161.281,417.4h0a35.961,35.961,0,0,0,36.146-35.772V379.7H183.535A2.411,2.411,0,0,1,181.111,377.3Z" fill="#606060"/>
        <g>
          <path d="M151.309,382.887H174.7a0,0,0,0,1,0,0v5.56a10.076,10.076,0,0,1-10.076,10.076H154.517a3.207,3.207,0,0,1-3.207-3.207V382.887A0,0,0,0,1,151.309,382.887Z" fill="#41352e"/>
          <rect x="150.839" y="382.77" width="24.331" height="6.021" fill="#e6e7e8"/>
          <path d="M173.383,393.472a6.6,6.6,0,0,0-11.335,4.592c0,.164.012.325.024.486h2.569A10.068,10.068,0,0,0,173.383,393.472Z" fill="#f76c66"/>
        </g>
        <path d="M166.172,372.492h-8.233a1.95,1.95,0,1,1,0-3.9h8.233a1.95,1.95,0,0,1,0,3.9Z" fill="#dd8783"/>
        <rect x="125.199" y="331.065" width="5.962" height="51.705" fill="#606060"/>
        <rect x="191.465" y="331.065" width="5.962" height="51.705" fill="#606060"/>
        <g>
          <line x1="213.656" y1="471.422" x2="213.656" y2="420.992" fill="none" stroke="#eaafa9" stroke-linecap="round" stroke-miterlimit="10" stroke-width="19.284"/>
          <rect x="200.534" y="399.467" width="26.48" height="26.48" rx="5.575" ry="5.575" fill="#eaafa9"/>
          <line x1="209.227" y1="407.345" x2="209.227" y2="391.588" fill="none" stroke="#eaafa9" stroke-linecap="round" stroke-miterlimit="10" stroke-width="9.642"/>
          <line x1="227.503" y1="404.276" x2="211.747" y2="404.276" fill="none" stroke="#fccac8" stroke-linecap="round" stroke-miterlimit="10" stroke-width="9.642"/>
          <line x1="227.503" y1="413.903" x2="211.747" y2="413.903" fill="none" stroke="#fccac8" stroke-linecap="round" stroke-miterlimit="10" stroke-width="9.642"/>
          <line x1="227.503" y1="423.555" x2="211.747" y2="423.555" fill="none" stroke="#fccac8" stroke-linecap="round" stroke-miterlimit="10" stroke-width="9.642"/>
          <line x1="213.656" y1="471.422" x2="213.656" y2="420.992" fill="none" stroke="#eaafa9" stroke-linecap="round" stroke-miterlimit="10" stroke-width="19.284"/>
          <rect x="200.534" y="399.467" width="26.48" height="26.48" rx="5.575" ry="5.575" fill="#eaafa9"/>
          <line x1="209.227" y1="407.345" x2="209.227" y2="391.588" fill="none" stroke="#eaafa9" stroke-linecap="round" stroke-miterlimit="10" stroke-width="9.642"/>
          <line x1="227.503" y1="404.276" x2="211.747" y2="404.276" fill="none" stroke="#fccac8" stroke-linecap="round" stroke-miterlimit="10" stroke-width="9.642"/>
          <line x1="227.503" y1="413.903" x2="211.747" y2="413.903" fill="none" stroke="#fccac8" stroke-linecap="round" stroke-miterlimit="10" stroke-width="9.642"/>
          <line x1="227.503" y1="423.555" x2="211.747" y2="423.555" fill="none" stroke="#fccac8" stroke-linecap="round" stroke-miterlimit="10" stroke-width="9.642"/>
        </g>
        <g>
          <rect x="15.411" y="423.727" width="42.862" height="62.512" rx="5.227" ry="5.227" transform="translate(168.291 892.12) rotate(167.893)" fill="#303030"/>
          <rect x="20.988" y="435.647" width="31.71" height="38.674" transform="translate(168.291 892.12) rotate(167.893)" fill="#fff"/>
          <rect x="17.938" y="435.97" width="31.71" height="9.59" transform="translate(159.277 864.64) rotate(167.893)" fill="#d33d24"/>
          <circle cx="42.208" cy="479.996" r="2.133" fill="#161616"/>
        </g>
        <path d="M53.688,461.339a4.129,4.129,0,0,0,1.45,2.3l7.372,5.9a4.147,4.147,0,1,0,5.18-6.478l-7.372-5.9a4.147,4.147,0,0,0-6.63,4.176Z" fill="#eaafa9"/>
        <g>
          <rect x="29.669" y="437.841" width="2.437" height="2.437" rx="0.31" ry="0.31" transform="translate(-94.398 17.123) rotate(-12.514)" fill="#fff"/>
          <rect x="33.125" y="437.074" width="2.437" height="2.437" rx="0.31" ry="0.31" transform="translate(-94.15 17.853) rotate(-12.514)" fill="#fff"/>
          <rect x="30.433" y="441.286" width="2.437" height="2.437" rx="0.31" ry="0.31" transform="translate(-95.126 17.37) rotate(-12.514)" fill="#fff"/>
          <rect x="33.89" y="440.519" width="2.437" height="2.437" rx="0.31" ry="0.31" transform="translate(-94.878 18.101) rotate(-12.514)" fill="#fff"/>
        </g>
      </g>
      <g>
        <circle cx="38.362" cy="458.721" r="8.562" fill="#75d353"/>
        <path d="M38.325,462.625a1.331,1.331,0,0,1-1.015-.143l-2.742-1.619a1.223,1.223,0,0,1,1.243-2.107l1.789,1.056,2.523-4.274a1.223,1.223,0,0,1,2.106,1.244l-3.086,5.227A1.326,1.326,0,0,1,38.325,462.625Z" fill="#fff"/>
      </g>
    </g>
  </g>
  <g>
    <circle cx="634.643" cy="153.395" r="38.071" fill="#ddd"/>
    <g>
      <path d="M642.4,160.184l-17.059-2.338a3.866,3.866,0,0,1-3.232-4.741l4.772-19.662a3.866,3.866,0,0,1,4.281-2.919l13.132,1.8a3.865,3.865,0,0,1,3.337,3.991l-.844,20.2A3.866,3.866,0,0,1,642.4,160.184Z" fill="#d13828"/>
      <path d="M621.339,173.941,625,161.378a1.042,1.042,0,0,1,1.154-.786l14.877,2.038a1.041,1.041,0,0,1,.9,1.075l0,13.082" fill="none" stroke="#383838" stroke-linecap="round" stroke-miterlimit="10" stroke-width="4.138"/>
      <rect x="618.615" y="158.152" width="29.97" height="5.698" rx="1.724" ry="1.724" transform="matrix(0.991, 0.136, -0.136, 0.991, 27.722, -84.522)" fill="#992317"/>
    </g>
  </g>
  <g>
    <circle cx="626.726" cy="210.639" r="10.832" fill="#75d353"/>
    <path d="M624.625,215.109a1.678,1.678,0,0,1-1.091-.7l-2.3-3.306a1.548,1.548,0,0,1,2.541-1.768l1.5,2.157,5.155-3.585a1.547,1.547,0,0,1,1.767,2.54l-6.305,4.385A1.678,1.678,0,0,1,624.625,215.109Z" fill="#fff"/>
  </g>
</svg>
